<?xml version="1.0" encoding="utf-8"?>
<svg version="1.1" xmlns="http://www.w3.org/2000/svg" xmlns:xlink="http://www.w3.org/1999/xlink" x="0px" y="0px"
	 viewBox="0 0 1000 1000" style="enable-background:new 0 0 1000 1000;" xml:space="preserve">
<style type="text/css">
	.st0{fill:#D9D9D9;}
	.st1{fill:#4352B8;}
	.st2{fill:#617D8B;}
	.st3{fill:#4F8BF5;}
	.st4{fill:#FFFFFF;}
	.st5{opacity:0.2;fill:#FFFFFF;}
</style>
<path class="st0" d="M933.6,998.5c36.5,0,66.4-29.4,66.4-65.4V266c0-36-29.9-65.4-66.4-65.4H285.5l260.1,797.9H933.6z"/>
<polygon class="st1" points="716.3,810 546.8,998.5 485.1,810 "/>
<path class="st2" d="M937,477v-39H749v-63h-61v63H568v39h238.8c-12.8,45-41,87.5-68.5,120.5c-48.8-57.7-49-76.5-49-76.5h-50.7
	c0,0,2.1,28.1,70.5,108.3C686.9,652,670,665.5,670,665.5l15.6,48.7c0,0,23.5-20.2,53-51.5c29.5,32,67.6,70.5,116.9,116.4l32-32
	c-52.8-47.9-91.5-85.9-119.9-116.4c38.1-45.1,76.8-101.8,85-153.8H937z"/>
<path class="st3" d="M68.3,0.2C31.8,0.2,1.9,30.1,1.9,66.7v677c0,36.5,29.9,66.4,66.4,66.4h648.1L456.3,0.2H68.3z"/>
<path class="st4" d="M423.9,377.5h-17.3h-56.8H282v58.8h81.7c-7.6,37.4-39.5,58.8-81.7,58.8c-49.8,0-90-40.2-90-90s40.2-90,90-90
	c21.5,0,40.8,7.6,56.1,20.1l44.3-44.3c-27-23.5-61.6-38.1-100.4-38.1c-84.5,0-152.3,67.8-152.3,152.3S197.6,557.5,282,557.5
	c76.2,0,145.4-55.4,145.4-152.3C427.4,396.2,426,386.5,423.9,377.5z"/>
<path class="st5" d="M536.2,200.6h397.4c36.5,0,66.4,29.4,66.4,65.4v400.2L536.2,200.6z"/>
</svg>
