<svg version="1.1" xmlns="http://www.w3.org/2000/svg" viewBox="0 0 98 30" width="98" height="30">
    <path fill="#2932E1" d="M42.09,8.16c-0.98-0.74-1.5-1.77-1.58-3.12c-0.07-1.22,0.15-2.29,0.66-3.21c0.8-1.42,2-2,3.62-1.74
		c0.55,0.09,1.03,0.37,1.44,0.85c0.64,0.76,1.01,1.6,1.1,2.54c0.08,0.74,0.07,1.46,0,2.15c-0.09,0.82-0.41,1.58-0.96,2.26
		c-0.35,0.43-0.79,0.72-1.32,0.85C43.95,9.02,42.97,8.82,42.09,8.16z"/>
    <path fill="#2932E1" d="M51.05,8.37C50.46,8,50.04,7.41,49.79,6.61c-0.48-1.54-0.44-3,0.11-4.4c0.29-0.74,0.71-1.3,1.25-1.68
		c0.67-0.47,1.4-0.63,2.19-0.48c0.95,0.18,1.72,0.72,2.3,1.62c0.57,0.88,0.84,1.92,0.81,3.12c-0.04,1.35-0.5,2.42-1.39,3.19
		c-0.56,0.49-1.18,0.78-1.87,0.87C52.43,8.96,51.72,8.8,51.05,8.37z"/>
    <path fill="#2932E1" d="M39.25,7.8c0.74,0.53,1.25,1.25,1.54,2.17c0.41,1.3,0.39,2.55-0.06,3.75c-0.27,0.71-0.64,1.24-1.13,1.6
		c-0.57,0.42-1.23,0.61-2,0.58c-0.68-0.03-1.29-0.23-1.82-0.6c-0.48-0.33-0.87-0.8-1.18-1.42c-0.66-1.31-0.71-2.72-0.16-4.22
		c0.23-0.62,0.57-1.14,1.03-1.56c0.48-0.44,1.01-0.71,1.61-0.82C37.85,7.14,38.57,7.31,39.25,7.8z"/>
    <path fill="#2932E1" d="M61.16,7.92c1.31,1.1,1.84,2.57,1.59,4.42c-0.26,1.92-1.21,3.07-2.85,3.44c-0.86,0.19-1.62,0.11-2.28-0.25
		c-0.74-0.4-1.24-1.06-1.51-1.98c-0.39-1.3-0.36-2.56,0.09-3.79c0.22-0.6,0.55-1.13,1-1.58c0.46-0.46,0.99-0.75,1.57-0.88
		C59.65,7.11,60.45,7.32,61.16,7.92z"/>
    <path fill="#2932E1" d="M58.94,19.87c1.32,1.14,2.03,2.51,2.13,4.11c0.08,1.19-0.16,2.29-0.71,3.31c-0.6,1.11-1.51,1.89-2.72,2.33
		c-0.75,0.28-1.72,0.39-2.93,0.36c-1.15-0.04-2.14-0.16-2.97-0.38c-2.12-0.56-4.11-0.61-5.98-0.15c-1.86,0.46-3.53,0.63-5.02,0.53
		c-1.32-0.09-2.43-0.6-3.33-1.52c-0.58-0.59-1-1.28-1.28-2.07c-0.28-0.81-0.38-1.64-0.31-2.48c0.08-0.95,0.42-1.86,1.03-2.74
		c0.57-0.82,1.27-1.54,2.11-2.15c1.8-1.3,3.37-2.84,4.68-4.61c0.8-1.07,1.35-1.73,1.67-1.99c0.94-0.75,2.03-1.11,3.25-1.08
		c0.9,0.03,1.73,0.27,2.49,0.72c0.77,0.46,1.41,1.09,1.92,1.87c0.23,0.35,0.35,0.53,0.35,0.55c0.85,1.22,1.73,2.2,2.65,2.93
		C56.98,18.2,57.97,19.03,58.94,19.87z M40.86,26.29c0.6,0.53,1.31,0.83,2.12,0.89c1.43,0.11,2.82,0.13,4.19,0.07
		c0.12-0.01,0.22-0.11,0.22-0.23l-0.02-10.56c0-0.08-0.05-0.14-0.12-0.14l-1.87-0.05c-0.09,0-0.16,0.08-0.16,0.17l-0.02,2.93
		c0,0.11-0.1,0.21-0.22,0.21c-0.42,0-0.86,0-1.29,0c-0.53,0-0.96,0.04-1.28,0.13c-1.7,0.44-2.62,1.61-2.76,3.5
		C39.55,24.46,39.95,25.48,40.86,26.29z M53.77,25.19c-0.44,0.01-0.87,0.02-1.31,0.01c-0.01,0-0.18,0.01-0.49,0.03
		c-0.61,0.04-0.91-0.28-0.91-0.93c0.01-1.95-0.01-3.5-0.04-4.67c0-0.06-0.06-0.12-0.13-0.12h-1.72c-0.07,0-0.13,0.05-0.13,0.12
		c-0.07,1.76-0.07,3.51,0,5.27c0.02,0.5,0.09,0.89,0.23,1.16c0.2,0.39,0.49,0.68,0.87,0.88c0.32,0.16,0.86,0.26,1.64,0.28
		c1.27,0.04,2.6,0.05,3.98,0.02c0.1,0,0.18-0.08,0.18-0.19c0,0,0,0,0,0l-0.04-7.43c0-0.07-0.06-0.13-0.12-0.13c0,0,0,0,0,0h-1.72
		c-0.07,0-0.13,0.06-0.13,0.13c0,0,0,0,0,0l-0.06,5.43C53.89,25.13,53.84,25.19,53.77,25.19z"/>
    <path fill="#E10602" d="M0,29.17V13.42c3.67-0.13,6.68-0.1,9.05,0.07c0.75,0.06,1.5,0.28,2.26,0.67c0.76,0.4,1.35,0.89,1.75,1.49
		c0.69,1.03,0.88,2.22,0.57,3.58c-0.19,0.82-0.71,1.48-1.56,1.99c-0.04,0.02-0.05,0.07-0.03,0.1c0.01,0.01,0.02,0.02,0.03,0.03
		c1.65,1,2.39,2.39,2.21,4.15c-0.16,1.53-0.95,2.58-2.37,3.15c-0.74,0.29-1.51,0.46-2.31,0.49C6.4,29.28,3.2,29.29,0,29.17z
		 M3.55,16.6l-0.01,3c0,0.07,0.06,0.12,0.13,0.13c1.52,0.07,3.05,0.07,4.57,0.01c0.57-0.02,0.99-0.11,1.23-0.26
		c0.42-0.25,0.64-0.66,0.67-1.21c0.04-0.67-0.18-1.15-0.66-1.44c-0.27-0.16-0.73-0.26-1.38-0.28c-1.5-0.05-2.99-0.06-4.47-0.02
		C3.58,16.53,3.55,16.56,3.55,16.6z M3.56,26.21c0,0.07,0.06,0.12,0.13,0.12c0,0,0,0,0,0c1.33-0.05,2.67-0.06,4.04-0.02
		c0.71,0.02,1.21-0.03,1.51-0.15c0.84-0.34,1.22-0.9,1.13-1.67c-0.06-0.46-0.25-0.83-0.57-1.12c-0.34-0.29-0.77-0.44-1.28-0.45
		c-1.61-0.02-3.2-0.02-4.78-0.02c-0.13,0-0.23,0.1-0.23,0.22c0,0,0,0,0,0L3.56,26.21z"/>
    <path fill="#E10602" d="M28.81,13.49l3.11,0.01c0.07,0,0.14,0.06,0.13,0.14l0,2.63c0,0.07-0.06,0.14-0.14,0.13l-3.11-0.01
		c-0.07,0-0.14-0.06-0.13-0.14l0-2.63C28.68,13.55,28.74,13.49,28.81,13.49z"/>
    <path fill="#E10602" d="M25.84,18.5c0.48,0.35,0.81,0.78,1.01,1.29c0.12,0.31,0.19,0.83,0.21,1.56c0.05,2.46,0.06,4.97,0.04,7.53
		c0,0.14-0.11,0.25-0.25,0.25l0,0c-2.73,0-5.4,0-8.02-0.01c-2.68-0.01-3.9-1.33-3.68-3.97c0.1-1.18,0.61-2.01,1.54-2.5
		c0.49-0.26,1.3-0.4,2.42-0.43c1.51-0.03,3.02-0.05,4.54-0.04c0.07,0,0.13-0.05,0.14-0.12c0.22-1.35-0.39-2.01-1.82-1.98
		c-1.63,0.04-3.56,0.02-5.8-0.06c-0.07,0-0.13-0.06-0.14-0.13l-0.03-2c0-0.13,0.11-0.24,0.25-0.24c0,0,0,0,0,0c2.42,0,4.74,0,6.98,0
		C24.2,17.66,25.07,17.94,25.84,18.5z M19.39,26.79c1.42,0.15,2.84,0.17,4.27,0.06c0.07-0.01,0.13-0.06,0.14-0.13
		c0.11-0.73,0.09-1.46-0.05-2.18c-0.01-0.07-0.07-0.12-0.14-0.12c-1.12,0-2.24,0-3.36,0c-0.01,0-0.18-0.01-0.52-0.03
		c-0.61-0.03-1.04,0.18-1.29,0.65c-0.27,0.5-0.25,0.94,0.07,1.34C18.68,26.6,18.98,26.74,19.39,26.79z"/>
    <path fill="#E10602" d="M28.79,17.66h3.15c0.06,0,0.12,0.05,0.12,0.12v11.17c0,0.06-0.05,0.12-0.12,0.12h-3.15
		c-0.06,0-0.12-0.05-0.12-0.12V17.77C28.67,17.71,28.73,17.66,28.79,17.66z"/>
    <path fill="#2932E1" d="M41.98,24.28c-0.4-0.61-0.38-1.24,0.06-1.89c0.26-0.38,0.63-0.62,1.11-0.72c0.57-0.12,1.2-0.14,1.9-0.06
		c0.09,0.01,0.16,0.09,0.16,0.18l-0.01,3.21c0,0.07-0.05,0.13-0.12,0.14c-0.59,0.12-1.17,0.12-1.73,0.01
		C42.74,25.04,42.28,24.74,41.98,24.28z"/>
    <path fill="#E10602" d="M65.74,14.18h5.36c0.18,0,0.32-0.04,0.41-0.14l0.07-0.48h1.97l-0.2,1.63c-0.14,0.54-0.59,0.84-1.36,0.88
			h-1.22v0.95h0.61v-0.61h1.9v0.61h0.34v2.04h-2.85v0.34h1.7l0.14,0.48l0.07,0.14c0.04,0.18,0.11,0.27,0.2,0.27h0.48
			c0.14,0,0.23-0.16,0.27-0.48c0.04-0.09,0.07-0.16,0.07-0.2l0.34-3.12h1.15v-0.61h-1.43v-2.11h3.53v6.18
			c0.14,0,0.23-0.11,0.27-0.34l0.41-3.12h1.02v-0.68h-1.22v-1.97h3.33v13.17c0,1.36-0.61,2.04-1.83,2.04h-1.7v-1.83h1.02
			c0.32,0,0.45-0.11,0.41-0.34v-3.87l-0.41,2.58c-0.09,0.59-0.34,0.91-0.75,0.95h-0.48v0.61c-0.05,1.18-0.59,1.79-1.63,1.83h-2.11
			v-1.77h1.09c0.36-0.04,0.57-0.23,0.61-0.54v-3.53l-0.34,2.78c-0.09,0.36-0.34,0.57-0.75,0.61h-0.75v0.54
			c-0.05,1.31-0.54,1.99-1.49,2.04h-6.38v-6.93h2.85v-1.83h-0.48l-0.34,0.81c-0.18,0.45-0.48,0.68-0.88,0.68h-1.15v-1.36h0.48
			c0.14,0.05,0.29-0.14,0.48-0.54l0.2-0.61h1.7V19h-2.78v-1.97h0.2v-0.54h1.9v0.54h0.68v-0.88h-2.72V14.18z M67.71,24.77h0.75v-0.68
			h-0.75V24.77z M68.46,27.22v-0.68h-0.75v0.68H68.46z M75.25,21.92v-3.53l-0.34,2.72c-0.14,0.45-0.36,0.68-0.68,0.68h-1.77
			c-0.41,0-0.7-0.18-0.88-0.54l-0.27-0.88h-0.54v1.83h2.72v2.31c0.14,0.05,0.2-0.02,0.2-0.2l0.27-2.38H75.25z M70.77,24.77h0.61
			v-0.68h-0.61V24.77z M70.77,27.22h0.34c0.18,0,0.27-0.11,0.27-0.34v-0.34h-0.61V27.22z M77.36,21.72v2.78
			c0.18-0.04,0.29-0.2,0.34-0.48l0.27-2.11h1.02v-2.99l-0.34,2.17c-0.05,0.36-0.27,0.57-0.68,0.61H77.36z"/>
    <path fill="#E10602" d="M82.72,21.24v-2.11h3.46v7.88c-0.05,0.32,0.11,0.45,0.48,0.41h0.68v1.83h-2.31
			c-0.72,0-1.09-0.39-1.09-1.15v-6.86H82.72z M82.86,13.77h3.94v2.17h-3.94V13.77z M91.62,22.94v-0.95h2.44v0.95h3.87v1.83h-3.87
			v1.49h3.87v1.77h-3.87v1.22h-2.44v-1.22h-3.87v-1.77h3.87v-1.49h-3.8v-1.83H91.62z M87.81,13.77h10.12v2.04l-3.19,3.12l0.88,0.68
			c0.23,0.18,0.63,0.27,1.22,0.27H98v1.83h-2.31c-0.54,0-1.04-0.16-1.49-0.48l-1.09-0.81L92.3,21.1c-0.59,0.41-1.13,0.61-1.63,0.61
			h-2.78v-1.83h1.9c0.41,0,0.7-0.11,0.88-0.34l0.61-0.48l-3.12-2.65h3.19l1.56,1.29l2.04-1.9h-7.13V13.77z"/>
</svg>
