<svg xmlns="http://www.w3.org/2000/svg" width="193" height="30" viewBox="0 0 193 30">
    <rect fill="#F26522" x="0" y="0" width="14" height="14"/>
    <rect fill="#00AEEF" x="0" y="16" width="14" height="14"/>
    <rect fill="#8DC63F" x="16" y="0" width="14" height="14"/>
    <rect fill="#FFC20E" x="16" y="16" width="14" height="14"/>
    <path fill="#FFFFFF" d="M58.182,5.962v17.911h-3.1V9.837H55.02l-5.537,14.036h-2.062
	L41.709,9.837h-0.037v14.036h-2.875V5.962h4.462l5.137,13.274h0.075l5.437-13.274H58.182z M60.782,7.337
	c0-0.5,0.187-0.925,0.55-1.262c0.362-0.337,0.787-0.5,1.287-0.5c0.477-0.013,0.941,0.163,1.288,0.492
	c0.347,0.328,0.549,0.781,0.562,1.258c0,0.5-0.175,0.912-0.537,1.25c-0.35,0.325-0.8,0.5-1.312,0.5c-0.512,0-0.95-0.175-1.3-0.512
	c-0.362-0.337-0.537-0.75-0.537-1.237V7.337z M64.119,11.036v12.836h-3.025V11.036H64.119z M73.293,21.673
	c0.437,0,0.937-0.1,1.475-0.3c0.55-0.212,1.05-0.487,1.5-0.825v2.8c-0.475,0.275-1.025,0.5-1.625,0.625
	c-0.665,0.147-1.344,0.218-2.025,0.212c-1.723,0.072-3.398-0.576-4.625-1.787c-1.183-1.222-1.815-2.875-1.75-4.575
	c0-2.062,0.6-3.762,1.812-5.1c1.2-1.337,2.912-2,5.125-2c1.075,0.001,2.136,0.249,3.1,0.725v2.887
	c-0.439-0.323-0.918-0.588-1.425-0.787c-0.478-0.188-0.986-0.285-1.5-0.287c-1.187,0-2.15,0.387-2.875,1.162
	c-0.725,0.775-1.112,1.825-1.112,3.137c0,1.3,0.362,2.312,1.062,3.037s1.662,1.075,2.875,1.075H73.293z M84.88,10.824
	c0.387-0.011,0.772,0.048,1.137,0.175v3.062c-0.537-0.342-1.164-0.516-1.8-0.5c-0.75,0-1.375,0.325-1.875,0.95
	c-0.5,0.625-0.775,1.587-0.775,2.875v6.499h-3.025V11.024h3.025v2.025h0.05c0.275-0.7,0.7-1.25,1.25-1.637
	c0.562-0.4,1.225-0.6,2-0.6L84.88,10.824z M86.18,17.648c0-2.125,0.6-3.812,1.8-5.05s2.875-1.862,5-1.862c2,0,3.562,0.6,4.7,1.787
	c1.137,1.187,1.687,2.812,1.687,4.85c0,2.075-0.6,3.737-1.8,4.962c-1.303,1.274-3.08,1.945-4.9,1.85
	c-1.987,0-3.562-0.587-4.737-1.75C86.715,21.147,86.082,19.416,86.18,17.648z M89.329,17.548c0,1.337,0.3,2.362,0.912,3.075
	c0.612,0.712,1.475,1.05,2.612,1.05c1.087,0,1.925-0.35,2.5-1.05c0.575-0.7,0.875-1.762,0.875-3.15c0-1.375-0.3-2.425-0.9-3.125
	c-0.625-0.72-1.547-1.112-2.5-1.062c-1.112,0-1.962,0.375-2.575,1.1C89.629,15.136,89.329,16.186,89.329,17.548z M103.866,14.411
	c0,0.437,0.125,0.775,0.412,1.025c0.275,0.25,0.875,0.55,1.825,0.925c1.2,0.487,2.05,1.025,2.537,1.625
	c0.487,0.612,0.725,1.337,0.725,2.2c0,1.2-0.462,2.175-1.387,2.912c-0.925,0.737-2.187,1.1-3.762,1.1
	c-1.172-0.01-2.331-0.248-3.412-0.7v-2.962c0.55,0.375,1.137,0.687,1.775,0.912c0.625,0.225,1.212,0.337,1.725,0.337
	c0.687,0,1.187-0.1,1.512-0.287c0.325-0.2,0.487-0.512,0.487-0.962c0-0.425-0.175-0.775-0.5-1.062c-0.35-0.287-0.987-0.625-1.925-1
	c-1.112-0.462-1.9-0.987-2.375-1.575c-0.475-0.587-0.7-1.312-0.7-2.212c0-1.162,0.462-2.125,1.375-2.862
	c0.937-0.75,2.125-1.125,3.587-1.125c0.995,0.018,1.979,0.204,2.912,0.55v2.875c-0.4-0.275-0.875-0.5-1.4-0.7
	c-0.508-0.187-1.046-0.284-1.587-0.287c-0.575,0-1.025,0.125-1.337,0.337c-0.32,0.203-0.51,0.559-0.5,0.937H103.866z
	 M110.665,17.648c0-2.125,0.6-3.812,1.8-5.05c1.332-1.294,3.146-1.97,5-1.862c2,0,3.575,0.6,4.7,1.787
	c1.125,1.187,1.687,2.812,1.687,4.85c0,2.075-0.6,3.737-1.8,4.962c-1.3,1.271-3.071,1.941-4.887,1.85c-2,0-3.575-0.587-4.75-1.75
	C111.2,21.147,110.568,19.416,110.665,17.648z M113.815,17.548c0,1.337,0.3,2.362,0.912,3.075s1.475,1.05,2.625,1.05
	c1.087,0,1.925-0.35,2.5-1.05s0.875-1.762,0.875-3.15c0-1.375-0.312-2.425-0.9-3.125c-0.625-0.72-1.547-1.112-2.5-1.062
	c-1.112,0-1.975,0.375-2.587,1.1C114.064,15.296,113.736,16.418,113.815,17.548z M133.888,13.511h-4.5v10.374h-3.062V13.511h-2.15
	v-2.475h2.15V9.249c-0.048-1.25,0.434-2.463,1.326-3.341c0.892-0.878,2.112-1.339,3.362-1.271c0.375,0,0.7,0.025,0.975,0.062
	c0.287,0.037,0.537,0.1,0.75,0.175v2.612c-0.425-0.22-0.896-0.335-1.375-0.337c-0.637,0-1.125,0.2-1.475,0.587
	c-0.337,0.4-0.5,0.975-0.5,1.75v1.562h4.5V8.162l3.025-0.925v3.812h3.075v2.462h-3.062v5.999c0,0.8,0.15,1.362,0.437,1.687
	c0.287,0.325,0.737,0.487,1.35,0.487c0.452-0.041,0.888-0.187,1.275-0.425v2.5c-0.187,0.112-0.5,0.212-0.95,0.3
	c-0.45,0.087-0.875,0.125-1.325,0.125c-1.262,0-2.225-0.325-2.862-1c-0.625-0.687-0.95-1.7-0.95-3.075v-6.599H133.888z"/>
    <path fill="#FFFFFF" d="M146.862,24.048V6.337h5.624c1.712,0,3.075,0.375,4.075,1.125
	s1.5,1.725,1.5,2.925c0,1-0.287,1.875-0.85,2.625c-0.602,0.761-1.428,1.312-2.362,1.575v0.05c1.225,0.137,2.187,0.587,2.912,1.362
	c0.737,0.75,1.1,1.75,1.1,2.962c0,1.512-0.6,2.75-1.787,3.675s-2.7,1.412-4.525,1.412H146.862z M149.799,8.699v5.037h1.9
	c1.025,0,1.825-0.25,2.4-0.712c0.587-0.5,0.875-1.175,0.875-2.05c0-1.525-1.012-2.275-3.037-2.275H149.799z M149.799,16.099v5.599
	h2.5c1.1,0,1.95-0.25,2.537-0.75c0.6-0.512,0.9-1.212,0.9-2.1c0-1.837-1.262-2.75-3.812-2.75H149.799z M162.448,8.749
	c-0.462,0-0.875-0.162-1.2-0.462c-0.337-0.3-0.5-0.687-0.5-1.162s0.162-0.862,0.5-1.175s0.737-0.462,1.212-0.462
	c0.475,0,0.887,0.15,1.225,0.462c0.337,0.312,0.5,0.712,0.5,1.175c0,0.45-0.162,0.825-0.5,1.15
	C163.348,8.587,162.935,8.749,162.448,8.749z M163.873,24.048h-2.862V11.399h2.875L163.873,24.048z M178.059,24.048h-2.862v-7.124
	c0-2.375-0.837-3.55-2.5-3.55c-0.875,0-1.6,0.337-2.175,1c-0.579,0.687-0.881,1.565-0.85,2.462v7.212h-2.875V11.399h2.875v2.1h0.05
	c0.799-1.515,2.388-2.445,4.1-2.4c1.375,0,2.425,0.45,3.15,1.35c0.725,0.887,1.087,2.175,1.087,3.875V24.048z M192.245,23.035
	c0,4.637-2.325,6.962-6.999,6.962c-1.48,0.034-2.95-0.247-4.312-0.825v-2.625c1.375,0.8,2.7,1.187,3.937,1.187
	c3,0,4.512-1.475,4.512-4.437v-1.375h-0.05c-0.848,1.554-2.506,2.49-4.275,2.412c-1.433,0.046-2.808-0.572-3.725-1.675
	c-0.996-1.296-1.497-2.905-1.412-4.537c0-2.15,0.5-3.85,1.525-5.125c1.025-1.275,2.4-1.9,4.175-1.9c1.662,0,2.9,0.687,3.712,2.05
	h0.05v-1.75h2.875L192.245,23.035z M189.408,18.261v-1.65c0-0.887-0.3-1.65-0.887-2.275c-0.56-0.622-1.363-0.969-2.2-0.95
	c-1.087,0-1.937,0.412-2.55,1.212c-0.67,0.988-0.995,2.17-0.925,3.362c0,1.25,0.3,2.237,0.875,2.987
	c0.6,0.75,1.375,1.112,2.35,1.112c1,0,1.8-0.362,2.412-1.062c0.625-0.725,0.925-1.625,0.925-2.75V18.261z"/>
</svg>
