<svg xmlns="http://www.w3.org/2000/svg" width="86" height="30" viewBox="0 0 86 30">
    <path fill="#ffffff" d="M0,7.67V19.59a1.71,1.71,0,0,0,.86,1.49L11.1,27l.08,0,5,2.93V25.53a.84.84,0,0,1,.36-.7l.34-.19.15-.08,6-3.48a1.7,1.7,0,0,0,.85-1.49V7.67a1.7,1.7,0,0,0-.85-1.49L12.8.23a1.69,1.69,0,0,0-1.71,0L.86,6.2A1.69,1.69,0,0,0,0,7.67Z"/>
    <path fill="#0f2b46" d="M7.82,8.21a1.76,1.76,0,0,1,2.46,0A1.8,1.8,0,0,1,10.76,10l4.72,2.74h0a1.78,1.78,0,1,1-.46.72h0l-4.68-2.71-.06.06A1.78,1.78,0,0,1,7.82,8.21Zm2.95,10.07,4.6-2.66-.86-.48-4.14,2.39a1.76,1.76,0,0,0-2.48-.15l-.06.06A1.78,1.78,0,1,0,10.27,20,1.76,1.76,0,0,0,10.77,18.28Z"/>
    <path fill="#CED0D6" d="M34.71,9.43h4.68a6.63,6.63,0,0,1,3,.67A4.86,4.86,0,0,1,44.49,12a5.17,5.17,0,0,1,.74,2.79,5,5,0,0,1-2.8,4.69,6.8,6.8,0,0,1-3,.66H34.71Zm4.59,9A4.53,4.53,0,0,0,41.35,18a3.22,3.22,0,0,0,1.38-1.28,3.79,3.79,0,0,0,.49-1.95,3.66,3.66,0,0,0-.49-1.92,3.11,3.11,0,0,0-1.37-1.29,4.42,4.42,0,0,0-2-.45H36.7v7.33h2.6Zm15.54-2.35,0,.57H48.4a2.29,2.29,0,0,0,.86,1.44A3,3,0,0,0,51,18.6a3,3,0,0,0,2.22-.88l1,1.17a3.63,3.63,0,0,1-1.4,1,5.17,5.17,0,0,1-1.89.34,5,5,0,0,1-2.38-.54A3.91,3.91,0,0,1,46.48,16,4.31,4.31,0,0,1,47,13.9a3.91,3.91,0,0,1,1.52-1.5,4.51,4.51,0,0,1,2.16-.53,4.18,4.18,0,0,1,2.13.53,3.7,3.7,0,0,1,1.47,1.49A4.36,4.36,0,0,1,54.84,16.08ZM50.7,13.4a2.26,2.26,0,0,0-2.32,2H53A2.23,2.23,0,0,0,52.26,14,2.28,2.28,0,0,0,50.7,13.4Zm13.64,2.68q0,.21,0,.57H57.9a2.32,2.32,0,0,0,.88,1.44,3.26,3.26,0,0,0,4-.37l1,1.17a3.53,3.53,0,0,1-1.39,1,5.19,5.19,0,0,1-1.9.34,5.08,5.08,0,0,1-2.36-.54A3.92,3.92,0,0,1,56,16a4.31,4.31,0,0,1,.54-2.14A4,4,0,0,1,58,12.4a4.55,4.55,0,0,1,2.17-.53,4.16,4.16,0,0,1,2.13.53,3.64,3.64,0,0,1,1.47,1.49A4.46,4.46,0,0,1,64.34,16.08ZM60.21,13.4a2.26,2.26,0,0,0-2.32,2h4.63a2.23,2.23,0,0,0-2.31-2Zm10.5-1.53a4.24,4.24,0,0,1,2.12.52,3.78,3.78,0,0,1,1.48,1.46A4.38,4.38,0,0,1,74.84,16a4.42,4.42,0,0,1-.53,2.2,3.78,3.78,0,0,1-1.48,1.46,4.36,4.36,0,0,1-2.13.52,3.3,3.3,0,0,1-2.61-1.1v3.95H66.17V12H68V13a3,3,0,0,1,1.17-.87,4.25,4.25,0,0,1,1.54-.29Zm-.22,6.72a2.33,2.33,0,0,0,1.73-.7A2.57,2.57,0,0,0,72.9,16a2.55,2.55,0,0,0-.68-1.84,2.3,2.3,0,0,0-1.73-.71,2.4,2.4,0,0,0-2.11,1.2A2.72,2.72,0,0,0,68.06,16a2.63,2.63,0,0,0,.32,1.34A2.31,2.31,0,0,0,70.49,18.59Zm6.35-9.16h2v9h5.59v1.69H76.84Z"/>
</svg>