<svg xmlns="http://www.w3.org/2000/svg" width="102" height="35" fill="none" viewBox="0 0 102 35">
  <g clipPath="url(#a)">
    <path fill="#0F2B46" d="M3.5 8.95v13.9a2 2 0 0 0 1 1.74l11.95 6.94.09.05L22.43 35l-.02-3v-1.68l.01.03v-.56a1 1 0 0 1 .43-.82l.39-.22.18-.1 6.97-4.06a2 2 0 0 0 1-1.74V8.95a2 2 0 0 0-1-1.74L18.44.27a1.97 1.97 0 0 0-2 0L4.5 7.23a2 2 0 0 0-1 1.72Z" />
    <path fill="#fff" d="M12.62 9.58c.8-.79 2.07-.79 2.87 0 .57.54.76 1.34.57 2.05l5.5 3.2.03-.02a2.08 2.08 0 1 1-.54.85l-.02.01-5.46-3.17-.08.08a2.08 2.08 0 0 1-2.87-3Zm3.45 11.75 5.36-3.11-1-.56-4.83 2.79a2.05 2.05 0 0 0-2.97-.1 2.08 2.08 0 1 0 3.44.98Z" />
  </g>
  <path fill="#1B1E25" d="M44 11h5.46c1.33 0 2.51.26 3.55.78a5.66 5.66 0 0 1 2.4 2.2c.58.93.86 2.02.86 3.25a5.82 5.82 0 0 1-3.26 5.47 7.92 7.92 0 0 1-3.55.77H44V11Zm5.35 10.5a5.3 5.3 0 0 0 2.4-.5 3.78 3.78 0 0 0 1.61-1.5c.38-.66.57-1.41.57-2.27 0-.85-.19-1.6-.57-2.24a3.63 3.63 0 0 0-1.6-1.5 5.18 5.18 0 0 0-2.4-.53h-3.04v8.55h3.03Zm18.13-2.74-.04.66h-7.47c.13.7.47 1.26 1.01 1.68.56.4 1.25.6 2.07.6 1.05 0 1.91-.34 2.59-1.03l1.2 1.37c-.44.51-.98.9-1.63 1.16-.65.26-1.4.4-2.21.4a5.9 5.9 0 0 1-2.77-.63 4.57 4.57 0 0 1-2.5-4.26 5 5 0 0 1 .63-2.5 4.53 4.53 0 0 1 1.77-1.74 5.18 5.18 0 0 1 2.53-.62c.93 0 1.75.2 2.48.62.74.4 1.3.98 1.71 1.73.42.74.63 1.6.63 2.56Zm-4.82-3.13a2.64 2.64 0 0 0-2.71 2.32h5.4a2.62 2.62 0 0 0-.87-1.68 2.66 2.66 0 0 0-1.82-.64Zm15.91 3.13c0 .16-.01.38-.04.66h-7.47c.13.7.47 1.26 1.02 1.68.56.4 1.25.6 2.07.6 1.04 0 1.9-.34 2.58-1.03l1.2 1.37c-.43.51-.97.9-1.62 1.16-.66.26-1.4.4-2.22.4a5.9 5.9 0 0 1-2.76-.63 4.57 4.57 0 0 1-2.5-4.26 5 5 0 0 1 .63-2.5 4.53 4.53 0 0 1 1.76-1.74 5.2 5.2 0 0 1 2.53-.62c.93 0 1.76.2 2.48.62.74.4 1.31.98 1.72 1.73.41.74.62 1.6.62 2.56Zm-4.82-3.13a2.64 2.64 0 0 0-2.71 2.32h5.4a2.62 2.62 0 0 0-.87-1.68 2.66 2.66 0 0 0-1.82-.64ZM86 13.85c.92 0 1.75.2 2.47.6.74.4 1.31.98 1.73 1.71.42.74.62 1.59.62 2.55 0 .96-.2 1.82-.62 2.57-.42.73-1 1.3-1.73 1.7-.72.4-1.55.61-2.48.61-1.28 0-2.3-.43-3.05-1.28v4.61h-2.23V13.96h2.12v1.24a3.4 3.4 0 0 1 1.36-1.01 4.68 4.68 0 0 1 1.8-.34Zm-.26 7.84c.82 0 1.5-.28 2.02-.82.53-.55.8-1.27.8-2.16 0-.89-.27-1.6-.8-2.15a2.67 2.67 0 0 0-2.02-.82 2.78 2.78 0 0 0-2.46 1.4c-.25.46-.37.98-.37 1.57 0 .6.12 1.12.37 1.57a2.71 2.71 0 0 0 2.46 1.41ZM93.15 11h2.32v10.5H102v1.97h-8.85V11Z" />
  <defs>
    <clipPath id="a">
      <path fill="#fff" d="M0 0h35v35H0z" transform="matrix(-1 0 0 1 35 0)" />
    </clipPath>
  </defs>
</svg>
