<svg id="QR_Code" data-name="QR Code" xmlns="http://www.w3.org/2000/svg" xmlns:xlink="http://www.w3.org/1999/xlink"
     viewBox="0 0 420 420" width="200" height="200">
    <defs>
        <linearGradient id="linearGradient_1" x1="177.65" y1="177.65" x2="236.22" y2="236.22"
                        gradientUnits="userSpaceOnUse">
            <stop offset="0.17" stop-color="#07c3f2"/>
            <stop offset="0.97" stop-color="#087cfa"/>
        </linearGradient>
        <linearGradient id="linearGradient_2" x1="218.89" y1="213.01" x2="225.02" y2="219.14"
                        xlink:href="#linearGradient_1"/>
        <clipPath id="clip-path">
            <rect x="226" y="227" width="24" height="24" rx="12" fill="none"/>
        </clipPath>
    </defs>
    <rect width="420" height="420" fill="#fff"/>
    <rect x="46" y="214" width="8" height="8"/>
    <polygon points="46 294 46 302 46 310 54 310 54 302 54 294 46 294"/>
    <polygon points="54 246 46 246 46 254 54 254 62 254 62 246 54 246"/>
    <rect x="62" y="174" width="8" height="8"/>
    <rect x="70" y="206" width="8" height="8"/>
    <polygon
            points="70 222 70 214 62 214 62 222 54 222 54 230 46 230 46 238 54 238 62 238 62 230 70 230 70 238 70 246 78 246 78 238 78 230 78 222 70 222"/>
    <polygon points="78 62 70 62 62 62 62 70 62 78 62 86 70 86 78 86 86 86 86 78 86 70 86 62 78 62"/>
    <polygon
            points="78 246 78 254 70 254 70 262 62 262 62 270 54 270 46 270 46 278 54 278 54 286 62 286 62 278 70 278 78 278 78 270 86 270 86 262 86 254 86 246 78 246"/>
    <polygon points="78 334 70 334 62 334 62 342 62 350 62 358 70 358 78 358 86 358 86 350 86 342 86 334 78 334"/>
    <polygon points="86 214 78 214 78 222 86 222 94 222 94 214 86 214"/>
    <rect x="86" y="230" width="8" height="8"/>
    <polygon
            points="86 294 86 286 86 278 78 278 78 286 70 286 62 286 62 294 62 302 62 310 70 310 70 302 70 294 78 294 78 302 86 302 94 302 94 294 86 294"/>
    <path d="M94,46H46v56h56V46Zm0,16V94H54V54H94Z"/>
    <rect x="94" y="206" width="8" height="8"/>
    <rect x="94" y="222" width="8" height="8"/>
    <rect x="94" y="254" width="8" height="8"/>
    <rect x="94" y="270" width="8" height="8"/>
    <rect x="94" y="302" width="8" height="8"/>
    <path d="M94,318H46v56h56V318Zm0,16v32H54V326H94Z"/>
    <rect x="102" y="262" width="8" height="8"/>
    <rect x="110" y="134" width="8" height="8"/>
    <polygon points="118 70 118 62 110 62 110 70 110 78 118 78 126 78 126 70 118 70"/>
    <rect x="118" y="126" width="8" height="8"/>
    <polygon
            points="118 222 118 214 110 214 102 214 102 222 110 222 110 230 102 230 102 238 94 238 94 246 102 246 110 246 110 238 118 238 118 230 126 230 126 222 118 222"/>
    <polygon
            points="126 86 126 94 126 102 126 110 118 110 118 102 118 94 110 94 110 102 110 110 102 110 94 110 94 118 102 118 110 118 118 118 126 118 134 118 134 110 134 102 134 94 134 86 126 86"/>
    <polygon
            points="126 174 118 174 110 174 102 174 94 174 86 174 86 166 78 166 78 158 86 158 86 150 94 150 102 150 102 158 94 158 94 166 102 166 110 166 110 158 110 150 110 142 102 142 94 142 86 142 86 134 94 134 102 134 102 126 94 126 94 118 86 118 86 110 78 110 78 118 70 118 62 118 54 118 54 126 62 126 70 126 70 134 62 134 54 134 54 142 54 150 46 150 46 158 46 166 46 174 46 182 46 190 54 190 62 190 62 182 54 182 54 174 62 174 62 166 62 158 62 150 70 150 70 142 78 142 78 150 70 150 70 158 70 166 70 174 78 174 78 182 78 190 70 190 62 190 62 198 54 198 46 198 46 206 54 206 62 206 70 206 70 198 78 198 86 198 86 206 94 206 94 198 102 198 102 190 94 190 86 190 86 182 94 182 102 182 102 190 110 190 118 190 118 182 126 182 134 182 134 174 126 174"/>
    <polygon
            points="126 326 126 318 118 318 118 310 126 310 126 302 126 294 118 294 118 286 126 286 126 278 126 270 118 270 110 270 110 278 102 278 102 286 94 286 94 294 102 294 102 302 110 302 110 310 110 318 110 326 118 326 118 334 110 334 110 342 118 342 126 342 134 342 134 334 134 326 126 326"/>
    <polygon points="126 350 118 350 118 358 118 366 126 366 126 358 134 358 134 350 126 350"/>
    <rect x="134" y="118" width="8" height="8"/>
    <polygon points="134 134 126 134 126 142 126 150 134 150 134 142 142 142 142 134 134 134"/>
    <rect x="134" y="286" width="8" height="8"/>
    <polygon
            points="142 198 142 190 134 190 126 190 118 190 118 198 110 198 110 206 118 206 126 206 126 214 126 222 134 222 134 214 134 206 142 206 150 206 150 198 142 198"/>
    <rect x="142" y="294" width="8" height="8"/>
    <rect x="150" y="102" width="8" height="8"/>
    <polygon
            points="150 150 150 142 142 142 142 150 134 150 134 158 134 166 134 174 142 174 150 174 150 166 142 166 142 158 150 158 158 158 158 150 150 150"/>
    <polygon
            points="150 310 142 310 142 302 134 302 134 310 134 318 134 326 142 326 142 318 150 318 158 318 158 310 150 310"/>
    <polygon
            points="150 350 150 342 142 342 142 350 142 358 134 358 134 366 134 374 142 374 142 366 150 366 150 358 158 358 158 350 150 350"/>
    <rect x="158" y="94" width="8" height="8"/>
    <polygon points="158 118 150 118 150 126 150 134 158 134 158 142 166 142 166 134 166 126 166 118 158 118"/>
    <polygon
            points="158 278 150 278 150 270 142 270 142 278 142 286 150 286 150 294 158 294 166 294 166 286 166 278 158 278"/>
    <rect x="166" y="150" width="8" height="8"/>
    <rect x="166" y="246" width="8" height="8"/>
    <rect x="166" y="262" width="8" height="8"/>
    <polygon points="166 366 166 358 158 358 158 366 150 366 150 374 158 374 166 374 174 374 174 366 166 366"/>
    <rect x="174" y="134" width="8" height="8"/>
    <polygon
            points="174 230 174 222 174 214 166 214 166 222 166 230 158 230 158 238 150 238 150 246 142 246 142 238 142 230 150 230 150 222 158 222 158 214 166 214 166 206 158 206 150 206 150 214 142 214 142 222 134 222 134 230 126 230 126 238 118 238 118 246 118 254 110 254 110 262 118 262 126 262 134 262 134 254 142 254 150 254 150 262 158 262 158 254 158 246 166 246 166 238 174 238 174 246 182 246 182 238 182 230 174 230"/>
    <polygon
            points="174 334 166 334 166 326 174 326 174 318 166 318 158 318 158 326 158 334 158 342 166 342 166 350 174 350 182 350 182 342 182 334 174 334"/>
    <rect x="174" y="358" width="8" height="8"/>
    <rect x="182" y="222" width="8" height="8"/>
    <rect x="182" y="326" width="8" height="8"/>
    <polygon
            points="198 78 198 70 190 70 182 70 182 78 190 78 190 86 190 94 190 102 198 102 198 94 198 86 206 86 206 78 198 78"/>
    <rect x="198" y="102" width="8" height="8"/>
    <polygon
            points="198 118 190 118 182 118 182 110 190 110 190 102 182 102 182 94 174 94 174 102 174 110 166 110 166 118 174 118 174 126 182 126 190 126 198 126 206 126 206 118 198 118"/>
    <polygon points="198 142 198 134 190 134 190 142 190 150 198 150 206 150 206 142 198 142"/>
    <rect x="198" y="158" width="8" height="8"/>
    <polygon
            points="198 174 198 166 190 166 190 158 190 150 182 150 182 158 174 158 174 166 182 166 182 174 182 182 182 190 174 190 174 182 174 174 174 166 166 166 166 174 158 174 150 174 150 182 142 182 142 190 150 190 150 198 158 198 158 190 166 190 166 198 166 206 174 206 174 198 182 198 190 198 190 190 190 182 198 182 206 182 206 174 198 174"/>
    <rect x="198" y="294" width="8" height="8"/>
    <polygon
            points="206 46 198 46 190 46 182 46 174 46 166 46 158 46 150 46 142 46 134 46 126 46 118 46 118 54 126 54 134 54 142 54 142 62 134 62 134 70 134 78 142 78 142 86 142 94 142 102 150 102 150 94 158 94 158 86 166 86 174 86 174 78 166 78 158 78 158 70 158 62 150 62 150 54 158 54 166 54 174 54 174 62 166 62 166 70 174 70 182 70 182 62 182 54 190 54 190 62 198 62 198 54 206 54 214 54 214 46 206 46"/>
    <rect x="206" y="62" width="8" height="8"/>
    <polygon points="206 86 206 94 206 102 214 102 214 94 214 86 206 86"/>
    <polygon
            points="206 262 198 262 190 262 190 254 198 254 206 254 206 246 206 238 198 238 198 246 190 246 182 246 182 254 182 262 182 270 174 270 174 278 182 278 182 286 174 286 174 294 166 294 166 302 166 310 174 310 182 310 182 318 190 318 190 310 198 310 198 302 190 302 182 302 182 294 190 294 190 286 198 286 198 278 206 278 206 270 214 270 214 262 206 262"/>
    <polygon points="214 70 214 78 214 86 222 86 222 78 222 70 214 70"/>
    <polygon
            points="214 214 206 214 198 214 198 206 190 206 182 206 182 214 190 214 190 222 198 222 198 230 206 230 214 230 214 238 222 238 222 230 222 222 222 214 214 214"/>
    <rect x="214" y="246" width="8" height="8"/>
    <rect x="222" y="94" width="8" height="8"/>
    <polygon
            points="222 134 230 134 230 126 222 126 222 118 214 118 214 126 206 126 206 134 214 134 214 142 214 150 214 158 214 166 222 166 230 166 230 158 230 150 222 150 222 142 222 134"/>
    <polygon
            points="222 174 214 174 214 182 206 182 206 190 214 190 214 198 222 198 222 190 230 190 230 182 230 174 222 174"/>
    <rect x="222" y="198" width="8" height="8"/>
    <rect x="230" y="206" width="8" height="8"/>
    <rect x="238" y="46" width="8" height="8"/>
    <polygon points="238 230 238 222 230 222 230 230 230 238 238 238 246 238 246 230 238 230"/>
    <polygon
            points="238 326 230 326 222 326 222 318 230 318 238 318 238 310 238 302 230 302 230 310 222 310 222 302 222 294 222 286 214 286 206 286 206 294 214 294 214 302 214 310 206 310 198 310 198 318 190 318 190 326 198 326 198 334 206 334 206 326 214 326 214 334 222 334 222 342 230 342 238 342 238 334 246 334 246 326 238 326"/>
    <polygon
            points="246 262 246 254 246 246 238 246 238 254 230 254 230 262 230 270 230 278 238 278 238 270 246 270 246 278 254 278 254 270 254 262 246 262"/>
    <rect x="254" y="46" width="8" height="8"/>
    <polygon
            points="254 142 246 142 238 142 230 142 230 150 238 150 238 158 238 166 238 174 238 182 238 190 238 198 238 206 246 206 254 206 254 198 246 198 246 190 246 182 246 174 246 166 246 158 246 150 254 150 254 158 262 158 262 150 262 142 254 142"/>
    <rect x="254" y="182" width="8" height="8"/>
    <polygon points="254 214 246 214 238 214 238 222 246 222 254 222 262 222 262 214 254 214"/>
    <rect x="254" y="254" width="8" height="8"/>
    <rect x="262" y="62" width="8" height="8"/>
    <rect x="262" y="262" width="8" height="8"/>
    <polygon
            points="270 86 270 94 270 102 262 102 262 94 262 86 262 78 254 78 254 86 254 94 254 102 246 102 246 94 246 86 246 78 254 78 254 70 254 62 254 54 246 54 246 62 246 70 238 70 238 62 230 62 230 54 222 54 222 62 222 70 230 70 230 78 238 78 238 86 238 94 238 102 230 102 230 110 238 110 238 118 230 118 230 126 238 126 238 134 246 134 254 134 254 126 254 118 246 118 246 110 254 110 254 118 262 118 270 118 270 110 278 110 278 102 278 94 278 86 270 86"/>
    <polygon points="278 254 278 246 270 246 262 246 262 254 270 254 270 262 278 262 286 262 286 254 278 254"/>
    <rect x="286" y="46" width="8" height="8"/>
    <polygon points="286 62 286 54 278 54 278 62 278 70 270 70 270 78 278 78 286 78 286 70 294 70 294 62 286 62"/>
    <rect x="286" y="206" width="8" height="8"/>
    <polygon
            points="286 222 278 222 278 230 270 230 262 230 254 230 254 238 262 238 270 238 278 238 278 246 286 246 286 238 286 230 294 230 294 222 286 222"/>
    <rect x="286" y="246" width="8" height="8"/>
    <rect x="294" y="198" width="8" height="8"/>
    <polygon points="302 94 302 102 302 110 310 110 310 102 310 94 302 94"/>
    <rect x="310" y="366" width="8" height="8"/>
    <rect x="318" y="318" width="8" height="8"/>
    <polygon points="334 174 326 174 326 182 334 182 342 182 342 174 334 174"/>
    <rect x="342" y="142" width="8" height="8"/>
    <path d="M342,158h-8v-8h-8v-8h-8v-8h8v-8h8v-8h-8v-8H310v8h8v8h-8v-8h-8v-8h-8V86h16V54h-8V78H286v32h-8v8h8v8h8v16H278V118h-8v8h-8v8h8v24h8v-8h8v8h16v16h-8v-8H278v8h-8v-8H254v8h8v8h16v8H262v24h8v8h8V198h8V182h8v8h8v8h8v32h8v-8h8v8h16v-8h-8V198h8v-8H326v16h-8V174h8v-8h16v8h8V158Zm-32,0v-8h8v8Z"/>
    <rect x="342" y="198" width="8" height="8"/>
    <polygon points="350 62 342 62 334 62 334 70 334 78 334 86 342 86 350 86 358 86 358 78 358 70 358 62 350 62"/>
    <rect x="350" y="230" width="8" height="8"/>
    <polygon
            points="350 246 350 238 342 238 334 238 326 238 326 230 318 230 318 238 310 238 302 238 294 238 294 246 302 246 310 246 318 246 326 246 326 254 326 262 334 262 334 270 334 278 342 278 342 270 350 270 350 262 342 262 342 254 350 254 350 262 358 262 358 254 358 246 350 246"/>
    <rect x="350" y="326" width="8" height="8"/>
    <polygon
            points="350 366 342 366 342 358 350 358 350 350 342 350 334 350 334 358 326 358 318 358 318 366 326 366 326 374 334 374 342 374 350 374 358 374 358 366 350 366"/>
    <polygon points="358 150 350 150 350 158 358 158 366 158 366 150 358 150"/>
    <rect x="358" y="262" width="8" height="8"/>
    <rect x="358" y="318" width="8" height="8"/>
    <rect x="358" y="334" width="8" height="8"/>
    <path d="M366,46H318v56h56V46Zm0,16V94H326V54h40Z"/>
    <polygon
            points="366 118 358 118 358 110 350 110 342 110 342 118 350 118 350 126 342 126 334 126 334 134 342 134 350 134 350 142 358 142 358 134 366 134 366 126 374 126 374 118 366 118"/>
    <polygon points="366 134 366 142 366 150 374 150 374 142 374 134 366 134"/>
    <polygon
            points="366 158 366 166 358 166 358 174 350 174 350 182 342 182 342 190 350 190 350 198 358 198 358 190 358 182 366 182 366 190 366 198 366 206 358 206 358 214 358 222 358 230 366 230 366 238 358 238 358 246 366 246 366 254 366 262 374 262 374 254 374 246 374 238 374 230 374 222 366 222 366 214 374 214 374 206 374 198 374 190 374 182 374 174 374 166 374 158 366 158"/>
    <path d="M366,286h-8v-8h-8v8H326v8h16v8H326v-8h-8v8h-8V278h8v8h8V270H310v-8H294v16h-8v8h8v8h8v8H286v16h-8v-8h-8v-8h16V286h-8v8h-8v-8h-8v8H246V278h-8v24h8v24h8v-8h8v16h8v8h-8v-8h-8v8h-8v24h-8V350h-8v8h-8V342H198v-8h-8v16h8v8h16v8h-8v8h16v-8h8v8h40v-8h24v-8h-8v-8h8v-8H278v-8h8v-8h16v8h-8v8h8v8h-8v8h16V342h40v-8h-8V310h8V294h24v-8Zm-88,72H262v8h-8V350h24Zm24-40h-8v-8h8Zm32,0v16H310V310h24Z"/>
    <polygon points="366 302 358 302 358 310 366 310 366 318 374 318 374 310 374 302 366 302"/>
    <polygon points="366 342 366 350 366 358 358 358 358 366 366 366 374 366 374 358 374 350 374 342 366 342"/>
    <rect x="172" y="172" width="76" height="76" rx="5" fill="#fff"/>
    <g id="Icon">
        <path d="M237,178H183a5,5,0,0,0-5,5v54a5,5,0,0,0,5,5h54a5,5,0,0,0,5-5V183A5,5,0,0,0,237,178Zm-36.1,36.4s-3.3,2.3-4.9,3.2a66.2,66.2,0,0,1-9,5l-3.7-6a50.3,50.3,0,0,0,12-5.5l.8-.4-.3-.7a23.1,23.1,0,0,1-4.2-6.6c-.5-.9-.8-2-1.3-3h6.2a7.5,7.5,0,0,1,.6,1.3,30,30,0,0,0,3.2,4.7l.4.6.5-.6a21.7,21.7,0,0,0,3.2-4.7,24.5,24.5,0,0,0,1.8-5.4v-1.2H183.7v-5.7H198v-6.9h5.7v6.9H218v5.8h-5.4v1.3a27.3,27.3,0,0,1-2,6.9,37.5,37.5,0,0,1-4.3,6.6l-.5.6,1.2.8c1.7.9,3.3,2,5.3,3l-2.9,5.7a52.2,52.2,0,0,1-8-5.2Zm30.3,19.3-3.4-9H216.7l-3.3,9h-7.2L219,202.1h6.6l12.8,31.6Z"
              fill="url(#linearGradient_1)"/>
        <polygon points="218.7 219.2 225.9 219.2 222.3 210 218.7 219.2" fill="url(#linearGradient_2)"/>
    </g>
    <circle cx="238" cy="239" r="15" fill="#fff"/>
    <rect x="226" y="227" width="24" height="24" rx="12" fill="#1677ff"/>
    <g clip-path="url(#clip-path)">
        <path d="M244.8,241.6l-3.2-1.1a15.1,15.1,0,0,0,1.8-4.5h-4.2v-1.4h5.1v-.9h-5.1v-2.4h-2c-.4,0-.4.3-.4.3v2.1h-5.1v.9h5.1V236h-4.2v.9h8.2a14.8,14.8,0,0,1-1.2,2.9c-2.7-.9-5.5-1.6-7.3-1.2a4.5,4.5,0,0,0-2.3,1.3c-2,2.4-.5,6.1,3.6,6.1a8.7,8.7,0,0,0,6.7-3.7l8.2,3.6,1.1-3.2A21.7,21.7,0,0,1,244.8,241.6Zm-11.6,3c-3.2,0-4.2-2.6-2.6-4a5,5,0,0,1,2.1-.8,12.1,12.1,0,0,1,5.8,1.6C237,243.4,235.1,244.6,233.2,244.6Z"
              fill="#fff"/>
    </g>
</svg>