<svg id="QR_Code" data-name="QR Code" xmlns="http://www.w3.org/2000/svg" xmlns:xlink="http://www.w3.org/1999/xlink"
     viewBox="0 0 650 650" width="200" height="200">
    <defs>
        <linearGradient id="linearGradient_1" x1="242.83" y1="242.83" x2="391.61" y2="391.61"
                        gradientUnits="userSpaceOnUse">
            <stop offset="0.17" stop-color="#07c3f2"/>
            <stop offset="0.97" stop-color="#087cfa"/>
        </linearGradient>
        <linearGradient id="linearGradient_2" x1="347.23" y1="332.53" x2="362.55" y2="347.85"
                        xlink:href="#linearGradient_1"/>
    </defs>
    <rect width="650" height="650" fill="#fff"/>
    <g id="Dots">
        <circle cx="199" cy="451" r="4"/>
        <circle cx="213" cy="437" r="4"/>
        <circle cx="123.5" cy="466" r="4"/>
        <circle cx="245" cy="440" r="4"/>
        <circle cx="139" cy="455" r="4"/>
        <circle cx="195" cy="416" r="4"/>
        <circle cx="102" cy="221" r="4"/>
        <circle cx="123.5" cy="184" r="4"/>
        <circle cx="206" cy="206" r="4"/>
        <circle cx="234" cy="195" r="4"/>
        <circle cx="223" cy="179" r="4"/>
        <circle cx="250" cy="164" r="4"/>
        <circle cx="303.5" cy="80" r="4"/>
        <circle cx="380" cy="207" r="4"/>
        <circle cx="396.2" cy="172" r="4"/>
        <circle cx="413" cy="137" r="4"/>
        <circle cx="416" cy="195" r="4"/>
        <circle cx="456" cy="233.5" r="4"/>
        <circle cx="470" cy="286" r="4"/>
        <circle cx="494" cy="340" r="4"/>
        <circle cx="474" cy="338" r="4"/>
        <circle cx="563" cy="389" r="4"/>
        <circle cx="512" cy="341.1" r="4"/>
        <circle cx="563" cy="261.5" r="4"/>
        <circle cx="548" cy="221" r="4"/>
        <circle cx="471.5" cy="222.5" r="4"/>
        <circle cx="527" cy="184" r="4"/>
        <circle cx="433" cy="171" r="4"/>
        <circle cx="389" cy="87" r="4"/>
        <circle cx="384" cy="106" r="4"/>
        <circle cx="311" cy="167" r="4"/>
        <circle cx="221" cy="102" r="4"/>
        <circle cx="172" cy="254" r="4"/>
        <circle cx="171" cy="284" r="4"/>
        <circle cx="176" cy="312" r="4"/>
        <circle cx="138" cy="308.5" r="4"/>
        <circle cx="102" cy="429" r="4"/>
        <circle cx="271.5" cy="525" r="4"/>
        <circle cx="311" cy="484" r="4"/>
        <circle cx="380" cy="443" r="4"/>
        <circle cx="463.5" cy="422" r="4"/>
        <circle cx="447.7" cy="411" r="4"/>
        <circle cx="443" cy="380" r="4"/>
        <circle cx="461" cy="388.3" r="4"/>
        <circle cx="504" cy="409" r="4"/>
        <circle cx="522" cy="417" r="4"/>
        <circle cx="429" cy="548" r="4"/>
        <circle cx="261.5" cy="563" r="4"/>
        <circle cx="87.5" cy="388.5" r="4"/>
        <circle cx="128" cy="417" r="4"/>
    </g>
    <g id="Lines">
        <line x1="171" y1="433" x2="155.76" y2="443.67" fill="none" stroke="#000" stroke-linecap="round"
              stroke-miterlimit="10" stroke-width="8"/>
        <line x1="156" y1="206.5" x2="146.66" y2="199.96" fill="none" stroke="#000" stroke-linecap="round"
              stroke-miterlimit="10" stroke-width="8"/>
        <line x1="179.5" y1="223" x2="171.31" y2="217.26" fill="none" stroke="#000" stroke-linecap="round"
              stroke-miterlimit="10" stroke-width="8"/>
        <line x1="211" y1="245" x2="202.14" y2="238.8" fill="none" stroke="#000" stroke-linecap="round"
              stroke-miterlimit="10" stroke-width="8"/>
        <line x1="155" y1="245.5" x2="127.84" y2="232.84" fill="none" stroke="#000" stroke-linecap="round"
              stroke-miterlimit="10" stroke-width="8"/>
        <line x1="207" y1="270" x2="198.07" y2="265.84" fill="none" stroke="#000" stroke-linecap="round"
              stroke-miterlimit="10" stroke-width="8"/>
        <line x1="125" y1="271.5" x2="87.05" y2="261.33" fill="none" stroke="#000" stroke-linecap="round"
              stroke-miterlimit="10" stroke-width="8"/>
        <line x1="153" y1="279" x2="142.92" y2="276.3" fill="none" stroke="#000" stroke-linecap="round"
              stroke-miterlimit="10" stroke-width="8"/>
        <line x1="207.2" y1="293.5" x2="190.08" y2="288.91" fill="none" stroke="#000" stroke-linecap="round"
              stroke-miterlimit="10" stroke-width="8"/>
        <line x1="208" y1="314.6" x2="195.01" y2="313.46" fill="none" stroke="#000" stroke-linecap="round"
              stroke-miterlimit="10" stroke-width="8"/>
        <line x1="119" y1="307" x2="108.99" y2="306.12" fill="none" stroke="#000" stroke-linecap="round"
              stroke-miterlimit="10" stroke-width="8"/>
        <line x1="90" y1="304.5" x2="79.99" y2="303.62" fill="none" stroke="#000" stroke-linecap="round"
              stroke-miterlimit="10" stroke-width="8"/>
        <line x1="208" y1="335.2" x2="185" y2="337.21" fill="none" stroke="#000" stroke-linecap="round"
              stroke-miterlimit="10" stroke-width="8"/>
        <line x1="167" y1="338.8" x2="146.98" y2="340.55" fill="none" stroke="#000" stroke-linecap="round"
              stroke-miterlimit="10" stroke-width="8"/>
        <line x1="119" y1="343" x2="79.94" y2="346.42" fill="none" stroke="#000" stroke-linecap="round"
              stroke-miterlimit="10" stroke-width="8"/>
        <line x1="162" y1="368.7" x2="115.83" y2="381.07" fill="none" stroke="#000" stroke-linecap="round"
              stroke-miterlimit="10" stroke-width="8"/>
        <line x1="207" y1="356.6" x2="199.97" y2="358.48" fill="none" stroke="#000" stroke-linecap="round"
              stroke-miterlimit="10" stroke-width="8"/>
        <line x1="154.5" y1="404.5" x2="145.57" y2="408.66" fill="none" stroke="#000" stroke-linecap="round"
              stroke-miterlimit="10" stroke-width="8"/>
        <line x1="181" y1="392" x2="172.07" y2="396.16" fill="none" stroke="#000" stroke-linecap="round"
              stroke-miterlimit="10" stroke-width="8"/>
        <line x1="207" y1="380" x2="198.07" y2="384.16" fill="none" stroke="#000" stroke-linecap="round"
              stroke-miterlimit="10" stroke-width="8"/>
        <line x1="233.6" y1="455.5" x2="227.86" y2="463.69" fill="none" stroke="#000" stroke-linecap="round"
              stroke-miterlimit="10" stroke-width="8"/>
        <line x1="206" y1="495" x2="183.73" y2="526.81" fill="none" stroke="#000" stroke-linecap="round"
              stroke-miterlimit="10" stroke-width="8"/>
        <line x1="270.5" y1="442" x2="261.61" y2="461.05" fill="none" stroke="#000" stroke-linecap="round"
              stroke-miterlimit="10" stroke-width="8"/>
        <line x1="253.6" y1="478" x2="233" y2="522.19" fill="none" stroke="#000" stroke-linecap="round"
              stroke-miterlimit="10" stroke-width="8"/>
        <line x1="225.4" y1="539" x2="221.24" y2="547.93" fill="none" stroke="#000" stroke-linecap="round"
              stroke-miterlimit="10" stroke-width="8"/>
        <line x1="286.5" y1="469" x2="278.78" y2="497.82" fill="none" stroke="#000" stroke-linecap="round"
              stroke-miterlimit="10" stroke-width="8"/>
        <line x1="293.6" y1="442" x2="291.21" y2="450.91" fill="none" stroke="#000" stroke-linecap="round"
              stroke-miterlimit="10" stroke-width="8"/>
        <line x1="315" y1="442" x2="313.86" y2="454.99" fill="none" stroke="#000" stroke-linecap="round"
              stroke-miterlimit="10" stroke-width="8"/>
        <line x1="308.6" y1="512" x2="306.85" y2="532.02" fill="none" stroke="#000" stroke-linecap="round"
              stroke-miterlimit="10" stroke-width="8"/>
        <line x1="305.3" y1="551" x2="303.64" y2="569.95" fill="none" stroke="#000" stroke-linecap="round"
              stroke-miterlimit="10" stroke-width="8"/>
        <line x1="335" y1="442" x2="337.01" y2="465" fill="none" stroke="#000" stroke-linecap="round"
              stroke-miterlimit="10" stroke-width="8"/>
        <line x1="339" y1="483" x2="340.75" y2="503.02" fill="none" stroke="#000" stroke-linecap="round"
              stroke-miterlimit="10" stroke-width="8"/>
        <line x1="343" y1="531" x2="346.42" y2="570.06" fill="none" stroke="#000" stroke-linecap="round"
              stroke-miterlimit="10" stroke-width="8"/>
        <line x1="356.3" y1="442" x2="388.76" y2="563.15" fill="none" stroke="#000" stroke-linecap="round"
              stroke-miterlimit="10" stroke-width="8"/>
        <line x1="392" y1="469" x2="396.16" y2="477.93" fill="none" stroke="#000" stroke-linecap="round"
              stroke-miterlimit="10" stroke-width="8"/>
        <line x1="405" y1="496" x2="412.94" y2="513.03" fill="none" stroke="#000" stroke-linecap="round"
              stroke-miterlimit="10" stroke-width="8"/>
        <line x1="416" y1="455" x2="421.74" y2="463.19" fill="none" stroke="#000" stroke-linecap="round"
              stroke-miterlimit="10" stroke-width="8"/>
        <line x1="206.6" y1="156" x2="200.4" y2="147.14" fill="none" stroke="#000" stroke-linecap="round"
              stroke-miterlimit="10" stroke-width="8"/>
        <line x1="233.6" y1="129" x2="229.03" y2="119.2" fill="none" stroke="#000" stroke-linecap="round"
              stroke-miterlimit="10" stroke-width="8"/>
        <line x1="189.9" y1="132" x2="183.7" y2="123.14" fill="none" stroke="#000" stroke-linecap="round"
              stroke-miterlimit="10" stroke-width="8"/>
        <line x1="270" y1="207" x2="257.9" y2="181.05" fill="none" stroke="#000" stroke-linecap="round"
              stroke-miterlimit="10" stroke-width="8"/>
        <line x1="264" y1="97" x2="261.3" y2="86.92" fill="none" stroke="#000" stroke-linecap="round"
              stroke-miterlimit="10" stroke-width="8"/>
        <line x1="271.5" y1="125" x2="268.8" y2="114.92" fill="none" stroke="#000" stroke-linecap="round"
              stroke-miterlimit="10" stroke-width="8"/>
        <line x1="286.5" y1="181" x2="278.96" y2="152.87" fill="none" stroke="#000" stroke-linecap="round"
              stroke-miterlimit="10" stroke-width="8"/>
        <line x1="293.8" y1="208" x2="291.41" y2="199.09" fill="none" stroke="#000" stroke-linecap="round"
              stroke-miterlimit="10" stroke-width="8"/>
        <line x1="307.7" y1="128" x2="305.16" y2="98.96" fill="none" stroke="#000" stroke-linecap="round"
              stroke-miterlimit="10" stroke-width="8"/>
        <line x1="314.9" y1="208" x2="313.77" y2="195.05" fill="none" stroke="#000" stroke-linecap="round"
              stroke-miterlimit="10" stroke-width="8"/>
        <line x1="345" y1="99" x2="346.67" y2="79.97" fill="none" stroke="#000" stroke-linecap="round"
              stroke-miterlimit="10" stroke-width="8"/>
        <line x1="340.5" y1="148" x2="342.25" y2="128.05" fill="none" stroke="#000" stroke-linecap="round"
              stroke-miterlimit="10" stroke-width="8"/>
        <line x1="338" y1="177" x2="338.96" y2="166" fill="none" stroke="#000" stroke-linecap="round"
              stroke-miterlimit="10" stroke-width="8"/>
        <line x1="335.2" y1="208" x2="336.34" y2="195.01" fill="none" stroke="#000" stroke-linecap="round"
              stroke-miterlimit="10" stroke-width="8"/>
        <line x1="366" y1="172" x2="368.64" y2="162.15" fill="none" stroke="#000" stroke-linecap="round"
              stroke-miterlimit="10" stroke-width="8"/>
        <line x1="376" y1="135" x2="378.64" y2="125.15" fill="none" stroke="#000" stroke-linecap="round"
              stroke-miterlimit="10" stroke-width="8"/>
        <line x1="356.3" y1="208" x2="358.76" y2="198.84" fill="none" stroke="#000" stroke-linecap="round"
              stroke-miterlimit="10" stroke-width="8"/>
        <line x1="420.7" y1="120" x2="429.02" y2="102.15" fill="none" stroke="#000" stroke-linecap="round"
              stroke-miterlimit="10" stroke-width="8"/>
        <line x1="443.5" y1="156" x2="449.7" y2="147.14" fill="none" stroke="#000" stroke-linecap="round"
              stroke-miterlimit="10" stroke-width="8"/>
        <line x1="460" y1="132" x2="466.2" y2="123.14" fill="none" stroke="#000" stroke-linecap="round"
              stroke-miterlimit="10" stroke-width="8"/>
        <line x1="437" y1="213" x2="444.52" y2="205.48" fill="none" stroke="#000" stroke-linecap="round"
              stroke-miterlimit="10" stroke-width="8"/>
        <line x1="494.5" y1="206.2" x2="510.88" y2="194.73" fill="none" stroke="#000" stroke-linecap="round"
              stroke-miterlimit="10" stroke-width="8"/>
        <line x1="442" y1="270.5" x2="478.53" y2="253.46" fill="none" stroke="#000" stroke-linecap="round"
              stroke-miterlimit="10" stroke-width="8"/>
        <line x1="504" y1="241.5" x2="531.16" y2="228.84" fill="none" stroke="#000" stroke-linecap="round"
              stroke-miterlimit="10" stroke-width="8"/>
        <line x1="442" y1="293.6" x2="451.16" y2="291.14" fill="none" stroke="#000" stroke-linecap="round"
              stroke-miterlimit="10" stroke-width="8"/>
        <line x1="488" y1="281.2" x2="498.08" y2="278.5" fill="none" stroke="#000" stroke-linecap="round"
              stroke-miterlimit="10" stroke-width="8"/>
        <line x1="516" y1="274" x2="526.08" y2="271.3" fill="none" stroke="#000" stroke-linecap="round"
              stroke-miterlimit="10" stroke-width="8"/>
        <line x1="442" y1="314.8" x2="454.99" y2="313.66" fill="none" stroke="#000" stroke-linecap="round"
              stroke-miterlimit="10" stroke-width="8"/>
        <line x1="442" y1="335.1" x2="454.99" y2="336.24" fill="none" stroke="#000" stroke-linecap="round"
              stroke-miterlimit="10" stroke-width="8"/>
        <line x1="474" y1="312" x2="484.01" y2="311.12" fill="none" stroke="#000" stroke-linecap="round"
              stroke-miterlimit="10" stroke-width="8"/>
        <line x1="531.5" y1="343" x2="541.51" y2="343.88" fill="none" stroke="#000" stroke-linecap="round"
              stroke-miterlimit="10" stroke-width="8"/>
        <line x1="560" y1="345.6" x2="570.01" y2="346.48" fill="none" stroke="#000" stroke-linecap="round"
              stroke-miterlimit="10" stroke-width="8"/>
        <line x1="560" y1="304.3" x2="570.01" y2="303.42" fill="none" stroke="#000" stroke-linecap="round"
              stroke-miterlimit="10" stroke-width="8"/>
        <line x1="512" y1="308.7" x2="541.04" y2="306.16" fill="none" stroke="#000" stroke-linecap="round"
              stroke-miterlimit="10" stroke-width="8"/>
        <line x1="442" y1="356.4" x2="451.16" y2="358.86" fill="none" stroke="#000" stroke-linecap="round"
              stroke-miterlimit="10" stroke-width="8"/>
        <line x1="469" y1="363.5" x2="479.08" y2="366.2" fill="none" stroke="#000" stroke-linecap="round"
              stroke-miterlimit="10" stroke-width="8"/>
        <line x1="507" y1="373.9" x2="544.29" y2="383.89" fill="none" stroke="#000" stroke-linecap="round"
              stroke-miterlimit="10" stroke-width="8"/>
        <line x1="478" y1="396.3" x2="487.33" y2="400.65" fill="none" stroke="#000" stroke-linecap="round"
              stroke-miterlimit="10" stroke-width="8"/>
        <line x1="539" y1="424.8" x2="548.33" y2="429.15" fill="none" stroke="#000" stroke-linecap="round"
              stroke-miterlimit="10" stroke-width="8"/>
    </g>
    <g id="Pointer">
        <circle cx="172" cy="478" r="4"/>
        <circle cx="172" cy="478" r="20" fill="none" stroke="#000" stroke-miterlimit="10" stroke-width="8"/>
    </g>
    <g id="Pointer-2">
        <circle cx="478.5" cy="171.5" r="4"/>
        <circle cx="478.5" cy="171.5" r="20" fill="none" stroke="#000" stroke-miterlimit="10" stroke-width="8"/>
    </g>
    <g id="Pointer-3">
        <circle cx="172" cy="172" r="4"/>
        <circle cx="172" cy="172" r="20" fill="none" stroke="#000" stroke-miterlimit="10" stroke-width="8"/>
    </g>
    <g id="WeChat_Pay">
        <circle cx="482" cy="482" r="49" fill="#1aac19"/>
        <path d="M497.17,476.6a1.09,1.09,0,0,0-.26-.22,1.14,1.14,0,0,0-.83-.15,1.11,1.11,0,0,0-.37.15l-14.06,10.85a1.91,1.91,0,0,1-1.67.16l-4.52-1.95a.58.58,0,0,0-.39-.05.63.63,0,0,0-.48.74.71.71,0,0,0,.11.25l4.89,6.58.12.16a1.26,1.26,0,0,0,1.2.4,1.32,1.32,0,0,0,.52-.25l.12-.11,15.61-15.05a1.12,1.12,0,0,0,.27-1A1,1,0,0,0,497.17,476.6Z"
              fill="#fff"/>
        <path d="M497.33,467.17c-.28,0-1.66,0-1.66-7.5,0-.84.54-11.67-10-11.67-6.12,0-7.5,3.31-7.5,10.83,0,3,0,14.17-11.67,14.17H459a6.19,6.19,0,0,0-5.83,5.83v23.34c0,3.76,2,5.83,5.83,5.83h32.5c15.1,0,18.33-15.08,18.33-21.67v-5C509.83,478.05,510.13,467.17,497.33,467.17Zm7.5,12.5v6.66c0,6.85-4.4,16.67-13.33,16.67H459.82c-1.21,0-1.65-.38-1.65-1.67V479.67c0-1.21.36-1.67,1.66-1.67h7.5a16.26,16.26,0,0,0,15.84-16.67V455.5a2.36,2.36,0,0,1,2.5-2.5c5.28,0,5,5.83,5,5.83v5.84s0,7.5,7.5,7.5C505,472.17,504.83,479.67,504.83,479.67Z"
              fill="#fff" fill-rule="evenodd"/>
    </g>
    <g id="Icon">
        <path d="M396.69,245H253.31a8.31,8.31,0,0,0-8.31,8.31V396.69a8.31,8.31,0,0,0,8.31,8.31H396.69a8.31,8.31,0,0,0,8.31-8.31V253.31A8.31,8.31,0,0,0,396.69,245ZM302.2,336.1S294,341.75,290,344a145.26,145.26,0,0,1-22.6,12.45l-9-15a131.7,131.7,0,0,0,30-13.6l1.9-1.1L289.4,325a61.79,61.79,0,0,1-10.5-16.6c-1.15-2.25-1.9-5-3-7.5H291.3c.4,1.1,1.15,2.25,1.5,3.4A65.25,65.25,0,0,0,300.7,316l1.15,1.5L303,316a50.91,50.91,0,0,0,7.9-11.65,53,53,0,0,0,4.5-13.55l.4-3.05H259.3V273.6H295V256.3h14.35v17.3H345v14.3H331.6l-.4,3.4a67.79,67.79,0,0,1-5,17.3A88.88,88.88,0,0,1,315.4,325l-1.15,1.5,3.05,1.9c4.1,2.25,8.25,5,13.15,7.5l-7.15,14.3a132,132,0,0,1-19.95-12.95Zm75.7,48.2-8.3-22.6H341.75l-8.3,22.6H315.4l32-79.05H364l32,79.05Z"
              fill="url(#linearGradient_1)"/>
        <polygon points="346.65 347.95 364.7 347.95 355.7 325 346.65 347.95" fill="url(#linearGradient_2)"/>
    </g>
</svg>