<svg xmlns="http://www.w3.org/2000/svg" width="215" height="30" viewBox="0 0 1733 242">
    <path fill="#3f85f3" d="M96.16,86.29V112.2h61.89c-1.85,14.53-6.72,25.15-14.12,32.62-9.05,9.05-23.16,19-47.77,19-38.11,0-67.92-30.78-67.92-68.88S58.05,26,96.16,26a65.93,65.93,0,0,1,46.67,18.51L161,26.39C145.64,11.38,125,0,96.16,0,43.93,0,0,42.56,0,94.79s43.93,94.79,96.16,94.79c28.24,0,49.48-9.25,66.14-26.53,17.07-17.06,22.41-41.19,22.41-60.58a81.82,81.82,0,0,0-1.37-16.18Z"/>
    <path fill="#e84233" d="M262.09,65.25c-33.79,0-61.34,25.63-61.34,61.14,0,35.16,27.55,61.2,61.34,61.2s61.41-25.91,61.41-61.2C323.5,90.88,295.88,65.25,262.09,65.25Zm0,98.21c-18.5,0-34.54-15.28-34.54-37.07,0-22,16-37.08,34.54-37.08s34.55,15.07,34.55,37.08C296.64,148.18,280.67,163.46,262.09,163.46Z"/>
    <path fill="#3f85f3" d="M563,78.89h-.95c-6-7.13-17.55-13.64-32.22-13.64-30.5,0-57.16,26.59-57.16,61.13,0,34.34,26.66,61.21,57.16,61.21,14.67,0,26.25-6.51,32.22-13.91H563v8.5c0,23.44-12.54,35.91-32.62,35.91-16.45,0-26.66-11.79-30.84-21.8L476.21,206c6.71,16.17,24.53,36.12,54.21,36.12,31.46,0,58.12-18.58,58.12-63.74V68.4H563ZM532.2,163.46c-18.5,0-32.62-15.76-32.62-37.08,0-21.58,14.12-37.07,32.62-37.07,18.3,0,32.63,15.83,32.63,37.28S550.5,163.46,532.2,163.46Z"/>
    <path fill="#faba02" d="M399,65.25c-33.86,0-61.41,25.63-61.41,61.14,0,35.16,27.55,61.2,61.41,61.2s61.34-25.91,61.34-61.2C460.37,90.88,432.82,65.25,399,65.25Zm0,98.21c-18.57,0-34.54-15.28-34.54-37.07,0-22,16-37.08,34.54-37.08s34.55,15.07,34.55,37.08C433.58,148.18,417.54,163.46,399,163.46Z"/>
    <path fill="#33a651" d="M609.58,2.54H636V187.59H609.58Z"/>
    <path fill="#e84233" d="M717.67,163.46c-13.71,0-23.37-6.23-29.75-18.5l81.84-33.86L767,104.18c-5-13.71-20.63-38.93-52.3-38.93S657,90,657,126.39c0,34.33,25.91,61.2,60.66,61.2,28,0,44.21-17.2,50.92-27.07L747.76,146.6c-6.93,10.15-16.45,16.86-30.09,16.86Zm-1.92-75.32c10.83,0,20.15,5.62,23.17,13.5L683.6,124.53c0-25.7,18.24-36.39,32.15-36.39Z"/>
    <g fill="#5e6166">
        <path d="M939.74,54.53V34.24h-114V54.53H872V200.11h21.38V54.53Z"/>
        <path d="M969,137.6a32.7,32.7,0,0,1,9-22.75c5.83-6.38,12.75-9.67,20.84-9.87,5.62,0,9.87.68,12.61,1.92l6.31-20.84a40.43,40.43,0,0,0-15.63-2.74c-6.58.2-13.16,2.33-19.74,6.3C975.65,94,971.19,99.15,969,105h-.83V86.61H947.61v113.5H969Z"/>
        <path d="M1056.09,149.94c5.62-4.18,12.89-6.31,21.66-6.31,11.65,0,20.9,2.67,27.69,8,0,9-3.5,16.73-10.42,23.31-7.13,6.58-15.22,9.87-24.13,9.87a25.9,25.9,0,0,1-16.45-5.49,16.74,16.74,0,0,1-7.12-14C1047.32,159.12,1050.2,154,1056.09,149.94ZM1029,105,1047.87,117C1054.58,107,1064,102,1076.1,102a31.09,31.09,0,0,1,20.56,7.68c5.83,5.34,8.78,11.65,8.78,18.91v4.94c-8.23-4.73-18.64-7.13-31.26-7.13-15,0-26.86,3.5-35.64,10.42s-13.16,16.38-13.16,28.24A35,35,0,0,0,1038,192.71q12.54,11.21,31.25,11.24c14.6,0,26.39-6.45,35.37-19.47h.82v15.63h20.29V130.2c0-14.6-4.6-26.18-13.71-34.82Q1098.23,83.05,1075,83,1044.58,83,1029,105Z"/>
        <path d="M1149.83,200.11h21.38V137.33a37.88,37.88,0,0,1,8.5-24.68,26.76,26.76,0,0,1,21.38-10.14q27.15,0,28,27.69v69.91h21.38V128.83q0-21.9-11.24-34C1231.66,87,1221,83,1207.12,83A43.82,43.82,0,0,0,1186,88.53a38.43,38.43,0,0,0-14.8,14h-.82V86.61h-20.56Z"/>
        <path d="M1328.55,134.58l-17.27-4.38c-12.27-2.74-18.37-7.4-18.37-14,0-4,2.26-7.41,6.85-10.15a27.4,27.4,0,0,1,14.81-4.11A35.45,35.45,0,0,1,1331,105.8a24.65,24.65,0,0,1,10.42,11.51l18.91-8c-3.15-8-8.77-14.39-17-19.19A52.82,52.82,0,0,0,1316.21,83c-13.16,0-24,3.16-32.35,9.32s-12.61,14.54-12.61,25c0,15.77,11,26.32,33.18,31.8l19.46,4.94c11.1,3.5,16.72,8.77,16.72,15.9,0,4-2.33,7.54-6.85,10.42a31.69,31.69,0,0,1-17,4.39,29.74,29.74,0,0,1-17.54-5.49c-5.35-3.84-9.32-9.18-12.07-16.17L1268,171.32a48.8,48.8,0,0,0,18.65,23.58c8.56,6,18.64,9,30.15,9,13,0,23.85-3.5,32.63-10.42,8.56-6.72,12.88-15.08,12.88-24.95Q1362.27,143.08,1328.55,134.58Z"/>
        <path d="M1380.67,34.24V200.11h21.38V34.24Z"/>
        <path d="M1452.29,149.94c5.62-4.18,12.88-6.31,21.66-6.31,11.65,0,20.9,2.67,27.69,8,0,9-3.5,16.73-10.42,23.31-7.13,6.58-15.22,9.87-24.13,9.87a25.9,25.9,0,0,1-16.45-5.49,16.74,16.74,0,0,1-7.12-14C1443.52,159.12,1446.39,154,1452.29,149.94Zm-27.14-45L1444.06,117c6.72-10,16.18-15.08,28.24-15.08a31.09,31.09,0,0,1,20.56,7.68c5.83,5.34,8.78,11.65,8.78,18.91v4.94c-8.23-4.73-18.65-7.13-31.26-7.13-15,0-26.86,3.5-35.64,10.42s-13.16,16.38-13.16,28.24a35,35,0,0,0,12.61,27.69q12.55,11.21,31.26,11.24c14.6,0,26.38-6.45,35.36-19.47h.83v15.63h20.28V130.2q0-21.9-13.7-34.82-13.79-12.33-37-12.34Q1440.78,83,1425.15,105Z"/>
        <path d="M1610.45,199l-6.58-18.92a34.47,34.47,0,0,1-4.66,1.38,20.27,20.27,0,0,1-4.94.54,13.88,13.88,0,0,1-9.86-4.11c-3-2.53-4.39-7.68-4.39-15.35V106.07h27.69V86.61H1580V51.79h-21.39V86.61h-20v19.46h20v63.61c.14,10.07,3.29,18,9.33,23.85s13.84,8.5,23,8.5A57.11,57.11,0,0,0,1610.45,199Z"/>
        <path d="M1732.69,145c0-19.74-4.94-34.95-14.81-45.78q-15.11-16.14-40.3-16.18-24.67,0-40.3,17-15.62,17.28-15.62,43.32c0,17.54,5.34,32,16.17,43.31Q1654,204,1679,204a58.73,58.73,0,0,0,30.71-8.23A57.79,57.79,0,0,0,1731,173.24l-19.19-9.32q-11.5,20.57-32.07,20.56a34.75,34.75,0,0,1-25.23-10.14c-7.33-6.93-11.1-16-11.24-27.14h89.1ZM1645,129.65a35.78,35.78,0,0,1,11.51-20c5.62-4.73,12.61-7.13,20.84-7.13,9.46,0,17.27,2.6,23.3,7.68a29.37,29.37,0,0,1,9.6,19.46Z"/>
    </g>
</svg>
