<svg xmlns="http://www.w3.org/2000/svg" width="173" height="21" viewBox="0 0 6200 787"><path d="M1612 190h74l1 209 12-13c7.835-7.588 15.76-14.206 25-20l1.827-1.148c37.568-23.215 82.569-25.18 124.68-15.25 41.871 10.392 77.785 36.207 100.352 72.984 23.19 38.78 36.134 84.176 36.344 129.441l.021 3.088c.018 3.274.024 6.548.026 9.822l.002 3.394c-.016 17.071-.486 33.787-3.252 50.669l-.536 3.32c-7.024 42.171-22.11 87.095-53.991 117.242-1.718 1.622-1.718 1.622-3.91 4.438-3.215 3.764-6.786 6.816-10.563 10l-2.586 2.281c-12.181 10.546-25.736 19.066-40.387 25.768a89.193 89.193 0 0 0-3.957 1.977c-6.275 3.158-11.718 3.567-18.67 3.555l-3.414.04c-3.705.039-7.41.047-11.115.05l-7.783.041c-5.435.024-10.869.032-16.303.03-6.242-.003-12.482.039-18.723.102-6.046.06-12.09.073-18.137.07-2.552.005-5.104.023-7.655.054-15.11.167-26.49-.547-39.27-8.968l-5.813-3.438c-8.722-5.793-16.363-12.556-23.812-19.875l-1.81-1.755c-5.622-5.632-9.646-11.373-14.565-17.932l-1 51h-68V190zm109.813 248.75c-30.457 30.712-41.824 75.146-42.016 117.46l-.021 3.147c-.018 3.34-.024 6.679-.026 10.018l-.002 3.458c.046 49.235 6.284 97.317 41.912 133.913 19.641 19.493 44.78 28.654 72.152 29.567C1817.9 735.82 1840.576 727.5 1859 712l1.597-1.343c25.728-21.934 39.463-51.537 46.153-84.157l.602-2.906c3.455-17.811 4.021-35.559 3.96-53.657l-.005-3.411c-.045-16.347-.353-32.402-3.307-48.526l-.52-2.942c-6.617-36.366-22.302-70.015-53.043-92.058-44.592-29.018-95.709-20.473-132.624 15.75zM5449 382l2.098 1.816c23.28 21.43 29.945 55.522 31.21 85.64a1699.52 1699.52 0 0 1 .302 9.11c.543 17.38.574 34.764.62 52.151.016 6.004.04 12.007.065 18.01.07 17.046.13 34.092.182 51.139.028 9.472.064 18.944.106 28.416.022 4.97.041 9.94.05 14.91.041 19.794.285 39.538 1.313 59.308l.126 2.456c1.368 25.878 5.628 49.434 16.948 72.93 1.394 3.008 2.674 6.067 3.98 9.114h-78c-7.816-16.935-11.838-32.785-15-51l-2.43 1.95c-14.216 11.33-28.702 22.133-44.57 31.05l-1.961 1.124c-29.677 16.909-29.677 16.909-44.556 17.05l-3.477.04-3.82.026-4.023.04c-12.282.116-24.564.173-36.847.217-9.062.033-18.122.092-27.184.187-6.388.065-12.776.098-19.165.11a916.46 916.46 0 0 0-11.413.082c-16.611.23-31.034.06-45.554-8.876l-3.91-2.278c-26.91-16.098-46.086-41.38-54.09-71.644-4.987-19.967-5.39-43.126 0-63.078l.586-2.175c5.847-20.835 16.627-38.117 31.414-53.825l1.633-1.828c34.265-36.848 91.137-42.063 137.867-48.11 18.86-2.44 37.681-4.963 56.426-8.195l2.155-.37c21.674-3.752 42.923-8.388 63.933-14.95C5406 512 5406 512 5408 512c.035-42.677.035-42.677-19.063-79.625-14.256-13.213-33.134-19.948-51.937-23.375l-3.688-.684c-34.4-5.11-77.568-3.762-106.507 17.465-19.498 15.424-27.41 39.402-34.805 62.219-9.017-.598-17.935-1.552-26.887-2.777l-3.83-.52c-2.645-.36-5.29-.722-7.934-1.087-3.39-.466-6.78-.922-10.172-1.374-3.251-.437-6.501-.885-9.751-1.332l-3.69-.49-3.391-.474-2.99-.409C5121 479 5121 479 5119 477c.197-2.005.197-2.005.836-4.488l.714-2.798.825-3.026.84-3.125c10.154-36.595 28.82-69.832 62.32-89.63 30.905-17.246 64.311-25.842 99.465-28.933l3.617-.34c53.188-4.175 119.668-.54 161.383 37.34zm-49.18 190.723c-35.019 12.25-71.113 18.471-107.642 24.31-52.376 6.343-52.376 6.343-94.182 35.565-10.244 15.378-14.624 32.39-11.309 50.672 3.67 17.212 13.562 31.978 28.313 41.73 29.162 16.901 65.783 17.206 97.867 9.121 1.38-.368 2.757-.741 4.133-1.121l1.966-.542c31.754-9.067 58.776-29.735 75.034-58.458 16.354-31.002 14.235-69.028 14-103-3.212 0-5.167.647-8.18 1.723zM3920.871 382.523c18.094 17.116 27.432 40.948 30.879 65.227l.35 2.446c2.051 16.204 2.048 32.697 2.074 49.007l.02 5.436c.014 3.86.026 7.719.036 11.578.016 6.156.04 12.311.065 18.466.07 17.49.13 34.981.182 52.472.029 9.693.064 19.386.106 29.08.022 5.092.041 10.184.05 15.277.044 21.253.345 42.467 1.266 63.703l.117 2.799c.667 15.591 1.406 31.422 5.234 46.611l.653 2.649c3.16 12.38 7.837 23.742 13.777 35.03C3977 785 3977 785 3977 787h-78c-7.291-17.013-11.658-32.946-15-51l-2.656 2.281c-18.859 15.902-39.74 29.296-61.969 39.969l-1.916.926c-11.509 5.364-21.85 8.576-34.618 8.471-1.352.007-2.704.016-4.056.027-3.626.022-7.251.014-10.877-.002-3.821-.013-7.642-.001-11.463.007-6.41.009-12.82-.003-19.23-.027-7.38-.027-14.761-.019-22.143.009-6.372.023-12.744.026-19.117.013-3.79-.008-7.581-.01-11.372.007-3.564.015-7.128.005-10.692-.024-1.91-.01-3.822.005-5.732.02-8.373-.1-14.684-1.958-22.159-5.677l-2.135-1.008c-18.997-9.157-36.918-23.766-47.865-41.992l-1.715-2.605c-17.133-27.182-20.257-62.509-13.285-93.395 5.105-21.435 16.47-39.687 31-56l1.734-1.992c35.954-38.734 95.636-43.396 144.624-49.72 19.856-2.563 39.634-5.285 59.322-8.944l2.357-.438c18.28-3.421 36.519-7.123 54.182-13.023C3877 512 3877 512 3879 512c.24-42.872.24-42.872-19.5-79.586-15.917-15.37-37.131-21.325-58.5-24.414l-1.95-.294c-7.686-1.017-15.436-.949-23.175-.956l-2.274-.003c-13.044.012-25.762.796-38.601 3.253l-2.138.406c-22.09 4.452-39.398 15.937-51.917 34.668-7.51 12.348-12.392 26.139-16.32 40.001C3664 487 3664 487 3663 488c-8.721-.22-17.449-1.655-26.078-2.848l-3.917-.533c-3.393-.463-6.786-.93-10.18-1.396-3.479-.478-6.958-.953-10.438-1.428A21556 21556 0 0 1 3592 479c-.82-3.7-1.007-6.065.004-9.738l.736-2.71.823-2.865.838-2.973c10.642-36.984 30.293-69.042 64.336-88.467 72.126-39.743 196.92-47.04 262.134 10.276zm-48.332 189.98c-36.617 12.784-74.726 19.347-112.977 25.122-50.31 6.237-50.31 6.237-90.063 34.84-10.07 14.09-14.581 30.84-11.964 48.055 3.384 17.069 11.437 32.439 26.116 42.626 3.989 2.547 8.12 4.735 12.349 6.854l2.414 1.242c29.767 13.569 70.315 9.315 100.211-1.43 13.995-5.287 26.864-12.193 38.375-21.812l3.016-2.52c26.341-22.723 36.147-53.44 38.644-87.265.907-15.699.49-31.498.34-47.215-2.447 0-4.15.682-6.46 1.504zM2658.773 389.148c2.45 2.242 4.84 4.543 7.227 6.852l1.515 1.437C2709.214 437.02 2726.16 495.877 2728 552c.142 6.479.18 12.957.187 19.438l.004 2.457c0 2.305-.01 4.609-.023 6.914l-.004 2.114c-.047 4.843-.047 4.843-1.164 7.077h-322c5.195 36.362 10.829 73.408 36 102l2.043 2.441c20.626 24.007 49.636 37.462 80.98 40.282 30.885 2.154 60.578-4.784 84.586-24.91A197.524 197.524 0 0 0 2616 703l1.98-1.902c13.565-14.124 22.493-33.264 29.329-51.41C2648 648 2648 648 2649 647c9.38.218 18.756 1.643 28.05 2.848l4.182.533c3.622.463 7.244.93 10.865 1.396 3.714.479 7.429.953 11.143 1.428 7.254.928 14.507 1.86 21.76 2.795-2.733 24.032-15.688 48.797-30 68l-1.243 1.717C2672.78 754.597 2642.35 776.792 2608 787c-2.975.268-2.975.268-6.16.294l-3.682.044-4 .016-4.245.04c-4.64.042-9.278.063-13.917.083l-4.818.024c-7.56.038-15.118.067-22.677.083-8.674.02-17.346.072-26.019.153-6.734.061-13.468.09-20.202.097-4.007.005-8.013.022-12.02.073-18.11.218-33.758-.528-50.26-8.907l-5.175-2.512c-16.216-7.92-30.561-18.31-43.825-30.488l-1.561-1.424c-39.358-36.338-56.74-90.4-60.439-142.576-.15-4.125-.187-8.247-.203-12.375l-.017-3.525c-.01-2.458-.016-4.915-.02-7.372-.01-3.662-.04-7.324-.073-10.986-.096-21.259 1.453-42.42 5.938-63.242l.767-3.598c9.32-41.796 29.854-83.398 63.608-110.902l3.195-2.703c66.59-55.592 176.571-59.861 256.578 1.851zm-216.98 55.055C2420.195 467.207 2411.555 498.34 2409 529h240c0-34.428-12.397-67.373-36.5-91.875-5.443-5.387-10.93-10.14-17.5-14.125l-2.61-1.719c-49.233-31.009-111.456-16.15-150.597 22.922zM5995.456 343.938c36.168-.785 71.458 4.694 103.544 22.062l2.937 1.488c23.326 12.036 43.671 31.453 59.063 52.512l1.272 1.728C6198.26 471.242 6200 530.198 6200 590h-321c6.034 45.257 15.292 89.909 53.285 119.633 28.04 21.076 61.738 28.841 96.43 24.047 27.286-4.15 51.648-17.207 68.472-39.43 10.59-14.398 18.713-30.47 24.813-47.25 9.778.594 19.434 1.584 29.148 2.848l4.178.533c3.614.462 7.227.929 10.84 1.396 3.707.479 7.415.953 11.123 1.428 7.238.927 14.475 1.86 21.711 2.795-.707 5.333-1.791 10.112-3.5 15.188l-.788 2.34c-16.308 47.012-47.945 83.156-92.212 105.488l-2.08.91a82.247 82.247 0 0 0-5.2 2.55c-13.87 6.427-28.877 5.441-43.834 5.396-3.195-.006-6.39.006-9.585.018-7.553.028-15.106.025-22.66.002-7.731-.023-15.461.005-23.192.059-6.692.045-13.384.057-20.076.046-3.973-.007-7.945-.003-11.918.032-18.02.144-33.503-.797-49.955-9.029l-3.472-1.596a129.345 129.345 0 0 1-7.466-3.779l-2.616-1.398c-7.623-4.159-14.604-8.896-21.446-14.227l-2.7-2.027c-43.903-34.192-65.242-85.822-72.233-139.736-.41-3.408-.746-6.819-1.067-10.237l-.34-3.48c-4.256-53.465 1.698-110.783 27.34-158.52l1.52-2.969c22.038-42.255 61.76-73.053 106.535-87.718 18.515-5.776 38.023-8.886 57.401-9.375zM5920 440l-2.008 1.824c-21.943 20.26-32.1 52.36-34.992 81.176v6h240c-.648-9.078-1.376-17.49-3.188-26.312l-.668-3.27c-6.604-30.989-22.294-57.742-48.926-75.593C6022.954 393.472 5959.613 400.78 5920 440zM4663.604 343.938c31.216-.633 61.608 2.45 91.396 12.062l2.125.678c28.4 9.268 53.99 26.008 68.875 52.322l1.863 3.262c8.382 15.704 16.45 36.711 16.137 54.738-8.484 1.179-16.968 2.353-25.453 3.52-3.94.543-7.881 1.087-11.82 1.635-3.806.53-7.612 1.054-11.419 1.575-1.448.2-2.897.4-4.345.603-2.036.285-4.073.563-6.11.84l-3.506.485c-3.472.355-6.86.4-10.347.342l-.7-3.297c-4.573-20.913-13.27-39.27-31.675-51.453-31.522-18.93-71.511-18.111-106.434-10.41-16.653 4.326-30.599 12.363-40.254 26.785A130.79 130.79 0 0 0 4589 443l-1.086 2.094c-3.695 8.815-3.286 20.978-.289 29.969 2.112 4.897 4.866 8.942 8.375 12.937l1.45 1.766c8.07 9.027 19.239 13.374 30.464 17.043l3.17 1.044c10.58 3.44 21.27 6.442 32.003 9.36 5.879 1.6 11.75 3.225 17.624 4.846l3.618.996C4823.257 561.323 4823.257 561.323 4847 602c9.804 17.776 13.42 36.58 13.312 56.75l-.005 2.142c-.045 10.325-.438 20.124-3.307 30.108l-1.031 3.715c-10.196 33.378-33.768 61.398-64.294 77.98l-2.925 1.555-2.664 1.428c-2.99 1.535-6.03 2.922-9.086 4.322l-3.561 1.783c-15.2 6.991-31.212 6.267-47.57 6.19-3.321-.011-6.643 0-9.965.011-7.85.026-15.701.016-23.552-.016-8.037-.034-16.072-.013-24.108.036-6.96.04-13.92.05-20.879.033-4.13-.01-8.26-.008-12.39.023-18.299.121-34.314-.556-50.975-9.06-1.431-.693-2.863-1.384-4.296-2.073-34.44-16.71-58.094-48.15-70.545-83.734-2.52-7.46-4.753-14.974-6.597-22.63l-.497-2.06c-.882-3.914-1.122-7.504-1.065-11.503 11.178-1.874 22.358-3.737 33.539-5.591l7.112-1.184a4252.78 4252.78 0 0 1 10.721-1.77c1.968-.324 3.935-.653 5.902-.981l3.624-.591 3.146-.52c3.016-.37 5.92-.427 8.956-.363l.44 1.95c6.478 28.307 16.383 53.663 41.751 70.12 18.35 11.212 39.38 16.329 60.809 16.93l3.828.121c29.45.616 61.446-3.786 83.866-24.58 11.443-11.26 18.318-25.96 18.618-42.041.014-13.333-4.279-23.356-12.945-33.39-21.12-21.027-62.92-25.472-90.764-32.687-19.657-5.094-39.222-10.354-58.603-16.423l-3.622-1.125c-27.536-8.63-53.577-18.33-74.378-38.875l-1.941-1.723C4524.625 529.37 4515.192 504.631 4513 483c-1.507-35.788 6.561-65.308 29.937-92.812 4.567-4.953 9.74-9.082 15.063-13.188l2.586-2.062c28.046-21.561 68.402-30.176 103.018-31zM4379.867 381.066c22.52 20.677 34.584 52.96 37.133 82.934l.23 2.712c2.76 33.921 1.907 68.13 1.874 102.136-.008 7.582-.01 15.164-.01 22.746-.002 13.513-.009 27.026-.019 40.54-.009 13.098-.016 26.197-.02 39.296v2.461l-.005 12.229c-.01 33.626-.028 67.253-.05 100.88h-75l-.044-26.057a96862.94 96862.94 0 0 0-.218-95.672l-.007-2.59c-.035-13.797-.06-27.593-.081-41.39-.022-14.183-.055-28.367-.099-42.551-.026-8.734-.044-17.468-.05-26.201-.006-6.011-.022-12.021-.047-18.032-.014-3.454-.023-6.908-.019-10.362.041-47.972.041-47.972-22.094-89.05-19.58-19.332-42.967-25.367-69.87-25.342-27.658.27-53.046 9.73-74.471 27.247l-2.195 1.664c-21.978 17.496-28.5 50.127-31.805 76.336-.807 7.427-1.15 14.764-1.158 22.231l-.015 3.259c-.015 3.572-.024 7.145-.032 10.718l-.03 7.719c-.022 5.524-.04 11.048-.056 16.572-.023 7.987-.05 15.974-.08 23.96-.048 12.961-.091 25.922-.132 38.882a100287.643 100287.643 0 0 1-.174 51.796c-.114 32.288-.22 64.575-.323 96.863h-75V354h67l1 58 11-14c7.005-8.235 14.325-15.515 23-22l2.91-2.2c58.72-42.536 153.772-41.646 208.957 7.266zM2781 190h474v71h-198v526h-79V261h-197v-71zM969 190h80v526h294v71H969V190zM5682 203v151h74v58h-74a148563.037 148563.037 0 0 0 .317 111.102l.008 2.365c.04 12.591.072 25.182.102 37.773.032 12.947.07 25.894.116 38.84.027 7.97.05 15.941.064 23.912.012 6.141.034 12.282.06 18.423.01 2.498.015 4.996.017 7.494.012 11.93.196 23.803 1.148 35.7l.21 2.785c.97 10.683 3.834 18.355 11.958 25.606 2.567 1.727 5.084 2.979 8 4l2.875 1.086c5.858 1.627 12.038 1.163 18.063 1.101l3.906-.019c9.089-.073 18.1-.42 27.156-1.168 2.696 13.74 5.153 27.5 7.347 41.328.476 2.99.962 5.98 1.448 8.969.305 1.906.609 3.812.912 5.719l.442 2.7c.327 2.089.595 4.186.851 6.284-2.178 2.178-7.348 1.18-10.378 1.193l-2.987.025c-3.28.025-6.561.041-9.842.055l-3.395.017c-5.94.026-11.88.046-17.82.06-6.12.017-12.237.061-18.356.112-4.716.034-9.432.046-14.148.051-2.253.007-4.507.022-6.76.046-22.486.226-22.486.226-32.314-5.559l-2.713-1.475c-13.172-7.301-22.658-16.976-29.6-30.275l-.986-1.838c-5.13-10.36-6.22-22.573-7.367-33.935l-.383-3.783c-1.29-13.78-1.35-27.503-1.292-41.332.003-2.832 0-5.664 0-8.495-.002-6.028.007-12.056.024-18.084.024-8.715.032-17.43.036-26.145.006-14.148.026-28.297.055-42.445.027-13.722.049-27.444.061-41.166l.003-2.575.011-12.79c.031-35.221.086-70.442.151-105.662h-54v-58h54l-1.02-23.027c-.148-4.845-.287-9.688-.396-14.534-.173-7.677-.376-15.344-.772-23.014-2.148-42.722-2.148-42.722 4.952-51.36 6.328-6.195 14.365-9.197 22.663-11.814 5.367-1.88 9.827-4.835 14.51-8.001a749.615 749.615 0 0 1 4.95-3.09l2.482-1.542c4.928-3.03 9.902-5.983 14.881-8.93l2.91-1.728 2.668-1.573 2.372-1.4c1.8-.987 1.8-.987 2.8-.987zM447 0c6.963.593 13.226 2.438 19.867 4.563 1.116.35 2.232.702 3.382 1.064 2.346.74 4.69 1.483 7.034 2.23 3.599 1.145 7.2 2.282 10.803 3.416a15092.549 15092.549 0 0 1 10.117 3.2l3.015.96 2.66.846C506 17 506 17 508 18c-1.501 7.942-4.148 15.263-7 22.813l-1.367 3.677c-3.413 9.123-3.413 9.123-4.84 11.634-1.024 2.422-.744 3.453.207 5.876 1.025 1.756 1.025 1.756 2.336 3.434l1.459 1.946 1.58 2.058 1.635 2.15c11.976 15.623 25.357 29.86 39.24 43.787l1.43 1.438c5.596 5.62 11.27 11.059 17.32 16.187l3.133 2.703a589.023 589.023 0 0 0 21.813 17.707c1.448 1.121 2.893 2.246 4.334 3.375 12.96 10.144 26.308 19.486 40.085 28.486a698.876 698.876 0 0 1 8.572 5.734C678.757 218.581 722.92 241.18 767 263c0 4.499 0 4.499-2.387 7.328l-1.574 1.9-1.726 2.022c-1.2 1.44-2.4 2.88-3.598 4.32l-1.872 2.228c-2.857 3.414-5.663 6.87-8.468 10.327l-1.615 1.986C739.38 300.97 733.035 308.874 727 317c-5.877-1.672-11.06-4.475-16.438-7.313l-3.058-1.605c-10.03-5.3-19.903-10.866-29.746-16.506a1358.03 1358.03 0 0 0-7.887-4.467c-25.136-14.175-49.373-29.5-73.263-45.67-3.088-2.09-6.186-4.165-9.288-6.236-10.112-6.785-19.76-14.048-29.301-21.613a500.302 500.302 0 0 0-7.232-5.563c-6.568-4.986-12.874-10.228-19.123-15.602a802.307 802.307 0 0 0-5.066-4.296c-12.93-10.925-25.113-22.557-37.098-34.504l-2.824-2.81c-5.099-5.11-10.019-10.3-14.676-15.815l-1.503-1.773a1494.514 1494.514 0 0 1-5.577-6.645c-2.52-2.999-5.1-5.861-7.92-8.582l-2.09 2.676c-8.397 10.734-16.842 21.327-26.137 31.304-2.04 2.197-4.004 4.448-5.957 6.723-4.518 5.184-9.383 10.01-14.253 14.86l-2.737 2.748c-5.114 5.107-10.338 9.988-15.826 14.689a1251.412 1251.412 0 0 0-4.813 4.375c-45.873 41.335-99.711 73.462-153.875 102.563l-3.398 1.826A1530.48 1530.48 0 0 1 218 305l-1.86 1.003a574.515 574.515 0 0 1-5.66 3l-3.397 1.812c-3.37 1.295-4.741 1.452-8.083.185-1.65-1.272-1.65-1.272-3.086-2.879l-1.62-1.78-1.669-1.904-1.747-1.938A658.963 658.963 0 0 1 186 297l-2.086-2.355a599.27 599.27 0 0 1-3.25-3.73c-4.278-4.922-8.686-9.73-13.062-14.563C156 263.517 156 263.517 156 261l2.281-1.095A6664.19 6664.19 0 0 0 185 247l3.358-1.631c14.873-7.254 29.33-15.067 43.642-23.369l3.588-2.07c19.637-11.287 19.637-11.287 38.59-23.668 2.078-1.44 4.171-2.851 6.267-4.262 17.133-11.564 33.673-23.769 49.555-37l1.74-1.44c12.356-10.233 23.957-21.16 35.335-32.46 1.1-1.092 2.201-2.182 3.304-3.27C377.402 110.887 383.85 103.74 390 96a450.56 450.56 0 0 1 3.09-3.625C416.074 65.333 434.32 33.06 447 0zM0 288h64v442h246v57H0V288zM4945 190h74v597h-74V190z" fill="#FFF"/><path d="M541 262c11.361-.388 22.59.66 33.896 1.654 3.256.286 6.512.562 9.768.836l6.219.537 2.945.25 2.723.242 2.391.209C601 266 601 266 604 267c.285 14.447-.566 28.567-2 42.938-2.668 22.468-2.668 22.468-.063 44.75l.666 2.667C617.037 412.895 645.159 464.262 682 508l1.293 1.55c13.06 15.64 26.95 31.225 42.457 44.481 2.339 2.047 4.61 4.153 6.88 6.274 6.255 5.84 12.691 11.342 19.37 16.695a2349.42 2349.42 0 0 1 3.855 3.164c7.55 6.198 15.143 12.225 23.145 17.836-.574 3.444-1.638 4.962-4.21 7.285l-2.009 1.842-2.156 1.936a2858.343 2858.343 0 0 0-4.398 4.035l-2.187 2.004c-2.756 2.564-5.4 5.216-8.04 7.898a175.253 175.253 0 0 1-11.008 10.23c-3.837 3.41-7.401 7.105-10.992 10.77-4.503-1.454-7.635-3.98-11.125-7.063a3028.146 3028.146 0 0 0-3.477-3.007l-1.739-1.51c-2.343-2.006-4.75-3.93-7.159-5.857-5.224-4.251-10.154-8.774-15.066-13.375-2.684-2.513-5.421-4.96-8.168-7.403-5.5-4.939-10.74-10.11-15.953-15.347l-2.721-2.71c-4.541-4.547-8.947-9.15-13.132-14.028-1.852-2.156-3.781-4.237-5.71-6.325-4.548-5.04-8.717-10.324-12.871-15.688a329.631 329.631 0 0 0-5.79-7.25c-7.416-9.046-14.095-18.473-20.59-28.2a589.725 589.725 0 0 0-4.085-6.007C594.345 492.594 584.085 473.817 574 455c-1.663 2.494-2.75 4.587-3.883 7.324l-1.086 2.593-1.156 2.77c-3.943 9.305-8.15 18.382-12.875 27.313l-1.127 2.142C542.269 519.032 527.899 539.037 512 558l-2.493 3.01c-7.443 8.898-15.408 17.17-23.645 25.334-2.129 2.11-4.25 4.23-6.37 6.35a8307.22 8307.22 0 0 1-4.133 4.115l-1.882 1.878C469.14 602.98 464.63 607.027 460 611l-1.613 1.394a561.95 561.95 0 0 1-23.672 19.273 443.323 443.323 0 0 0-5.125 4.06l-3.215 2.523-2.852 2.266C421 642 421 642 419.076 641.786c-2.45-.927-3.879-2.099-5.81-3.864l-2.112-1.916L409 634l-2.045-1.896a1115.434 1115.434 0 0 1-6.205-5.854c-12.23-11.679-12.23-11.679-25-22.75L373 601v-3c2.36-1.82 4.692-3.449 7.188-5.063 1.478-.985 2.955-1.973 4.43-2.964l2.244-1.508c9.12-6.25 17.65-13.398 26.138-20.465l2.918-2.352c8.441-6.91 16.17-14.521 23.894-22.21l1.624-1.608C448.43 534.889 454.88 527.74 461 520a868.341 868.341 0 0 1 3.082-3.723C522.875 444.755 535.927 351.492 541 262zM3560 367c-.56 4.775-1.527 8.964-3.193 13.47l-1.376 3.75a7907.1 7907.1 0 0 1-1.49 3.99l-1.528 4.134a3053.655 3053.655 0 0 1-3.205 8.618c-1.376 3.686-2.74 7.376-4.1 11.067a2909.11 2909.11 0 0 1-3.157 8.513c-.506 1.36-1.01 2.722-1.51 4.084-.7 1.896-1.409 3.788-2.118 5.68l-1.216 3.267C3536 436 3536 436 3534 437c-1.765-.65-1.765-.65-3.895-1.73l-2.376-1.18-2.541-1.277c-7.623-3.718-14.927-6.787-23.188-8.813l-2.57-.676c-19.927-4.479-40.095-.846-57.43 9.676-24.604 16.947-32.726 45.016-38 73-1.224 7.304-2.192 14.639-3 22l-.268 2.289c-1.13 11.212-.91 22.492-.937 33.747l-.03 7.306c-.022 5.223-.04 10.447-.056 15.67-.023 7.552-.05 15.104-.08 22.656-.048 12.256-.091 24.511-.132 36.767a90180.874 90180.874 0 0 1-.174 48.978c-.114 30.529-.22 61.058-.323 91.587h-74V354h67l1 60 14-23c16.777-23.245 35.423-41.152 64.5-46.313 32.144-4.061 60.91 7.051 88.5 22.313zM2310 367c-.56 4.775-1.527 8.964-3.193 13.47l-1.376 3.75a7907.1 7907.1 0 0 1-1.49 3.99l-1.528 4.134a3053.655 3053.655 0 0 1-3.205 8.618c-1.376 3.686-2.74 7.376-4.1 11.067a2909.11 2909.11 0 0 1-3.157 8.513c-.506 1.36-1.01 2.722-1.51 4.084-.7 1.896-1.409 3.788-2.118 5.68l-1.216 3.267C2286 436 2286 436 2284 437c-1.765-.65-1.765-.65-3.895-1.73l-2.376-1.18-2.541-1.277c-7.623-3.718-14.927-6.787-23.188-8.813l-2.57-.676c-19.927-4.479-40.095-.846-57.43 9.676-24.604 16.947-32.726 45.016-38 73-1.224 7.304-2.192 14.639-3 22l-.268 2.289c-1.13 11.212-.91 22.492-.937 33.747l-.03 7.306c-.022 5.223-.04 10.447-.056 15.67-.023 7.552-.05 15.104-.08 22.656-.048 12.256-.091 24.511-.132 36.767a90180.874 90180.874 0 0 1-.174 48.978c-.114 30.529-.22 61.058-.323 91.587h-74V354h67l1 60 14-23c16.777-23.245 35.423-41.152 64.5-46.313 32.144-4.061 60.91 7.051 88.5 22.313z" fill="#FFF"/><path d="M313.277 261.855c6.15.065 12.191.735 18.293 1.457l3.522.404c3.678.423 7.356.853 11.033 1.284l7.523.867c6.118.705 12.235 1.417 18.352 2.133-.554 11.175-1.823 22.13-3.5 33.188l-.386 2.57c-4.233 27.942-9.818 55.769-17.083 83.087l-.816 3.089-.715 2.626c-.534 2.606-.765 4.79-.5 7.44a56.267 56.267 0 0 0 6.062 5.438c1.288 1.051 2.573 2.106 3.856 3.164l2.033 1.669c3.424 2.89 6.67 5.963 9.924 9.041 5.536 5.224 5.536 5.224 11.25 10.25 4.265 3.66 8.154 7.69 12.1 11.685 2.815 2.837 5.634 5.573 8.712 8.128 5.362 4.542 9.968 9.874 14.723 15.031a230.51 230.51 0 0 0 7.777 8.031c3.733 3.686 7.155 7.578 10.563 11.563l2.93 3.371 3.195 3.692 1.524 1.75c3.368 3.91 6.404 7.95 9.351 12.187-1.363 3.133-2.814 4.954-5.438 7.125A342.557 342.557 0 0 0 437.5 521c-3.12 2.845-6.248 5.672-9.438 8.438-3.965 3.442-7.826 6.996-11.675 10.568-3.375 3.116-6.84 6.078-10.387 8.994-4.289-1.542-6.435-4.794-9.063-8.313-.975-1.275-1.953-2.548-2.933-3.82l-1.507-1.958c-2.74-3.494-5.631-6.855-8.518-10.227a394.624 394.624 0 0 1-8.292-10.057c-4.803-5.903-9.997-11.41-15.222-16.938a306.384 306.384 0 0 1-6.211-6.75c-5.481-6.14-11.219-11.901-17.192-17.562l-2.225-2.12-2.114-1.982-1.883-1.768c-1.86-1.52-3.656-2.522-5.84-3.505-.235.79-.47 1.58-.71 2.395-8.935 24.989-25.199 48.94-40.29 70.605l-1.318 1.898C276.71 547.463 270.44 555.783 264 564l-2.02 2.578a526.176 526.176 0 0 1-23.714 27.91 442.193 442.193 0 0 0-5.543 6.282c-3.75 4.293-7.622 8.461-11.536 12.605-.7.742-1.4 1.483-2.12 2.248C211.35 623.774 203.57 631.737 195 639l-4 3.438-3 2.562-4.375-3.938-2.766-2.488a5511.77 5511.77 0 0 1-5.468-4.93c-3.733-3.367-7.47-6.724-11.266-10.019-3.984-3.467-7.863-7.046-11.747-10.624A343.53 343.53 0 0 0 141 603c1.466-3.49 3.333-5.417 6.187-7.875l2.715-2.387 1.5-1.318c12.457-11.072 24.992-22.573 35.77-35.31 1.99-2.296 4.05-4.513 6.124-6.732C199.138 543.122 204.69 536.72 210 530l1.522-1.908C224.48 511.825 236.694 495.084 247 477l1.153-1.986C260.75 453.288 270.845 430.744 279 407l1.093-3.171c14.877-43.63 23.254-89.944 27.363-135.82.561-6.152.561-6.152 5.82-6.154zM1427 354h74v433h-74V354zM1427 190h74v85h-74v-85z" fill="#FFF"/></svg>