<svg version="1.1" xmlns="http://www.w3.org/2000/svg" width="245" height="30" viewBox="0 0 245 30">
<rect fill="#F26522" width="14" height="14"/>
<rect y="16" fill="#00AEEF" width="14" height="14"/>
<rect x="16" fill="#8DC63F" width="14" height="14"/>
<rect x="16" y="16" fill="#FFC20E" width="14" height="14"/>
<g fill="#fff" opacity="0.6">
	<path d="M48.383,18.351c-0.187,0.447-0.431,1.13-0.732,2.051H47.59c-0.187-0.68-0.415-1.348-0.684-2L42.3,6.742
		h-4.085v17.505H40.9v-11.3c0-1.587-0.033-2.73-0.1-3.43h0.049c0.111,0.592,0.266,1.176,0.463,1.745l5.237,12.989h2l5.225-13.086
		c0.199-0.537,0.358-1.088,0.476-1.648h0.05c-0.115,1.343-0.172,2.477-0.171,3.4v11.33h2.881V6.742h-3.939L48.383,18.351z"/>
	<rect x="60.298" y="11.747" width="2.832" height="12.5"/>
	<path d="M61.726,5.9c-0.442-0.009-0.87,0.158-1.19,0.464c-0.324,0.297-0.504,0.719-0.494,1.159
		c-0.012,0.436,0.169,0.856,0.494,1.147c0.323,0.299,0.75,0.462,1.19,0.453c0.453,0.01,0.892-0.159,1.221-0.471
		c0.321-0.287,0.503-0.698,0.5-1.129c0.01-0.441-0.173-0.864-0.5-1.159C62.616,6.055,62.178,5.889,61.726,5.9z"/>
	<path  d="M67.23,13.328c-1.259,1.337-1.922,3.127-1.837,4.962c-0.068,1.673,0.549,3.301,1.707,4.51
		c1.19,1.18,2.818,1.811,4.492,1.74c1.24,0.031,2.466-0.268,3.552-0.867v-2.465c-0.804,0.687-1.823,1.071-2.88,1.085
		c-1.082,0.052-2.135-0.356-2.9-1.123c-0.753-0.837-1.142-1.939-1.08-3.063c-0.052-1.17,0.361-2.314,1.148-3.181
		c0.761-0.808,1.832-1.25,2.941-1.214c1.011,0.009,1.99,0.352,2.784,0.977v-2.637c-0.95-0.415-1.978-0.62-3.015-0.6
		C70.315,11.366,68.535,12.046,67.23,13.328z"/>
	<path d="M81.638,12.265c-0.611,0.552-1.053,1.265-1.276,2.058h-0.049v-2.576h-2.832v12.5h2.832v-5.982
		c-0.06-1.093,0.236-2.177,0.843-3.088c0.466-0.706,1.254-1.132,2.1-1.135c0.523-0.036,1.043,0.105,1.477,0.4v-2.683
		c-0.364-0.175-0.767-0.255-1.171-0.232C82.852,11.527,82.166,11.79,81.638,12.265z"/>
	<path d="M92.191,11.454c-1.79-0.091-3.541,0.548-4.852,1.77c-1.254,1.32-1.906,3.101-1.8,4.919
		c-0.08,1.719,0.543,3.396,1.727,4.645c1.231,1.199,2.904,1.833,4.62,1.752c1.763,0.087,3.482-0.566,4.743-1.8
		c1.212-1.293,1.848-3.021,1.764-4.791c0.103-1.744-0.485-3.459-1.636-4.773C95.548,11.981,93.888,11.355,92.191,11.454z
		 M94.591,21.183c-0.632,0.756-1.585,1.167-2.569,1.11c-0.997,0.041-1.959-0.374-2.613-1.128c-0.693-0.878-1.04-1.979-0.976-3.095
		c-0.068-1.147,0.274-2.281,0.964-3.2c0.646-0.775,1.617-1.204,2.625-1.16c0.986-0.056,1.941,0.361,2.569,1.123
		c0.654,0.929,0.971,2.053,0.9,3.186c0.072,1.127-0.246,2.244-0.901,3.164H94.591z"/>
	<path d="M107.934,18.442c-0.327-0.307-0.694-0.568-1.092-0.775c-0.469-0.246-0.951-0.469-1.442-0.667
		c-0.407-0.138-0.767-0.266-1.081-0.385c-0.28-0.102-0.548-0.233-0.8-0.391c-0.205-0.123-0.379-0.292-0.507-0.494
		c-0.119-0.208-0.177-0.445-0.17-0.684c-0.001-0.212,0.058-0.42,0.17-0.6c0.122-0.19,0.285-0.351,0.477-0.47
		c0.228-0.139,0.478-0.24,0.738-0.3c0.318-0.077,0.644-0.115,0.971-0.111c1.078-0.019,2.135,0.295,3.027,0.9v-2.486
		c-0.992-0.364-2.043-0.542-3.1-0.525c-0.638-0.002-1.273,0.078-1.891,0.238c-0.581,0.145-1.134,0.384-1.637,0.708
		c-0.463,0.297-0.855,0.693-1.148,1.159c-0.29,0.48-0.437,1.033-0.426,1.594c-0.009,0.436,0.062,0.87,0.208,1.281
		c0.137,0.366,0.347,0.7,0.616,0.983c0.3,0.31,0.645,0.571,1.025,0.775c0.447,0.245,0.91,0.461,1.385,0.647
		c0.416,0.155,0.793,0.294,1.13,0.415c0.306,0.108,0.601,0.247,0.879,0.415c0.229,0.138,0.43,0.318,0.592,0.531
		c0.15,0.212,0.226,0.467,0.219,0.726c0,1.01-0.854,1.515-2.563,1.514c-1.269,0.002-2.502-0.423-3.5-1.208v2.624
		c1.121,0.48,2.333,0.713,3.552,0.684c0.68,0.003,1.358-0.073,2.02-0.226c0.598-0.134,1.17-0.366,1.691-0.689
		c0.475-0.297,0.875-0.697,1.172-1.172c0.301-0.501,0.453-1.077,0.439-1.661c0.011-0.462-0.072-0.921-0.244-1.349
		C108.478,19.064,108.236,18.724,107.934,18.442z"/>
	<path d="M116.939,11.454c-1.79-0.091-3.541,0.547-4.852,1.77c-1.254,1.32-1.906,3.101-1.8,4.919
		c-0.08,1.719,0.544,3.396,1.728,4.645c1.231,1.199,2.904,1.833,4.62,1.752c1.763,0.087,3.482-0.566,4.743-1.8
		c1.212-1.293,1.848-3.021,1.764-4.791c0.103-1.744-0.485-3.459-1.636-4.773C120.296,11.98,118.637,11.355,116.939,11.454z
		 M119.339,21.183c-0.632,0.756-1.585,1.168-2.569,1.11c-0.997,0.041-1.959-0.375-2.613-1.128c-0.693-0.878-1.04-1.979-0.976-3.095
		c-0.068-1.147,0.274-2.281,0.964-3.2c0.646-0.775,1.617-1.204,2.625-1.16c0.986-0.056,1.941,0.361,2.569,1.123
		c0.654,0.929,0.971,2.053,0.9,3.186c0.072,1.127-0.246,2.244-0.901,3.164H119.339z"/>
	<path d="M139.274,13.968v-2.221h-2.991v-3.7l-2.832,0.806v2.893h-4.416v-1.7c0-1.554,0.688-2.331,2.064-2.332
		c0.457-0.007,0.907,0.106,1.305,0.33V5.692c-0.536-0.174-1.097-0.252-1.66-0.232c-1.183-0.04-2.338,0.367-3.235,1.14
		c-0.876,0.793-1.351,1.938-1.293,3.119v2.027h-2.137v2.221h2.137v10.28h2.832V13.968h4.4v7.069c0,2.327,1.213,3.491,3.638,3.491
		c0.75,0.03,1.498-0.112,2.185-0.415v-2.246c-0.355,0.278-0.795,0.425-1.246,0.415c-0.496,0.05-0.988-0.125-1.341-0.477
		c-0.311-0.468-0.452-1.028-0.4-1.587v-6.25L139.274,13.968z"/>
</g>
<g fill="#fff" opacity="0.6">
	<path d="M156.896,24.116h-9.826V6.611h9.436v2.466h-6.53v4.956h6.018v2.453h-6.018v5.176h6.921V24.116z"/>
	<path d="M170.431,24.116h-2.832v-2.124h-0.049c-0.911,1.611-2.315,2.417-4.211,2.417
		c-1.538,0-2.77-0.56-3.693-1.679c-0.923-1.119-1.385-2.643-1.385-4.571c0-2.067,0.511-3.723,1.531-4.968
		c1.021-1.245,2.383-1.868,4.084-1.868c1.685,0,2.909,0.676,3.674,2.026h0.049V5.61h2.832V24.116z M167.636,18.403v-1.636
		c0-0.887-0.289-1.64-0.867-2.258c-0.578-0.618-1.314-0.928-2.209-0.928c-1.059,0-1.891,0.395-2.497,1.184
		c-0.605,0.789-0.909,1.884-0.909,3.283c0,1.27,0.291,2.272,0.873,3.01c0.582,0.736,1.365,1.104,2.35,1.104
		c0.969,0,1.754-0.356,2.356-1.068C167.334,20.383,167.636,19.485,167.636,18.403z"/>
	<path d="M184.883,23.115c0,4.59-2.309,6.885-6.922,6.885c-1.629,0-3.049-0.273-4.261-0.818v-2.588
		c1.367,0.781,2.665,1.172,3.894,1.172c2.971,0,4.457-1.461,4.457-4.382v-1.367h-0.049c-0.938,1.595-2.344,2.393-4.225,2.393
		c-1.521,0-2.749-0.556-3.681-1.666c-0.932-1.111-1.397-2.603-1.397-4.475c0-2.124,0.5-3.812,1.501-5.065
		c1.001-1.253,2.376-1.88,4.126-1.88c1.652,0,2.877,0.676,3.676,2.026h0.049v-1.733h2.832V23.115z M182.074,18.391v-1.623
		c0-0.879-0.291-1.63-0.873-2.252c-0.582-0.623-1.309-0.934-2.178-0.934c-1.074,0-1.916,0.397-2.521,1.19
		c-0.607,0.794-0.91,1.902-0.91,3.326c0,1.229,0.291,2.212,0.873,2.948s1.354,1.104,2.314,1.104c0.977,0,1.77-0.352,2.379-1.056
		C181.77,20.391,182.074,19.489,182.074,18.391z"/>
	<path d="M198.526,18.635h-8.521c0.032,1.156,0.389,2.047,1.068,2.674c0.679,0.627,1.613,0.939,2.801,0.939
		c1.335,0,2.56-0.398,3.675-1.196v2.283c-1.14,0.716-2.645,1.074-4.517,1.074c-1.839,0-3.282-0.567-4.327-1.703
		c-1.046-1.135-1.569-2.732-1.569-4.791c0-1.945,0.576-3.53,1.728-4.755c1.151-1.225,2.582-1.837,4.291-1.837
		s3.031,0.549,3.968,1.648c0.936,1.099,1.403,2.625,1.403,4.578V18.635z M195.792,16.633c-0.008-1.017-0.248-1.808-0.72-2.374
		c-0.473-0.565-1.123-0.848-1.953-0.848c-0.814,0-1.504,0.297-2.069,0.891c-0.566,0.594-0.914,1.371-1.044,2.331H195.792z"/>
</g>
<g fill="#fff" opacity="0.6">
	<path d="M218.395,9.077h-5.029v15.039h-2.904V9.077h-5.018V6.611h12.951V9.077z"/>
	<path d="M232.052,9.077h-5.029v15.039h-2.904V9.077h-5.018V6.611h12.951V9.077z"/>
	<path d="M233.186,23.42v-2.99c0.268,0.244,0.587,0.464,0.958,0.659c0.37,0.195,0.763,0.36,1.178,0.494
		c0.415,0.135,0.83,0.238,1.245,0.312s0.798,0.109,1.147,0.109c1.221,0,2.13-0.203,2.729-0.61c0.598-0.406,0.897-0.996,0.897-1.77
		c0-0.415-0.101-0.775-0.3-1.08c-0.199-0.306-0.478-0.584-0.836-0.837c-0.358-0.252-0.779-0.494-1.264-0.726
		c-0.484-0.232-1.003-0.475-1.556-0.727c-0.595-0.317-1.148-0.639-1.66-0.965c-0.514-0.325-0.959-0.685-1.337-1.08
		c-0.379-0.395-0.676-0.84-0.892-1.336c-0.216-0.496-0.323-1.078-0.323-1.746c0-0.822,0.185-1.536,0.556-2.143
		c0.37-0.606,0.858-1.106,1.465-1.501c0.605-0.395,1.296-0.688,2.068-0.879c0.773-0.191,1.562-0.287,2.369-0.287
		c1.83,0,3.165,0.208,4.004,0.623V9.81c-0.993-0.716-2.271-1.074-3.834-1.074c-0.431,0-0.86,0.041-1.287,0.122
		c-0.428,0.082-0.811,0.216-1.147,0.403c-0.338,0.188-0.612,0.427-0.824,0.72s-0.317,0.647-0.317,1.062
		c0,0.391,0.081,0.729,0.244,1.013c0.163,0.285,0.4,0.545,0.714,0.781c0.313,0.236,0.696,0.466,1.147,0.689
		c0.452,0.224,0.975,0.466,1.568,0.727c0.611,0.317,1.187,0.651,1.728,1.001s1.018,0.736,1.429,1.159
		c0.41,0.424,0.736,0.894,0.977,1.41c0.239,0.517,0.359,1.104,0.359,1.764c0,0.888-0.179,1.636-0.537,2.246
		c-0.357,0.61-0.84,1.107-1.446,1.489c-0.606,0.383-1.304,0.659-2.093,0.83c-0.79,0.171-1.624,0.257-2.503,0.257
		c-0.293,0-0.653-0.022-1.08-0.067c-0.428-0.045-0.865-0.109-1.312-0.195c-0.447-0.085-0.871-0.189-1.27-0.312
		S233.43,23.575,233.186,23.42z"/>
</g>
</svg>
