<svg xmlns="http://www.w3.org/2000/svg" width="252" height="30" viewBox="0 0 252 30">
    <rect width="14" height="14" fill="#f26522"/>
    <rect y="16" width="14" height="14" fill="#00aeef"/>
    <rect x="16" width="14" height="14" fill="#8dc63f"/>
    <rect x="16" y="16" width="14" height="14" fill="#ffc20e"/>
    <g fill="#fff">
        <path d="M48.383,18.351q-.281.67-.732,2.051H47.59a17.242,17.242,0,0,0-.684-2L42.3,6.742H38.215V24.247H40.9v-11.3q0-2.38-.1-3.43h.049a12.2,12.2,0,0,0,.463,1.745l5.237,12.989h2l5.225-13.086a11.779,11.779,0,0,0,.476-1.648H54.3q-.172,2.015-.171,3.4V24.247h2.881V6.742H53.071Z"/>
        <rect x="60.298" y="11.747" width="2.832" height="12.5"/>
        <path d="M61.726,5.9a1.674,1.674,0,0,0-1.19.464,1.524,1.524,0,0,0-.494,1.159,1.485,1.485,0,0,0,.494,1.147,1.7,1.7,0,0,0,1.19.453,1.721,1.721,0,0,0,1.221-.471,1.5,1.5,0,0,0,.5-1.129,1.515,1.515,0,0,0-.5-1.159A1.728,1.728,0,0,0,61.726,5.9Z"/>
        <path d="M67.23,13.328a6.78,6.78,0,0,0-1.837,4.962A6.159,6.159,0,0,0,67.1,22.8a6.018,6.018,0,0,0,4.492,1.74,6.989,6.989,0,0,0,3.552-.867V21.208a4.528,4.528,0,0,1-2.88,1.085,3.837,3.837,0,0,1-2.9-1.123,4.232,4.232,0,0,1-1.08-3.063,4.441,4.441,0,0,1,1.148-3.181,3.867,3.867,0,0,1,2.941-1.214,4.569,4.569,0,0,1,2.784.977V12.052a7.185,7.185,0,0,0-3.015-.6A6.571,6.571,0,0,0,67.23,13.328Z"/>
        <path d="M81.638,12.265a4.362,4.362,0,0,0-1.276,2.058h-.049V11.747H77.481v12.5h2.832V18.265a5.073,5.073,0,0,1,.843-3.088,2.526,2.526,0,0,1,2.1-1.135,2.343,2.343,0,0,1,1.477.4V11.759a2.39,2.39,0,0,0-1.171-.232A2.88,2.88,0,0,0,81.638,12.265Z"/>
        <path d="M92.191,11.454a6.622,6.622,0,0,0-4.852,1.77,6.584,6.584,0,0,0-1.8,4.919,6.325,6.325,0,0,0,1.727,4.645,6.2,6.2,0,0,0,4.62,1.752,6.335,6.335,0,0,0,4.743-1.8,6.549,6.549,0,0,0,1.764-4.791,6.653,6.653,0,0,0-1.636-4.773A6,6,0,0,0,92.191,11.454Zm2.4,9.729a3.113,3.113,0,0,1-2.569,1.11,3.282,3.282,0,0,1-2.613-1.128,4.576,4.576,0,0,1-.976-3.095,4.854,4.854,0,0,1,.964-3.2,3.234,3.234,0,0,1,2.625-1.16,3.1,3.1,0,0,1,2.569,1.123,4.994,4.994,0,0,1,.9,3.186A4.918,4.918,0,0,1,94.59,21.183Z"/>
        <path d="M107.934,18.442a4.921,4.921,0,0,0-1.092-.775A15.944,15.944,0,0,0,105.4,17q-.61-.207-1.081-.385a4.255,4.255,0,0,1-.8-.391,1.53,1.53,0,0,1-.507-.494,1.3,1.3,0,0,1-.17-.684,1.132,1.132,0,0,1,.17-.6,1.509,1.509,0,0,1,.477-.47,2.494,2.494,0,0,1,.738-.3,3.915,3.915,0,0,1,.971-.111,5.229,5.229,0,0,1,3.027.9V11.979a8.6,8.6,0,0,0-3.1-.525,7.458,7.458,0,0,0-1.891.238,5.455,5.455,0,0,0-1.637.708,3.732,3.732,0,0,0-1.148,1.159,2.971,2.971,0,0,0-.426,1.594,3.6,3.6,0,0,0,.208,1.281,2.9,2.9,0,0,0,.616.983,4.172,4.172,0,0,0,1.025.775,11.828,11.828,0,0,0,1.385.647q.624.233,1.13.415a4.736,4.736,0,0,1,.879.415,2.1,2.1,0,0,1,.592.531,1.2,1.2,0,0,1,.219.726q0,1.515-2.563,1.514a5.648,5.648,0,0,1-3.5-1.208v2.624a8.5,8.5,0,0,0,3.552.684,8.812,8.812,0,0,0,2.02-.226,5.485,5.485,0,0,0,1.691-.689,3.684,3.684,0,0,0,1.172-1.172,3.085,3.085,0,0,0,.439-1.661,3.4,3.4,0,0,0-.244-1.349A3.05,3.05,0,0,0,107.934,18.442Z"/>
        <path d="M116.939,11.454a6.62,6.62,0,0,0-4.852,1.77,6.584,6.584,0,0,0-1.8,4.919,6.325,6.325,0,0,0,1.728,4.645,6.2,6.2,0,0,0,4.62,1.752,6.336,6.336,0,0,0,4.743-1.8,6.549,6.549,0,0,0,1.764-4.791,6.649,6.649,0,0,0-1.636-4.773A6,6,0,0,0,116.939,11.454Zm2.4,9.729a3.112,3.112,0,0,1-2.569,1.11,3.284,3.284,0,0,1-2.613-1.128,4.576,4.576,0,0,1-.976-3.095,4.854,4.854,0,0,1,.964-3.2,3.234,3.234,0,0,1,2.625-1.16,3.1,3.1,0,0,1,2.569,1.123,4.988,4.988,0,0,1,.9,3.186A4.913,4.913,0,0,1,119.338,21.183Z"/>
        <path d="M139.274,13.968V11.747h-2.991v-3.7l-2.832.806v2.893h-4.416v-1.7q0-2.331,2.064-2.332a2.58,2.58,0,0,1,1.305.33V5.692a4.817,4.817,0,0,0-1.66-.232A4.712,4.712,0,0,0,127.509,6.6a3.946,3.946,0,0,0-1.293,3.119v2.027h-2.137v2.221h2.137V24.247h2.832V13.968h4.4v7.069q0,3.491,3.638,3.491a4.917,4.917,0,0,0,2.185-.415V21.867a1.952,1.952,0,0,1-1.246.415,1.665,1.665,0,0,1-1.341-.477,2.452,2.452,0,0,1-.4-1.587v-6.25Z"/>
    </g>
    <g fill="#fff">
        <polygon points="157.86 6.742 144.909 6.742 144.909 9.208 149.927 9.208 149.927 24.247 152.831 24.247 152.831 9.208 157.86 9.208 157.86 6.742"/>
        <path d="M161.971,12.265a4.354,4.354,0,0,0-1.276,2.058h-.049V11.747h-2.832v12.5h2.832V18.265a5.079,5.079,0,0,1,.842-3.088,2.529,2.529,0,0,1,2.1-1.135,2.342,2.342,0,0,1,1.476.4V11.759a2.385,2.385,0,0,0-1.171-.232A2.879,2.879,0,0,0,161.971,12.265Z"/>
        <path d="M171.33,11.454a8.781,8.781,0,0,0-4.564,1.171V15.1a6.03,6.03,0,0,1,4.027-1.538q2.539,0,2.539,2.673l-3.711.525q-4.077.587-4.076,4.126a3.5,3.5,0,0,0,1.043,2.649,4,4,0,0,0,2.887,1,4.132,4.132,0,0,0,3.8-2.247h.049v1.954h2.746v-8.13Q176.066,11.453,171.33,11.454Zm2,7.739a3.223,3.223,0,0,1-.848,2.289,2.806,2.806,0,0,1-2.142.909,2.2,2.2,0,0,1-1.52-.507,1.659,1.659,0,0,1-.568-1.3,1.73,1.73,0,0,1,.617-1.519,4.16,4.16,0,0,1,1.837-.592l2.624-.366Z"/>
        <path d="M185.885,11.454a4.457,4.457,0,0,0-4.053,2.368h-.049V11.747h-2.844v12.5h2.844V17.118a3.6,3.6,0,0,1,.842-2.448,2.708,2.708,0,0,1,2.137-.97q2.478,0,2.478,3.5v7.043h2.832V16.605A5.951,5.951,0,0,0,189,12.778,3.776,3.776,0,0,0,185.885,11.454Z"/>
        <path d="M200.3,18.442a4.921,4.921,0,0,0-1.092-.775A15.944,15.944,0,0,0,197.765,17q-.61-.207-1.08-.385a4.265,4.265,0,0,1-.806-.391,1.53,1.53,0,0,1-.507-.494,1.3,1.3,0,0,1-.17-.684,1.132,1.132,0,0,1,.17-.6,1.52,1.52,0,0,1,.477-.47,2.494,2.494,0,0,1,.738-.3,3.915,3.915,0,0,1,.971-.111,5.229,5.229,0,0,1,3.027.9V11.979a8.6,8.6,0,0,0-3.1-.525,7.458,7.458,0,0,0-1.891.238,5.466,5.466,0,0,0-1.637.708,3.714,3.714,0,0,0-1.146,1.159,2.955,2.955,0,0,0-.428,1.594,3.623,3.623,0,0,0,.207,1.281,2.936,2.936,0,0,0,.617.983,4.191,4.191,0,0,0,1.025.775,11.9,11.9,0,0,0,1.385.647q.624.233,1.13.415a4.736,4.736,0,0,1,.879.415,2.1,2.1,0,0,1,.592.531,1.2,1.2,0,0,1,.22.726q0,1.515-2.564,1.514a5.648,5.648,0,0,1-3.5-1.208v2.624a8.5,8.5,0,0,0,3.552.684,8.812,8.812,0,0,0,2.02-.226,5.475,5.475,0,0,0,1.691-.689,3.684,3.684,0,0,0,1.172-1.172,3.085,3.085,0,0,0,.439-1.661A3.4,3.4,0,0,0,201,19.443,3.05,3.05,0,0,0,200.3,18.442Z"/>
        <rect x="203.381" y="5.741" width="2.844" height="18.506"/>
        <path d="M214.219,11.454a8.787,8.787,0,0,0-4.565,1.171V15.1a6.032,6.032,0,0,1,4.028-1.538q2.54,0,2.539,2.673l-3.711.525q-4.077.587-4.076,4.126a3.5,3.5,0,0,0,1.043,2.649,4,4,0,0,0,2.886,1,4.133,4.133,0,0,0,3.8-2.247h.049v1.954h2.746v-8.13Q218.955,11.453,214.219,11.454Zm2,7.739a3.228,3.228,0,0,1-.848,2.289,2.806,2.806,0,0,1-2.143.909,2.2,2.2,0,0,1-1.519-.507,1.659,1.659,0,0,1-.568-1.3,1.73,1.73,0,0,1,.617-1.519,4.155,4.155,0,0,1,1.837-.592l2.624-.366Z"/>
        <path d="M225.381,8.048l-2.832.806v2.893h-2.087v2.221h2.087v7.069q0,3.491,3.638,3.491a4.92,4.92,0,0,0,2.185-.415V21.867a1.956,1.956,0,0,1-1.246.415,1.669,1.669,0,0,1-1.342-.477,2.459,2.459,0,0,1-.4-1.587v-6.25h2.991V11.747h-2.991Z"/>
        <path d="M236.013,11.454a6.623,6.623,0,0,0-4.853,1.77,6.584,6.584,0,0,0-1.8,4.919,6.329,6.329,0,0,0,1.728,4.645,6.2,6.2,0,0,0,4.62,1.752,6.336,6.336,0,0,0,4.743-1.8,6.549,6.549,0,0,0,1.764-4.791,6.649,6.649,0,0,0-1.636-4.773A6,6,0,0,0,236.013,11.454Zm2.4,9.729a3.112,3.112,0,0,1-2.569,1.11,3.284,3.284,0,0,1-2.613-1.128,4.576,4.576,0,0,1-.976-3.095,4.854,4.854,0,0,1,.964-3.2,3.234,3.234,0,0,1,2.625-1.16,3.1,3.1,0,0,1,2.569,1.123,4.988,4.988,0,0,1,.9,3.186A4.913,4.913,0,0,1,238.411,21.183Z"/>
        <path d="M250.613,11.527a2.881,2.881,0,0,0-1.922.738,4.353,4.353,0,0,0-1.275,2.058h-.049V11.747h-2.832v12.5h2.832V18.265a5.073,5.073,0,0,1,.842-3.088,2.529,2.529,0,0,1,2.1-1.135,2.344,2.344,0,0,1,1.476.4V11.759A2.387,2.387,0,0,0,250.613,11.527Z"/>
    </g>
</svg>