<svg xmlns="http://www.w3.org/2000/svg" width="110" height="30" viewBox="0 0 110 30">
    <g fill="#666">
        <path d="M34.8,14.42c0,4.91,3.15,8.33,7.52,8.33s7.52-3.42,7.52-8.33S46.68,6.1,42.31,6.1S34.8,9.52,34.8,14.42z M46.95,14.42
		c0,3.51-1.91,5.78-4.64,5.78c-2.72,0-4.64-2.27-4.64-5.78s1.91-5.78,4.64-5.78C45.04,8.64,46.95,10.91,46.95,14.42z"/>
        <path d="M57.94,22.75c3.31,0,5.2-2.79,5.2-6.14s-1.89-6.14-5.2-6.14c-1.53,0-2.66,0.61-3.4,1.49v-1.26h-2.7v15.86h2.7v-5.29
		C55.29,22.14,56.41,22.75,57.94,22.75z M54.48,16.27c0-2.23,1.26-3.44,2.93-3.44c1.96,0,3.02,1.53,3.02,3.78s-1.06,3.78-3.02,3.78
		c-1.67,0-2.93-1.24-2.93-3.42V16.27z"/>
        <path d="M70.44,22.75c2.36,0,4.23-1.24,5.06-3.31l-2.32-0.88c-0.36,1.22-1.42,1.89-2.75,1.89c-1.73,0-2.95-1.24-3.15-3.26h8.28
		v-0.9c0-3.24-1.82-5.83-5.24-5.83s-5.63,2.68-5.63,6.14C64.71,20.25,67.07,22.75,70.44,22.75z M70.31,12.74
		c1.71,0,2.52,1.13,2.54,2.43h-5.42C67.83,13.57,68.91,12.74,70.31,12.74z"/>
        <path d="M77.6,22.5h2.7v-6.93c0-1.69,1.24-2.59,2.45-2.59c1.49,0,2.07,1.06,2.07,2.52v7h2.7v-7.79c0-2.54-1.49-4.25-3.96-4.25
		c-1.53,0-2.59,0.7-3.26,1.49v-1.26h-2.7V22.5z"/>
        <path d="M95.43,6.35L89.31,22.5h2.86l1.37-3.69h6.98l1.4,3.69h2.9L98.69,6.35L95.43,6.35z M97.01,9.54l2.57,6.75h-5.09L97.01,9.54z
		"/>
        <path d="M109.45,6.39h-2.88v16.16h2.88V6.39z"/>
        <path d="M28.2,12.28c0.68-2.04,0.45-4.28-0.64-6.14c-1.64-2.85-4.93-4.32-8.14-3.63C17.99,0.9,15.93-0.01,13.78,0
		c-3.29-0.01-6.2,2.11-7.21,5.23c-2.11,0.43-3.93,1.75-5,3.63c-1.65,2.84-1.27,6.43,0.93,8.86C1.82,19.76,2.06,22,3.14,23.86
		c1.64,2.85,4.93,4.32,8.14,3.63c1.43,1.61,3.48,2.53,5.64,2.51c3.29,0.01,6.2-2.11,7.21-5.24c2.11-0.43,3.93-1.75,5-3.63
		C30.78,18.29,30.4,14.71,28.2,12.28L28.2,12.28z M16.92,28.04c-1.32,0-2.59-0.46-3.6-1.3c0.05-0.02,0.13-0.07,0.18-0.1l5.97-3.45
		c0.31-0.17,0.49-0.5,0.49-0.85v-8.42l2.52,1.46c0.03,0.01,0.05,0.04,0.05,0.07v6.97C22.54,25.52,20.03,28.03,16.92,28.04z
		 M4.85,22.88c-0.66-1.14-0.9-2.47-0.67-3.77c0.04,0.03,0.12,0.07,0.18,0.11l5.97,3.45c0.3,0.18,0.68,0.18,0.98,0l7.29-4.21v2.92
		c0,0.03-0.01,0.06-0.04,0.08l-6.04,3.49C9.84,26.49,6.4,25.57,4.85,22.88L4.85,22.88z M3.27,9.84C3.93,8.7,4.97,7.83,6.2,7.38
		c0,0.05,0,0.14,0,0.21v6.9c0,0.35,0.19,0.68,0.49,0.85l7.29,4.21L11.46,21c-0.03,0.02-0.06,0.02-0.09,0.01l-6.04-3.49
		C2.65,15.96,1.73,12.53,3.27,9.84L3.27,9.84z M24.02,14.67l-7.29-4.21L19.25,9c0.03-0.02,0.06-0.02,0.09-0.01l6.04,3.49
		c2.69,1.55,3.61,4.99,2.06,7.68c-0.66,1.14-1.69,2.01-2.93,2.46v-7.11C24.51,15.17,24.32,14.84,24.02,14.67L24.02,14.67z
		 M26.53,10.89c-0.04-0.03-0.12-0.07-0.18-0.11l-5.97-3.45c-0.3-0.18-0.68-0.18-0.98,0l-7.29,4.21V8.63c0-0.03,0.01-0.06,0.04-0.08
		l6.04-3.48c2.69-1.55,6.13-0.63,7.68,2.06C26.51,8.26,26.75,9.59,26.53,10.89L26.53,10.89z M10.73,16.08l-2.53-1.46
		c-0.03-0.01-0.05-0.04-0.05-0.07V7.58c0-3.11,2.52-5.62,5.63-5.62c1.31,0,2.58,0.46,3.59,1.3c-0.05,0.02-0.12,0.07-0.18,0.1
		l-5.97,3.45c-0.31,0.17-0.49,0.5-0.49,0.85L10.73,16.08L10.73,16.08z M12.1,13.13l3.25-1.88l3.25,1.88v3.75l-3.25,1.88l-3.25-1.88
		L12.1,13.13z"/>
    </g>
</svg>
