<svg xmlns="http://www.w3.org/2000/svg" version="1.1" viewBox="0 0 48 48" width="30" height="30">
    <g transform="translate(0.000000, 3.000000)" fill="#00A4FF">
        <path d="M5.8,4 L44,4 L44,29 L46,29 L46,2 L5.8,2 C5.4,0.8 4.3,0 3,0 C1.3,0 0,1.3 0,3 C0,4.7 1.3,6 3,6 C4.3,6 5.4,5.2 5.8,4 Z"/>
        <path d="M45,36 C43.7,36 42.6,36.8 42.2,38 L4,38 L4,13 L2,13 L2,40 L42.2,40 C42.6,41.2 43.7,42 45,42 C46.7,42 48,40.7 48,39 C48,37.3 46.7,36 45,36 Z"/>
    </g>
    <g transform="translate(8.500000, 18.000000)" fill="#00A4FF">
        <path d="M10.2956055,0.713055183 L10.2956055,0.476285889 L10.2956055,0.00109863281 L10.8049098,0.00109863281 L10.8060873,3.59771891e-13 L12.0245299,3.5971226e-13 L12.0253004,0.00109863281 L12.0314539,0.00109863281 L12.0314539,0.00987249264 L15.2966684,4.66556215 L18.5597571,0.0129037376 L18.5597571,0.00219726562 L18.5672659,0.00219726562 L18.568807,3.59779914e-13 L19.7872496,3.5971226e-13 L19.7896046,0.00219726562 L20.2956055,0.00219726562 L20.2956055,0.474302371 L20.2956055,0.720619137 L20.2956055,12 L18.5597571,12 L18.5597571,3.20649756 L15.3776951,7.76347351 L15.3718679,7.75474583 L15.3708879,7.75644779 L12.0314539,3.12203671 L12.0314539,11.9989014 L10.2956055,11.9989014 L10.2956055,0.713055183 Z"/>
        <polygon points="27.2956055 12 27.2956055 2 30.2956055 2 30.2956055 0 22.2956055 0 22.2956055 2 25.2956055 2 25.2956055 12"/>
        <polygon points="5.29560547 12 5.29560547 2 8.29560547 2 8.29560547 0 0.295605469 0 0.295605469 2 3.29560547 2 3.29560547 12"/>
    </g>
</svg>