<svg version="1.1" xmlns="http://www.w3.org/2000/svg" width="155" height="30" viewBox="0 0 155 30">
    <g fill="#FC011A">
        <path d="M54.7,25.1c0-0.1-0.2-0.2-0.3-0.1c-6.9,2.3-13.7,2.2-20.7-0.5l0,0c-0.1-0.1-0.2-0.2-0.1-0.3
		c0.5-1.1,0.8-2.2,1-3.2c0.8-4.1-0.6-7-4.2-8.8l0,0c-0.2-0.1-0.5,0-0.6,0.2l-1.1,2.5c-0.1,0.1,0,0.3,0,0.4c0.2,0.2,0.4,0.3,0.6,0.5
		c0.4,0.3,0.7,0.4,0.8,0.5c1.4,1.4,1.7,3,1,5c-0.2,0.5-0.4,1-0.6,1.6l0,0c0,0.1-0.2,0.2-0.3,0.1l-4.8-2.1c-0.2-0.1-0.2-0.2-0.2-0.4
		l1.1-10.6c0-0.1-0.1-0.3-0.2-0.3C21,7.7,15.6,7.4,10,8.7c-0.3,0.1-0.4,0-0.3-0.3l1.2-2c0.1-0.1,0.2-0.2,0.4-0.2L28.2,6
		c0.2,0,0.3-0.1,0.3-0.3l0.2-2.4l0,0c0-0.1-0.1-0.2-0.2-0.2H13.3c-0.5,0-0.6-0.2-0.3-0.5c0.8-0.9,0.7-1.5-0.2-1.8
		c-0.4-0.1-0.7-0.2-0.9-0.3c-0.3-0.1-0.5-0.3-0.8-0.4c-0.2-0.1-0.5,0-0.7,0.2L8.9,2.9C8.8,3,8.7,3.1,8.5,3.1L3.1,3.2
		c-0.2,0-0.3,0.1-0.3,0.2L2.5,5.8l0,0C2.5,5.9,2.6,6,2.8,6h3.9c0.1,0,0.1,0,0.2,0C7,6.2,7.1,6.4,7,6.5c-2.2,3.8-4.5,7.5-7,11
		c-0.1,0.1-0.1,0.3,0,0.3l2.2,1.5c0.2,0.1,0.5,0.1,0.6-0.2L5.7,15c0.1-0.1,0.1-0.1,0.1,0L4.4,29c0,0.1,0.1,0.3,0.2,0.3
		c1,0.2,2,0.3,3.1,0c0.1,0,0.2-0.1,0.3-0.3l1.1-9.7c0-0.2,0.1-0.3,0.3-0.4c3.7-1.6,7.7-2.4,12.1-2.4l0,0c0.2,0,0.4,0.2,0.4,0.5
		l-0.2,2.1v0.1c-0.1,0.2-0.3,0.4-0.6,0.3c-1.3-0.3-2.6-0.5-3.9-0.3c-1.5,0.1-2.7,0.6-3.6,1.4c-1.2,1-1.6,2.3-1.2,3.8
		c0.3,1.2,1,2.2,2.1,2.9c1,0.7,2.1,1.2,3.5,1.5c1.8,0.5,3.7,0.8,5.8,1l0,0c0.3,0,0.5-0.2,0.5-0.4l0.5-4.9v-0.1
		c0.1-0.2,0.2-0.2,0.4-0.1c1.8,0.8,3.4,1.5,5.1,2.3c8.2,3.9,16.6,4.3,25.2,1.4l0,0c0.2-0.1,0.2-0.2,0.2-0.4L54.7,25.1z M21,26
		c0,0.1-0.1,0.2-0.3,0.2C19.3,26,18,25.6,16.8,25c-0.5-0.3-0.9-0.6-1-0.9c-0.2-0.5-0.1-0.9,0.3-1.2c0.2-0.2,0.6-0.3,1-0.4
		c1.4-0.1,2.7,0.1,4.1,0.6c0.1,0,0.1,0.1,0.1,0.2L21,26z M22.3,13.5c-0.1,0.1-0.2,0.2-0.3,0.2c-4.1-0.1-8.2,0.6-12.2,2H9.7
		c-0.1,0-0.2-0.1-0.1-0.2l0.3-3.2c0-0.3,0.3-0.6,0.6-0.7c3.9-0.9,7.8-0.9,11.6,0c0.1,0,0.3,0.1,0.3,0.3C22.6,12.4,22.5,13,22.3,13.5
		z"/>
        <path d="M56.5,3.1h-5.1c-0.5,0-0.5-0.2-0.2-0.5s0.5-0.7,0.5-1.2c0-0.1-0.1-0.3-0.2-0.3l-2.5-1
		c-0.1-0.1-0.3,0-0.4,0.1l-1.3,2.5C47.2,2.9,47,3,46.8,3h-2c-0.1,0-0.3-0.1-0.3-0.2L44,0.3l0,0c0-0.1-0.2-0.2-0.3-0.2L40.8,1
		c-0.2,0.1-0.3,0.3-0.2,0.5l0.3,1.3l0,0c0,0.1-0.1,0.2-0.2,0.2h-3.5c-0.3,0-0.5,0.2-0.5,0.4l-0.2,2.2c0,0.1,0.1,0.2,0.2,0.3
		c2.9,0.2,5.9,0.3,8.8,0.1l0,0c0.1,0,0.2,0.1,0.2,0.2C45.6,7.4,45,8,43.9,8.1c-0.9,0.1-1.3,0.1-1.4,0.1c-1.4,0.2-2.8,0.6-4.3,1
		c-0.3,0.1-0.5,0.3-0.5,0.6L36.3,23c0,0.1,0.1,0.3,0.2,0.3c5.3,1.8,10.7,1.8,15.9,0c0.2-0.1,0.3-0.2,0.4-0.5l1.4-13
		c0-0.3-0.1-0.5-0.4-0.6c-1.5-0.5-3.1-0.9-4.7-1.1c-0.5-0.1-0.6-0.3-0.2-0.6c0.2-0.2,0.3-0.6,0.5-1.2c0-0.2,0.2-0.3,0.4-0.3h6.3
		c0.2,0,0.3-0.1,0.3-0.2l0.3-2.6l0,0C56.7,3.2,56.6,3.1,56.5,3.1z M49.4,21c-0.1,0.1-0.2,0.2-0.4,0.2c-2.8,0.6-5.7,0.6-8.6,0
		c-0.1,0-0.3-0.1-0.3-0.3c-0.2-0.8,0-1.1,0.7-1.1c0.5,0,0.8,0,0.8,0c2.5-0.1,4.9-0.1,7.4,0c0.2,0,0.3,0.1,0.4,0.2
		C49.7,20.4,49.7,20.7,49.4,21z M50,17.2c0,0.1-0.1,0.2-0.2,0.2h-9c-0.1,0-0.2-0.1-0.2-0.2v-1.4c0-0.1,0.1-0.2,0.2-0.2h9
		c0.1,0,0.2,0.1,0.2,0.2V17.2z M50.1,11.5c0.1,0,0.3,0.1,0.3,0.3c0.3,1,0,1.4-1,1.4c-0.5,0-0.8,0-0.8,0c-2,0-4,0-5.9-0.1
		c0,0-0.4,0-1,0c-0.9,0-1-0.4-0.4-1.3c0.1-0.1,0.2-0.2,0.4-0.2C44.4,10.9,47.3,10.9,50.1,11.5z"/>
        <path fill="#FC011A" d="M29.5,9.1l4.6,3c0.1,0.1,0.3,0.1,0.4,0l1.9-2.4c0.1-0.1,0.1-0.3,0-0.4C34.7,7.8,33,6.7,31.2,6
		c-0.1-0.1-0.3,0-0.4,0.1l-1.5,2.4C29.2,8.7,29.3,8.9,29.5,9.1z"/>
    </g>
    <g fill="#fff" opacity="0.6">
        <path d="M121.51,3.62l-2.7,0.7c-0.1,0-0.2,0.2-0.2,0.3l-0.4,4.1v0.1c-0.1,0.1-0.2,0.1-0.2,0c-1.5-1.1-3.2-1.5-5-1.1
		c-2.5,0.6-4.4,1.8-5.6,3.8c-1.1,1.8-1.4,3.6-1.1,5.6c0.4,2.3,1.8,3.8,4.2,4.7c2.1,0.8,4.1,0.5,6.2-0.9c0.1-0.1,0.2,0,0.2,0.1v0.8
		c0,0.1,0.1,0.3,0.2,0.3h2.3c0.3,0,0.5-0.2,0.5-0.5l1.9-17.9c0,0,0,0,0-0.1C121.71,3.62,121.61,3.52,121.51,3.62z M116.31,17.52
		c-1.6,1.8-4.2,2.1-5.9,0.6c-1.6-1.4-1.6-4.1,0-5.9s4.2-2.1,5.9-0.6C117.91,13.02,117.91,15.72,116.31,17.52z"/>
        <path d="M76.51,7.72c0-0.1-0.1-0.2-0.2-0.2h-3.3c-0.2,0-0.4,0.1-0.4,0.3l-3.4,7.1c-0.2,0.4-0.4,0.4-0.5,0l-2.6-6.9
		c-0.1-0.2-0.2-0.3-0.3-0.3h-3.1h-0.1c-0.2,0.1-0.2,0.3-0.2,0.4l4.2,11.2c0.1,0.3,0.1,0.5,0,0.8l-2.9,5.9v0.1c0,0.1,0.1,0.3,0.2,0.3
		h3c0.3,0,0.6-0.2,0.7-0.4L76.51,7.72C76.51,7.82,76.51,7.82,76.51,7.72z"/>
        <path d="M78.21,9.72L78.21,9.72c-3.2,2.8-3.7,7.5-1.1,10.3c2.6,2.9,7.2,2.9,10.4,0l0,0c3.2-2.8,3.7-7.5,1.1-10.3
		S81.31,6.82,78.21,9.72z M85.51,17.82L85.51,17.82c-1.8,1.6-4.5,1.6-6,0s-1.2-4.3,0.6-5.9l0,0c1.8-1.6,4.5-1.6,6,0
		S87.31,16.22,85.51,17.82z"/>
        <path d="M104.71,7.72h-2.4c-0.2,0-0.5,0.2-0.5,0.5c-0.3,2.5-0.6,5.1-0.8,7.7c-0.1,1.1-0.5,1.9-1.3,2.5
		c-0.7,0.6-1.6,0.8-2.5,0.7c-0.9-0.1-1.6-0.6-2-1.4c-0.3-0.5-0.4-1.3-0.3-2.2c0.2-2.5,0.5-5,0.8-7.6l0,0c0-0.1-0.1-0.2-0.2-0.2h-2.6
		c-0.1,0-0.3,0.1-0.3,0.3c-0.4,2.8-0.6,5.4-0.9,8c-0.2,2.8,0.8,4.8,3.1,5.9c1.7,0.8,3.5,0.7,5.4-0.3c0,0,0,0,0.1,0s0.1,0.1,0.1,0.1
		v0.4c0,0.1,0.1,0.2,0.3,0.2h2.3c0.2,0,0.4-0.2,0.4-0.4l1.5-13.8l0,0C104.91,7.82,104.81,7.72,104.71,7.72z"/>
        <path d="M137.41,7.62c-0.7,0-1.4,0-2-0.1c-0.6,0-0.9,0.3-0.8,1c0,0.4-0.1,0.5-0.5,0.3c-1.1-0.8-2.4-1.2-3.7-1.1
		c-3.3,0.2-5.7,1.7-7.2,4.6c-1,1.9-1.2,3.8-0.4,5.6c0.7,1.7,1.9,2.9,3.6,3.7c2.1,1,4.3,0.8,6.6-0.7c0.3-0.2,0.4-0.1,0.3,0.2
		c-0.2,0.7-0.1,1,0.2,1c0.7,0,1.5,0,2.4,0c0.2,0,0.4-0.2,0.4-0.4l1.4-13.7l0,0C137.71,7.72,137.61,7.62,137.41,7.62z M132.71,17.52
		L132.71,17.52c-1.6,1.8-4.3,2-5.9,0.6c-1.6-1.5-1.6-4.1,0-5.9l0,0c1.6-1.8,4.3-2,5.9-0.6C134.31,13.12,134.31,15.72,132.71,17.52z"
        />
        <path d="M152.01,9.72c-2.5-2.9-7.2-2.9-10.4-0.1s-3.7,7.4-1.2,10.3s7.2,2.9,10.4,0.1S154.51,12.62,152.01,9.72z
		 M148.81,17.92L148.81,17.92c-1.9,1.6-4.5,1.5-6-0.2c-1.4-1.7-1.1-4.3,0.8-5.9l0,0c1.9-1.6,4.5-1.5,6,0.2
		C151.01,13.72,150.71,16.32,148.81,17.92z"/>
    </g>
</svg>
