<svg width="180" height="40" viewBox="0 0 180 40" fill="none" xmlns="http://www.w3.org/2000/svg">
<mask id="path-1-inside-1_369_4101" fill="white">
<path fill-rule="evenodd" clip-rule="evenodd" d="M74.0547 7C74.0547 7 74.0438 9.9186 74.0219 13.4944L74 20L76.847 19.9554L76.8874 19.9548C79.6292 19.9109 79.72 19.9094 80.57 19.6101C82.7709 18.8192 84.0849 17.2931 84.512 15.0206C84.72 13.9177 84.72 13.0488 84.501 11.9794C84.063 9.77378 82.76 8.26992 80.5371 7.41217C79.8363 7.13368 79.683 7.12254 76.9236 7.0557C75.3468 7.02228 74.0547 7 74.0547 7ZM80.0553 9.55099C80.8547 9.92974 81.4022 10.4979 81.8183 11.389C82.0811 11.9683 82.103 12.1243 82.103 13.5167C82.103 14.9426 82.0811 15.054 81.7854 15.7224C81.3803 16.6024 80.6138 17.3376 79.8254 17.5938C79.475 17.7052 78.6975 17.7943 77.8653 17.8278L76.4637 17.8835L76.4418 13.5167L76.409 9.14996L77.8872 9.19452C79.2231 9.23908 79.4312 9.27249 80.0553 9.55099ZM112.985 17.1457L112.984 17.1499C112.421 18.702 112.045 19.74 112.019 19.7991C111.943 19.9888 112.041 20 113.226 20H114.52L115.021 18.5159L115.51 17.0429H117.957H120.393L120.882 18.5159L121.371 20H122.72C123.949 20 124.057 19.9888 123.981 19.7991C123.953 19.7353 123.548 18.5894 122.957 16.9202L122.957 16.9181C122.618 15.9618 122.219 14.8339 121.795 13.6395L121.403 12.5332C120.415 9.74676 119.624 7.51645 119.566 7.36824L119.446 7.06695L118.055 7.03348L116.652 7L114.379 13.3047C113.861 14.7298 113.378 16.0627 112.985 17.1457ZM119.631 14.6549C119.686 14.8223 119.523 14.8446 118 14.8223C116.956 14.8223 116.315 14.7665 116.315 14.6996C116.315 14.6326 116.684 13.4833 117.13 12.133C117.575 10.7987 117.943 9.66374 117.957 9.62271L117.957 9.62232C117.957 9.57768 119.338 13.7064 119.631 14.6549ZM125 13.5421C125 9.98921 125.022 7.05077 125.044 7.02843C125.144 6.92787 131.5 7.11781 131.832 7.22954C133.692 7.87756 134.677 9.24063 134.666 11.1735C134.666 12.7936 134.002 13.9891 132.762 14.6818C131.854 15.1734 131.588 15.2181 129.484 15.2963L127.491 15.3633V17.6872V20H126.251H125V13.5421ZM131.876 9.95569C131.732 9.75458 131.378 9.47526 131.101 9.35236C130.448 9.0507 127.591 8.91662 127.491 9.18477C127.458 9.26298 127.447 10.2462 127.458 11.3411L127.491 13.3522H129.097C130.603 13.3522 130.735 13.3299 131.189 13.0729C131.987 12.6148 132.142 12.3131 132.142 11.2517C132.142 10.4585 132.109 10.2797 131.876 9.95569ZM136 13.5V20H137.167H138.334V13.5V7H137.167H136V13.5ZM86.1461 13.6666C86.5146 12.2313 87.5986 10.9726 88.8236 10.5531C89.3873 10.3544 89.7125 10.3102 90.6014 10.3433C91.5336 10.3654 91.7829 10.4096 92.3575 10.6856C93.8425 11.3811 94.6664 12.9158 94.6664 14.9693V15.8416L91.5119 15.8084L88.3574 15.7753L88.4116 16.2059C88.5092 16.9346 88.9211 17.6081 89.4523 17.8951C90.3412 18.3699 91.6095 18.138 92.184 17.3873L92.4442 17.045L93.474 17.1664C94.0377 17.2327 94.5146 17.31 94.5363 17.321C94.558 17.3431 94.493 17.5308 94.4062 17.7516C94.1786 18.3036 93.3005 19.231 92.7152 19.5291C91.6203 20.0922 89.8967 20.1585 88.661 19.6837C87.5228 19.2531 86.5038 18.0276 86.1461 16.6696C85.9509 15.9409 85.9509 14.3952 86.1461 13.6666ZM91.9022 12.7833C91.8046 12.6287 91.577 12.4079 91.3818 12.2975C91.0024 12.0546 90.0485 12.0105 89.5715 12.1981C89.0187 12.43 88.5743 13.0704 88.4333 13.8763L88.3574 14.2848H90.2978C91.371 14.2848 92.2707 14.2517 92.3033 14.2186C92.4008 14.1303 92.1081 13.1035 91.9022 12.7833ZM98.6144 10.5716C96.53 11.3573 95.382 13.5373 95.7275 16.0826C95.8836 17.2224 96.3406 18.1077 97.1319 18.8602C98.0682 19.7455 98.7593 20 100.342 20C101.824 20 102.549 19.7565 103.374 19.0151C103.842 18.6057 104.622 17.4658 104.499 17.3662C104.488 17.3441 103.987 17.2777 103.407 17.2113L102.348 17.1007L102.081 17.4326C101.49 18.1741 100.208 18.4065 99.2831 17.9306C98.893 17.7425 98.7147 17.5544 98.4806 17.0896C98.3023 16.7576 98.1685 16.3371 98.1685 16.149V15.8059L101.423 15.8391L104.667 15.8723L104.6 14.7878C104.455 12.475 103.452 10.981 101.735 10.5052C100.832 10.2507 99.3834 10.2839 98.6144 10.5716ZM101.256 12.32C101.668 12.5635 102.036 13.2053 102.137 13.8583L102.215 14.312H100.186C100.083 14.312 99.9849 14.3121 99.8915 14.3121C98.7216 14.3132 98.2796 14.3136 98.1794 14.1288C98.1186 14.0165 98.184 13.8359 98.289 13.5455C98.3039 13.5044 98.3195 13.4612 98.3357 13.4156C98.5363 12.8734 98.7481 12.5967 99.2274 12.309C99.6955 12.0213 100.777 12.0213 101.256 12.32ZM108.504 11.9049C108.669 11.3637 109.339 10.6534 109.844 10.473C110.085 10.3828 110.58 10.3152 110.942 10.3377L111.601 10.3603L111.634 11.4877L111.667 12.6152H110.733C109.866 12.6152 109.778 12.6377 109.383 12.9647C109.152 13.1451 108.844 13.551 108.691 13.8666C108.427 14.4078 108.416 14.4867 108.383 17.2039L108.35 20H107.175H106V15.2647V10.5294H107.186H108.361L108.372 11.3975C108.383 12.1867 108.394 12.2431 108.504 11.9049Z"/>
</mask>
<path fill-rule="evenodd" clip-rule="evenodd" d="M74.0547 7C74.0547 7 74.0438 9.9186 74.0219 13.4944L74 20L76.847 19.9554L76.8874 19.9548C79.6292 19.9109 79.72 19.9094 80.57 19.6101C82.7709 18.8192 84.0849 17.2931 84.512 15.0206C84.72 13.9177 84.72 13.0488 84.501 11.9794C84.063 9.77378 82.76 8.26992 80.5371 7.41217C79.8363 7.13368 79.683 7.12254 76.9236 7.0557C75.3468 7.02228 74.0547 7 74.0547 7ZM80.0553 9.55099C80.8547 9.92974 81.4022 10.4979 81.8183 11.389C82.0811 11.9683 82.103 12.1243 82.103 13.5167C82.103 14.9426 82.0811 15.054 81.7854 15.7224C81.3803 16.6024 80.6138 17.3376 79.8254 17.5938C79.475 17.7052 78.6975 17.7943 77.8653 17.8278L76.4637 17.8835L76.4418 13.5167L76.409 9.14996L77.8872 9.19452C79.2231 9.23908 79.4312 9.27249 80.0553 9.55099ZM112.985 17.1457L112.984 17.1499C112.421 18.702 112.045 19.74 112.019 19.7991C111.943 19.9888 112.041 20 113.226 20H114.52L115.021 18.5159L115.51 17.0429H117.957H120.393L120.882 18.5159L121.371 20H122.72C123.949 20 124.057 19.9888 123.981 19.7991C123.953 19.7353 123.548 18.5894 122.957 16.9202L122.957 16.9181C122.618 15.9618 122.219 14.8339 121.795 13.6395L121.403 12.5332C120.415 9.74676 119.624 7.51645 119.566 7.36824L119.446 7.06695L118.055 7.03348L116.652 7L114.379 13.3047C113.861 14.7298 113.378 16.0627 112.985 17.1457ZM119.631 14.6549C119.686 14.8223 119.523 14.8446 118 14.8223C116.956 14.8223 116.315 14.7665 116.315 14.6996C116.315 14.6326 116.684 13.4833 117.13 12.133C117.575 10.7987 117.943 9.66374 117.957 9.62271L117.957 9.62232C117.957 9.57768 119.338 13.7064 119.631 14.6549ZM125 13.5421C125 9.98921 125.022 7.05077 125.044 7.02843C125.144 6.92787 131.5 7.11781 131.832 7.22954C133.692 7.87756 134.677 9.24063 134.666 11.1735C134.666 12.7936 134.002 13.9891 132.762 14.6818C131.854 15.1734 131.588 15.2181 129.484 15.2963L127.491 15.3633V17.6872V20H126.251H125V13.5421ZM131.876 9.95569C131.732 9.75458 131.378 9.47526 131.101 9.35236C130.448 9.0507 127.591 8.91662 127.491 9.18477C127.458 9.26298 127.447 10.2462 127.458 11.3411L127.491 13.3522H129.097C130.603 13.3522 130.735 13.3299 131.189 13.0729C131.987 12.6148 132.142 12.3131 132.142 11.2517C132.142 10.4585 132.109 10.2797 131.876 9.95569ZM136 13.5V20H137.167H138.334V13.5V7H137.167H136V13.5ZM86.1461 13.6666C86.5146 12.2313 87.5986 10.9726 88.8236 10.5531C89.3873 10.3544 89.7125 10.3102 90.6014 10.3433C91.5336 10.3654 91.7829 10.4096 92.3575 10.6856C93.8425 11.3811 94.6664 12.9158 94.6664 14.9693V15.8416L91.5119 15.8084L88.3574 15.7753L88.4116 16.2059C88.5092 16.9346 88.9211 17.6081 89.4523 17.8951C90.3412 18.3699 91.6095 18.138 92.184 17.3873L92.4442 17.045L93.474 17.1664C94.0377 17.2327 94.5146 17.31 94.5363 17.321C94.558 17.3431 94.493 17.5308 94.4062 17.7516C94.1786 18.3036 93.3005 19.231 92.7152 19.5291C91.6203 20.0922 89.8967 20.1585 88.661 19.6837C87.5228 19.2531 86.5038 18.0276 86.1461 16.6696C85.9509 15.9409 85.9509 14.3952 86.1461 13.6666ZM91.9022 12.7833C91.8046 12.6287 91.577 12.4079 91.3818 12.2975C91.0024 12.0546 90.0485 12.0105 89.5715 12.1981C89.0187 12.43 88.5743 13.0704 88.4333 13.8763L88.3574 14.2848H90.2978C91.371 14.2848 92.2707 14.2517 92.3033 14.2186C92.4008 14.1303 92.1081 13.1035 91.9022 12.7833ZM98.6144 10.5716C96.53 11.3573 95.382 13.5373 95.7275 16.0826C95.8836 17.2224 96.3406 18.1077 97.1319 18.8602C98.0682 19.7455 98.7593 20 100.342 20C101.824 20 102.549 19.7565 103.374 19.0151C103.842 18.6057 104.622 17.4658 104.499 17.3662C104.488 17.3441 103.987 17.2777 103.407 17.2113L102.348 17.1007L102.081 17.4326C101.49 18.1741 100.208 18.4065 99.2831 17.9306C98.893 17.7425 98.7147 17.5544 98.4806 17.0896C98.3023 16.7576 98.1685 16.3371 98.1685 16.149V15.8059L101.423 15.8391L104.667 15.8723L104.6 14.7878C104.455 12.475 103.452 10.981 101.735 10.5052C100.832 10.2507 99.3834 10.2839 98.6144 10.5716ZM101.256 12.32C101.668 12.5635 102.036 13.2053 102.137 13.8583L102.215 14.312H100.186C100.083 14.312 99.9849 14.3121 99.8915 14.3121C98.7216 14.3132 98.2796 14.3136 98.1794 14.1288C98.1186 14.0165 98.184 13.8359 98.289 13.5455C98.3039 13.5044 98.3195 13.4612 98.3357 13.4156C98.5363 12.8734 98.7481 12.5967 99.2274 12.309C99.6955 12.0213 100.777 12.0213 101.256 12.32ZM108.504 11.9049C108.669 11.3637 109.339 10.6534 109.844 10.473C110.085 10.3828 110.58 10.3152 110.942 10.3377L111.601 10.3603L111.634 11.4877L111.667 12.6152H110.733C109.866 12.6152 109.778 12.6377 109.383 12.9647C109.152 13.1451 108.844 13.551 108.691 13.8666C108.427 14.4078 108.416 14.4867 108.383 17.2039L108.35 20H107.175H106V15.2647V10.5294H107.186H108.361L108.372 11.3975C108.383 12.1867 108.394 12.2431 108.504 11.9049Z" fill="#237EF3"/>
<path d="M74.0219 13.4944L73.0219 13.4883L73.0219 13.4911L74.0219 13.4944ZM74.0547 7L74.072 6.00015L73.0586 5.98267L73.0548 6.99625L74.0547 7ZM74 20L73 19.9966L72.9966 21.0158L74.0156 20.9999L74 20ZM76.847 19.9554L76.8626 20.9553L76.863 20.9553L76.847 19.9554ZM76.8874 19.9548L76.9034 20.9547L76.9034 20.9547L76.8874 19.9548ZM80.57 19.6101L80.9022 20.5534L80.9082 20.5512L80.57 19.6101ZM84.512 15.0206L83.5293 14.8352L83.5292 14.8359L84.512 15.0206ZM84.501 11.9794L83.5202 12.1742L83.5214 12.1801L84.501 11.9794ZM80.5371 7.41217L80.1678 8.34153L80.1771 8.34512L80.5371 7.41217ZM76.9236 7.0557L76.9479 6.05599L76.9448 6.05592L76.9236 7.0557ZM81.8183 11.389L82.729 10.9759L82.7244 10.966L81.8183 11.389ZM80.0553 9.55099L80.4835 8.6473L80.4732 8.64241L80.4628 8.63777L80.0553 9.55099ZM81.7854 15.7224L82.6938 16.1406L82.6969 16.1337L82.7 16.1269L81.7854 15.7224ZM79.8254 17.5938L80.1284 18.5469L80.1345 18.5449L79.8254 17.5938ZM77.8653 17.8278L77.9051 18.827L77.9055 18.827L77.8653 17.8278ZM76.4637 17.8835L75.4638 17.8885L75.469 18.9238L76.5035 18.8827L76.4637 17.8835ZM76.4418 13.5167L77.4418 13.5117L77.4418 13.5092L76.4418 13.5167ZM76.409 9.14996L76.4391 8.15041L75.4012 8.11913L75.409 9.15748L76.409 9.14996ZM77.8872 9.19452L77.9206 8.19507L77.9174 8.19497L77.8872 9.19452ZM112.984 17.1499L112.044 16.8088L112.044 16.8091L112.984 17.1499ZM112.985 17.1457L113.925 17.4868L113.925 17.4865L112.985 17.1457ZM112.019 19.7991L111.102 19.4017L111.096 19.4141L111.091 19.4267L112.019 19.7991ZM114.52 20V21H115.239L115.468 20.3194L114.52 20ZM115.021 18.5159L115.968 18.8353L115.97 18.8312L115.021 18.5159ZM115.51 17.0429V16.0429H114.788L114.561 16.7276L115.51 17.0429ZM120.393 17.0429L121.342 16.7276L121.114 16.0429H120.393V17.0429ZM120.882 18.5159L121.832 18.2027L121.831 18.2006L120.882 18.5159ZM121.371 20L120.422 20.3131L120.648 21H121.371V20ZM123.981 19.7991L124.909 19.4267L124.904 19.4142L124.899 19.4017L123.981 19.7991ZM122.957 16.9202L123.9 16.5866L123.899 16.5848L122.957 16.9202ZM122.957 16.9181L122.014 17.2517L122.014 17.2535L122.957 16.9181ZM121.795 13.6395L120.853 13.9737L120.853 13.9738L121.795 13.6395ZM121.403 12.5332L120.461 12.8674L120.461 12.8675L121.403 12.5332ZM119.566 7.36824L120.498 7.00505L120.496 6.99923L119.566 7.36824ZM119.446 7.06695L120.376 6.69794L120.132 6.08315L119.471 6.06724L119.446 7.06695ZM118.055 7.03348L118.079 6.03377L118.078 6.03376L118.055 7.03348ZM116.652 7L116.676 6.00028L115.955 5.9831L115.711 6.66088L116.652 7ZM114.379 13.3047L115.319 13.6463L115.32 13.6438L114.379 13.3047ZM118 14.8223L118.015 13.8224L118.007 13.8223H118V14.8223ZM119.631 14.6549L118.676 14.9507L118.68 14.9639L119.631 14.6549ZM117.13 12.133L116.181 11.8171L116.181 11.8195L117.13 12.133ZM117.957 9.62271L118.908 9.93167L118.908 9.92951L117.957 9.62271ZM117.957 9.62232L118.908 9.92912L118.957 9.77951V9.62232H117.957ZM125.044 7.02843L125.754 7.73239L125.754 7.73235L125.044 7.02843ZM131.832 7.22954L132.161 6.28514L132.15 6.28171L131.832 7.22954ZM134.666 11.1735L133.666 11.1678V11.1735H134.666ZM132.762 14.6818L133.238 15.5612L133.249 15.5548L132.762 14.6818ZM129.484 15.2963L129.518 16.2957L129.521 16.2956L129.484 15.2963ZM127.491 15.3633L127.458 14.3639L126.491 14.3964V15.3633H127.491ZM127.491 20V21H128.491V20H127.491ZM125 20H124V21H125V20ZM131.101 9.35236L130.682 10.2602L130.688 10.2633L130.695 10.2663L131.101 9.35236ZM131.876 9.95569L131.063 10.5377L131.064 10.5387L131.876 9.95569ZM127.491 9.18477L128.412 9.5757L128.421 9.55461L128.428 9.53313L127.491 9.18477ZM127.458 11.3411L126.458 11.3512L126.458 11.3576L127.458 11.3411ZM127.491 13.3522L126.491 13.3687L126.508 14.3522H127.491V13.3522ZM131.189 13.0729L131.682 13.9432L131.688 13.94L131.189 13.0729ZM136 20H135V21H136V20ZM138.334 20V21H139.334V20H138.334ZM138.334 7H139.334V6H138.334V7ZM136 7V6H135V7H136ZM88.8236 10.5531L89.1476 11.4992L89.1561 11.4962L88.8236 10.5531ZM86.1461 13.6666L87.1121 13.9252L87.1146 13.9153L86.1461 13.6666ZM90.6014 10.3433L90.5641 11.3427L90.5777 11.343L90.6014 10.3433ZM92.3575 10.6856L91.9244 11.587L91.9333 11.5912L92.3575 10.6856ZM94.6664 15.8416L94.6559 16.8415L95.6664 16.8521V15.8416H94.6664ZM91.5119 15.8084L91.5014 16.8084L91.5119 15.8084ZM88.3574 15.7753L88.3679 14.7754L87.2222 14.7633L87.3653 15.9002L88.3574 15.7753ZM88.4116 16.2059L87.4194 16.3308L87.4205 16.3386L88.4116 16.2059ZM89.4523 17.8951L88.9769 18.7749L88.9812 18.7772L89.4523 17.8951ZM92.184 17.3873L92.9782 17.995L92.9801 17.9924L92.184 17.3873ZM92.4442 17.045L92.5613 16.0519L91.9938 15.985L91.6481 16.4398L92.4442 17.045ZM93.474 17.1664L93.3569 18.1596L93.3573 18.1596L93.474 17.1664ZM94.5363 17.321L95.2499 16.6204L95.1355 16.504L94.9901 16.4299L94.5363 17.321ZM94.4062 17.7516L95.3307 18.1328L95.3339 18.125L95.337 18.1171L94.4062 17.7516ZM92.7152 19.5291L92.2614 18.638L92.2578 18.6398L92.7152 19.5291ZM88.661 19.6837L89.0196 18.7502L89.0148 18.7484L88.661 19.6837ZM86.1461 16.6696L87.1131 16.4149L87.112 16.4109L86.1461 16.6696ZM91.3818 12.2975L90.8427 13.1397L90.8656 13.1544L90.8894 13.1678L91.3818 12.2975ZM91.9022 12.7833L91.0565 13.3171L91.0611 13.3243L91.9022 12.7833ZM89.5715 12.1981L89.2054 11.2676L89.195 11.2717L89.1848 11.276L89.5715 12.1981ZM88.4333 13.8763L89.4166 14.059L89.4184 14.0486L88.4333 13.8763ZM88.3574 14.2848L87.3743 14.1022L87.1546 15.2848H88.3574V14.2848ZM92.3033 14.2186L91.6321 13.4773L91.6103 13.497L91.5897 13.518L92.3033 14.2186ZM95.7275 16.0826L94.7366 16.2171L94.7368 16.2182L95.7275 16.0826ZM98.6144 10.5716L98.264 9.63498L98.2616 9.63586L98.6144 10.5716ZM97.1319 18.8602L96.4428 19.5849L96.4449 19.5868L97.1319 18.8602ZM103.374 19.0151L102.715 18.2623L102.705 18.2714L103.374 19.0151ZM104.499 17.3662L103.606 17.816L103.703 18.0074L103.869 18.1424L104.499 17.3662ZM103.407 17.2113L103.521 16.2178L103.511 16.2167L103.407 17.2113ZM102.348 17.1007L102.452 16.1061L101.911 16.0495L101.57 16.4732L102.348 17.1007ZM102.081 17.4326L101.302 16.8052L101.299 16.8095L102.081 17.4326ZM99.2831 17.9306L99.7405 17.0414L99.7291 17.0355L99.7175 17.0299L99.2831 17.9306ZM98.4806 17.0896L99.3737 16.6398L99.3678 16.628L99.3616 16.6164L98.4806 17.0896ZM98.1685 15.8059L98.1787 14.806L97.1685 14.7957V15.8059H98.1685ZM101.423 15.8391L101.433 14.8392L101.433 14.8392L101.423 15.8391ZM104.667 15.8723L104.656 16.8722L105.731 16.8832L105.665 15.8108L104.667 15.8723ZM104.6 14.7878L105.598 14.7263L105.598 14.7253L104.6 14.7878ZM101.735 10.5052L101.464 11.4677L101.468 11.4688L101.735 10.5052ZM102.137 13.8583L101.148 14.0101L101.149 14.0189L101.151 14.0277L102.137 13.8583ZM101.256 12.32L100.727 13.1687L100.737 13.175L100.748 13.1812L101.256 12.32ZM102.215 14.312V15.312H103.401L103.2 14.1425L102.215 14.312ZM99.8915 14.3121L99.8924 15.3121L99.8924 15.3121L99.8915 14.3121ZM98.1794 14.1288L99.0587 13.6524L99.0587 13.6524L98.1794 14.1288ZM98.289 13.5455L97.3487 13.2053L97.3487 13.2053L98.289 13.5455ZM98.3357 13.4156L97.3978 13.0686L97.3935 13.0806L98.3357 13.4156ZM99.2274 12.309L99.7421 13.1664L99.751 13.1609L99.2274 12.309ZM109.844 10.473L110.18 11.4148L110.187 11.4123L110.194 11.4098L109.844 10.473ZM108.504 11.9049L109.455 12.2137L109.458 12.2049L109.461 12.1961L108.504 11.9049ZM110.942 10.3377L110.88 11.3358L110.894 11.3366L110.908 11.3371L110.942 10.3377ZM111.601 10.3603L112.6 10.331L112.573 9.39294L111.635 9.36084L111.601 10.3603ZM111.634 11.4877L112.633 11.4585L112.633 11.4585L111.634 11.4877ZM111.667 12.6152V13.6152H112.696L112.666 12.586L111.667 12.6152ZM109.383 12.9647L109.999 13.7523L110.009 13.744L110.02 13.7353L109.383 12.9647ZM108.691 13.8666L107.792 13.4288L107.792 13.4288L108.691 13.8666ZM108.383 17.2039L107.383 17.1918L107.383 17.1921L108.383 17.2039ZM108.35 20V21H109.339L109.35 20.0118L108.35 20ZM106 20H105V21H106V20ZM106 10.5294V9.52937H105V10.5294H106ZM108.361 10.5294L109.361 10.5167L109.349 9.52937H108.361V10.5294ZM108.372 11.3975L107.372 11.4102L107.372 11.4114L108.372 11.3975ZM75.0219 13.5006C75.0328 11.712 75.041 10.0879 75.0465 8.91093C75.0493 8.32243 75.0513 7.84569 75.0527 7.51606C75.0534 7.35124 75.0539 7.22319 75.0542 7.13634C75.0544 7.09291 75.0545 7.05978 75.0546 7.0375C75.0547 7.02635 75.0547 7.01793 75.0547 7.01228C75.0547 7.00946 75.0547 7.00733 75.0547 7.0059C75.0547 7.00519 75.0547 7.00466 75.0547 7.0043C75.0547 7.00412 75.0547 7.00398 75.0547 7.00389C75.0547 7.00385 75.0547 7.00381 75.0547 7.00379C75.0547 7.00376 75.0547 7.00375 74.0547 7C73.0548 6.99625 73.0548 6.99626 73.0548 6.99628C73.0548 6.9963 73.0548 6.99633 73.0548 6.99638C73.0548 6.99646 73.0548 6.99659 73.0548 6.99677C73.0548 6.99712 73.0548 6.99765 73.0547 6.99835C73.0547 6.99976 73.0547 7.00188 73.0547 7.00468C73.0547 7.0103 73.0547 7.0187 73.0546 7.02981C73.0545 7.05202 73.0544 7.08509 73.0542 7.12845C73.0539 7.21517 73.0534 7.34308 73.0527 7.50775C73.0513 7.83709 73.0493 8.31349 73.0465 8.90162C73.0411 10.0779 73.0329 11.701 73.0219 13.4883L75.0219 13.5006ZM75 20.0034L75.0219 13.4978L73.0219 13.4911L73 19.9966L75 20.0034ZM76.8313 18.9556L73.9844 19.0001L74.0156 20.9999L76.8626 20.9553L76.8313 18.9556ZM76.8714 18.9549L76.831 18.9556L76.863 20.9553L76.9034 20.9547L76.8714 18.9549ZM80.2378 18.6669C79.8465 18.8047 79.7 18.85 79.3468 18.8824C78.9231 18.9213 78.2655 18.9326 76.8714 18.9549L76.9034 20.9547C78.2511 20.9331 79.0098 20.9217 79.5295 20.874C80.1196 20.8199 80.4436 20.7148 80.9021 20.5533L80.2378 18.6669ZM83.5292 14.8359C83.1688 16.7535 82.105 17.9959 80.2318 18.669L80.9082 20.5512C83.4369 19.6425 85.001 17.8326 85.4948 15.2053L83.5292 14.8359ZM83.5214 12.1801C83.713 13.1157 83.7146 13.8533 83.5293 14.8352L85.4946 15.2059C85.7255 13.9822 85.7271 12.982 85.4807 11.7788L83.5214 12.1801ZM80.1771 8.34512C82.1022 9.08798 83.1534 10.3273 83.5202 12.1742L85.4819 11.7847C84.9726 9.22026 83.4177 7.45186 80.8971 6.47922L80.1771 8.34512ZM76.8994 8.05541C78.2995 8.08932 78.9805 8.10838 79.4052 8.14984C79.757 8.18417 79.8768 8.22584 80.1678 8.34148L80.9064 6.48286C80.4966 6.32001 80.1894 6.21686 79.5995 6.15929C79.0826 6.10885 78.3072 6.08892 76.9479 6.05599L76.8994 8.05541ZM74.0547 7C74.0375 7.99985 74.0375 7.99985 74.0375 7.99985C74.0375 7.99985 74.0375 7.99985 74.0376 7.99985C74.0376 7.99985 74.0377 7.99985 74.0377 7.99986C74.0379 7.99986 74.0381 7.99986 74.0384 7.99987C74.039 7.99988 74.04 7.99989 74.0412 7.99991C74.0437 7.99996 74.0474 8.00002 74.0523 8.00011C74.062 8.00028 74.0766 8.00053 74.0958 8.00087C74.1341 8.00154 74.1906 8.00254 74.2634 8.00384C74.4089 8.00645 74.6194 8.01027 74.8792 8.01514C75.3987 8.02488 76.1151 8.03879 76.9025 8.05548L76.9448 6.05592C76.1554 6.03919 75.4373 6.02525 74.9166 6.01549C74.6563 6.01061 74.4452 6.00678 74.2992 6.00416C74.2262 6.00286 74.1694 6.00185 74.1309 6.00118C74.1116 6.00084 74.0969 6.00058 74.087 6.00041C74.0821 6.00032 74.0783 6.00026 74.0758 6.00021C74.0746 6.00019 74.0736 6.00018 74.073 6.00017C74.0727 6.00016 74.0724 6.00016 74.0722 6.00015C74.0722 6.00015 74.0721 6.00015 74.0721 6.00015C74.072 6.00015 74.072 6.00015 74.072 6.00015C74.072 6.00015 74.072 6.00015 74.0547 7ZM82.7244 10.966C82.2205 9.8868 81.5151 9.13608 80.4835 8.6473L79.6272 10.4547C80.1943 10.7234 80.5839 11.1089 80.9122 11.8121L82.7244 10.966ZM83.103 13.5167C83.103 12.8426 83.0994 12.3808 83.0503 12.0149C82.9928 11.5865 82.8754 11.2987 82.729 10.9759L80.9076 11.8022C81.024 12.0586 81.0489 12.1385 81.0681 12.281C81.0956 12.4859 81.103 12.7984 81.103 13.5167H83.103ZM82.7 16.1269C82.8517 15.7838 82.9809 15.4826 83.0445 15.0486C83.0998 14.6711 83.103 14.2046 83.103 13.5167H81.103C81.103 14.2547 81.0952 14.5569 81.0656 14.7586C81.0444 14.9039 81.0148 14.9925 80.8709 15.3178L82.7 16.1269ZM80.1345 18.5449C81.2362 18.1868 82.1949 17.2243 82.6938 16.1406L80.8771 15.3042C80.5657 15.9805 79.9914 16.4884 79.5163 16.6428L80.1345 18.5449ZM77.9055 18.827C78.7351 18.7936 79.6356 18.7035 80.1284 18.5468L79.5224 16.6408C79.3144 16.707 78.66 16.795 77.8252 16.8286L77.9055 18.827ZM76.5035 18.8827L77.9051 18.827L77.8256 16.8286L76.424 16.8843L76.5035 18.8827ZM75.4419 13.5217L75.4638 17.8885L77.4637 17.8784L77.4418 13.5117L75.4419 13.5217ZM75.409 9.15748L75.4419 13.5242L77.4418 13.5092L77.409 9.14244L75.409 9.15748ZM77.9174 8.19497L76.4391 8.15041L76.3789 10.1495L77.8571 10.1941L77.9174 8.19497ZM80.4628 8.63777C80.1173 8.48362 79.8195 8.36704 79.4001 8.29822C79.027 8.23701 78.5728 8.21683 77.9206 8.19507L77.8539 10.194C78.5376 10.2168 78.8553 10.2356 79.0763 10.2718C79.2509 10.3005 79.3692 10.3399 79.6479 10.4642L80.4628 8.63777ZM113.924 17.4909L113.925 17.4868L112.045 16.8046L112.044 16.8088L113.924 17.4909ZM112.937 20.1966C112.979 20.1002 113.374 19.007 113.924 17.4907L112.044 16.8091C111.762 17.5853 111.528 18.2323 111.36 18.6926C111.182 19.1838 111.099 19.4086 111.102 19.4017L112.937 20.1966ZM113.226 19C112.928 19 112.711 18.9993 112.55 18.9956C112.47 18.9937 112.411 18.9913 112.367 18.9885C112.322 18.9856 112.306 18.9831 112.31 18.9837C112.313 18.9841 112.327 18.9864 112.348 18.992C112.369 18.9975 112.406 19.0084 112.453 19.0287C112.541 19.0669 112.726 19.1662 112.862 19.388C113.005 19.6227 113.009 19.8533 112.993 19.9856C112.985 20.0481 112.972 20.0957 112.964 20.1221C112.956 20.149 112.949 20.1671 112.947 20.1716L111.091 19.4267C111.073 19.4711 111.027 19.589 111.008 19.7389C110.987 19.9081 110.996 20.1707 111.156 20.4331C111.309 20.6826 111.523 20.8054 111.657 20.8634C111.788 20.9204 111.911 20.9451 111.989 20.9578C112.254 21.0008 112.684 21 113.226 21V19ZM114.52 19H113.226V21H114.52V19ZM114.073 18.1965L113.573 19.6806L115.468 20.3194L115.968 18.8353L114.073 18.1965ZM114.561 16.7276L114.072 18.2006L115.97 18.8312L116.459 17.3582L114.561 16.7276ZM117.957 16.0429H115.51V18.0429H117.957V16.0429ZM120.393 16.0429H117.957V18.0429H120.393V16.0429ZM121.831 18.2006L121.342 16.7276L119.444 17.3582L119.933 18.8312L121.831 18.2006ZM122.321 19.6869L121.832 18.2027L119.932 18.829L120.422 20.3131L122.321 19.6869ZM122.72 19H121.371V21H122.72V19ZM123.053 20.1715C123.053 20.1715 123.017 20.0883 123.005 19.9652C122.989 19.8178 123.005 19.5817 123.16 19.3515C123.301 19.1414 123.483 19.0524 123.561 19.0204C123.604 19.0028 123.638 18.9934 123.656 18.9889C123.675 18.9843 123.686 18.9826 123.687 18.9825C123.688 18.9823 123.683 18.9831 123.67 18.9843C123.658 18.9855 123.641 18.9869 123.618 18.9883C123.571 18.9912 123.508 18.9937 123.424 18.9955C123.255 18.9993 123.029 19 122.72 19V21C123.286 21 123.724 21.0005 123.993 20.9589C124.071 20.9468 124.19 20.9238 124.318 20.8717C124.445 20.8199 124.658 20.7074 124.818 20.4696C124.992 20.2117 125.013 19.9436 124.994 19.7593C124.977 19.5993 124.928 19.4743 124.909 19.4267L123.053 20.1715ZM122.015 17.2538C122.31 18.0882 122.559 18.7926 122.738 19.2963C122.904 19.7652 123.032 20.1236 123.064 20.1966L124.899 19.4017C124.903 19.4109 124.814 19.1644 124.623 18.627C124.444 18.1246 124.195 17.4214 123.9 16.5866L122.015 17.2538ZM122.014 17.2535L122.015 17.2556L123.899 16.5848L123.899 16.5827L122.014 17.2535ZM120.853 13.9738C121.276 15.1678 121.675 16.2954 122.014 17.2517L123.899 16.5845C123.561 15.6282 123.162 14.5 122.738 13.3052L120.853 13.9738ZM120.461 12.8675L120.853 13.9737L122.738 13.3052L122.345 12.1989L120.461 12.8675ZM118.634 7.73142C118.634 7.72959 118.637 7.7376 118.646 7.76377C118.655 7.78688 118.666 7.81819 118.68 7.85784C118.709 7.937 118.748 8.04603 118.797 8.18243C118.894 8.45505 119.029 8.83413 119.193 9.29622C119.522 10.2203 119.966 11.4741 120.461 12.8674L122.345 12.199C121.364 9.43036 120.563 7.17243 120.498 7.00506L118.634 7.73142ZM118.517 7.43597L118.637 7.73725L120.496 6.99923L120.376 6.69794L118.517 7.43597ZM118.03 8.03319L119.422 8.06666L119.471 6.06724L118.079 6.03377L118.03 8.03319ZM116.628 7.99972L118.031 8.03319L118.078 6.03376L116.676 6.00028L116.628 7.99972ZM115.32 13.6438L117.592 7.33912L115.711 6.66088L113.438 12.9656L115.32 13.6438ZM113.925 17.4865C114.318 16.4034 114.801 15.0709 115.319 13.6463L113.439 12.9631C112.921 14.3886 112.438 15.7219 112.045 16.8049L113.925 17.4865ZM117.986 15.8222C118.719 15.833 119.213 15.8358 119.512 15.8042C119.595 15.7955 119.696 15.7811 119.801 15.7528C119.896 15.7271 120.071 15.6705 120.24 15.5341C120.444 15.3703 120.592 15.1297 120.63 14.8444C120.662 14.6082 120.607 14.4204 120.582 14.346L118.68 14.9639C118.67 14.9313 118.621 14.7808 118.648 14.5778C118.682 14.3257 118.815 14.1141 118.987 13.9756C119.125 13.8645 119.252 13.8294 119.28 13.8219C119.318 13.8117 119.332 13.8122 119.302 13.8153C119.152 13.8311 118.804 13.834 118.015 13.8224L117.986 15.8222ZM115.315 14.6996C115.315 15.1355 115.578 15.3946 115.686 15.4834C115.804 15.5808 115.918 15.6303 115.969 15.6509C116.08 15.6959 116.185 15.718 116.243 15.7291C116.375 15.7544 116.532 15.771 116.689 15.7831C117.015 15.8081 117.464 15.8223 118 15.8223V13.8223C117.492 13.8223 117.098 13.8086 116.842 13.789C116.709 13.7788 116.64 13.7689 116.619 13.7649C116.601 13.7613 116.648 13.7681 116.72 13.7972C116.751 13.8099 116.85 13.8513 116.958 13.9406C117.056 14.0212 117.315 14.272 117.315 14.6996H115.315ZM116.181 11.8195C115.957 12.496 115.752 13.1245 115.603 13.5936C115.528 13.8275 115.466 14.0258 115.422 14.1719C115.4 14.244 115.381 14.3099 115.366 14.3636C115.359 14.3896 115.351 14.4213 115.344 14.4535C115.34 14.4692 115.335 14.4935 115.33 14.5219C115.327 14.5366 115.315 14.6088 115.315 14.6996H117.315C117.315 14.7862 117.303 14.8521 117.301 14.8584C117.298 14.8785 117.295 14.8923 117.294 14.8956C117.292 14.903 117.293 14.9018 117.296 14.8873C117.304 14.86 117.317 14.8146 117.337 14.7485C117.376 14.6181 117.434 14.432 117.508 14.2014C117.655 13.7416 117.857 13.1203 118.08 12.4466L116.181 11.8195ZM117.005 9.31375C116.992 9.35384 116.625 10.4861 116.181 11.8171L118.079 12.449C118.524 11.1112 118.894 9.97363 118.908 9.93167L117.005 9.31375ZM117.005 9.31552L117.005 9.31591L118.908 9.92951L118.908 9.92912L117.005 9.31552ZM120.587 14.3592C120.436 13.8723 120.013 12.5914 119.633 11.4498C119.441 10.8763 119.259 10.3331 119.124 9.93551C119.057 9.73709 119.001 9.573 118.961 9.45901C118.942 9.40291 118.925 9.35464 118.912 9.31938C118.907 9.3041 118.898 9.28052 118.889 9.25761C118.887 9.25452 118.872 9.21566 118.85 9.17128C118.843 9.15817 118.829 9.1315 118.809 9.09924C118.802 9.08691 118.744 8.98978 118.642 8.89311C118.572 8.83389 118.354 8.7042 118.199 8.65174C117.933 8.62224 117.418 8.77974 117.208 8.95906C117.105 9.0975 116.997 9.34222 116.974 9.43555C116.965 9.49181 116.957 9.58534 116.957 9.62232H118.957C118.956 9.65912 118.948 9.75251 118.939 9.80866C118.917 9.90187 118.808 10.1465 118.705 10.2849C118.496 10.4642 117.981 10.6217 117.715 10.5922C117.56 10.5397 117.341 10.4101 117.272 10.351C117.17 10.2544 117.112 10.1576 117.105 10.1457C117.085 10.1138 117.072 10.0877 117.066 10.0752C117.052 10.0491 117.043 10.0285 117.041 10.022C117.037 10.0129 117.034 10.006 117.033 10.0027C117.029 9.99282 117.028 9.99 117.032 10.0027C117.04 10.0235 117.053 10.0603 117.072 10.1147C117.109 10.2216 117.163 10.3802 117.23 10.5774C117.363 10.971 117.545 11.5109 117.735 12.0826C118.118 13.2313 118.533 14.4891 118.676 14.9506L120.587 14.3592ZM124.334 6.32446C124.153 6.50719 124.095 6.71294 124.093 6.71885C124.075 6.7743 124.066 6.81947 124.062 6.83916C124.053 6.88203 124.049 6.91704 124.048 6.9303C124.044 6.96207 124.043 6.99117 124.042 7.00794C124.039 7.04578 124.038 7.09137 124.036 7.13854C124.033 7.23559 124.031 7.37205 124.028 7.54046C124.023 7.87879 124.018 8.3625 124.014 8.95429C124.005 10.1386 124 11.7639 124 13.5421H126C126 11.7675 126.005 10.147 126.014 8.96834C126.018 8.37861 126.023 7.90146 126.028 7.57152C126.03 7.4058 126.033 7.28127 126.035 7.19946C126.037 7.15721 126.038 7.13391 126.038 7.12451C126.039 7.11767 126.038 7.12856 126.036 7.14769C126.035 7.15463 126.032 7.1847 126.024 7.22404C126.021 7.24196 126.012 7.28573 125.994 7.34011C125.992 7.34497 125.935 7.55001 125.754 7.73239L124.334 6.32446ZM132.15 6.28171C132.012 6.23524 131.86 6.21935 131.817 6.21439C131.733 6.20473 131.633 6.19586 131.525 6.18759C131.306 6.17091 131.02 6.15421 130.695 6.13806C130.042 6.10569 129.206 6.07438 128.38 6.04982C127.555 6.02526 126.733 6.00725 126.109 6.00176C125.798 5.99902 125.528 5.9993 125.328 6.00388C125.23 6.00611 125.135 6.00966 125.055 6.01598C125.017 6.01891 124.961 6.02408 124.901 6.03446C124.873 6.03933 124.818 6.04957 124.754 6.06969C124.738 6.07479 124.523 6.13394 124.334 6.3245L125.754 7.73235C125.569 7.91977 125.359 7.97592 125.352 7.97816C125.297 7.99542 125.255 8.00293 125.242 8.00522C125.212 8.01042 125.197 8.01097 125.212 8.0098C125.236 8.0079 125.287 8.00533 125.374 8.00335C125.542 7.99951 125.787 7.999 126.091 8.00168C126.697 8.00701 127.503 8.02461 128.321 8.04893C129.138 8.07325 129.96 8.10409 130.595 8.13561C130.914 8.15141 131.18 8.16709 131.373 8.1818C131.47 8.18922 131.541 8.19579 131.587 8.20113C131.674 8.21118 131.61 8.20987 131.513 8.17736L132.15 6.28171ZM135.666 11.1792C135.673 10.0367 135.383 8.99737 134.762 8.13549C134.143 7.2754 133.247 6.66357 132.161 6.28519L131.503 8.17388C132.277 8.44352 132.803 8.83724 133.139 9.30391C133.474 9.7688 133.671 10.3775 133.666 11.1678L135.666 11.1792ZM133.249 15.5548C134.846 14.6628 135.666 13.107 135.666 11.1735H133.666C133.666 12.4801 133.157 13.3153 132.274 13.8087L133.249 15.5548ZM129.521 16.2956C130.549 16.2574 131.224 16.2259 131.754 16.1272C132.348 16.0167 132.749 15.826 133.238 15.5611L132.286 13.8024C131.867 14.0292 131.681 14.1066 131.389 14.1609C131.033 14.227 130.523 14.257 129.447 14.297L129.521 16.2956ZM127.525 16.3627L129.518 16.2957L129.451 14.2968L127.458 14.3639L127.525 16.3627ZM128.491 17.6872V15.3633H126.491V17.6872H128.491ZM128.491 20V17.6872H126.491V20H128.491ZM126.251 21H127.491V19H126.251V21ZM125 21H126.251V19H125V21ZM124 13.5421V20H126V13.5421H124ZM130.695 10.2663C130.737 10.2849 130.824 10.3357 130.922 10.4126C130.968 10.4481 131.006 10.4818 131.035 10.5096C131.066 10.5401 131.072 10.5503 131.063 10.5377L132.689 9.37366C132.538 9.16312 132.331 8.97512 132.154 8.83677C131.97 8.69301 131.742 8.5427 131.507 8.43839L130.695 10.2663ZM128.428 9.53313C128.302 9.8731 128.04 10.007 127.999 10.0282C127.957 10.0495 127.925 10.0612 127.91 10.0666C127.893 10.0723 127.883 10.0747 127.882 10.0748C127.882 10.0749 127.898 10.0712 127.935 10.0664C127.971 10.0617 128.017 10.057 128.075 10.053C128.314 10.0363 128.659 10.0359 129.042 10.0538C129.421 10.0715 129.811 10.1058 130.136 10.1515C130.299 10.1743 130.435 10.1987 130.541 10.2227C130.658 10.2492 130.694 10.266 130.682 10.2602L131.52 8.44448C131.208 8.3002 130.771 8.22112 130.415 8.17094C130.017 8.11503 129.564 8.07598 129.135 8.05597C128.71 8.03613 128.281 8.03371 127.936 8.05785C127.769 8.0695 127.583 8.08981 127.414 8.13038C127.333 8.14988 127.21 8.18456 127.083 8.25008C126.989 8.29864 126.693 8.46292 126.554 8.8364L128.428 9.53313ZM128.458 11.331C128.452 10.7887 128.452 10.2777 128.458 9.89578C128.461 9.70364 128.465 9.55138 128.469 9.4467C128.472 9.39305 128.474 9.36236 128.475 9.34933C128.476 9.34205 128.475 9.35099 128.472 9.36953C128.471 9.37893 128.467 9.39916 128.461 9.42587C128.456 9.4464 128.442 9.50427 128.412 9.5757L126.571 8.79383C126.517 8.92023 126.501 9.03468 126.498 9.05016C126.491 9.09222 126.487 9.13138 126.484 9.16061C126.478 9.2206 126.475 9.2881 126.471 9.35474C126.465 9.49062 126.461 9.66726 126.458 9.86756C126.452 10.2705 126.452 10.7986 126.458 11.3512L128.458 11.331ZM128.491 13.3357L128.458 11.3246L126.458 11.3576L126.491 13.3687L128.491 13.3357ZM129.097 12.3522H127.491V14.3522H129.097V12.3522ZM130.697 12.2026C130.527 12.2987 130.506 12.304 130.403 12.318C130.207 12.3445 129.876 12.3522 129.097 12.3522V14.3522C129.823 14.3522 130.311 14.3487 130.672 14.2999C131.125 14.2384 131.398 14.1041 131.682 13.9431L130.697 12.2026ZM131.142 11.2517C131.142 11.7774 131.093 11.8968 131.078 11.9261C131.077 11.9285 131.069 11.946 131.021 11.9872C130.965 12.0362 130.868 12.1043 130.691 12.2058L131.688 13.94C132.121 13.6911 132.574 13.3824 132.851 12.851C133.113 12.3496 133.142 11.7875 133.142 11.2517H131.142ZM131.064 10.5387C131.104 10.5954 131.113 10.6143 131.114 10.6156C131.114 10.6158 131.114 10.6155 131.113 10.6146C131.113 10.6138 131.113 10.6131 131.113 10.6128C131.112 10.6119 131.114 10.6156 131.116 10.6264C131.121 10.6512 131.129 10.7037 131.134 10.8107C131.14 10.9177 131.142 11.0569 131.142 11.2517H133.142C133.142 10.8709 133.137 10.5277 133.076 10.2291C133.002 9.86242 132.856 9.60661 132.688 9.37263L131.064 10.5387ZM137 20V13.5H135V20H137ZM137.167 19H136V21H137.167V19ZM138.334 19H137.167V21H138.334V19ZM137.334 13.5V20H139.334V13.5H137.334ZM137.334 7V13.5H139.334V7H137.334ZM137.167 8H138.334V6H137.167V8ZM136 8H137.167V6H136V8ZM137 13.5V7H135V13.5H137ZM88.4995 9.60704C86.9067 10.1526 85.6159 11.7104 85.1775 13.4178L87.1146 13.9153C87.4133 12.7521 88.2906 11.7927 89.1476 11.4991L88.4995 9.60704ZM90.6386 9.34401C90.1816 9.32699 89.8142 9.32699 89.4706 9.36847C89.1106 9.41195 88.8135 9.49631 88.4911 9.60999L89.1561 11.4962C89.3973 11.4111 89.5447 11.3741 89.7104 11.3541C89.8926 11.3321 90.1322 11.3265 90.5641 11.3426L90.6386 9.34401ZM92.7905 9.78421C92.4672 9.62888 92.1734 9.50872 91.8028 9.43729C91.4601 9.37126 91.0874 9.35455 90.625 9.3436L90.5777 11.343C91.0476 11.3542 91.2657 11.3706 91.4243 11.4012C91.555 11.4263 91.6732 11.4663 91.9244 11.587L92.7905 9.78421ZM95.6664 14.9693C95.6664 12.6487 94.7158 10.6859 92.7816 9.77999L91.9333 11.5912C92.9693 12.0764 93.6664 13.1829 93.6664 14.9693H95.6664ZM95.6664 15.8416V14.9693H93.6664V15.8416H95.6664ZM91.5014 16.8084L94.6559 16.8415L94.6769 14.8416L91.5224 14.8085L91.5014 16.8084ZM88.347 16.7753L91.5014 16.8084L91.5224 14.8085L88.3679 14.7754L88.347 16.7753ZM89.4038 16.081L89.3496 15.6504L87.3653 15.9002L87.4195 16.3308L89.4038 16.081ZM89.9277 17.0154C89.7442 16.9162 89.469 16.5673 89.4028 16.0732L87.4205 16.3386C87.5495 17.3018 88.0981 18.2999 88.9769 18.7749L89.9277 17.0154ZM91.3899 16.7795C91.2851 16.9165 91.0677 17.0594 90.7542 17.1174C90.4441 17.1748 90.1403 17.1289 89.9234 17.013L88.9812 18.7772C89.6532 19.1361 90.4279 19.2117 91.1179 19.0841C91.8043 18.9571 92.5084 18.6088 92.9782 17.995L91.3899 16.7795ZM91.6481 16.4398L91.3879 16.7821L92.9801 17.9924L93.2403 17.6501L91.6481 16.4398ZM93.5911 16.1733L92.5613 16.0519L92.3271 18.0381L93.3569 18.1596L93.5911 16.1733ZM94.9901 16.4299C94.9055 16.3868 94.8321 16.3655 94.8234 16.3629C94.7985 16.3553 94.7779 16.3501 94.7664 16.3472C94.7424 16.3413 94.7208 16.3368 94.7069 16.334C94.6772 16.3279 94.644 16.3219 94.6117 16.3163C94.5453 16.3047 94.4581 16.2908 94.3573 16.2756C94.155 16.2451 93.884 16.2077 93.5907 16.1733L93.3573 18.1596C93.6276 18.1914 93.877 18.2258 94.0595 18.2533C94.1511 18.2671 94.2224 18.2786 94.2692 18.2867C94.2935 18.291 94.3055 18.2933 94.3082 18.2938C94.3105 18.2943 94.3019 18.2926 94.2876 18.2891C94.281 18.2875 94.2643 18.2833 94.2426 18.2767C94.2369 18.275 94.1658 18.2545 94.0825 18.2121L94.9901 16.4299ZM95.337 18.1171C95.3823 18.0018 95.4305 17.8738 95.4656 17.7627C95.4816 17.7118 95.5054 17.6322 95.5211 17.5459C95.5283 17.5067 95.5421 17.4231 95.5404 17.3202C95.5395 17.2682 95.5344 17.1791 95.5066 17.0732C95.4803 16.9727 95.4159 16.7895 95.2499 16.6204L93.8228 18.0216C93.6595 17.8553 93.5971 17.6761 93.5722 17.581C93.5457 17.4803 93.5414 17.3977 93.5406 17.3533C93.5392 17.2659 93.5508 17.2022 93.5536 17.1872C93.5605 17.1492 93.5666 17.1344 93.5583 17.1608C93.5446 17.2043 93.5169 17.2805 93.4754 17.386L95.337 18.1171ZM93.169 20.4202C93.6094 20.196 94.067 19.7958 94.4199 19.4243C94.767 19.0588 95.1457 18.5814 95.3307 18.1328L93.4818 17.3704C93.4391 17.4738 93.2649 17.7362 92.9698 18.0469C92.6804 18.3516 92.4064 18.5642 92.2614 18.638L93.169 20.4202ZM88.3024 20.6172C89.0691 20.9118 89.9478 21.0266 90.7791 20.9949C91.6071 20.9632 92.4634 20.7831 93.1725 20.4184L92.2578 18.6398C91.8721 18.8382 91.3192 18.9728 90.7027 18.9963C90.0896 19.0198 89.4886 18.9304 89.0196 18.7502L88.3024 20.6172ZM85.1791 16.9243C85.6039 18.5371 86.8146 20.0544 88.3071 20.619L89.0148 18.7484C88.231 18.4519 87.4037 17.5181 87.1131 16.4149L85.1791 16.9243ZM85.1801 13.4079C85.0489 13.8977 84.9997 14.5686 84.9997 15.1681C84.9997 15.7675 85.0489 16.4384 85.1801 16.9283L87.112 16.4109C87.0481 16.1721 86.9997 15.7058 86.9997 15.1681C86.9997 14.6304 87.0481 14.164 87.112 13.9252L85.1801 13.4079ZM90.8894 13.1678C90.8887 13.1675 90.9004 13.1742 90.9226 13.1913C90.9437 13.2076 90.9678 13.228 90.9919 13.2508C91.0161 13.2736 91.036 13.2947 91.0501 13.311C91.0658 13.3293 91.0658 13.3317 91.0565 13.3171L92.7478 12.2496C92.5589 11.9503 92.2079 11.6159 91.8743 11.4272L90.8894 13.1678ZM89.9377 13.1287C89.9493 13.1241 90.0061 13.1063 90.1152 13.0939C90.218 13.0823 90.3385 13.0786 90.4614 13.085C90.5852 13.0914 90.6944 13.1071 90.7769 13.1265C90.8708 13.1486 90.8805 13.1639 90.8427 13.1397L91.921 11.4553C91.5068 11.1902 90.9581 11.1081 90.5651 11.0877C90.1502 11.0662 89.6312 11.1 89.2054 11.2676L89.9377 13.1287ZM89.4184 14.0486C89.5214 13.4593 89.8167 13.1797 89.9583 13.1203L89.1848 11.276C88.2207 11.6803 87.6271 12.6814 87.4483 13.7041L89.4184 14.0486ZM89.3406 14.4675L89.4165 14.059L87.4501 13.6937L87.3743 14.1022L89.3406 14.4675ZM90.2978 13.2848H88.3574V15.2848H90.2978V13.2848ZM91.5897 13.518C91.7466 13.3581 91.9159 13.2971 91.9387 13.2883C91.9935 13.2673 92.0371 13.2564 92.055 13.2521C92.0766 13.247 92.0929 13.244 92.1007 13.2426C92.1093 13.2411 92.1148 13.2404 92.1163 13.2402C92.1174 13.24 92.0996 13.2422 92.0538 13.2456C91.9671 13.252 91.8329 13.2587 91.6566 13.2647C91.307 13.2767 90.8254 13.2848 90.2978 13.2848V15.2848C90.8434 15.2848 91.3482 15.2764 91.725 15.2635C91.9118 15.2572 92.0757 15.2494 92.2004 15.2402C92.2603 15.2358 92.3265 15.23 92.3872 15.2217C92.415 15.2179 92.464 15.2107 92.5193 15.1975C92.5458 15.1911 92.5965 15.1782 92.6566 15.1551C92.6849 15.1442 92.8578 15.0811 93.0168 14.9192L91.5897 13.518ZM91.0611 13.3243C91.0539 13.313 91.0597 13.3204 91.0766 13.3567C91.092 13.3897 91.1109 13.4341 91.1321 13.4892C91.1747 13.6 91.2181 13.7315 91.254 13.8591C91.2912 13.991 91.3132 14.0932 91.3216 14.1494C91.3265 14.1822 91.3216 14.1659 91.3228 14.1196C91.3233 14.0977 91.3258 14.0319 91.3479 13.945C91.3595 13.8996 91.3803 13.8324 91.4192 13.7557C91.4579 13.6793 91.5236 13.5755 91.6321 13.4773L92.9744 14.9599C93.1927 14.7623 93.2627 14.5304 93.2863 14.4378C93.3147 14.326 93.3207 14.2289 93.3222 14.1698C93.3252 14.0491 93.3118 13.9356 93.2998 13.8547C93.2743 13.6836 93.2286 13.4925 93.179 13.3167C93.0897 12.9996 92.933 12.5373 92.7432 12.2423L91.0611 13.3243ZM96.7184 15.948C96.4227 13.7695 97.4029 12.0969 98.9671 11.5073L98.2616 9.63586C95.6572 10.6176 94.3413 13.3052 94.7366 16.2171L96.7184 15.948ZM97.821 18.1355C97.1974 17.5425 96.8441 16.8663 96.7183 15.9469L94.7368 16.2182C94.923 17.5785 95.4838 18.6729 96.4428 19.5849L97.821 18.1355ZM100.342 19C99.5924 19 99.1586 18.9375 98.8311 18.8204C98.5208 18.7095 98.2304 18.5226 97.819 18.1336L96.4449 19.5868C96.9698 20.0831 97.493 20.466 98.158 20.7037C98.8058 20.9353 99.5089 21 100.342 21V19ZM102.705 18.2714C102.368 18.5745 102.099 18.7353 101.794 18.8351C101.469 18.9413 101.038 19 100.342 19V21C101.129 21 101.801 20.937 102.415 20.7361C103.049 20.5288 103.555 20.1971 104.042 19.7588L102.705 18.2714ZM103.869 18.1424C103.574 17.903 103.523 17.591 103.514 17.4616C103.506 17.3275 103.529 17.2303 103.536 17.2033C103.552 17.142 103.566 17.1216 103.546 17.1634C103.511 17.2322 103.439 17.3541 103.333 17.5102C103.111 17.8343 102.855 18.1403 102.715 18.2624L104.032 19.7678C104.361 19.4805 104.729 19.0119 104.984 18.6387C105.115 18.4462 105.244 18.2389 105.337 18.0532C105.379 17.9678 105.438 17.8388 105.475 17.6945C105.492 17.626 105.521 17.4937 105.51 17.3317C105.5 17.1745 105.44 16.8419 105.13 16.5901L103.869 18.1424ZM103.293 18.2048C103.58 18.2376 103.841 18.2698 104.029 18.2959C104.125 18.3092 104.191 18.3195 104.229 18.3262C104.25 18.3302 104.245 18.3298 104.226 18.3249C104.22 18.3233 104.181 18.3136 104.13 18.2938C104.106 18.2847 104.05 18.2618 103.982 18.2214C103.948 18.2006 103.893 18.1651 103.833 18.1117C103.777 18.0618 103.682 17.9656 103.606 17.816L105.393 16.9164C105.258 16.649 105.045 16.5264 105.012 16.5067C104.942 16.4647 104.882 16.4402 104.854 16.4293C104.794 16.4061 104.743 16.3927 104.721 16.387C104.669 16.374 104.619 16.3643 104.583 16.3578C104.505 16.3439 104.407 16.3292 104.304 16.3149C104.093 16.2856 103.814 16.2514 103.521 16.2178L103.293 18.2048ZM102.244 18.0952L103.303 18.2059L103.511 16.2167L102.452 16.1061L102.244 18.0952ZM102.859 18.0601L103.127 17.7281L101.57 16.4732L101.302 16.8052L102.859 18.0601ZM98.8257 18.8199C99.5081 19.1709 100.287 19.2472 100.984 19.1225C101.676 18.9986 102.384 18.6574 102.863 18.0558L101.299 16.8095C101.187 16.9493 100.959 17.0951 100.631 17.1538C100.308 17.2116 99.9833 17.1662 99.7405 17.0414L98.8257 18.8199ZM97.5875 17.5394C97.7223 17.8072 97.8777 18.0711 98.0995 18.3038C98.3312 18.5469 98.5856 18.7044 98.8488 18.8314L99.7175 17.0299C99.5906 16.9687 99.5607 16.9381 99.5472 16.9239C99.5238 16.8993 99.4729 16.8368 99.3737 16.6398L97.5875 17.5394ZM97.1685 16.149C97.1685 16.4094 97.2453 16.6872 97.3074 16.8766C97.3793 17.0961 97.4796 17.3392 97.5997 17.5628L99.3616 16.6164C99.3033 16.508 99.2476 16.3749 99.208 16.254C99.1886 16.1947 99.1763 16.1482 99.1697 16.1178C99.1611 16.078 99.1685 16.0946 99.1685 16.149H97.1685ZM97.1685 15.8059V16.149H99.1685V15.8059H97.1685ZM101.433 14.8392L98.1787 14.806L98.1583 16.8059L101.413 16.8391L101.433 14.8392ZM104.677 14.8724L101.433 14.8392L101.413 16.8391L104.656 16.8722L104.677 14.8724ZM103.602 14.8494L103.669 15.9339L105.665 15.8108L105.598 14.7263L103.602 14.8494ZM101.468 11.4688C102.639 11.7934 103.474 12.8041 103.602 14.8503L105.598 14.7253C105.436 12.1458 104.265 10.1686 102.002 9.54153L101.468 11.4688ZM98.9648 11.5082C99.2017 11.4196 99.631 11.346 100.146 11.3348C100.654 11.3237 101.137 11.3754 101.464 11.4677L102.007 9.5427C101.431 9.3804 100.738 9.32145 100.103 9.33528C99.4759 9.34895 98.7961 9.4359 98.264 9.63498L98.9648 11.5082ZM103.125 13.7064C103.055 13.2541 102.896 12.8139 102.681 12.4387C102.474 12.0762 102.17 11.6985 101.764 11.4589L100.748 13.1812C100.744 13.1792 100.768 13.1931 100.81 13.2398C100.85 13.2851 100.898 13.3493 100.945 13.4325C101.043 13.6023 101.117 13.8095 101.148 14.0101L103.125 13.7064ZM103.2 14.1425L103.122 13.6888L101.151 14.0277L101.229 14.4814L103.2 14.1425ZM100.186 15.312H102.215V13.312H100.186V15.312ZM99.8924 15.3121C99.9859 15.3121 100.084 15.312 100.186 15.312V13.312C100.083 13.312 99.984 13.3121 99.8906 13.3121L99.8924 15.3121ZM97.3002 14.6051C97.487 14.95 97.7887 15.1071 97.9931 15.179C98.1878 15.2474 98.3896 15.273 98.5497 15.2866C98.8729 15.314 99.3305 15.3127 99.8924 15.3121L99.8906 13.3121C99.2826 13.3127 98.9343 13.3121 98.719 13.2938C98.6097 13.2845 98.6092 13.2756 98.6562 13.2921C98.7131 13.3121 98.9219 13.4 99.0587 13.6524L97.3002 14.6051ZM97.3487 13.2053C97.3044 13.3276 97.2359 13.5118 97.1972 13.6807C97.163 13.8302 97.0881 14.2136 97.3002 14.6051L99.0587 13.6524C99.1362 13.7955 99.1542 13.9278 99.1559 14.01C99.1567 14.05 99.1539 14.0804 99.1516 14.0982C99.1493 14.1161 99.1469 14.1265 99.1468 14.1271C99.1466 14.1279 99.1477 14.1231 99.1512 14.1111C99.1548 14.0991 99.1599 14.0829 99.1672 14.0611C99.1826 14.0151 99.202 13.9613 99.2294 13.8857L97.3487 13.2053ZM97.3935 13.0806C97.3784 13.1232 97.3636 13.1639 97.3487 13.2053L99.2294 13.8857C99.2441 13.8449 99.2607 13.7992 99.2779 13.7506L97.3935 13.0806ZM98.7127 11.4516C98.4049 11.6364 98.1289 11.8504 97.8953 12.1432C97.6655 12.4313 97.5177 12.7448 97.3978 13.0686L99.2736 13.7626C99.3544 13.5442 99.4127 13.4482 99.4588 13.3905C99.5011 13.3375 99.5706 13.2693 99.7421 13.1664L98.7127 11.4516ZM101.785 11.4714C101.315 11.1785 100.706 11.0962 100.241 11.0946C99.778 11.0929 99.1703 11.1703 98.7038 11.457L99.751 13.1609C99.7343 13.1712 99.7671 13.1491 99.8752 13.127C99.9743 13.1067 100.099 13.0941 100.234 13.0946C100.369 13.095 100.494 13.1085 100.594 13.1298C100.703 13.153 100.739 13.1761 100.727 13.1687L101.785 11.4714ZM109.508 9.53124C109.043 9.69712 108.62 10.0463 108.317 10.3694C108.011 10.6957 107.692 11.1396 107.547 11.6137L109.461 12.1961C109.481 12.129 109.579 11.9471 109.776 11.7378C109.864 11.6431 109.956 11.5623 110.037 11.5021C110.078 11.4724 110.112 11.4505 110.139 11.4353C110.166 11.4198 110.18 11.4147 110.18 11.4148L109.508 9.53124ZM111.004 9.33963C110.531 9.31022 109.892 9.38744 109.494 9.53616L110.194 11.4098C110.192 11.4105 110.198 11.408 110.215 11.4034C110.231 11.399 110.252 11.3937 110.279 11.3878C110.333 11.3761 110.4 11.3645 110.474 11.355C110.629 11.3353 110.778 11.3294 110.88 11.3358L111.004 9.33963ZM111.635 9.36084L110.976 9.33829L110.908 11.3371L111.567 11.3597L111.635 9.36084ZM112.633 11.4585L112.6 10.331L110.601 10.3895L110.634 11.5169L112.633 11.4585ZM112.666 12.586L112.633 11.4585L110.634 11.5169L110.667 12.6444L112.666 12.586ZM110.733 13.6152H111.667V11.6152H110.733V13.6152ZM110.02 13.7353C110.21 13.5784 110.183 13.622 110.131 13.6355C110.129 13.636 110.159 13.628 110.265 13.6224C110.371 13.6168 110.515 13.6152 110.733 13.6152V11.6152C110.343 11.6152 109.96 11.6139 109.63 11.6992C109.219 11.8056 108.951 12.024 108.745 12.1941L110.02 13.7353ZM109.59 14.3045C109.631 14.2202 109.707 14.0965 109.802 13.9721C109.848 13.9124 109.892 13.8603 109.931 13.8189C109.95 13.7984 109.966 13.7823 109.978 13.7704C109.985 13.7645 109.99 13.76 109.993 13.7569C109.997 13.7537 109.999 13.7523 109.999 13.7523L108.766 12.177C108.388 12.4729 107.994 13.0125 107.792 13.4288L109.59 14.3045ZM109.383 17.216C109.4 15.8342 109.411 15.188 109.446 14.8121C109.462 14.64 109.48 14.5668 109.492 14.5274C109.506 14.4838 109.524 14.44 109.59 14.3045L107.792 13.4288C107.726 13.5639 107.644 13.7328 107.58 13.9412C107.515 14.1537 107.479 14.3716 107.455 14.6265C107.41 15.1046 107.399 15.8565 107.383 17.1918L109.383 17.216ZM109.35 20.0118L109.383 17.2157L107.383 17.1921L107.35 19.9882L109.35 20.0118ZM107.175 21H108.35V19H107.175V21ZM106 21H107.175V19H106V21ZM105 15.2647V20H107V15.2647H105ZM105 10.5294V15.2647H107V10.5294H105ZM107.186 9.52937H106V11.5294H107.186V9.52937ZM108.361 9.52937H107.186V11.5294H108.361V9.52937ZM109.372 11.3849L109.361 10.5167L107.361 10.542L107.372 11.4102L109.372 11.3849ZM107.553 11.5961C107.515 11.7119 107.524 11.6667 107.565 11.5935C107.577 11.5707 107.625 11.4853 107.715 11.3943C107.781 11.327 108.065 11.0579 108.523 11.1067C108.994 11.1569 109.216 11.4945 109.27 11.5866C109.338 11.7026 109.364 11.8025 109.37 11.8285C109.392 11.9149 109.387 11.9567 109.381 11.8187C109.378 11.7218 109.375 11.5822 109.372 11.3836L107.372 11.4114C107.375 11.6074 107.378 11.7708 107.383 11.8959C107.386 11.9799 107.392 12.1626 107.432 12.3195C107.443 12.363 107.473 12.4762 107.547 12.6012C107.606 12.7022 107.834 13.0446 108.311 13.0954C108.775 13.1449 109.066 12.8724 109.139 12.7978C109.236 12.6995 109.292 12.6029 109.313 12.5651C109.387 12.432 109.438 12.2669 109.455 12.2137L107.553 11.5961Z" fill="#237EF3" mask="url(#path-1-inside-1_369_4101)"/>
<path d="M48 36.9903C47.2423 37.0682 45.5872 36.71 45.0278 34.6543C44.3284 32.0847 44.1536 31.6175 43.9205 31.2087C43.8692 31.1188 43.7925 31.0119 43.7011 30.8844C43.3766 30.432 42.8656 29.7196 42.6383 28.5807C42.4992 27.8834 42.4531 27.3726 42.4175 26.9784L42.4175 26.9783C42.3785 26.5471 42.3522 26.2552 42.2304 26.0111C42.0397 25.6289 41.537 25.5203 41.2646 25.4614L41.2646 25.4614C41.2041 25.4483 41.1549 25.4377 41.1231 25.4271C41.1012 25.4198 41.0466 25.4061 40.9656 25.3858C40.3984 25.2437 38.5371 24.7774 37.5681 23.9087C36.9539 23.358 35.8149 22.1051 35.6449 20.2295C35.5867 19.5871 38.6899 20.2295 39.4913 20.5215C40.1324 20.7551 42.0555 21.9231 42.2304 22.0399C42.4052 22.1567 42.5606 21.9815 42.4635 21.6895C42.4052 21.5143 41.3562 19.9959 40.6569 19.4119C40.4162 19.2109 40.0569 18.9561 39.6404 18.6608C38.4879 17.8436 36.8973 16.7157 36.1694 15.5575C35.4545 14.4198 33.8383 11.6447 34.0131 8.89984C34.188 6.15504 35.8781 3.11822 36.8105 3.00143C37.1456 2.95946 36.9089 3.85237 36.7058 4.61827C36.6263 4.91819 36.552 5.19863 36.5191 5.39583C36.3927 6.15504 35.9946 9.48384 36.694 11.1774C37.2534 12.5323 38.0927 13.6497 38.4423 14.0391C38.4617 13.202 38.6754 11.2242 39.3748 10.0094C40.249 8.49104 40.7735 8.19904 41.0066 8.31584C41.2397 8.43264 40.9838 9.709 40.8901 10.0094C40.5987 10.9439 40.5403 11.7031 40.4821 12.6959C40.4238 13.6887 41.1815 19.5871 48 20.8135C54.8185 19.5871 55.5762 13.6887 55.5179 12.6959C55.4597 11.7031 55.4013 10.9439 55.1099 10.0094C55.0162 9.709 54.7603 8.43264 54.9934 8.31584C55.2265 8.19904 55.751 8.49104 56.6252 10.0094C57.3246 11.2242 57.5383 13.202 57.5577 14.0391C57.9073 13.6497 58.7466 12.5323 59.306 11.1774C60.0054 9.48384 59.6073 6.15504 59.4809 5.39583C59.448 5.19863 59.3737 4.91818 59.2942 4.61827C59.0912 3.85237 58.8544 2.95946 59.1895 3.00143C60.1219 3.11822 61.812 6.15504 61.9869 8.89984C62.1617 11.6447 60.5455 14.4198 59.8306 15.5575C59.1028 16.7157 57.5121 17.8435 56.3596 18.6608L56.3596 18.6608C55.9431 18.9561 55.5838 19.2109 55.3431 19.4119C54.6438 19.9959 53.5948 21.5143 53.5365 21.6895C53.4394 21.9815 53.5948 22.1567 53.7696 22.0399C53.9445 21.9231 55.8676 20.7551 56.5087 20.5215C57.3101 20.2295 60.4133 19.5871 60.3551 20.2295C60.1851 22.1051 59.0461 23.358 58.4319 23.9087C57.4629 24.7774 55.6016 25.2437 55.0344 25.3858C54.9534 25.4061 54.8988 25.4198 54.8769 25.4271C54.8451 25.4377 54.7959 25.4483 54.7354 25.4614L54.7354 25.4614C54.463 25.5203 53.9603 25.6289 53.7696 26.0111C53.6478 26.2552 53.6215 26.5471 53.5825 26.9783C53.5469 27.3726 53.5008 27.8834 53.3617 28.5807C53.1344 29.7196 52.6234 30.432 52.299 30.8844L52.2989 30.8844C52.2075 31.0119 52.1308 31.1188 52.0795 31.2087C51.8464 31.6175 51.6716 32.0847 50.9722 34.6543C50.4128 36.71 48.7576 37.0682 48 36.9903Z" fill="#237EF3"/>
<path d="M138.907 30.3514V33.8692H138.037V33.5576H134.118V33.8692H133.249V30.3514H138.907ZM134.118 32.7376H138.037V31.1714H134.118V32.7376ZM132.732 29.6216L132.576 28.8098C133.15 28.7196 134.003 27.8586 135.118 26.2268L136.004 26.5384C135.372 27.4076 134.725 28.162 134.052 28.7852C135.381 28.7196 136.676 28.6294 137.939 28.5146C137.693 28.1538 137.439 27.8094 137.185 27.4896L137.964 27.1206C138.62 27.9406 139.235 28.8426 139.825 29.8348L138.989 30.2448C138.808 29.9086 138.62 29.5888 138.431 29.2772C136.725 29.433 134.823 29.5478 132.732 29.6216Z" fill="black"/>
<path d="M124.54 26.5548H131.239V27.3912H128.279V30.212H131.543V31.0402H128.279V33.8446H127.41V31.0402H124.212V30.212H127.41V27.3912H124.54V26.5548ZM125.745 27.7192C126.041 28.2686 126.319 28.8754 126.598 29.5478L125.795 29.9414C125.532 29.2608 125.245 28.6458 124.95 28.1046L125.745 27.7192ZM130.083 27.6864L130.862 28.0554C130.633 28.6868 130.329 29.3018 129.96 29.8922L129.189 29.4986C129.567 28.8918 129.862 28.285 130.083 27.6864Z" fill="black"/>
<path d="M116.086 27.6372H119.981C119.956 27.1944 119.948 26.7434 119.948 26.276H120.834C120.834 26.7516 120.842 27.2108 120.867 27.6372H122.039C121.834 27.2682 121.613 26.932 121.383 26.6368L122.088 26.2924C122.334 26.6204 122.564 26.9812 122.794 27.3748L122.269 27.6372H123.294V28.4736H120.916C121.006 29.6708 121.186 30.6876 121.449 31.5076C121.793 32.426 122.064 32.8852 122.277 32.8852C122.392 32.8852 122.515 32.4506 122.654 31.5978L123.425 31.9914C123.179 33.2296 122.818 33.8528 122.334 33.8528C121.523 33.8036 120.875 32.8606 120.383 31.0402C120.211 30.3022 120.096 29.4412 120.03 28.4736H116.086V27.6372ZM116.201 29.597H119.743V30.4006H118.398V32.1964C118.956 32.0816 119.514 31.9504 120.063 31.8028V32.6392C118.858 32.9262 117.57 33.1722 116.201 33.3772L116.004 32.5654C116.521 32.508 117.037 32.4342 117.546 32.3522V30.4006H116.201V29.597Z" fill="black"/>
<path d="M112.355 26.2596H113.224V27.6044H115.184V28.4408H113.224V29.7938H114.872V33.8036H114.052V33.3198H111.986V33.8118H111.174V29.7938H112.355V26.2596ZM111.986 32.5244H114.052V30.54H111.986V32.5244ZM107.804 27.5388H109.009C108.911 27.1534 108.813 26.7926 108.698 26.4564L109.567 26.317C109.657 26.6778 109.747 27.0796 109.838 27.5388H111.1V28.3588H107.804V27.5388ZM108.706 28.6786C108.895 29.6216 109.067 30.6958 109.214 31.9012L108.509 32.0734C108.362 30.9828 108.181 29.9332 107.968 28.9246L108.706 28.6786ZM110.928 31.8684V32.7048C110.002 32.9508 109.009 33.1558 107.96 33.328L107.755 32.508C108.337 32.4424 108.911 32.344 109.477 32.2292C109.706 31.1058 109.87 29.9168 109.977 28.6622L110.805 28.777C110.682 29.9578 110.502 31.0484 110.264 32.0488C110.494 31.9832 110.715 31.9258 110.928 31.8684Z" fill="black"/>
<path d="M99.5464 29.5642H107V30.417H99.5464V29.5642Z" fill="black"/>
<path d="M94.915 27.1453H95.8744V33.0001H94.915V27.1453Z" fill="black"/>
<path d="M89.5415 27.1453H91.9687C93.3791 27.1453 94.0925 27.7439 94.0925 28.9411C94.0925 30.1465 93.3791 30.7533 91.9523 30.7533H90.5009V33.0001H89.5415V27.1453ZM90.5009 27.9653V29.9333H91.8949C92.3213 29.9333 92.6329 29.8513 92.8297 29.7037C93.0265 29.5479 93.1249 29.2937 93.1249 28.9411C93.1249 28.5885 93.0183 28.3425 92.8215 28.1949C92.6247 28.0391 92.3131 27.9653 91.8949 27.9653H90.5009Z" fill="black"/>
<path d="M85.6409 27.1453H86.7315L88.9701 33.0001H87.9451L87.4121 31.5323H84.9603L84.4273 33.0001H83.4023L85.6409 27.1453ZM85.2473 30.7451H87.1251L86.2067 28.1785H86.1739L85.2473 30.7451Z" fill="black"/>
<path d="M79.1396 27.1453H80.099V33.0001H79.1396V27.1453Z" fill="black"/>
<path d="M75.2386 27.1453H76.3292L78.5678 33.0001H77.5428L77.0098 31.5323H74.558L74.025 33.0001H73L75.2386 27.1453ZM74.845 30.7451H76.7228L75.8044 28.1785H75.7716L74.845 30.7451Z" fill="black"/>
</svg>
