<svg width="180" height="40" viewBox="0 0 180 40" fill="none" xmlns="http://www.w3.org/2000/svg">
<path d="M55.5749 12.6896C55.3421 12.7274 54.996 12.7588 54.5304 12.7903C54.0647 12.8217 53.5362 12.8406 52.9447 12.8469C52.3532 12.8532 51.7302 12.8595 51.0758 12.8658C50.4214 12.8721 49.8047 12.8721 49.2196 12.8721L49.1629 14.7599C49.1378 15.2696 49.1126 15.773 49.0811 16.2512C49.0497 16.7358 49.0245 17.214 48.9993 17.6859C48.9867 18.0132 48.8294 18.1831 48.5211 18.1831H46.583C46.2873 18.1831 46.13 18.0132 46.1048 17.6734C46.0545 16.5973 46.023 15.6283 46.0104 14.7536C45.9978 13.8789 45.9978 12.9979 46.0041 12.1107C46.0104 11.2171 46.0293 10.2669 46.0671 9.25382C46.1048 8.24071 46.1489 7.05769 46.1929 5.69848C46.2684 5.38385 46.4194 5.22024 46.6523 5.22024H46.7278C46.8284 5.20766 46.9543 5.20136 47.1242 5.19507C47.2878 5.18878 47.464 5.1699 47.6465 5.13215C48.1939 5.09439 48.8546 5.06293 49.6223 5.03776C50.3899 5.01259 51.1576 5 51.919 5C52.6804 5 53.3914 5.01259 54.0458 5.03776C54.7002 5.06293 55.1911 5.10068 55.5183 5.14473C55.6504 5.1699 55.7259 5.24541 55.7385 5.38385V6.51652C55.7385 6.60462 55.7259 6.65496 55.7007 6.67384C55.6756 6.69272 55.6315 6.7116 55.5749 6.73677C55.3421 6.78711 54.996 6.82486 54.5304 6.84374C54.0647 6.86891 53.5362 6.88779 52.9447 6.90038C52.3532 6.91296 51.7302 6.91925 51.0758 6.92555C50.4214 6.93184 49.8047 6.93184 49.2196 6.93184H49.144L49.2007 8.63714C49.2133 9.02729 49.2196 9.41743 49.2196 9.80128C49.2196 10.1851 49.2196 10.5753 49.2196 10.9654C49.5027 10.9528 49.7922 10.9465 50.0879 10.9465C50.3899 10.9465 50.692 10.9402 50.994 10.9277C51.4471 10.9277 51.9001 10.9277 52.3595 10.9277C52.8188 10.9277 53.2467 10.934 53.6494 10.9465C54.0521 10.9591 54.4171 10.978 54.738 11.0032C55.0589 11.0283 55.3232 11.0535 55.5183 11.0787C55.6504 11.0913 55.7259 11.1668 55.7385 11.2989V12.4505C55.7385 12.526 55.7259 12.5763 55.7007 12.6078C55.6819 12.6393 55.6378 12.6707 55.5749 12.6896Z" fill="url(#paint0_linear_393_2)"/>
<path d="M66.6179 17.9628C66.5298 18.0131 66.4355 18.0194 66.3222 17.988C66.2152 17.9565 66.1208 17.8873 66.0453 17.7803C65.7496 17.2706 65.4916 16.7735 65.2588 16.3078C65.026 15.8359 64.7994 15.3765 64.5792 14.9235C64.4471 14.936 64.3086 14.9423 64.1702 14.9423C64.0318 14.9423 63.887 14.9423 63.7423 14.9423C63.3018 14.9549 62.8362 14.9675 62.3517 14.9801C61.8609 14.9927 61.3952 14.999 60.9422 14.999H59.9731C59.7655 15.4646 59.539 15.924 59.2873 16.3896C59.0356 16.8553 58.7776 17.321 58.507 17.7992C58.3623 18.032 58.1735 18.0949 57.9407 17.9817L56.4557 17.2706C56.3487 17.1951 56.2606 17.1196 56.1977 17.0441C56.1348 16.9623 56.1285 16.8679 56.1788 16.7609C56.506 15.9555 56.9087 15.0367 57.3807 14.011C57.8526 12.9853 58.3434 11.9533 58.8657 10.9151C59.3817 9.87677 59.9039 8.88883 60.4199 7.95122C60.9359 7.01362 61.4267 6.22704 61.8735 5.59149C61.993 5.409 62.1377 5.30203 62.3013 5.28315C62.4649 5.25798 62.6097 5.30203 62.7292 5.409V5.42788C62.8299 5.47822 62.8928 5.54115 62.9306 5.62924C63.434 6.25221 63.9311 7.0325 64.4345 7.96381C64.9379 8.89512 65.4224 9.88306 65.9006 10.9088C66.3788 11.9408 66.8256 12.9665 67.2535 13.9922C67.6814 15.0178 68.0526 15.9303 68.3735 16.7357C68.4113 16.8427 68.3987 16.9434 68.3483 17.0315C68.2917 17.1196 68.2162 17.1825 68.1218 17.2329L66.6179 17.9628ZM60.7974 13.2811H60.8918C61.3197 13.2811 61.7728 13.2685 62.2573 13.237C62.7418 13.2056 63.1949 13.193 63.6227 13.193H63.843L63.4403 12.2428C63.2578 11.8023 63.0879 11.3744 62.9369 10.9591C62.7859 10.5438 62.6348 10.1285 62.4901 9.71316L62.4146 9.54955C62.2447 9.96487 62.0685 10.3865 61.886 10.8207C61.7036 11.2549 61.5211 11.6828 61.3386 12.1107L60.7974 13.2811Z" fill="url(#paint1_linear_393_2)"/>
<path d="M70.1542 14.5394C70.3619 14.4513 70.5003 14.4954 70.5758 14.6653C70.7709 15.0554 71.0226 15.3763 71.3372 15.628C71.6455 15.8798 71.9727 16.0685 72.3188 16.1944C72.6586 16.3202 73.011 16.3895 73.3633 16.3895C73.7157 16.3895 74.0429 16.3265 74.3324 16.1944C74.6281 16.0685 74.8609 15.8798 75.0434 15.6343C75.2259 15.3889 75.3392 15.0806 75.3706 14.703C75.3832 14.4576 75.3517 14.2437 75.2762 14.0612C75.2007 13.8787 75.0434 13.6899 74.7917 13.4948C74.54 13.2998 74.1813 13.0921 73.722 12.8719C73.2564 12.6516 72.6334 12.3873 71.8532 12.0853C71.1232 11.7895 70.5695 11.4183 70.2045 10.9652C69.8396 10.5121 69.6571 9.88287 69.6571 9.07742C69.6571 8.37264 69.8144 7.76855 70.1227 7.27143C70.4311 6.77431 70.8275 6.37788 71.312 6.08212C71.7965 5.78008 72.3377 5.57871 72.9417 5.47174C73.5458 5.36476 74.1436 5.33959 74.7351 5.39623C75.3266 5.45915 75.8803 5.60388 76.39 5.843C76.906 6.08212 77.3087 6.39675 77.617 6.7869L77.7617 7.00714C77.7995 7.0449 77.8058 7.10782 77.7806 7.18963L76.9563 8.05172C76.906 8.12723 76.8367 8.18386 76.7487 8.22791C76.6543 8.27196 76.5788 8.25937 76.5221 8.20274C76.3271 7.93216 76.0062 7.70562 75.5594 7.52314C75.1126 7.34065 74.6659 7.25255 74.2128 7.25884C73.7598 7.26514 73.3633 7.39099 73.011 7.6364C72.6649 7.88182 72.4887 8.29084 72.4887 8.86347C72.4887 9.1718 72.6082 9.43609 72.8474 9.66892C73.0865 9.90175 73.4577 10.1283 73.9737 10.3485C74.3764 10.5436 74.8546 10.7324 75.4084 10.9086C75.9621 11.0848 76.497 11.3302 77.0003 11.6511C77.5037 11.9657 77.919 12.381 78.2337 12.897C78.5483 13.4067 78.6867 14.0801 78.6364 14.9107C78.586 15.628 78.3532 16.251 77.9316 16.767C77.51 17.283 76.9878 17.692 76.3648 17.9878C75.7419 18.2835 75.056 18.4534 74.3135 18.4975C73.571 18.5478 72.8411 18.466 72.1363 18.2521C71.4253 18.0381 70.7834 17.6857 70.2045 17.2012C69.6256 16.7104 69.1852 16.0748 68.8957 15.2757C68.8202 15.0806 68.8705 14.961 69.0404 14.9107L70.1542 14.5394Z" fill="url(#paint2_linear_393_2)"/>
<path d="M89.5977 7.21506C89.3271 7.25282 88.9181 7.27799 88.3706 7.29687C87.8232 7.31575 87.2065 7.33462 86.5207 7.35979C86.4137 7.35979 86.313 7.35979 86.2186 7.35979C86.1242 7.35979 86.0236 7.37238 85.9166 7.39755C85.9669 8.17784 85.9984 8.97071 86.011 9.76987C86.0236 10.569 86.0236 11.3934 86.011 12.2303C85.9984 13.1931 85.9795 14.1307 85.9481 15.0305C85.9166 15.9367 85.8663 16.8302 85.7908 17.7238C85.7782 18.0321 85.6271 18.1831 85.3314 18.1831H83.3745C83.2423 18.1831 83.1291 18.1391 83.0473 18.0573C82.9592 17.9692 82.9151 17.8622 82.9025 17.7301C82.8774 16.9875 82.8585 16.2953 82.8396 15.6598C82.8207 15.0242 82.8144 14.4075 82.8144 13.8034C82.8144 13.1994 82.8207 12.589 82.8333 11.9723C82.8459 11.3556 82.8648 10.6886 82.89 9.96494C82.9025 9.59997 82.9088 9.19724 82.9151 8.76305C82.9214 8.32886 82.934 7.88208 82.9592 7.41643H82.1726C81.4867 7.41643 80.8701 7.40384 80.3164 7.37238C79.7626 7.34092 79.341 7.31575 79.0642 7.29058C78.9761 7.29058 78.9383 7.21506 78.9383 7.07033L78.9194 5.91878C78.9194 5.84327 78.9383 5.79293 78.9824 5.76147C79.0264 5.73 79.0705 5.71113 79.1208 5.69854C79.3914 5.66078 79.7878 5.62303 80.3226 5.59156C80.8512 5.55381 81.4553 5.52864 82.1286 5.50976C82.8019 5.49088 83.5066 5.4783 84.2428 5.472C84.979 5.46571 85.6901 5.46571 86.3759 5.472C87.0618 5.4783 87.6848 5.49088 88.2511 5.50976C88.8174 5.52864 89.2579 5.5601 89.5788 5.61044C89.7361 5.63561 89.8179 5.71742 89.8179 5.84956V6.96965C89.8179 7.05775 89.8053 7.10809 89.7738 7.13326C89.7235 7.15214 89.6732 7.1836 89.5977 7.21506Z" fill="url(#paint3_linear_393_2)"/>
<path d="M103.29 5.82429C103.913 6.13263 104.404 6.55424 104.763 7.10799C105.121 7.65545 105.348 8.24695 105.43 8.88251C105.518 9.51807 105.455 10.1473 105.247 10.7703C105.04 11.3933 104.668 11.9156 104.127 12.3435C103.907 12.5134 103.668 12.6581 103.416 12.7839L104.329 14.1935C104.631 14.6843 104.914 15.1751 105.172 15.666C105.43 16.1631 105.669 16.6476 105.883 17.1196C105.983 17.2895 105.902 17.4468 105.644 17.5978L104.052 18.5669C103.781 18.7116 103.605 18.7179 103.523 18.5857C103.253 18.2208 103.013 17.881 102.793 17.5663C102.573 17.258 102.372 16.9434 102.189 16.635C102.007 16.3267 101.818 16.0121 101.629 15.6911C101.44 15.3765 101.233 15.0304 101.019 14.6654C100.912 14.4704 100.799 14.2627 100.692 14.0551C100.585 13.8411 100.459 13.6146 100.327 13.3692C100.22 13.3817 100.106 13.388 99.9994 13.388C99.8924 13.388 99.7792 13.388 99.6722 13.388C99.452 13.4006 99.238 13.4069 99.0241 13.4069C98.8101 13.4069 98.5962 13.4069 98.376 13.4069L98.3382 15.0178C98.3256 15.5275 98.3005 16.0309 98.2627 16.5092C98.225 16.9937 98.1935 17.472 98.1683 17.9439C98.1557 18.2711 97.9984 18.441 97.6901 18.441H95.752C95.6199 18.441 95.5066 18.3907 95.4248 18.2963C95.3367 18.1956 95.2927 18.076 95.2801 17.9313C95.2298 16.8553 95.1983 15.8862 95.1857 15.0115C95.1731 14.1369 95.1731 13.2622 95.1794 12.3749C95.1857 11.4877 95.2046 10.5438 95.2424 9.53065C95.2801 8.51754 95.3242 7.32823 95.3682 5.96273C95.3934 5.80541 95.4437 5.69215 95.5129 5.63551L95.5884 5.56L95.6828 5.50337C95.7206 5.50337 95.752 5.49707 95.7772 5.48449H95.7961L96.4379 5.42786C96.9035 5.37751 97.4573 5.33976 98.1054 5.32088C98.7535 5.29571 99.4079 5.29571 100.075 5.32088C100.742 5.34605 101.365 5.39639 101.95 5.4782C102.523 5.54741 102.976 5.66697 103.29 5.82429ZM98.3634 8.90139C98.3886 9.4048 98.4011 9.89562 98.4011 10.3739C98.4011 10.8584 98.3949 11.3492 98.3823 11.8463H99.0052C99.4079 11.8463 99.8169 11.8212 100.232 11.7645C100.648 11.7079 101.012 11.6198 101.333 11.5002C101.554 11.3996 101.736 11.2422 101.875 11.0157C102.013 10.7892 102.114 10.5249 102.177 10.2165C102.24 9.9145 102.258 9.59358 102.24 9.25377C102.221 8.92027 102.164 8.60563 102.063 8.30988C101.963 8.01413 101.818 7.76242 101.623 7.54847C101.428 7.33452 101.195 7.18979 100.924 7.12057C100.559 7.03248 100.094 6.99472 99.5338 6.99472C99.3135 6.99472 99.1059 7.00101 98.9045 7.00101C98.7032 7.00731 98.5018 7.0136 98.3068 7.02618L98.3634 8.90139Z" fill="#087CFA"/>
<path d="M115.888 12.438C115.655 12.4758 115.309 12.5072 114.843 12.5324C114.377 12.5576 113.855 12.5764 113.27 12.589C112.685 12.6016 112.068 12.6142 111.42 12.6268C110.772 12.6394 110.149 12.6457 109.551 12.6457H109.532L109.476 14.7726L109.381 16.3835H109.564C110.174 16.3835 110.81 16.3835 111.47 16.3772C112.131 16.3709 112.767 16.3709 113.383 16.3772C114 16.3835 114.56 16.3898 115.057 16.4024C115.56 16.4149 115.951 16.4464 116.227 16.4967C116.36 16.5093 116.429 16.5911 116.429 16.7359L116.448 17.8874C116.448 17.9881 116.378 18.0573 116.246 18.1077C115.938 18.158 115.453 18.2021 114.78 18.2335C114.107 18.2713 113.364 18.2964 112.553 18.3153C111.741 18.3342 110.923 18.3405 110.092 18.3342C109.262 18.3279 108.544 18.3027 107.934 18.2524L106.984 18.1958H106.889C106.594 18.1958 106.436 18.0259 106.411 17.6861C106.361 16.61 106.329 15.6409 106.317 14.7663C106.304 13.8916 106.304 13.0106 106.311 12.1234C106.317 11.2298 106.336 10.2796 106.373 9.26652C106.411 8.2534 106.455 7.07039 106.499 5.71118C106.575 5.39655 106.732 5.23294 106.978 5.23294H107.034C107.135 5.22035 107.261 5.21406 107.431 5.20777C107.594 5.20147 107.77 5.1826 107.953 5.14484C108.5 5.10709 109.161 5.07562 109.929 5.05045C110.696 5.02528 111.464 5.0127 112.225 5.0127C112.987 5.0127 113.698 5.02528 114.352 5.05045C115.007 5.07562 115.497 5.11338 115.825 5.15743C115.969 5.19518 116.045 5.27069 116.045 5.39655V6.52922C116.045 6.61732 116.032 6.66766 116.007 6.68654C115.982 6.70541 115.938 6.72429 115.881 6.74946C115.648 6.7998 115.302 6.83756 114.837 6.85644C114.371 6.88161 113.849 6.90048 113.264 6.91307C112.678 6.92565 112.062 6.93195 111.414 6.93824C110.766 6.94453 110.143 6.94453 109.545 6.94453H109.45L109.507 8.64984C109.52 8.98964 109.526 9.33573 109.526 9.67554C109.526 10.0153 109.526 10.3677 109.526 10.7201C109.809 10.7075 110.099 10.7012 110.394 10.7012C110.696 10.7012 110.998 10.6949 111.3 10.6824C111.753 10.6824 112.207 10.6824 112.666 10.6824C113.125 10.6824 113.553 10.6886 113.956 10.7012C114.359 10.7138 114.723 10.7264 115.044 10.7453C115.365 10.7642 115.63 10.7893 115.825 10.8271C115.969 10.8523 116.045 10.9278 116.045 11.0662V12.18C116.045 12.2681 116.032 12.3184 116.007 12.3436C115.995 12.3688 115.951 12.4002 115.888 12.438Z" fill="#087CFA"/>
<path d="M126.692 19.9828C126.585 19.8947 126.428 19.7437 126.227 19.5235C126.025 19.3032 125.811 19.0452 125.579 18.7558C125.553 18.7054 125.522 18.6614 125.478 18.6173C125.434 18.5733 125.402 18.5355 125.377 18.4978L125.214 18.5355C124.918 18.5984 124.616 18.6488 124.307 18.6991C123.999 18.7495 123.684 18.7746 123.364 18.7746H123.326C122.678 18.7746 122.048 18.7054 121.432 18.5733C120.815 18.4411 120.243 18.2272 119.72 17.9314C119.198 17.6357 118.745 17.277 118.367 16.8491C117.99 16.4212 117.682 15.9492 117.449 15.4395C117.216 14.9298 117.04 14.3761 116.926 13.7846C116.813 13.1931 116.75 12.5764 116.75 11.9471C116.75 11.3116 116.813 10.6949 116.945 10.0908C117.071 9.48671 117.266 8.92667 117.524 8.40438C117.782 7.88838 118.091 7.41644 118.455 6.99483C118.82 6.57322 119.242 6.23971 119.72 5.9943C120.23 5.72372 120.803 5.52235 121.426 5.39021C122.048 5.25806 122.684 5.18884 123.332 5.18884H123.389C124.037 5.18884 124.666 5.25177 125.283 5.37133C125.899 5.49089 126.472 5.69855 126.994 5.9943C127.46 6.23971 127.875 6.57322 128.246 6.99483C128.618 7.41644 128.932 7.88838 129.178 8.40438C129.429 8.92037 129.618 9.48671 129.757 10.0908C129.889 10.6949 129.958 11.3179 129.958 11.9471C129.958 13.2434 129.706 14.3887 129.209 15.3892C128.857 16.1066 128.379 16.7169 127.781 17.2204C127.869 17.3651 127.951 17.5035 128.039 17.6294C128.127 17.7552 128.196 17.8874 128.259 18.0258C128.404 18.309 128.504 18.5292 128.555 18.7054C128.593 18.7809 128.523 18.8753 128.353 19.0012L127.032 19.9514C126.862 20.0017 126.755 20.0143 126.692 19.9828ZM126.434 14.4138C126.705 13.6839 126.837 12.8596 126.837 11.9408C126.837 11.4878 126.787 11.041 126.692 10.6068C126.592 10.1663 126.459 9.76359 126.283 9.39232C126.107 9.02106 125.906 8.68755 125.679 8.39179C125.453 8.09604 125.214 7.8758 124.956 7.71219C124.433 7.39756 123.892 7.23395 123.345 7.23395C122.797 7.23395 122.256 7.39126 121.734 7.71219C121.463 7.8695 121.224 8.09604 121.023 8.39179C120.815 8.68755 120.633 9.01476 120.482 9.39232C120.331 9.76359 120.211 10.1726 120.136 10.6068C120.054 11.0473 120.016 11.4941 120.016 11.9408C120.016 12.8659 120.18 13.6965 120.501 14.4327C120.821 15.1627 121.249 15.6912 121.772 16.0059C122.03 16.1506 122.288 16.2702 122.552 16.3646C122.816 16.4589 123.08 16.503 123.351 16.503C123.521 16.503 123.722 16.4778 123.955 16.4275L123.647 15.9304C123.571 15.7982 123.515 15.6724 123.464 15.5654C123.414 15.4584 123.376 15.3703 123.357 15.3074C123.345 15.2696 123.42 15.1941 123.578 15.0683L124.893 14.137C125.063 14.0174 125.176 13.9859 125.22 14.0426C125.377 14.1433 125.547 14.2943 125.73 14.5019C125.792 14.5649 125.855 14.6404 125.931 14.7285C126.006 14.8229 126.082 14.911 126.17 14.9928C126.283 14.804 126.378 14.6089 126.434 14.4138Z" fill="url(#paint4_linear_393_2)"/>
<path d="M140.736 6.22703C140.673 5.94386 140.516 5.80542 140.258 5.80542H138.352C138.219 5.80542 138.1 5.83059 137.993 5.88093C137.886 5.93127 137.836 6.01308 137.836 6.13893C137.798 6.89404 137.779 7.63658 137.779 8.35394C137.779 9.0713 137.779 9.78236 137.773 10.4871C137.766 11.1919 137.754 11.8904 137.735 12.5952C137.716 13.2999 137.666 14.0047 137.578 14.7095C137.527 15.15 137.338 15.5212 136.999 15.8359C136.665 16.1442 136.193 16.3015 135.595 16.3015H135.539H135.52C134.922 16.3015 134.457 16.1442 134.117 15.8359C133.783 15.5275 133.582 15.15 133.519 14.7095C133.443 14.0047 133.393 13.2936 133.362 12.5952C133.33 11.8904 133.311 11.1919 133.305 10.4871C133.299 9.78236 133.299 9.0713 133.299 8.35394C133.299 7.63658 133.286 6.89404 133.261 6.13893C133.261 6.01937 133.211 5.93127 133.116 5.88093C133.016 5.83059 132.902 5.80542 132.77 5.80542H130.864C130.606 5.80542 130.448 5.94386 130.385 6.22703C130.322 7.37228 130.285 8.42315 130.266 9.36705C130.247 10.3109 130.247 11.173 130.26 11.9407C130.272 12.7084 130.31 13.3943 130.366 13.9984C130.429 14.6025 130.511 15.1374 130.624 15.603C130.725 16.0435 130.926 16.4337 131.229 16.7861C131.531 17.1322 131.914 17.4279 132.361 17.667C132.814 17.9061 133.311 18.0886 133.865 18.2145C134.412 18.3403 134.973 18.4096 135.533 18.4096C136.118 18.4096 136.684 18.3466 137.238 18.2145C137.785 18.0886 138.289 17.9061 138.742 17.667C139.195 17.4279 139.572 17.1384 139.874 16.7861C140.176 16.44 140.378 16.0435 140.478 15.603C140.673 14.6529 140.787 13.4321 140.824 11.9407C140.881 10.4494 140.843 8.54901 140.736 6.22703Z" fill="url(#paint5_linear_393_2)"/>
<path d="M150.735 12.438C150.502 12.4758 150.156 12.5072 149.69 12.5324C149.224 12.5576 148.702 12.5764 148.117 12.589C147.532 12.6016 146.915 12.6142 146.267 12.6268C145.619 12.6394 144.996 12.6457 144.398 12.6457H144.379L144.323 14.7726L144.228 16.3835H144.411C145.021 16.3835 145.657 16.3835 146.317 16.3772C146.978 16.3709 147.613 16.3709 148.23 16.3772C148.847 16.3835 149.407 16.3898 149.904 16.4024C150.407 16.4149 150.797 16.4464 151.074 16.4967C151.206 16.5093 151.276 16.5911 151.276 16.7359L151.295 17.8874C151.295 17.9881 151.225 18.0573 151.093 18.1077C150.785 18.158 150.3 18.2021 149.627 18.2335C148.954 18.2713 148.211 18.2964 147.4 18.3153C146.588 18.3342 145.77 18.3405 144.939 18.3342C144.109 18.3279 143.391 18.3027 142.781 18.2524L141.831 18.1958H141.736C141.441 18.1958 141.283 18.0259 141.258 17.6861C141.208 16.61 141.176 15.6409 141.164 14.7663C141.151 13.8916 141.151 13.0106 141.157 12.1234C141.164 11.2298 141.183 10.2796 141.22 9.26652C141.258 8.2534 141.302 7.07039 141.346 5.71118C141.422 5.39655 141.579 5.23294 141.824 5.23294H141.881C141.982 5.22035 142.108 5.21406 142.278 5.20777C142.441 5.20147 142.617 5.1826 142.8 5.14484C143.347 5.10709 144.008 5.07562 144.776 5.05045C145.543 5.02528 146.311 5.0127 147.072 5.0127C147.834 5.0127 148.545 5.02528 149.199 5.05045C149.854 5.07562 150.344 5.11338 150.672 5.15743C150.816 5.19518 150.892 5.27069 150.892 5.39655V6.52922C150.892 6.61732 150.879 6.66766 150.854 6.68654C150.829 6.70541 150.785 6.72429 150.728 6.74946C150.495 6.7998 150.149 6.83756 149.684 6.85644C149.218 6.88161 148.696 6.90048 148.111 6.91307C147.525 6.92565 146.909 6.93195 146.261 6.93824C145.612 6.94453 144.99 6.94453 144.392 6.94453H144.297L144.354 8.64984C144.367 8.98964 144.373 9.33573 144.373 9.67554C144.373 10.0153 144.373 10.3677 144.373 10.7201C144.656 10.7075 144.945 10.7012 145.241 10.7012C145.543 10.7012 145.845 10.6949 146.147 10.6824C146.6 10.6824 147.053 10.6824 147.513 10.6824C147.972 10.6824 148.4 10.6886 148.803 10.7012C149.205 10.7138 149.57 10.7264 149.891 10.7453C150.212 10.7642 150.477 10.7893 150.672 10.8271C150.816 10.8523 150.892 10.9278 150.892 11.0662V12.18C150.892 12.2681 150.879 12.3184 150.854 12.3436C150.835 12.3688 150.791 12.4002 150.735 12.438Z" fill="url(#paint6_linear_393_2)"/>
<path d="M153.057 14.5394C153.265 14.4513 153.403 14.4954 153.479 14.6653C153.674 15.0554 153.925 15.3763 154.24 15.628C154.548 15.8798 154.876 16.0685 155.222 16.1944C155.561 16.3202 155.914 16.3895 156.266 16.3895C156.619 16.3895 156.946 16.3265 157.235 16.1944C157.531 16.0685 157.764 15.8798 157.946 15.6343C158.129 15.3889 158.242 15.0806 158.273 14.703C158.286 14.4576 158.255 14.2437 158.179 14.0612C158.104 13.8787 157.946 13.6899 157.695 13.4948C157.443 13.2998 157.084 13.0921 156.625 12.8719C156.159 12.6516 155.536 12.3873 154.756 12.0853C154.026 11.7895 153.472 11.4183 153.107 10.9652C152.742 10.5121 152.56 9.88287 152.56 9.07742C152.56 8.37264 152.717 7.76855 153.026 7.27143C153.334 6.77431 153.73 6.37788 154.215 6.08212C154.699 5.78008 155.241 5.57871 155.845 5.47174C156.449 5.36476 157.046 5.33959 157.638 5.39623C158.229 5.45915 158.783 5.60388 159.293 5.843C159.803 6.08212 160.212 6.39675 160.52 6.7869L160.665 7.00714C160.702 7.0449 160.709 7.10782 160.683 7.18963L159.859 8.05172C159.809 8.12723 159.74 8.18386 159.651 8.22791C159.557 8.27196 159.482 8.25937 159.425 8.20274C159.23 7.93216 158.909 7.70562 158.462 7.52314C158.015 7.34065 157.569 7.25255 157.116 7.25884C156.663 7.26514 156.266 7.39099 155.914 7.6364C155.568 7.88182 155.392 8.29084 155.392 8.86347C155.392 9.1718 155.511 9.43609 155.75 9.66892C155.989 9.90175 156.361 10.1283 156.877 10.3485C157.279 10.5436 157.757 10.7324 158.311 10.9086C158.865 11.0848 159.4 11.3302 159.903 11.6511C160.407 11.9657 160.822 12.381 161.137 12.897C161.451 13.4067 161.59 14.0801 161.539 14.9107C161.489 15.628 161.256 16.251 160.834 16.767C160.413 17.283 159.891 17.692 159.268 17.9878C158.645 18.2835 157.959 18.4534 157.216 18.4975C156.474 18.5478 155.744 18.466 155.039 18.2521C154.328 18.0381 153.686 17.6857 153.107 17.2012C152.528 16.7104 152.088 16.0748 151.799 15.2757C151.723 15.0806 151.773 14.961 151.943 14.9107L153.057 14.5394Z" fill="url(#paint7_linear_393_2)"/>
<path d="M172.506 7.21506C172.236 7.25282 171.827 7.27799 171.279 7.29687C170.732 7.31575 170.115 7.33462 169.429 7.35979C169.322 7.35979 169.222 7.35979 169.127 7.35979C169.033 7.35979 168.932 7.37238 168.825 7.39755C168.876 8.17784 168.907 8.97071 168.92 9.76987C168.932 10.569 168.932 11.3934 168.92 12.2303C168.907 13.1931 168.888 14.1307 168.857 15.0305C168.825 15.9367 168.775 16.8302 168.699 17.7238C168.687 18.0321 168.536 18.1831 168.24 18.1831H166.277C166.145 18.1831 166.031 18.1391 165.95 18.0573C165.862 17.9692 165.817 17.8622 165.805 17.7301C165.78 16.9875 165.761 16.2953 165.742 15.6598C165.723 15.0242 165.717 14.4075 165.717 13.8034C165.717 13.1994 165.723 12.589 165.736 11.9723C165.748 11.3556 165.767 10.6886 165.792 9.96494C165.805 9.59997 165.811 9.19724 165.817 8.76305C165.824 8.32886 165.836 7.88208 165.862 7.41643H165.075C164.389 7.41643 163.772 7.40384 163.219 7.37238C162.665 7.34092 162.243 7.31575 161.967 7.29058C161.878 7.29058 161.841 7.21506 161.841 7.07033L161.822 5.91878C161.822 5.84327 161.841 5.79293 161.885 5.76147C161.929 5.73 161.973 5.71113 162.023 5.69854C162.294 5.66078 162.69 5.62303 163.225 5.59156C163.754 5.55381 164.358 5.52864 165.031 5.50976C165.704 5.49088 166.409 5.4783 167.145 5.472C167.881 5.46571 168.592 5.46571 169.278 5.472C169.964 5.4783 170.587 5.49088 171.153 5.50976C171.72 5.52864 172.16 5.5601 172.481 5.61044C172.638 5.63561 172.72 5.71742 172.72 5.84956V6.96965C172.72 7.05775 172.708 7.10809 172.676 7.13326C172.626 7.15214 172.576 7.1836 172.506 7.21506Z" fill="url(#paint8_linear_393_2)"/>
<path d="M19.0027 31.3938L24.071 29.3723L26.6052 30.887L24.3259 34.4788C24.1677 34.76 23.8689 34.9358 23.5466 34.9358H21.5808C21.2439 34.9358 20.9333 34.7454 20.7839 34.4436L19.0027 31.3938Z" fill="url(#paint9_linear_393_2)"/>
<path d="M10.946 27.2688L13.9343 23.2903L16.9753 26.8381L12.4138 30.386L10.946 27.2688Z" fill="url(#paint10_linear_393_2)"/>
<path d="M34.8611 17.387L28.6355 10.1125L19.6238 10.1096L28.5359 19.9211L34.3455 26.3167L37.8171 21.8489C38.0808 21.512 38.0662 21.0344 37.782 20.7122L34.8611 17.387Z" fill="url(#paint11_linear_393_2)"/>
<path d="M37.3191 28.6692L34.6033 33.7112C34.3806 34.1243 33.8796 34.2942 33.4519 34.1008L9.3728 22.6897L13.9343 16.1946L36.9236 27.4446C37.3806 27.6672 37.5593 28.2239 37.3191 28.6692Z" fill="url(#paint12_linear_393_2)"/>
<path d="M34.8612 17.387L28.5331 19.9182L11.3358 26.9553C10.8348 27.1604 10.6297 27.7639 10.9022 28.2297L13.5682 32.7971C13.7821 33.1633 14.2245 33.3303 14.6288 33.1926L34.7206 26.3313L37.867 21.8372C38.1043 21.5002 38.078 21.0461 37.8055 20.7356L34.8612 17.387Z" fill="url(#paint13_linear_393_2)"/>
<path d="M8.97448 22.2238L8.05748 19.7834C7.93151 19.4494 8.01647 19.0744 8.27428 18.8283L21.9794 5.61249C22.9051 4.71893 24.3964 4.81561 25.1991 5.8205L28.6327 10.1125L10.3133 22.6457C9.8358 22.9738 9.17663 22.7658 8.97448 22.2238Z" fill="url(#paint14_linear_393_2)"/>
<path d="M32.7371 11.6418C32.7371 10.4465 31.7673 9.47974 30.575 9.47974H15.4314C14.2361 9.47974 13.2693 10.4495 13.2693 11.6418V19.2122V26.7825C13.2693 27.9778 14.239 28.9446 15.4314 28.9446H30.575C31.7703 28.9446 32.7371 27.9749 32.7371 26.7825V19.2122V11.6418Z" fill="#2B2B2B"/>
<path d="M28.1024 23.0295C27.7244 22.426 27.2615 21.5501 26.2567 20.7444C25.7176 20.3137 25.703 19.5081 26.2244 19.054C26.2274 19.051 26.2332 19.0481 26.2362 19.0422C28.5242 17.0442 28.3104 13.4846 24.8358 12.5061C21.3055 11.5188 18.3406 13.4055 17.6697 16.3118C17.1629 18.5149 17.2332 19.8919 17.3387 21.2629C17.702 25.9358 18.2703 26.4016 20.075 26.1116C21.8797 25.8215 20.8748 24.2161 20.5672 23.2376C20.1512 21.9163 20.1453 21.2102 21.0067 21.1516C22.1258 21.0784 24.244 21.8518 24.9237 24.134C25.6414 26.5452 26.8045 26.261 27.8885 26.0383C28.9754 25.8186 28.9901 24.4504 28.1024 23.0295ZM21.159 18.6848C20.5906 18.5647 20.3123 18.0139 20.3768 16.552C20.4295 15.3977 21.3641 14.6126 22.6444 14.7063C23.9627 14.803 24.9852 15.2219 24.9881 16.3293C24.991 17.3196 23.6317 18.2542 22.4862 18.5383C21.9471 18.6731 21.5018 18.7581 21.159 18.6848Z" fill="white"/>
<path d="M26.311 12.3983L25.876 11.9633L20.9974 16.8418L21.4324 17.2769L26.311 12.3983Z" fill="#2B2B2B"/>
<path d="M27.0718 13.1578L26.6367 12.7228L22.2615 17.098L22.6966 17.533L27.0718 13.1578Z" fill="#2B2B2B"/>
<path d="M27.8325 13.919L27.3975 13.484L23.8426 17.0388L24.2777 17.4739L27.8325 13.919Z" fill="#2B2B2B"/>
<path d="M28.5942 14.682L28.1592 14.2469L20.4301 21.976L20.8651 22.4111L28.5942 14.682Z" fill="#2B2B2B"/>
<path d="M29.3554 15.4439L28.9204 15.0089L21.1913 22.738L21.6264 23.173L29.3554 15.4439Z" fill="#2B2B2B"/>
<path d="M30.1167 16.2018L29.6816 15.7667L21.9526 23.4958L22.3876 23.9308L30.1167 16.2018Z" fill="#2B2B2B"/>
<path d="M30.8769 16.964L30.4419 16.5289L21.9173 25.0535L22.3524 25.4885L30.8769 16.964Z" fill="#2B2B2B"/>
<path d="M31.6379 17.7259L31.2029 17.2909L22.6783 25.8155L23.1134 26.2505L31.6379 17.7259Z" fill="#2B2B2B"/>
<path d="M32.3991 18.4879L31.9641 18.0529L23.4396 26.5774L23.8746 27.0124L32.3991 18.4879Z" fill="#2B2B2B"/>
<path d="M31.1792 21.2317L30.7441 20.7966L24.778 26.7628L25.213 27.1978L31.1792 21.2317Z" fill="#2B2B2B"/>
<path d="M31.9385 21.9914L31.5034 21.5564L25.5373 27.5226L25.9723 27.9576L31.9385 21.9914Z" fill="#2B2B2B"/>
<path d="M66.0318 26.85H73.6818V28.06H66.0318V26.85ZM73.1718 26.85H74.4418C74.4418 26.85 74.4318 27.25 74.4218 27.42C74.2918 31.28 74.1618 32.72 73.7618 33.22C73.4818 33.6 73.1918 33.71 72.7718 33.77C72.3918 33.83 71.7718 33.82 71.1618 33.8C71.1418 33.44 70.9718 32.9 70.7418 32.54C71.3618 32.6 71.9418 32.6 72.2018 32.6C72.4018 32.6 72.5118 32.56 72.6418 32.44C72.9418 32.13 73.0718 30.64 73.1718 27.08V26.85ZM69.1418 24.53H70.3618V25.89C70.3618 28.09 70.0818 31.53 66.7418 33.72C66.5418 33.44 66.0818 33.02 65.7918 32.82C68.9018 30.88 69.1418 27.82 69.1418 25.88V24.53ZM66.6518 25.18L67.7018 24.76C68.0718 25.2 68.5118 25.83 68.7018 26.25L67.5818 26.73C67.4218 26.32 67.0118 25.67 66.6518 25.18ZM70.1218 29.46L71.1318 28.99C71.5718 29.55 72.1118 30.32 72.3418 30.83L71.2718 31.36C71.0618 30.85 70.5518 30.05 70.1218 29.46ZM77.2018 25.27H80.2818V26.24H77.2018V25.27ZM81.0718 25.27H84.8018V26.25H81.0718V25.27ZM77.1718 24.45L78.2918 24.74C77.8918 25.77 77.2218 26.8 76.5818 27.44C76.3518 27.25 75.8718 26.94 75.6018 26.8C76.2618 26.24 76.8418 25.34 77.1718 24.45ZM81.2518 24.47L82.3818 24.74C82.0718 25.72 81.5318 26.7 80.9818 27.32C80.7618 27.12 80.2818 26.81 80.0018 26.67C80.5518 26.14 81.0118 25.31 81.2518 24.47ZM77.7418 26.03L78.7118 25.64C78.9918 26.06 79.3218 26.64 79.4618 27.01L78.4218 27.45C78.3118 27.07 78.0118 26.47 77.7418 26.03ZM82.0218 25.98L82.9918 25.56C83.3218 25.99 83.7218 26.58 83.8918 26.98L82.8618 27.45C82.7218 27.06 82.3518 26.44 82.0218 25.98ZM78.9318 30.52H81.6718V31.34H78.9318V30.52ZM76.1818 28.54H77.3518V33.89H76.1818V28.54ZM78.8518 27.5H84.0018V28.56H78.8518V27.5ZM76.6918 27.72L77.5718 27.12C77.9818 27.47 78.4618 27.97 78.6818 28.33L77.7518 28.98C77.5618 28.63 77.0918 28.09 76.6918 27.72ZM83.2818 27.5H84.4618V32.63C84.4618 33.2 84.3418 33.47 83.9618 33.64C83.5818 33.8 83.0418 33.82 82.2818 33.81C82.2318 33.51 82.0818 33.07 81.9318 32.79C82.3818 32.82 82.9318 32.82 83.0718 32.81C83.2318 32.8 83.2818 32.76 83.2818 32.62V27.5ZM79.4818 30.01V31.88H81.1818V30.01H79.4818ZM78.4718 29.13H82.2418V32.75H78.4718V29.13ZM90.0718 24.77H91.2918V31.97C91.2918 32.57 91.3618 32.67 91.8518 32.67C92.0718 32.67 93.0718 32.67 93.3118 32.67C93.8018 32.67 93.8818 32.32 93.9518 30.91C94.2418 31.12 94.7318 31.34 95.0718 31.41C94.9218 33.14 94.6018 33.78 93.4218 33.78C93.1318 33.78 91.9718 33.78 91.7018 33.78C90.4418 33.78 90.0718 33.38 90.0718 31.96V24.77ZM93.8218 26.44L94.7018 27.49C93.5718 28.29 92.1418 29.04 90.8418 29.65C90.7618 29.37 90.5318 28.95 90.3618 28.69C91.6018 28.1 92.9318 27.2 93.8218 26.44ZM88.1418 24.64L89.3218 25.04C88.5718 26.82 87.3418 28.67 86.0818 29.83C85.9618 29.52 85.6118 28.86 85.3918 28.56C86.4718 27.63 87.5218 26.15 88.1418 24.64ZM87.0818 27.46L88.2618 26.28L88.2818 26.3V33.88H87.0818V27.46ZM120.418 24.87H121.458V28.76C121.458 30.33 121.308 32.54 120.358 33.9C120.178 33.71 119.738 33.37 119.508 33.24C120.348 32.01 120.418 30.18 120.418 28.76V24.87ZM121.028 24.87H125.488V25.92H121.028V24.87ZM124.968 24.87H126.018V32.65C126.018 33.18 125.928 33.49 125.598 33.69C125.268 33.87 124.818 33.89 124.128 33.89C124.088 33.59 123.928 33.09 123.778 32.8C124.198 32.83 124.638 32.83 124.778 32.82C124.918 32.82 124.968 32.77 124.968 32.63V24.87ZM121.918 26.77H124.518V27.62H121.918V26.77ZM121.738 28.3H124.718V29.14H121.738V28.3ZM122.728 26.11H123.658V28.92H122.728V26.11ZM122.318 29.75H124.518V32.24H122.318V31.4H123.638V30.58H122.318V29.75ZM121.808 29.75H122.678V32.69H121.808V29.75ZM117.498 25.38L118.258 24.65C118.818 25.09 119.548 25.74 119.888 26.18L119.058 27.01C118.748 26.55 118.048 25.86 117.498 25.38ZM118.328 33.72L118.048 32.65L118.248 32.28L119.918 30.85C120.028 31.17 120.238 31.63 120.378 31.85C118.798 33.23 118.488 33.5 118.328 33.72ZM117.038 27.59H118.848V28.74H117.038V27.59ZM118.328 33.72C118.198 33.5 117.808 33.11 117.598 32.95C117.858 32.73 118.228 32.25 118.228 31.63V27.59H119.388V32.2C119.388 32.2 118.328 33.27 118.328 33.72ZM127.658 25.37L128.438 24.64C128.978 25.08 129.698 25.71 130.028 26.14L129.208 26.97C128.898 26.52 128.198 25.84 127.658 25.37ZM128.388 33.73L128.168 32.7L128.448 32.33L130.388 31.1C130.458 31.42 130.588 31.89 130.698 32.13C128.908 33.31 128.568 33.52 128.388 33.73ZM127.178 27.59H128.988V28.74H127.178V27.59ZM130.198 26.43H136.358V27.57H130.198V26.43ZM130.498 28.72H133.168V29.83H130.498V28.72ZM131.318 29.44H132.408V32.32L131.318 32.42V29.44ZM130.328 32.22C131.118 32.04 132.288 31.73 133.418 31.42L133.578 32.46C132.568 32.77 131.498 33.08 130.638 33.33L130.328 32.22ZM134.558 25.11L135.368 24.62C135.738 25.03 136.158 25.58 136.338 25.96L135.478 26.51C135.318 26.13 134.918 25.54 134.558 25.11ZM133.278 24.58H134.498C134.468 28.6 134.818 32.2 135.288 32.22C135.418 32.22 135.498 31.72 135.528 30.82C135.738 31.07 136.278 31.4 136.468 31.51C136.218 33.46 135.658 33.84 135.238 33.84C133.688 33.82 133.348 30.24 133.278 24.58ZM128.388 33.73C128.298 33.44 128.018 32.92 127.828 32.68C128.048 32.55 128.358 32.22 128.358 31.78V27.59H129.498V32.63C129.498 32.63 128.388 33.32 128.388 33.73ZM139.928 27.71H141.118V33.6H139.928V27.71ZM142.228 27.71H143.428V33.6H142.228V27.71ZM140.918 25.42L142.408 25.5C142.148 26.39 141.818 27.29 141.558 27.88L140.368 27.74C140.598 27.08 140.818 26.13 140.918 25.42ZM137.618 27.15H145.158V28.27H138.858V33.9H137.618V27.15ZM144.608 27.15H145.828V32.64C145.828 33.2 145.728 33.5 145.368 33.68C144.998 33.86 144.498 33.88 143.818 33.88C143.768 33.57 143.598 33.08 143.438 32.8C143.838 32.82 144.298 32.81 144.428 32.8C144.568 32.8 144.608 32.76 144.608 32.63V27.15ZM137.158 24.88H146.268V26.1H137.158V24.88ZM148.768 26.32H155.728V27.49H148.768V26.32ZM148.358 29.27H155.348V30.42H148.358V29.27ZM147.198 32.44H156.238V33.61H147.198V32.44ZM151.088 24.51H152.338V33.02H151.088V24.51ZM148.778 24.63L150.018 24.91C149.578 26.46 148.848 28 148.068 28.96C147.828 28.75 147.298 28.4 146.988 28.23C147.778 27.39 148.418 26.01 148.778 24.63Z" fill="black"/>
<path d="M99.5738 33H97.6846L100.138 25.7273H102.479L104.932 33H103.043L101.335 27.5597H101.278L99.5738 33ZM99.3216 30.1378H103.271V31.473H99.3216V30.1378ZM105.715 33V25.7273H108.72C109.264 25.7273 109.734 25.8338 110.13 26.0469C110.527 26.2576 110.834 26.5523 111.049 26.9311C111.265 27.3075 111.372 27.7455 111.372 28.245C111.372 28.7469 111.262 29.1861 111.042 29.5625C110.824 29.9366 110.513 30.2266 110.108 30.4325C109.703 30.6385 109.223 30.7415 108.666 30.7415H106.813V29.3565H108.34C108.605 29.3565 108.826 29.3104 109.004 29.218C109.184 29.1257 109.32 28.9967 109.412 28.831C109.505 28.6629 109.551 28.4676 109.551 28.245C109.551 28.0201 109.505 27.826 109.412 27.6626C109.32 27.4969 109.184 27.3691 109.004 27.2791C108.824 27.1892 108.603 27.1442 108.34 27.1442H107.473V33H105.715ZM113.997 25.7273V33H112.239V25.7273H113.997Z" fill="#FC801D"/>
<defs>
<linearGradient id="paint0_linear_393_2" x1="46.0069" y1="11.5935" x2="55.7419" y2="11.5935" gradientUnits="userSpaceOnUse">
<stop stop-color="#EE197D"/>
<stop offset="0.0692985" stop-color="#EF247B"/>
<stop offset="0.7125" stop-color="#F38A68"/>
<stop offset="1" stop-color="#F5B361"/>
</linearGradient>
<linearGradient id="paint1_linear_393_2" x1="56.1485" y1="11.6533" x2="68.3978" y2="11.6533" gradientUnits="userSpaceOnUse">
<stop stop-color="#FCF84A"/>
<stop offset="0.4317" stop-color="#3DEA62"/>
<stop offset="0.7591" stop-color="#3DEA62"/>
<stop offset="1" stop-color="#21D789"/>
</linearGradient>
<linearGradient id="paint2_linear_393_2" x1="68.8736" y1="11.9408" x2="78.6574" y2="11.9408" gradientUnits="userSpaceOnUse">
<stop stop-color="#3DEA62"/>
<stop offset="0.4006" stop-color="#21D789"/>
<stop offset="0.4845" stop-color="#1FCF93"/>
<stop offset="0.6286" stop-color="#19B9AF"/>
<stop offset="0.8142" stop-color="#0F95DB"/>
<stop offset="0.9284" stop-color="#087CFA"/>
</linearGradient>
<linearGradient id="paint3_linear_393_2" x1="78.9037" y1="11.8247" x2="89.7983" y2="11.8247" gradientUnits="userSpaceOnUse">
<stop offset="0.1281" stop-color="#07C3F2"/>
<stop offset="1" stop-color="#087CFA"/>
</linearGradient>
<linearGradient id="paint4_linear_393_2" x1="116.75" y1="12.5926" x2="129.952" y2="12.5926" gradientUnits="userSpaceOnUse">
<stop stop-color="#087CFA"/>
<stop offset="1" stop-color="#5E5CFE"/>
</linearGradient>
<linearGradient id="paint5_linear_393_2" x1="130.273" y1="12.1062" x2="140.859" y2="12.1062" gradientUnits="userSpaceOnUse">
<stop stop-color="#6B57FF"/>
<stop offset="1" stop-color="#087CFA"/>
</linearGradient>
<linearGradient id="paint6_linear_393_2" x1="141.162" y1="11.6635" x2="151.3" y2="11.6635" gradientUnits="userSpaceOnUse">
<stop stop-color="#087CFA"/>
<stop offset="0.5536" stop-color="#21D789"/>
<stop offset="0.6867" stop-color="#28DC7F"/>
<stop offset="0.9146" stop-color="#3CE963"/>
<stop offset="0.9246" stop-color="#3DEA62"/>
</linearGradient>
<linearGradient id="paint7_linear_393_2" x1="151.78" y1="11.9408" x2="161.564" y2="11.9408" gradientUnits="userSpaceOnUse">
<stop stop-color="#21D789"/>
<stop offset="0.5266" stop-color="#3DEA62"/>
<stop offset="0.8918" stop-color="#FCF84A"/>
<stop offset="1" stop-color="#FCF84A"/>
</linearGradient>
<linearGradient id="paint8_linear_393_2" x1="161.81" y1="11.8247" x2="172.705" y2="11.8247" gradientUnits="userSpaceOnUse">
<stop stop-color="#FFF84A"/>
<stop offset="0.2614" stop-color="#FDDF34"/>
<stop offset="0.749" stop-color="#FAB60E"/>
<stop offset="1" stop-color="#F9A600"/>
</linearGradient>
<linearGradient id="paint9_linear_393_2" x1="22.8053" y1="34.3815" x2="22.8053" y2="30.5523" gradientUnits="userSpaceOnUse">
<stop stop-color="#EE197D"/>
<stop offset="0.0692985" stop-color="#EF247B"/>
<stop offset="0.7125" stop-color="#F38A68"/>
<stop offset="1" stop-color="#F5B361"/>
</linearGradient>
<linearGradient id="paint10_linear_393_2" x1="11.141" y1="28.2152" x2="16.597" y2="24.5205" gradientUnits="userSpaceOnUse">
<stop offset="0.0753616" stop-color="#6B57FF"/>
<stop offset="0.1192" stop-color="#715AF5"/>
<stop offset="0.1947" stop-color="#8063D9"/>
<stop offset="0.2925" stop-color="#9971AC"/>
<stop offset="0.409" stop-color="#BC846E"/>
<stop offset="0.5399" stop-color="#E89D20"/>
<stop offset="0.5722" stop-color="#F3A30B"/>
<stop offset="0.7385" stop-color="#F9A600"/>
</linearGradient>
<linearGradient id="paint11_linear_393_2" x1="19.9994" y1="6.92774" x2="33.2997" y2="19.9911" gradientUnits="userSpaceOnUse">
<stop stop-color="#3DEA62"/>
<stop offset="0.8132" stop-color="#21D789"/>
<stop offset="0.8316" stop-color="#1FCF93"/>
<stop offset="0.863" stop-color="#19B9AF"/>
<stop offset="0.9035" stop-color="#0F95DB"/>
<stop offset="0.9284" stop-color="#087CFA"/>
</linearGradient>
<linearGradient id="paint12_linear_393_2" x1="9.37335" y1="25.1865" x2="37.4249" y2="25.1865" gradientUnits="userSpaceOnUse">
<stop offset="0.4145" stop-color="#FFF84A"/>
<stop offset="0.5205" stop-color="#FEEE41"/>
<stop offset="0.7025" stop-color="#FCD228"/>
<stop offset="0.9362" stop-color="#F9A600"/>
</linearGradient>
<linearGradient id="paint13_linear_393_2" x1="12.7599" y1="30.8582" x2="38.2626" y2="20.3893" gradientUnits="userSpaceOnUse">
<stop stop-color="#5E5CFE"/>
<stop offset="0.3171" stop-color="#087CFA"/>
<stop offset="0.7238" stop-color="#087CFA"/>
<stop offset="0.772" stop-color="#0886F9"/>
<stop offset="0.8544" stop-color="#07A2F6"/>
<stop offset="0.9362" stop-color="#07C3F2"/>
</linearGradient>
<linearGradient id="paint14_linear_393_2" x1="10.0088" y1="21.7387" x2="25.8312" y2="7.38541" gradientUnits="userSpaceOnUse">
<stop stop-color="#FCF84A"/>
<stop offset="0.4317" stop-color="#3DEA62"/>
<stop offset="0.7591" stop-color="#3DEA62"/>
<stop offset="1" stop-color="#21D789"/>
</linearGradient>
</defs>
</svg>
