<svg width="133" height="40" viewBox="0 0 3410 1024" fill="none" xmlns="http://www.w3.org/2000/svg">
<path d="M369.173 771.656L483.499 723.073L540.662 759.51L489.263 845.809C485.661 852.585 478.936 856.804 471.73 856.804H427.417C419.851 856.804 412.886 852.202 409.403 845.042L369.173 771.656Z" fill="url(#paint0_linear_391_256)"/>
<path d="M187.357 672.699L254.848 577.067L323.42 662.344L220.502 747.492L187.357 672.699Z" fill="url(#paint1_linear_391_256)"/>
<path d="M726.805 435.409L586.299 260.766L383.105 260.638L584.017 496.138L715.036 649.686L793.335 542.42C799.219 534.365 798.979 522.859 792.614 515.188L726.805 435.409Z" fill="url(#paint2_linear_391_256)"/>
<path d="M782.166 706.324L720.92 827.399C715.876 837.243 704.588 841.334 694.98 836.732L151.931 562.748L254.848 406.771L773.279 676.919C783.487 682.161 787.57 695.585 782.166 706.324Z" fill="url(#paint3_linear_391_256)"/>
<path d="M726.803 435.409L584.015 496.138L196.243 665.156C184.954 670.142 180.271 684.59 186.515 695.84L246.561 805.408C251.364 814.23 261.332 818.193 270.459 814.869L723.56 650.198L794.534 542.292C799.818 534.237 799.338 523.242 793.213 515.827L726.803 435.409Z" fill="url(#paint4_linear_391_256)"/>
<path d="M142.923 551.497L122.267 492.942C119.505 484.887 121.307 475.938 127.191 470.057L436.184 152.732C457.08 131.253 490.705 133.554 508.839 157.718L586.298 260.765L173.186 561.725C162.378 569.524 147.487 564.538 142.923 551.497Z" fill="url(#paint5_linear_391_256)"/>
<path d="M678.767 297.459C678.767 268.82 656.91 245.551 630.01 245.551H288.593C261.692 245.551 239.836 268.82 239.836 297.459V479.262V661.065C239.836 689.704 261.692 712.972 288.593 712.972H630.13C657.031 712.972 678.887 689.704 678.887 661.065V479.262V297.459H678.767Z" fill="#2B2B2B"/>
<path d="M574.288 570.931C565.762 556.356 555.314 535.388 532.617 516.083C520.488 505.727 520.128 486.421 531.896 475.554C532.016 475.426 532.137 475.426 532.137 475.298C583.775 427.355 578.972 341.823 500.553 318.426C420.933 294.646 354.042 339.905 338.911 409.711C327.502 462.641 329.063 495.627 331.465 528.612C339.631 640.737 352.481 651.988 393.192 644.956C433.902 637.924 411.205 599.441 404.24 575.917C394.873 544.21 394.753 527.206 414.208 525.927C439.427 524.137 487.223 542.676 502.594 597.523C518.807 655.44 544.986 648.536 569.485 643.294C593.983 637.796 594.343 604.939 574.288 570.931ZM417.69 466.605C404.841 463.792 398.596 450.495 400.037 415.337C401.238 387.593 422.254 368.799 451.196 370.973C480.858 373.274 503.915 383.374 504.035 409.967C504.155 433.747 473.412 456.249 447.593 463.025C435.464 466.349 425.496 468.267 417.69 466.605Z" fill="white"/>
<path d="M533.885 315.506L524.12 305.109L414.154 422.181L423.919 432.578L533.885 315.506Z" fill="#2B2B2B"/>
<path d="M551 333.822L541.234 323.425L442.562 428.474L452.327 438.87L551 333.822Z" fill="#2B2B2B"/>
<path d="M568.147 352.096L558.382 341.699L478.221 427.04L487.986 437.436L568.147 352.096Z" fill="#2B2B2B"/>
<path d="M585.363 370.318L575.598 359.922L401.35 545.429L411.115 555.825L585.363 370.318Z" fill="#2B2B2B"/>
<path d="M602.529 388.604L592.764 378.207L418.516 563.714L428.281 574.111L602.529 388.604Z" fill="#2B2B2B"/>
<path d="M619.694 406.89L609.929 396.493L435.681 582L445.446 592.397L619.694 406.89Z" fill="#2B2B2B"/>
<path d="M636.841 425.148L627.075 414.752L434.825 619.424L444.591 629.821L636.841 425.148Z" fill="#2B2B2B"/>
<path d="M654.007 443.434L644.241 433.038L451.991 637.71L461.757 648.107L654.007 443.434Z" fill="#2B2B2B"/>
<path d="M671.172 461.72L661.406 451.323L469.156 655.996L478.922 666.392L671.172 461.72Z" fill="#2B2B2B"/>
<path d="M643.621 527.636L633.855 517.24L499.348 660.438L509.114 670.835L643.621 527.636Z" fill="#2B2B2B"/>
<path d="M660.785 545.922L651.02 535.526L516.513 678.724L526.278 689.12L660.785 545.922Z" fill="#2B2B2B"/>
<path d="M1085.27 562.748C1080.83 563.515 1074.23 564.155 1065.34 564.794C1056.45 565.433 1046.36 565.817 1035.08 565.944C1023.79 566.072 1011.9 566.2 999.409 566.328C986.92 566.456 975.151 566.456 963.982 566.456L962.902 604.811C962.421 615.167 961.941 625.395 961.34 635.112C960.74 644.956 960.259 654.673 959.779 664.261C959.539 670.91 956.537 674.362 950.652 674.362H913.664C908.02 674.362 905.018 670.91 904.537 664.006C903.577 642.143 902.976 622.454 902.736 604.683C902.496 586.912 902.496 569.013 902.616 550.986C902.736 532.831 903.096 513.526 903.817 492.942C904.537 472.358 905.378 448.322 906.219 420.706C907.66 414.314 910.542 410.99 914.985 410.99H916.426C918.348 410.734 920.75 410.606 923.992 410.478C927.115 410.351 930.477 409.967 933.96 409.2C944.407 408.433 957.017 407.794 971.668 407.282C986.319 406.771 1000.97 406.515 1015.5 406.515C1030.03 406.515 1043.6 406.771 1056.09 407.282C1068.58 407.794 1077.95 408.561 1084.19 409.456C1086.71 409.967 1088.16 411.501 1088.4 414.314V437.327C1088.4 439.117 1088.16 440.14 1087.68 440.523C1087.2 440.907 1086.35 441.29 1085.27 441.802C1080.83 442.825 1074.23 443.592 1065.34 443.975C1056.45 444.487 1046.36 444.87 1035.08 445.126C1023.79 445.382 1011.9 445.509 999.409 445.637C986.92 445.765 975.151 445.765 963.982 445.765H962.541L963.622 480.413C963.862 488.339 963.982 496.266 963.982 504.065C963.982 511.864 963.982 519.791 963.982 527.717C969.386 527.462 974.911 527.334 980.555 527.334C986.319 527.334 992.084 527.206 997.848 526.95C1006.49 526.95 1015.14 526.95 1023.91 526.95C1032.67 526.95 1040.84 527.078 1048.53 527.334C1056.21 527.589 1063.18 527.973 1069.3 528.484C1075.43 528.996 1080.47 529.507 1084.19 530.019C1086.71 530.274 1088.16 531.808 1088.4 534.493V557.89C1088.4 559.424 1088.16 560.447 1087.68 561.086C1087.32 561.725 1086.47 562.365 1085.27 562.748Z" fill="url(#paint6_linear_391_256)"/>
<path d="M1296.03 669.887C1294.35 670.91 1292.55 671.037 1290.39 670.398C1288.35 669.759 1286.55 668.353 1285.1 666.179C1279.46 655.823 1274.54 645.723 1270.09 636.262C1265.65 626.673 1261.33 617.34 1257.12 608.135C1254.6 608.391 1251.96 608.519 1249.32 608.519C1246.68 608.519 1243.91 608.519 1241.15 608.519C1232.75 608.774 1223.86 609.03 1214.61 609.286C1205.24 609.541 1196.36 609.669 1187.71 609.669H1169.22C1165.25 619.13 1160.93 628.463 1156.13 637.924C1151.32 647.385 1146.4 656.846 1141.24 666.563C1138.47 671.293 1134.87 672.572 1130.43 670.27L1102.09 655.823C1100.04 654.289 1098.36 652.755 1097.16 651.221C1095.96 649.559 1095.84 647.641 1096.8 645.467C1103.05 629.102 1110.73 610.436 1119.74 589.597C1128.75 568.757 1138.11 547.79 1148.08 526.694C1157.93 505.599 1167.9 485.526 1177.74 466.477C1187.59 447.427 1196.96 431.446 1205.48 418.533C1207.77 414.825 1210.53 412.652 1213.65 412.268C1216.77 411.757 1219.54 412.652 1221.82 414.825V415.209C1223.74 416.232 1224.94 417.51 1225.66 419.3C1235.27 431.957 1244.75 447.811 1254.36 466.732C1263.97 485.654 1273.22 505.727 1282.34 526.566C1291.47 547.534 1300 568.374 1308.16 589.213C1316.33 610.053 1323.41 628.591 1329.54 644.956C1330.26 647.129 1330.02 649.175 1329.06 650.965C1327.98 652.755 1326.54 654.033 1324.73 655.056L1296.03 669.887ZM1184.95 574.766H1186.75C1194.92 574.766 1203.56 574.51 1212.81 573.871C1222.06 573.232 1230.7 572.976 1238.87 572.976H1243.07L1235.39 553.671C1231.9 544.721 1228.66 536.027 1225.78 527.589C1222.9 519.151 1220.02 510.713 1217.25 502.275L1215.81 498.951C1212.57 507.389 1209.21 515.955 1205.72 524.777C1202.24 533.598 1198.76 542.292 1195.28 550.986L1184.95 574.766Z" fill="url(#paint7_linear_391_256)"/>
<path d="M1363.52 600.336C1367.49 598.546 1370.13 599.441 1371.57 602.893C1375.29 610.82 1380.1 617.34 1386.1 622.454C1391.99 627.568 1398.23 631.404 1404.84 633.961C1411.32 636.518 1418.05 637.924 1424.77 637.924C1431.5 637.924 1437.74 636.646 1443.26 633.961C1448.91 631.404 1453.35 627.568 1456.83 622.582C1460.32 617.596 1462.48 611.331 1463.08 603.66C1463.32 598.674 1462.72 594.327 1461.28 590.62C1459.84 586.912 1456.83 583.077 1452.03 579.113C1447.23 575.15 1440.38 570.931 1431.62 566.456C1422.73 561.981 1410.84 556.611 1395.95 550.475C1382.02 544.466 1371.45 536.922 1364.49 527.717C1357.52 518.512 1354.04 505.727 1354.04 489.362C1354.04 475.043 1357.04 462.769 1362.92 452.669C1368.81 442.569 1376.37 434.514 1385.62 428.505C1394.87 422.368 1405.2 418.277 1416.72 416.104C1428.25 413.93 1439.66 413.419 1450.95 414.57C1462.24 415.848 1472.81 418.789 1482.53 423.647C1492.38 428.505 1500.07 434.898 1505.95 442.825L1508.71 447.299C1509.43 448.066 1509.55 449.345 1509.07 451.007L1493.34 468.522C1492.38 470.057 1491.06 471.207 1489.38 472.102C1487.58 472.997 1486.14 472.742 1485.06 471.591C1481.33 466.093 1475.21 461.491 1466.68 457.783C1458.16 454.075 1449.63 452.285 1440.98 452.413C1432.34 452.541 1424.77 455.098 1418.05 460.084C1411.44 465.071 1408.08 473.381 1408.08 485.015C1408.08 491.28 1410.36 496.65 1414.92 501.38C1419.49 506.11 1426.57 510.713 1436.42 515.188C1444.11 519.151 1453.23 522.987 1463.8 526.567C1474.37 530.146 1484.58 535.133 1494.18 541.653C1503.79 548.045 1511.72 556.484 1517.72 566.967C1523.73 577.323 1526.37 591.003 1525.41 607.879C1524.45 622.454 1520 635.112 1511.96 645.595C1503.91 656.079 1493.94 664.389 1482.05 670.398C1470.16 676.407 1457.07 679.859 1442.9 680.754C1428.73 681.777 1414.8 680.115 1401.35 675.768C1387.78 671.421 1375.53 664.261 1364.49 654.417C1353.44 644.445 1345.03 631.532 1339.51 615.295C1338.07 611.331 1339.03 608.902 1342.27 607.879L1363.52 600.336Z" fill="url(#paint8_linear_391_256)"/>
<path d="M1734.6 451.518C1729.44 452.285 1721.63 452.797 1711.19 453.18C1700.74 453.564 1688.97 453.947 1675.88 454.459C1673.84 454.459 1671.92 454.459 1670.12 454.459C1668.31 454.459 1666.39 454.715 1664.35 455.226C1665.31 471.079 1665.91 487.189 1666.15 503.426C1666.39 519.663 1666.39 536.411 1666.15 553.415C1665.91 572.976 1665.55 592.026 1664.95 610.308C1664.35 628.719 1663.39 646.874 1661.95 665.028C1661.71 671.293 1658.83 674.362 1653.18 674.362H1615.83C1613.31 674.362 1611.15 673.467 1609.59 671.805C1607.91 670.015 1607.07 667.841 1606.83 665.156C1606.35 650.07 1605.99 636.006 1605.63 623.094C1605.27 610.181 1605.15 597.651 1605.15 585.378C1605.15 573.104 1605.27 560.703 1605.51 548.173C1605.75 535.644 1606.11 522.092 1606.59 507.389C1606.83 499.974 1606.95 491.791 1607.07 482.969C1607.19 474.148 1607.43 465.07 1607.91 455.609H1592.9C1579.81 455.609 1568.04 455.354 1557.47 454.715C1546.9 454.075 1538.86 453.564 1533.57 453.052C1531.89 453.052 1531.17 451.518 1531.17 448.578L1530.81 425.181C1530.81 423.647 1531.17 422.624 1532.01 421.985C1532.85 421.346 1533.69 420.962 1534.65 420.706C1539.82 419.939 1547.38 419.172 1557.59 418.533C1567.68 417.766 1579.21 417.254 1592.06 416.871C1604.91 416.487 1618.36 416.232 1632.41 416.104C1646.46 415.976 1660.03 415.976 1673.12 416.104C1686.21 416.232 1698.1 416.487 1708.9 416.871C1719.71 417.254 1728.12 417.894 1734.24 418.916C1737.25 419.428 1738.81 421.09 1738.81 423.775V446.532C1738.81 448.322 1738.57 449.345 1737.97 449.856C1737.01 450.24 1736.04 450.879 1734.6 451.518Z" fill="url(#paint9_linear_391_256)"/>
<path d="M1995.92 423.263C2007.81 429.528 2017.18 438.094 2024.02 449.345C2030.87 460.468 2035.19 472.486 2036.75 485.399C2038.43 498.311 2037.23 511.096 2033.27 523.754C2029.31 536.411 2022.22 547.022 2011.89 555.716C2007.69 559.168 2003.13 562.109 1998.32 564.666L2015.74 593.304C2021.5 603.277 2026.9 613.249 2031.83 623.221C2036.75 633.321 2041.32 643.166 2045.4 652.755C2047.32 656.207 2045.76 659.403 2040.83 662.471L2010.45 682.16C2005.29 685.101 2001.93 685.229 2000.36 682.544C1995.2 675.128 1990.64 668.225 1986.43 661.832C1982.23 655.567 1978.39 649.175 1974.91 642.91C1971.42 636.646 1967.82 630.253 1964.22 623.733C1960.61 617.34 1956.65 610.308 1952.57 602.893C1950.53 598.93 1948.37 594.711 1946.32 590.492C1944.28 586.145 1941.88 581.542 1939.36 576.556C1937.32 576.812 1935.16 576.939 1933.11 576.939C1931.07 576.939 1928.91 576.939 1926.87 576.939C1922.67 577.195 1918.58 577.323 1914.5 577.323C1910.42 577.323 1906.33 577.323 1902.13 577.323L1901.41 610.053C1901.17 620.409 1900.69 630.637 1899.97 640.353C1899.25 650.198 1898.65 659.914 1898.17 669.503C1897.93 676.151 1894.92 679.603 1889.04 679.603H1852.05C1849.53 679.603 1847.37 678.58 1845.81 676.663C1844.13 674.617 1843.29 672.188 1843.05 669.247C1842.08 647.385 1841.48 627.696 1841.24 609.925C1841 592.154 1841 574.382 1841.12 556.355C1841.24 538.329 1841.6 519.151 1842.33 498.567C1843.05 477.983 1843.89 453.819 1844.73 426.076C1845.21 422.88 1846.17 420.578 1847.49 419.428L1848.93 417.893L1850.73 416.743C1851.45 416.743 1852.05 416.615 1852.53 416.359H1852.89L1865.14 415.209C1874.03 414.186 1884.6 413.419 1896.97 413.035C1909.34 412.524 1921.83 412.524 1934.55 413.035C1947.28 413.547 1959.17 414.569 1970.34 416.231C1981.27 417.638 1989.92 420.067 1995.92 423.263ZM1901.89 485.782C1902.37 496.01 1902.61 505.982 1902.61 515.699C1902.61 525.544 1902.49 535.516 1902.25 545.616H1914.14C1921.83 545.616 1929.63 545.105 1937.56 543.954C1945.48 542.803 1952.45 541.013 1958.57 538.584C1962.78 536.539 1966.26 533.342 1968.9 528.74C1971.54 524.137 1973.46 518.767 1974.67 512.503C1975.87 506.366 1976.23 499.846 1975.87 492.942C1975.51 486.166 1974.42 479.773 1972.5 473.764C1970.58 467.755 1967.82 462.641 1964.1 458.294C1960.37 453.947 1955.93 451.007 1950.77 449.6C1943.8 447.81 1934.92 447.043 1924.23 447.043C1920.02 447.043 1916.06 447.171 1912.22 447.171C1908.38 447.299 1904.53 447.427 1900.81 447.683L1901.89 485.782Z" fill="#087CFA"/>
<path d="M2236.34 557.634C2231.9 558.401 2225.29 559.04 2216.41 559.552C2207.52 560.063 2197.55 560.447 2186.39 560.702C2175.22 560.958 2163.45 561.214 2151.08 561.469C2138.71 561.725 2126.82 561.853 2115.41 561.853H2115.05L2113.97 605.067L2112.17 637.796H2115.65C2127.3 637.796 2139.43 637.796 2152.04 637.668C2164.65 637.541 2176.78 637.541 2188.55 637.668C2200.32 637.796 2211 637.924 2220.49 638.18C2230.1 638.435 2237.54 639.075 2242.83 640.097C2245.35 640.353 2246.67 642.015 2246.67 644.956L2247.03 668.352C2247.03 670.398 2245.71 671.804 2243.19 672.827C2237.3 673.85 2228.06 674.745 2215.21 675.384C2202.36 676.151 2188.19 676.663 2172.69 677.046C2157.2 677.43 2141.59 677.558 2125.74 677.43C2109.89 677.302 2096.2 676.791 2084.55 675.768L2066.41 674.617H2064.61C2058.97 674.617 2055.97 671.165 2055.49 664.261C2054.53 642.399 2053.92 622.71 2053.68 604.939C2053.44 587.167 2053.44 569.268 2053.56 551.241C2053.68 533.087 2054.05 513.781 2054.77 493.197C2055.49 472.613 2056.33 448.578 2057.17 420.962C2058.61 414.569 2061.61 411.245 2066.29 411.245H2067.38C2069.3 410.99 2071.7 410.862 2074.94 410.734C2078.06 410.606 2081.43 410.222 2084.91 409.455C2095.36 408.688 2107.97 408.049 2122.62 407.538C2137.27 407.026 2151.92 406.771 2166.45 406.771C2180.98 406.771 2194.55 407.026 2207.04 407.538C2219.53 408.049 2228.9 408.816 2235.14 409.711C2237.9 410.478 2239.34 412.012 2239.34 414.569V437.582C2239.34 439.372 2239.1 440.395 2238.62 440.779C2238.14 441.162 2237.3 441.546 2236.22 442.057C2231.78 443.08 2225.17 443.847 2216.29 444.231C2207.4 444.742 2197.43 445.126 2186.26 445.381C2175.1 445.637 2163.33 445.765 2150.96 445.893C2138.59 446.021 2126.7 446.021 2115.29 446.021H2113.49L2114.57 480.668C2114.81 487.572 2114.93 494.604 2114.93 501.508C2114.93 508.412 2114.93 515.571 2114.93 522.731C2120.34 522.475 2125.86 522.347 2131.5 522.347C2137.27 522.347 2143.03 522.219 2148.8 521.964C2157.44 521.964 2166.09 521.964 2174.86 521.964C2183.62 521.964 2191.79 522.092 2199.47 522.347C2207.16 522.603 2214.13 522.859 2220.25 523.242C2226.38 523.626 2231.42 524.137 2235.14 524.904C2237.9 525.416 2239.34 526.95 2239.34 529.763V552.392C2239.34 554.182 2239.1 555.205 2238.62 555.716C2238.38 556.228 2237.54 556.867 2236.34 557.634Z" fill="#087CFA"/>
<path d="M2442.54 710.927C2440.5 709.137 2437.49 706.068 2433.65 701.594C2429.81 697.119 2425.72 691.877 2421.28 685.996C2420.8 684.973 2420.2 684.078 2419.36 683.183C2418.52 682.288 2417.92 681.521 2417.44 680.754L2414.32 681.521C2408.67 682.8 2402.91 683.822 2397.02 684.845C2391.14 685.868 2385.13 686.379 2379.01 686.379H2378.29C2365.92 686.379 2353.91 684.973 2342.14 682.288C2330.37 679.603 2319.44 675.256 2309.48 669.247C2299.51 663.238 2290.86 655.951 2283.66 647.257C2276.45 638.563 2270.57 628.975 2266.12 618.619C2261.68 608.263 2258.32 597.012 2256.16 584.994C2254 572.976 2252.79 560.447 2252.79 547.662C2252.79 534.749 2254 522.219 2256.52 509.946C2258.92 497.672 2262.64 486.293 2267.57 475.682C2272.49 465.198 2278.37 455.609 2285.34 447.043C2292.3 438.477 2300.35 431.701 2309.48 426.715C2319.2 421.218 2330.13 417.126 2342.02 414.442C2353.91 411.757 2366.04 410.35 2378.41 410.35H2379.49C2391.86 410.35 2403.87 411.629 2415.64 414.058C2427.41 416.487 2438.33 420.706 2448.3 426.715C2457.19 431.701 2465.11 438.477 2472.2 447.043C2479.29 455.609 2485.29 465.198 2489.97 475.682C2494.78 486.166 2498.38 497.672 2501.02 509.946C2503.54 522.219 2504.86 534.877 2504.86 547.662C2504.86 573.999 2500.06 597.268 2490.57 617.596C2483.85 632.171 2474.72 644.572 2463.31 654.8C2464.99 657.741 2466.56 660.554 2468.24 663.111C2469.92 665.668 2471.24 668.353 2472.44 671.165C2475.2 676.918 2477.12 681.393 2478.08 684.973C2478.81 686.507 2477.48 688.425 2474.24 690.982L2449.02 710.287C2445.78 711.31 2443.74 711.566 2442.54 710.927ZM2437.61 597.779C2442.78 582.948 2445.3 566.2 2445.3 547.534C2445.3 538.329 2444.34 529.251 2442.54 520.43C2440.62 511.48 2438.09 503.298 2434.73 495.754C2431.37 488.211 2427.53 481.435 2423.2 475.426C2418.88 469.417 2414.32 464.942 2409.39 461.618C2399.43 455.226 2389.1 451.902 2378.65 451.902C2368.2 451.902 2357.87 455.098 2347.91 461.618C2342.74 464.815 2338.18 469.417 2334.34 475.426C2330.37 481.435 2326.89 488.083 2324.01 495.754C2321.13 503.298 2318.84 511.608 2317.4 520.43C2315.84 529.379 2315.12 538.456 2315.12 547.534C2315.12 566.328 2318.24 583.204 2324.37 598.163C2330.49 612.993 2338.66 623.733 2348.63 630.125C2353.55 633.066 2358.47 635.495 2363.52 637.413C2368.56 639.33 2373.61 640.225 2378.77 640.225C2382.01 640.225 2385.85 639.714 2390.3 638.691L2384.41 628.591C2382.97 625.906 2381.89 623.349 2380.93 621.176C2379.97 619.002 2379.25 617.212 2378.89 615.934C2378.65 615.167 2380.09 613.633 2383.09 611.076L2408.19 592.154C2411.43 589.724 2413.6 589.085 2414.44 590.236C2417.44 592.281 2420.68 595.35 2424.16 599.569C2425.36 600.847 2426.57 602.382 2428.01 604.172C2429.45 606.089 2430.89 607.879 2432.57 609.541C2434.73 605.706 2436.53 601.742 2437.61 597.779Z" fill="url(#paint10_linear_391_256)"/>
<path d="M2710.58 431.446C2709.38 425.692 2706.38 422.88 2701.45 422.88H2665.07C2662.54 422.88 2660.26 423.391 2658.22 424.414C2656.18 425.437 2655.22 427.099 2655.22 429.656C2654.5 444.998 2654.14 460.084 2654.14 474.659C2654.14 489.234 2654.14 503.681 2654.02 518C2653.9 532.32 2653.66 546.511 2653.3 560.83C2652.94 575.149 2651.98 589.469 2650.29 603.788C2649.33 612.738 2645.73 620.281 2639.25 626.673C2632.88 632.938 2623.87 636.134 2612.47 636.134H2611.39H2611.02C2599.62 636.134 2590.73 632.938 2584.24 626.673C2577.88 620.408 2574.04 612.738 2572.84 603.788C2571.39 589.469 2570.43 575.022 2569.83 560.83C2569.23 546.511 2568.87 532.32 2568.75 518C2568.63 503.681 2568.63 489.234 2568.63 474.659C2568.63 460.084 2568.39 444.998 2567.91 429.656C2567.91 427.227 2566.95 425.437 2565.15 424.414C2563.23 423.391 2561.07 422.88 2558.55 422.88H2522.16C2517.23 422.88 2514.23 425.692 2513.03 431.446C2511.83 454.714 2511.11 476.065 2510.75 495.243C2510.39 514.421 2510.39 531.936 2510.63 547.534C2510.87 563.132 2511.59 577.067 2512.67 589.341C2513.87 601.615 2515.43 612.482 2517.59 621.943C2519.52 630.892 2523.36 638.819 2529.12 645.979C2534.89 653.01 2542.21 659.019 2550.74 663.878C2559.39 668.736 2568.87 672.444 2579.44 675.001C2589.89 677.558 2600.58 678.964 2611.27 678.964C2622.43 678.964 2633.24 677.686 2643.81 675.001C2654.26 672.444 2663.86 668.736 2672.51 663.878C2681.16 659.019 2688.36 653.138 2694.13 645.979C2699.89 638.947 2703.73 630.892 2705.66 621.943C2709.38 602.637 2711.54 577.834 2712.26 547.534C2713.34 517.233 2712.62 478.622 2710.58 431.446Z" fill="url(#paint11_linear_391_256)"/>
<path d="M2901.4 557.634C2896.96 558.401 2890.36 559.04 2881.47 559.552C2872.58 560.063 2862.61 560.447 2851.45 560.702C2840.28 560.958 2828.51 561.214 2816.14 561.469C2803.77 561.725 2791.88 561.853 2780.47 561.853H2780.11L2779.03 605.067L2777.23 637.796H2780.71C2792.36 637.796 2804.49 637.796 2817.1 637.668C2829.71 637.541 2841.84 637.541 2853.61 637.668C2865.38 637.796 2876.07 637.924 2885.55 638.18C2895.16 638.435 2902.6 639.075 2907.89 640.097C2910.41 640.353 2911.73 642.015 2911.73 644.956L2912.09 668.352C2912.09 670.398 2910.77 671.804 2908.25 672.827C2902.36 673.85 2893.12 674.745 2880.27 675.384C2867.42 676.151 2853.25 676.663 2837.76 677.046C2822.26 677.43 2806.65 677.558 2790.8 677.43C2774.95 677.302 2761.26 676.791 2749.61 675.768L2731.48 674.617H2729.67C2724.03 674.617 2721.03 671.165 2720.55 664.261C2719.59 642.399 2718.99 622.71 2718.75 604.939C2718.51 587.167 2718.51 569.268 2718.63 551.241C2718.75 533.087 2719.11 513.781 2719.83 493.197C2720.55 472.613 2721.39 448.578 2722.23 420.962C2723.67 414.569 2726.67 411.245 2731.36 411.245H2732.44C2734.36 410.99 2736.76 410.862 2740 410.734C2743.12 410.606 2746.49 410.222 2749.97 409.455C2760.42 408.688 2773.03 408.049 2787.68 407.538C2802.33 407.026 2816.98 406.771 2831.51 406.771C2846.04 406.771 2859.61 407.026 2872.1 407.538C2884.59 408.049 2893.96 408.816 2900.2 409.711C2902.97 410.478 2904.41 412.012 2904.41 414.569V437.582C2904.41 439.372 2904.17 440.395 2903.69 440.779C2903.21 441.162 2902.36 441.546 2901.28 442.057C2896.84 443.08 2890.24 443.847 2881.35 444.231C2872.46 444.742 2862.49 445.126 2851.33 445.381C2840.16 445.637 2828.39 445.765 2816.02 445.893C2803.65 446.021 2791.76 446.021 2780.35 446.021H2778.55L2779.63 480.668C2779.87 487.572 2779.99 494.604 2779.99 501.508C2779.99 508.412 2779.99 515.571 2779.99 522.731C2785.4 522.475 2790.92 522.347 2796.56 522.347C2802.33 522.347 2808.09 522.219 2813.86 521.964C2822.5 521.964 2831.15 521.964 2839.92 521.964C2848.68 521.964 2856.85 522.092 2864.54 522.347C2872.22 522.603 2879.19 522.859 2885.31 523.242C2891.44 523.626 2896.48 524.137 2900.2 524.904C2902.97 525.416 2904.41 526.95 2904.41 529.763V552.392C2904.41 554.182 2904.17 555.205 2903.69 555.716C2903.33 556.228 2902.48 556.867 2901.4 557.634Z" fill="url(#paint12_linear_391_256)"/>
<path d="M2945.72 600.336C2949.68 598.546 2952.32 599.441 2953.76 602.893C2957.49 610.82 2962.29 617.34 2968.29 622.454C2974.18 627.568 2980.42 631.404 2987.03 633.961C2993.51 636.518 3000.24 637.924 3006.96 637.924C3013.69 637.924 3019.93 636.646 3025.46 633.961C3031.1 631.404 3035.55 627.568 3039.03 622.582C3042.51 617.596 3044.67 611.331 3045.27 603.66C3045.51 598.674 3044.91 594.327 3043.47 590.62C3042.03 586.912 3039.03 583.077 3034.22 579.113C3029.42 575.15 3022.58 570.931 3013.81 566.456C3004.92 561.981 2993.03 556.611 2978.14 550.475C2964.21 544.466 2953.64 536.922 2946.68 527.717C2939.71 518.512 2936.23 505.727 2936.23 489.362C2936.23 475.043 2939.23 462.769 2945.12 452.669C2951 442.569 2958.57 434.514 2967.81 428.505C2977.06 422.368 2987.39 418.277 2998.92 416.104C3010.45 413.93 3021.85 413.419 3033.14 414.57C3044.43 415.848 3055 418.789 3064.73 423.647C3074.45 428.505 3082.26 434.898 3088.14 442.825L3090.91 447.299C3091.63 448.066 3091.75 449.345 3091.27 451.007L3075.54 468.522C3074.57 470.057 3073.25 471.207 3071.57 472.102C3069.77 472.997 3068.33 472.742 3067.25 471.591C3063.53 466.093 3057.4 461.491 3048.88 457.783C3040.35 454.075 3031.82 452.285 3023.18 452.413C3014.53 452.541 3006.96 455.098 3000.24 460.084C2993.63 465.071 2990.27 473.381 2990.27 485.015C2990.27 491.28 2992.55 496.65 2997.12 501.38C3001.68 506.11 3008.77 510.713 3018.61 515.188C3026.3 519.151 3035.42 522.987 3045.99 526.567C3056.56 530.146 3066.77 535.133 3076.38 541.653C3085.98 548.045 3093.91 556.484 3099.91 566.967C3105.92 577.323 3108.56 591.003 3107.6 607.879C3106.64 622.454 3102.2 635.112 3094.15 645.595C3086.1 656.079 3076.14 664.389 3064.25 670.398C3052.36 676.407 3039.27 679.859 3025.1 680.754C3010.93 681.777 2997 680.115 2983.55 675.768C2969.98 671.421 2957.73 664.261 2946.68 654.417C2935.63 644.445 2927.22 631.532 2921.7 615.295C2920.26 611.331 2921.22 608.902 2924.46 607.879L2945.72 600.336Z" fill="url(#paint13_linear_391_256)"/>
<path d="M3316.92 451.518C3311.75 452.286 3303.95 452.797 3293.5 453.18C3283.05 453.564 3271.28 453.948 3258.19 454.459C3256.15 454.459 3254.23 454.459 3252.43 454.459C3250.63 454.459 3248.71 454.715 3246.66 455.226C3247.63 471.08 3248.23 487.189 3248.47 503.426C3248.71 519.663 3248.71 536.411 3248.47 553.415C3248.23 572.976 3247.87 592.026 3247.27 610.309C3246.66 628.719 3245.7 646.874 3244.26 665.029C3244.02 671.293 3241.14 674.362 3235.5 674.362H3198.03C3195.51 674.362 3193.34 673.467 3191.78 671.805C3190.1 670.015 3189.26 667.841 3189.02 665.156C3188.54 650.07 3188.18 636.007 3187.82 623.094C3187.46 610.181 3187.34 597.651 3187.34 585.378C3187.34 573.104 3187.46 560.703 3187.7 548.173C3187.94 535.644 3188.3 522.092 3188.78 507.389C3189.02 499.974 3189.14 491.791 3189.26 482.97C3189.38 474.148 3189.62 465.071 3190.1 455.61H3175.09C3162 455.61 3150.23 455.354 3139.66 454.715C3129.1 454.075 3121.05 453.564 3115.77 453.053C3114.08 453.053 3113.36 451.518 3113.36 448.578L3113 425.181C3113 423.647 3113.36 422.624 3114.2 421.985C3115.05 421.346 3115.89 420.962 3116.85 420.706C3122.01 419.939 3129.58 419.172 3139.78 418.533C3149.87 417.766 3161.4 417.254 3174.25 416.871C3187.1 416.487 3200.55 416.232 3214.6 416.104C3228.65 415.976 3242.22 415.976 3255.31 416.104C3268.4 416.232 3280.29 416.487 3291.1 416.871C3301.91 417.254 3310.31 417.894 3316.44 418.917C3319.44 419.428 3321 421.09 3321 423.775V446.532C3321 448.322 3320.76 449.345 3320.16 449.856C3319.2 450.24 3318.24 450.879 3316.92 451.518Z" fill="url(#paint14_linear_391_256)"/>
<defs>
<linearGradient id="paint0_linear_391_256" x1="454.856" y1="843.427" x2="454.856" y2="751.493" gradientUnits="userSpaceOnUse">
<stop stop-color="#EE197D"/>
<stop offset="0.0692985" stop-color="#EF247B"/>
<stop offset="0.7125" stop-color="#F38A68"/>
<stop offset="1" stop-color="#F5B361"/>
</linearGradient>
<linearGradient id="paint1_linear_391_256" x1="191.807" y1="695.381" x2="319.578" y2="614.109" gradientUnits="userSpaceOnUse">
<stop offset="0.0753616" stop-color="#6B57FF"/>
<stop offset="0.1192" stop-color="#715AF5"/>
<stop offset="0.1947" stop-color="#8063D9"/>
<stop offset="0.2925" stop-color="#9971AC"/>
<stop offset="0.409" stop-color="#BC846E"/>
<stop offset="0.5399" stop-color="#E89D20"/>
<stop offset="0.5722" stop-color="#F3A30B"/>
<stop offset="0.7385" stop-color="#F9A600"/>
</linearGradient>
<linearGradient id="paint2_linear_391_256" x1="391.581" y1="184.29" x2="709.924" y2="477.986" gradientUnits="userSpaceOnUse">
<stop stop-color="#3DEA62"/>
<stop offset="0.8132" stop-color="#21D789"/>
<stop offset="0.8316" stop-color="#1FCF93"/>
<stop offset="0.863" stop-color="#19B9AF"/>
<stop offset="0.9035" stop-color="#0F95DB"/>
<stop offset="0.9284" stop-color="#087CFA"/>
</linearGradient>
<linearGradient id="paint3_linear_391_256" x1="151.943" y1="622.665" x2="784.557" y2="622.665" gradientUnits="userSpaceOnUse">
<stop offset="0.4145" stop-color="#FFF84A"/>
<stop offset="0.5205" stop-color="#FEEE41"/>
<stop offset="0.7025" stop-color="#FCD228"/>
<stop offset="0.9362" stop-color="#F9A600"/>
</linearGradient>
<linearGradient id="paint4_linear_391_256" x1="228.311" y1="758.836" x2="813.375" y2="533.245" gradientUnits="userSpaceOnUse">
<stop stop-color="#5E5CFE"/>
<stop offset="0.3171" stop-color="#087CFA"/>
<stop offset="0.7238" stop-color="#087CFA"/>
<stop offset="0.772" stop-color="#0886F9"/>
<stop offset="0.8544" stop-color="#07A2F6"/>
<stop offset="0.9362" stop-color="#07C3F2"/>
</linearGradient>
<linearGradient id="paint5_linear_391_256" x1="166.269" y1="539.888" x2="543.117" y2="218.779" gradientUnits="userSpaceOnUse">
<stop stop-color="#FCF84A"/>
<stop offset="0.4317" stop-color="#3DEA62"/>
<stop offset="0.7591" stop-color="#3DEA62"/>
<stop offset="1" stop-color="#21D789"/>
</linearGradient>
<linearGradient id="paint6_linear_391_256" x1="902.668" y1="540.478" x2="1088.46" y2="540.478" gradientUnits="userSpaceOnUse">
<stop stop-color="#EE197D"/>
<stop offset="0.0692985" stop-color="#EF247B"/>
<stop offset="0.7125" stop-color="#F38A68"/>
<stop offset="1" stop-color="#F5B361"/>
</linearGradient>
<linearGradient id="paint7_linear_391_256" x1="1096.22" y1="541.693" x2="1330" y2="541.693" gradientUnits="userSpaceOnUse">
<stop stop-color="#FCF84A"/>
<stop offset="0.4317" stop-color="#3DEA62"/>
<stop offset="0.7591" stop-color="#3DEA62"/>
<stop offset="1" stop-color="#21D789"/>
</linearGradient>
<linearGradient id="paint8_linear_391_256" x1="1339.08" y1="547.539" x2="1525.81" y2="547.539" gradientUnits="userSpaceOnUse">
<stop stop-color="#3DEA62"/>
<stop offset="0.4006" stop-color="#21D789"/>
<stop offset="0.4845" stop-color="#1FCF93"/>
<stop offset="0.6286" stop-color="#19B9AF"/>
<stop offset="0.8142" stop-color="#0F95DB"/>
<stop offset="0.9284" stop-color="#087CFA"/>
</linearGradient>
<linearGradient id="paint9_linear_391_256" x1="1530.51" y1="545.174" x2="1738.43" y2="545.174" gradientUnits="userSpaceOnUse">
<stop offset="0.1281" stop-color="#07C3F2"/>
<stop offset="1" stop-color="#087CFA"/>
</linearGradient>
<linearGradient id="paint10_linear_391_256" x1="2252.79" y1="560.777" x2="2504.74" y2="560.777" gradientUnits="userSpaceOnUse">
<stop stop-color="#087CFA"/>
<stop offset="1" stop-color="#5E5CFE"/>
</linearGradient>
<linearGradient id="paint11_linear_391_256" x1="2510.89" y1="550.896" x2="2712.93" y2="550.896" gradientUnits="userSpaceOnUse">
<stop stop-color="#6B57FF"/>
<stop offset="1" stop-color="#087CFA"/>
</linearGradient>
<linearGradient id="paint12_linear_391_256" x1="2718.72" y1="541.897" x2="2912.2" y2="541.897" gradientUnits="userSpaceOnUse">
<stop stop-color="#087CFA"/>
<stop offset="0.5536" stop-color="#21D789"/>
<stop offset="0.6867" stop-color="#28DC7F"/>
<stop offset="0.9146" stop-color="#3CE963"/>
<stop offset="0.9246" stop-color="#3DEA62"/>
</linearGradient>
<linearGradient id="paint13_linear_391_256" x1="2921.35" y1="547.539" x2="3108.08" y2="547.539" gradientUnits="userSpaceOnUse">
<stop stop-color="#21D789"/>
<stop offset="0.5266" stop-color="#3DEA62"/>
<stop offset="0.8918" stop-color="#FCF84A"/>
<stop offset="1" stop-color="#FCF84A"/>
</linearGradient>
<linearGradient id="paint14_linear_391_256" x1="3112.78" y1="545.174" x2="3320.7" y2="545.174" gradientUnits="userSpaceOnUse">
<stop stop-color="#FFF84A"/>
<stop offset="0.2614" stop-color="#FDDF34"/>
<stop offset="0.749" stop-color="#FAB60E"/>
<stop offset="1" stop-color="#F9A600"/>
</linearGradient>
</defs>
</svg>
