<?xml version="1.0" standalone="no"?>
<!DOCTYPE svg PUBLIC "-//W3C//DTD SVG 20010904//EN"
 "http://www.w3.org/TR/2001/REC-SVG-20010904/DTD/svg10.dtd">
<svg version="1.0" xmlns="http://www.w3.org/2000/svg"
 width="160.000000pt" height="160.000000pt" viewBox="0 0 160.000000 160.000000"
 preserveAspectRatio="xMidYMid meet">
<metadata>
Created by potrace 1.13, written by Peter Selinger 2001-2015
</metadata>
<g transform="translate(0.000000,160.000000) scale(0.080000,-0.080000)"
fill="#000000" stroke="none">
<path d="M678 1842 c-34 -20 -35 -39 -5 -83 22 -33 26 -34 118 -45 53 -6 101
-14 107 -18 7 -4 12 -25 12 -47 l0 -40 -22 26 c-47 54 -167 59 -303 13 -90
-30 -95 -31 -119 -14 -14 9 -37 39 -51 66 -14 28 -29 50 -33 50 -4 0 -18 -9
-32 -20 l-25 -19 30 -58 c17 -32 42 -64 57 -73 29 -16 55 -11 148 26 67 27
210 25 248 -3 15 -11 28 -29 30 -39 10 -58 26 -98 58 -144 20 -28 34 -53 32
-55 -4 -4 -263 67 -340 94 l-58 20 0 -44 c0 -24 9 -72 20 -107 11 -34 20 -66
20 -69 0 -7 -14 -5 -178 17 -68 9 -125 14 -128 11 -2 -2 5 -33 16 -68 25 -83
87 -177 172 -262 38 -37 68 -70 68 -72 0 -3 -36 -32 -80 -64 -96 -72 -203
-132 -313 -176 -45 -18 -82 -39 -82 -46 0 -20 155 -149 243 -202 348 -211 766
-245 1067 -89 50 26 97 63 165 132 144 144 235 313 289 533 l28 111 44 12 c44
11 44 11 17 22 -37 15 -42 29 -13 36 13 3 37 11 52 17 27 11 27 11 -33 30
l-61 19 -12 59 c-26 132 -128 263 -247 318 -164 75 -370 41 -512 -83 -28 -24
-53 -44 -56 -44 -13 0 -36 110 -36 175 0 95 -11 105 -125 116 -48 5 -91 11
-96 15 -5 3 -18 23 -29 45 -11 21 -21 39 -23 39 -1 0 -14 -8 -29 -18z m975
-499 l32 -17 -31 -6 c-42 -9 -54 -18 -65 -47 -11 -28 10 -76 40 -93 29 -15 73
-12 100 6 20 14 22 23 18 55 -3 22 -1 37 4 33 5 -3 9 -21 9 -40 0 -50 -36 -84
-91 -84 -106 0 -183 97 -133 168 29 42 69 50 117 25z m65 -52 c16 -10 13 -42
-4 -48 -7 -2 -19 4 -28 13 -13 12 -14 19 -5 30 13 16 19 17 37 5z"/>
</g>
</svg>
