<svg xmlns="http://www.w3.org/2000/svg" version="1.1" viewBox="0 0 1024 1024">
    <defs>
        <linearGradient id="svg_24" x1="0.07422" y1="0.07111" x2="1" y2="1" spreadMethod="pad">
            <stop stop-color="#419ffc" stop-opacity="0.99609" offset="0"/>
            <stop stop-color="#56ff56" stop-opacity="0.99609" offset="1"/>
        </linearGradient>
    </defs>
    <ellipse fill="url(#svg_24)" cx="513" cy="510" id="svg_2" rx="480" ry="480"/>
    <ellipse fill="#56aaff" cx="594.50083" cy="663.01186" id="svg_3"/>
    <ellipse fill="#56aaff" cx="1129.50623" cy="145.50664" id="svg_4" ry="0.83334"/>
    <path d="m401.11319,765.41473l0,-54.59643l81.76198,0l0,-382.175l-81.76198,0l0,-54.59643l218.03196,0l0,54.59643l-81.76198,0l0,382.175l81.76198,0l0,54.59643l-218.03196,0zm273.90264,-380.81008l134.90727,135.12616l-134.90727,135.12616l-38.53714,-38.59968l96.37012,-96.52648l-96.37012,-96.52648l38.53714,-38.59968zm-329.77333,0l38.53714,38.59968l-96.37012,96.52648l96.37012,96.52648l-38.53714,38.59968l-134.90727,-135.12616l134.90727,-135.12616z"
          fill="#ffffff" id="svg_1"/>
</svg>