<svg width="80" height="80" viewBox="0 0 80 80" fill="none" xmlns="http://www.w3.org/2000/svg">
<mask id="path-1-inside-1_369_4099" fill="white">
<path fill-rule="evenodd" clip-rule="evenodd" d="M8.05475 62C8.05475 62 8.0438 64.9186 8.0219 68.4944L8 75L10.847 74.9554L10.8874 74.9548C13.6292 74.9109 13.72 74.9094 14.57 74.6101C16.7709 73.8192 18.0849 72.2931 18.512 70.0206C18.72 68.9177 18.72 68.0488 18.501 66.9794C18.063 64.7738 16.76 63.2699 14.5371 62.4122C13.8363 62.1337 13.683 62.1225 10.9236 62.0557C9.34685 62.0223 8.05475 62 8.05475 62ZM14.0553 64.551C14.8547 64.9297 15.4022 65.4979 15.8183 66.389C16.0811 66.9683 16.103 67.1243 16.103 68.5167C16.103 69.9426 16.0811 70.054 15.7854 70.7224C15.3803 71.6024 14.6138 72.3376 13.8254 72.5938C13.475 72.7052 12.6975 72.7943 11.8653 72.8278L10.4637 72.8835L10.4418 68.5167L10.409 64.15L11.8872 64.1945C13.2231 64.2391 13.4312 64.2725 14.0553 64.551ZM46.9852 72.1457L46.9837 72.1499C46.4211 73.702 46.0448 74.74 46.0192 74.7991C45.9431 74.9888 46.0409 75 47.2263 75H48.5203L49.0206 73.5159L49.5099 72.0429H51.9567H54.3926L54.8819 73.5159L55.3713 75H56.7197C57.9485 75 58.0573 74.9888 57.9811 74.7991C57.9535 74.7353 57.548 73.5894 56.9573 71.9202L56.9565 71.9181C56.6181 70.9618 56.219 69.8339 55.7954 68.6395L55.403 67.5332C54.4148 64.7468 53.6239 62.5164 53.5661 62.3682L53.4465 62.067L52.0545 62.0335L50.6517 62L48.379 68.3047C47.861 69.7298 47.3778 71.0627 46.9852 72.1457ZM53.6313 69.6549C53.6857 69.8223 53.5226 69.8446 52.0002 69.8223C50.9562 69.8223 50.3146 69.7665 50.3146 69.6996C50.3146 69.6326 50.6843 68.4833 51.1302 67.133C51.5745 65.7987 51.9432 64.6637 51.9565 64.6227L51.9567 64.6223C51.9567 64.5777 53.3377 68.7064 53.6313 69.6549ZM58.9998 68.5421C58.9998 64.9892 59.0219 62.0508 59.044 62.0284C59.1437 61.9279 65.4995 62.1178 65.8317 62.2295C67.6919 62.8776 68.6774 64.2406 68.6663 66.1735C68.6663 67.7936 68.002 68.9891 66.7618 69.6818C65.8538 70.1734 65.5881 70.2181 63.4842 70.2963L61.4911 70.3633V72.6872V75H60.251H58.9998V68.5421ZM65.876 64.9557C65.732 64.7546 65.3777 64.4753 65.1009 64.3524C64.4476 64.0507 61.5908 63.9166 61.4911 64.1848C61.4579 64.263 61.4468 65.2462 61.4579 66.3411L61.4911 68.3522H63.0967C64.6026 68.3522 64.7355 68.3299 65.1895 68.0729C65.9867 67.6148 66.1417 67.3131 66.1417 66.2517C66.1417 65.4585 66.1085 65.2797 65.876 64.9557ZM70.0002 68.5V75H71.1669H72.3336V68.5V62H71.1669H70.0002V68.5ZM20.1461 68.6666C20.5146 67.2313 21.5986 65.9726 22.8236 65.5531C23.3873 65.3544 23.7125 65.3102 24.6014 65.3433C25.5336 65.3654 25.7829 65.4096 26.3575 65.6856C27.8425 66.3811 28.6664 67.9158 28.6664 69.9693V70.8416L25.5119 70.8084L22.3574 70.7753L22.4116 71.2059C22.5092 71.9346 22.9211 72.6081 23.4523 72.8951C24.3412 73.3699 25.6095 73.138 26.184 72.3873L26.4442 72.045L27.474 72.1664C28.0377 72.2327 28.5146 72.31 28.5363 72.321C28.558 72.3431 28.493 72.5308 28.4062 72.7516C28.1786 73.3036 27.3005 74.231 26.7152 74.5291C25.6203 75.0922 23.8967 75.1585 22.661 74.6837C21.5228 74.2531 20.5038 73.0276 20.1461 71.6696C19.9509 70.9409 19.9509 69.3952 20.1461 68.6666ZM25.9022 67.7833C25.8046 67.6287 25.577 67.4079 25.3818 67.2975C25.0024 67.0546 24.0485 67.0105 23.5715 67.1981C23.0187 67.43 22.5743 68.0704 22.4333 68.8763L22.3574 69.2848H24.2978C25.371 69.2848 26.2707 69.2517 26.3033 69.2186C26.4008 69.1303 26.1081 68.1035 25.9022 67.7833ZM32.6144 65.5716C30.53 66.3573 29.382 68.5373 29.7275 71.0826C29.8836 72.2224 30.3406 73.1077 31.1319 73.8602C32.0682 74.7455 32.7593 75 34.342 75C35.8244 75 36.5489 74.7565 37.3737 74.0151C37.8419 73.6057 38.6221 72.4658 38.4995 72.3662C38.4884 72.3441 37.9868 72.2777 37.4072 72.2113L36.3483 72.1007L36.0808 72.4326C35.4901 73.1741 34.2083 73.4065 33.2831 72.9306C32.893 72.7425 32.7147 72.5544 32.4806 72.0896C32.3023 71.7576 32.1685 71.3371 32.1685 71.149V70.8059L35.4232 70.8391L38.6667 70.8723L38.5998 69.7878C38.4549 67.475 37.4518 65.981 35.7353 65.5052C34.8324 65.2507 33.3834 65.2839 32.6144 65.5716ZM35.256 67.32C35.6684 67.5635 36.0362 68.2053 36.1365 68.8583L36.2146 69.312H34.186C34.083 69.312 33.9849 69.3121 33.8915 69.3121C32.7216 69.3132 32.2796 69.3136 32.1794 69.1288C32.1186 69.0165 32.184 68.8359 32.289 68.5455C32.3039 68.5044 32.3195 68.4612 32.3357 68.4156C32.5363 67.8734 32.7481 67.5967 33.2274 67.309C33.6955 67.0213 34.7767 67.0213 35.256 67.32ZM42.504 66.9049C42.6688 66.3637 43.3386 65.6534 43.8438 65.473C44.0854 65.3828 44.5796 65.3152 44.942 65.3377L45.6009 65.3603L45.6339 66.4877L45.6668 67.6152H44.7334C43.8658 67.6152 43.7779 67.6377 43.3826 67.9647C43.152 68.1451 42.8445 68.551 42.6907 68.8666C42.4272 69.4078 42.4162 69.4867 42.3832 72.2039L42.3503 75H41.1752H40.0001V70.2647V65.5294H41.1862H42.3613L42.3722 66.3975C42.3832 67.1867 42.3942 67.2431 42.504 66.9049Z"/>
</mask>
<path fill-rule="evenodd" clip-rule="evenodd" d="M8.05475 62C8.05475 62 8.0438 64.9186 8.0219 68.4944L8 75L10.847 74.9554L10.8874 74.9548C13.6292 74.9109 13.72 74.9094 14.57 74.6101C16.7709 73.8192 18.0849 72.2931 18.512 70.0206C18.72 68.9177 18.72 68.0488 18.501 66.9794C18.063 64.7738 16.76 63.2699 14.5371 62.4122C13.8363 62.1337 13.683 62.1225 10.9236 62.0557C9.34685 62.0223 8.05475 62 8.05475 62ZM14.0553 64.551C14.8547 64.9297 15.4022 65.4979 15.8183 66.389C16.0811 66.9683 16.103 67.1243 16.103 68.5167C16.103 69.9426 16.0811 70.054 15.7854 70.7224C15.3803 71.6024 14.6138 72.3376 13.8254 72.5938C13.475 72.7052 12.6975 72.7943 11.8653 72.8278L10.4637 72.8835L10.4418 68.5167L10.409 64.15L11.8872 64.1945C13.2231 64.2391 13.4312 64.2725 14.0553 64.551ZM46.9852 72.1457L46.9837 72.1499C46.4211 73.702 46.0448 74.74 46.0192 74.7991C45.9431 74.9888 46.0409 75 47.2263 75H48.5203L49.0206 73.5159L49.5099 72.0429H51.9567H54.3926L54.8819 73.5159L55.3713 75H56.7197C57.9485 75 58.0573 74.9888 57.9811 74.7991C57.9535 74.7353 57.548 73.5894 56.9573 71.9202L56.9565 71.9181C56.6181 70.9618 56.219 69.8339 55.7954 68.6395L55.403 67.5332C54.4148 64.7468 53.6239 62.5164 53.5661 62.3682L53.4465 62.067L52.0545 62.0335L50.6517 62L48.379 68.3047C47.861 69.7298 47.3778 71.0627 46.9852 72.1457ZM53.6313 69.6549C53.6857 69.8223 53.5226 69.8446 52.0002 69.8223C50.9562 69.8223 50.3146 69.7665 50.3146 69.6996C50.3146 69.6326 50.6843 68.4833 51.1302 67.133C51.5745 65.7987 51.9432 64.6637 51.9565 64.6227L51.9567 64.6223C51.9567 64.5777 53.3377 68.7064 53.6313 69.6549ZM58.9998 68.5421C58.9998 64.9892 59.0219 62.0508 59.044 62.0284C59.1437 61.9279 65.4995 62.1178 65.8317 62.2295C67.6919 62.8776 68.6774 64.2406 68.6663 66.1735C68.6663 67.7936 68.002 68.9891 66.7618 69.6818C65.8538 70.1734 65.5881 70.2181 63.4842 70.2963L61.4911 70.3633V72.6872V75H60.251H58.9998V68.5421ZM65.876 64.9557C65.732 64.7546 65.3777 64.4753 65.1009 64.3524C64.4476 64.0507 61.5908 63.9166 61.4911 64.1848C61.4579 64.263 61.4468 65.2462 61.4579 66.3411L61.4911 68.3522H63.0967C64.6026 68.3522 64.7355 68.3299 65.1895 68.0729C65.9867 67.6148 66.1417 67.3131 66.1417 66.2517C66.1417 65.4585 66.1085 65.2797 65.876 64.9557ZM70.0002 68.5V75H71.1669H72.3336V68.5V62H71.1669H70.0002V68.5ZM20.1461 68.6666C20.5146 67.2313 21.5986 65.9726 22.8236 65.5531C23.3873 65.3544 23.7125 65.3102 24.6014 65.3433C25.5336 65.3654 25.7829 65.4096 26.3575 65.6856C27.8425 66.3811 28.6664 67.9158 28.6664 69.9693V70.8416L25.5119 70.8084L22.3574 70.7753L22.4116 71.2059C22.5092 71.9346 22.9211 72.6081 23.4523 72.8951C24.3412 73.3699 25.6095 73.138 26.184 72.3873L26.4442 72.045L27.474 72.1664C28.0377 72.2327 28.5146 72.31 28.5363 72.321C28.558 72.3431 28.493 72.5308 28.4062 72.7516C28.1786 73.3036 27.3005 74.231 26.7152 74.5291C25.6203 75.0922 23.8967 75.1585 22.661 74.6837C21.5228 74.2531 20.5038 73.0276 20.1461 71.6696C19.9509 70.9409 19.9509 69.3952 20.1461 68.6666ZM25.9022 67.7833C25.8046 67.6287 25.577 67.4079 25.3818 67.2975C25.0024 67.0546 24.0485 67.0105 23.5715 67.1981C23.0187 67.43 22.5743 68.0704 22.4333 68.8763L22.3574 69.2848H24.2978C25.371 69.2848 26.2707 69.2517 26.3033 69.2186C26.4008 69.1303 26.1081 68.1035 25.9022 67.7833ZM32.6144 65.5716C30.53 66.3573 29.382 68.5373 29.7275 71.0826C29.8836 72.2224 30.3406 73.1077 31.1319 73.8602C32.0682 74.7455 32.7593 75 34.342 75C35.8244 75 36.5489 74.7565 37.3737 74.0151C37.8419 73.6057 38.6221 72.4658 38.4995 72.3662C38.4884 72.3441 37.9868 72.2777 37.4072 72.2113L36.3483 72.1007L36.0808 72.4326C35.4901 73.1741 34.2083 73.4065 33.2831 72.9306C32.893 72.7425 32.7147 72.5544 32.4806 72.0896C32.3023 71.7576 32.1685 71.3371 32.1685 71.149V70.8059L35.4232 70.8391L38.6667 70.8723L38.5998 69.7878C38.4549 67.475 37.4518 65.981 35.7353 65.5052C34.8324 65.2507 33.3834 65.2839 32.6144 65.5716ZM35.256 67.32C35.6684 67.5635 36.0362 68.2053 36.1365 68.8583L36.2146 69.312H34.186C34.083 69.312 33.9849 69.3121 33.8915 69.3121C32.7216 69.3132 32.2796 69.3136 32.1794 69.1288C32.1186 69.0165 32.184 68.8359 32.289 68.5455C32.3039 68.5044 32.3195 68.4612 32.3357 68.4156C32.5363 67.8734 32.7481 67.5967 33.2274 67.309C33.6955 67.0213 34.7767 67.0213 35.256 67.32ZM42.504 66.9049C42.6688 66.3637 43.3386 65.6534 43.8438 65.473C44.0854 65.3828 44.5796 65.3152 44.942 65.3377L45.6009 65.3603L45.6339 66.4877L45.6668 67.6152H44.7334C43.8658 67.6152 43.7779 67.6377 43.3826 67.9647C43.152 68.1451 42.8445 68.551 42.6907 68.8666C42.4272 69.4078 42.4162 69.4867 42.3832 72.2039L42.3503 75H41.1752H40.0001V70.2647V65.5294H41.1862H42.3613L42.3722 66.3975C42.3832 67.1867 42.3942 67.2431 42.504 66.9049Z" fill="black"/>
<path d="M8.0219 68.4944L7.02191 68.4883L7.02191 68.4911L8.0219 68.4944ZM8.05475 62L8.07199 61.0001L7.05856 60.9827L7.05476 61.9962L8.05475 62ZM8 75L7.00001 74.9966L6.99657 76.0158L8.01565 75.9999L8 75ZM10.847 74.9554L10.8626 75.9553L10.863 75.9553L10.847 74.9554ZM10.8874 74.9548L10.9034 75.9547L10.9034 75.9547L10.8874 74.9548ZM14.57 74.6101L14.9022 75.5534L14.9082 75.5512L14.57 74.6101ZM18.512 70.0206L17.5293 69.8352L17.5292 69.8359L18.512 70.0206ZM18.501 66.9794L17.5202 67.1742L17.5214 67.1801L18.501 66.9794ZM14.5371 62.4122L14.1678 63.3415L14.1771 63.3451L14.5371 62.4122ZM10.9236 62.0557L10.9479 61.056L10.9448 61.0559L10.9236 62.0557ZM15.8183 66.389L16.729 65.9759L16.7244 65.966L15.8183 66.389ZM14.0553 64.551L14.4835 63.6473L14.4732 63.6424L14.4628 63.6378L14.0553 64.551ZM15.7854 70.7224L16.6938 71.1406L16.6969 71.1337L16.7 71.1269L15.7854 70.7224ZM13.8254 72.5938L14.1284 73.5469L14.1345 73.5449L13.8254 72.5938ZM11.8653 72.8278L11.9051 73.827L11.9055 73.827L11.8653 72.8278ZM10.4637 72.8835L9.46376 72.8885L9.46895 73.9238L10.5035 73.8827L10.4637 72.8835ZM10.4418 68.5167L11.4418 68.5117L11.4418 68.5092L10.4418 68.5167ZM10.409 64.15L10.4391 63.1504L9.40121 63.1191L9.40902 64.1575L10.409 64.15ZM11.8872 64.1945L11.9206 63.1951L11.9174 63.195L11.8872 64.1945ZM46.9837 72.1499L46.0437 71.8088L46.0436 71.8091L46.9837 72.1499ZM46.9852 72.1457L47.9253 72.4868L47.9254 72.4865L46.9852 72.1457ZM46.0192 74.7991L45.1016 74.4017L45.0962 74.4141L45.0911 74.4267L46.0192 74.7991ZM48.5203 75V76H49.2386L49.4679 75.3194L48.5203 75ZM49.0206 73.5159L49.9682 73.8353L49.9696 73.8312L49.0206 73.5159ZM49.5099 72.0429V71.0429H48.7884L48.5609 71.7276L49.5099 72.0429ZM54.3926 72.0429L55.3416 71.7276L55.1141 71.0429H54.3926V72.0429ZM54.8819 73.5159L55.8316 73.2027L55.8309 73.2006L54.8819 73.5159ZM55.3713 75L54.4215 75.3131L54.648 76H55.3713V75ZM57.9811 74.7991L58.9092 74.4267L58.9042 74.4142L58.8988 74.4017L57.9811 74.7991ZM56.9573 71.9202L57.9 71.5866L57.8994 71.5848L56.9573 71.9202ZM56.9565 71.9181L56.0138 72.2517L56.0145 72.2535L56.9565 71.9181ZM55.7954 68.6395L54.8529 68.9737L54.8529 68.9738L55.7954 68.6395ZM55.403 67.5332L54.4605 67.8674L54.4605 67.8675L55.403 67.5332ZM53.5661 62.3682L54.4978 62.0051L54.4955 61.9992L53.5661 62.3682ZM53.4465 62.067L54.3759 61.6979L54.1318 61.0831L53.4705 61.0672L53.4465 62.067ZM52.0545 62.0335L52.0786 61.0338L52.0784 61.0338L52.0545 62.0335ZM50.6517 62L50.6756 61.0003L49.9553 60.9831L49.711 61.6609L50.6517 62ZM48.379 68.3047L49.3188 68.6463L49.3197 68.6438L48.379 68.3047ZM52.0002 69.8223L52.0148 68.8224L52.0075 68.8223H52.0002V69.8223ZM53.6313 69.6549L52.676 69.9507L52.6803 69.9639L53.6313 69.6549ZM51.1302 67.133L50.1814 66.8171L50.1806 66.8195L51.1302 67.133ZM51.9565 64.6227L52.9076 64.9317L52.9083 64.9295L51.9565 64.6227ZM51.9567 64.6223L52.9084 64.9291L52.9567 64.7795V64.6223H51.9567ZM59.044 62.0284L59.7543 62.7324L59.7543 62.7323L59.044 62.0284ZM65.8317 62.2295L66.1607 61.2851L66.1505 61.2817L65.8317 62.2295ZM68.6663 66.1735L67.6663 66.1678V66.1735H68.6663ZM66.7618 69.6818L67.238 70.5612L67.2495 70.5548L66.7618 69.6818ZM63.4842 70.2963L63.5179 71.2957L63.5214 71.2956L63.4842 70.2963ZM61.4911 70.3633L61.4575 69.3639L60.4911 69.3964V70.3633H61.4911ZM61.4911 75V76H62.4911V75H61.4911ZM58.9998 75H57.9998V76H58.9998V75ZM65.1009 64.3524L64.6817 65.2602L64.6884 65.2633L64.6951 65.2663L65.1009 64.3524ZM65.876 64.9557L65.0628 65.5377L65.0635 65.5387L65.876 64.9557ZM61.4911 64.1848L62.4116 64.5757L62.4205 64.5546L62.4285 64.5331L61.4911 64.1848ZM61.4579 66.3411L60.458 66.3512L60.4581 66.3576L61.4579 66.3411ZM61.4911 68.3522L60.4913 68.3687L60.5075 69.3522H61.4911V68.3522ZM65.1895 68.0729L65.6821 68.9432L65.6877 68.94L65.1895 68.0729ZM70.0002 75H69.0002V76H70.0002V75ZM72.3336 75V76H73.3336V75H72.3336ZM72.3336 62H73.3336V61H72.3336V62ZM70.0002 62V61H69.0002V62H70.0002ZM22.8236 65.5531L23.1476 66.4992L23.1561 66.4962L22.8236 65.5531ZM20.1461 68.6666L21.1121 68.9252L21.1146 68.9153L20.1461 68.6666ZM24.6014 65.3433L24.5641 66.3427L24.5777 66.343L24.6014 65.3433ZM26.3575 65.6856L25.9244 66.587L25.9333 66.5912L26.3575 65.6856ZM28.6664 70.8416L28.6559 71.8415L29.6664 71.8521V70.8416H28.6664ZM25.5119 70.8084L25.5014 71.8084L25.5119 70.8084ZM22.3574 70.7753L22.3679 69.7754L21.2222 69.7633L21.3653 70.9002L22.3574 70.7753ZM22.4116 71.2059L21.4194 71.3308L21.4205 71.3386L22.4116 71.2059ZM23.4523 72.8951L22.9769 73.7749L22.9812 73.7772L23.4523 72.8951ZM26.184 72.3873L26.9782 72.995L26.9801 72.9924L26.184 72.3873ZM26.4442 72.045L26.5613 71.0519L25.9938 70.985L25.6481 71.4398L26.4442 72.045ZM27.474 72.1664L27.3569 73.1596L27.3573 73.1596L27.474 72.1664ZM28.5363 72.321L29.2499 71.6204L29.1355 71.504L28.9901 71.4299L28.5363 72.321ZM28.4062 72.7516L29.3307 73.1328L29.3339 73.125L29.337 73.1171L28.4062 72.7516ZM26.7152 74.5291L26.2614 73.638L26.2578 73.6398L26.7152 74.5291ZM22.661 74.6837L23.0196 73.7502L23.0148 73.7484L22.661 74.6837ZM20.1461 71.6696L21.1131 71.4149L21.112 71.4109L20.1461 71.6696ZM25.3818 67.2975L24.8427 68.1397L24.8656 68.1544L24.8894 68.1678L25.3818 67.2975ZM25.9022 67.7833L25.0565 68.3171L25.0611 68.3243L25.9022 67.7833ZM23.5715 67.1981L23.2054 66.2676L23.195 66.2717L23.1848 66.276L23.5715 67.1981ZM22.4333 68.8763L23.4166 69.059L23.4184 69.0486L22.4333 68.8763ZM22.3574 69.2848L21.3743 69.1022L21.1546 70.2848H22.3574V69.2848ZM26.3033 69.2186L25.6321 68.4773L25.6103 68.497L25.5897 68.518L26.3033 69.2186ZM29.7275 71.0826L28.7366 71.2171L28.7368 71.2182L29.7275 71.0826ZM32.6144 65.5716L32.264 64.635L32.2616 64.6359L32.6144 65.5716ZM31.1319 73.8602L30.4428 74.5849L30.4449 74.5868L31.1319 73.8602ZM37.3737 74.0151L36.7153 73.2623L36.7052 73.2714L37.3737 74.0151ZM38.4995 72.3662L37.6064 72.816L37.7027 73.0074L37.869 73.1424L38.4995 72.3662ZM37.4072 72.2113L37.521 71.2178L37.5111 71.2167L37.4072 72.2113ZM36.3483 72.1007L36.4522 71.1061L35.911 71.0495L35.5696 71.4732L36.3483 72.1007ZM36.0808 72.4326L35.3021 71.8052L35.2987 71.8095L36.0808 72.4326ZM33.2831 72.9306L33.7405 72.0414L33.7291 72.0355L33.7175 72.0299L33.2831 72.9306ZM32.4806 72.0896L33.3737 71.6398L33.3678 71.628L33.3616 71.6164L32.4806 72.0896ZM32.1685 70.8059L32.1787 69.806L31.1685 69.7957V70.8059H32.1685ZM35.4232 70.8391L35.4334 69.8392L35.4334 69.8392L35.4232 70.8391ZM38.6667 70.8723L38.6565 71.8722L39.7309 71.8832L39.6648 70.8108L38.6667 70.8723ZM38.5998 69.7878L39.5979 69.7263L39.5979 69.7253L38.5998 69.7878ZM35.7353 65.5052L35.4639 66.4677L35.4681 66.4688L35.7353 65.5052ZM36.1365 68.8583L35.1481 69.0101L35.1495 69.0189L35.151 69.0277L36.1365 68.8583ZM35.256 67.32L34.727 68.1687L34.7372 68.175L34.7476 68.1812L35.256 67.32ZM36.2146 69.312V70.312H37.4012L37.2001 69.1425L36.2146 69.312ZM33.8915 69.3121L33.8924 70.3121L33.8924 70.3121L33.8915 69.3121ZM32.1794 69.1288L33.0587 68.6524L33.0587 68.6524L32.1794 69.1288ZM32.289 68.5455L31.3487 68.2053L31.3487 68.2053L32.289 68.5455ZM32.3357 68.4156L31.3978 68.0686L31.3935 68.0806L32.3357 68.4156ZM33.2274 67.309L33.7421 68.1664L33.751 68.1609L33.2274 67.309ZM43.8438 65.473L44.1801 66.4148L44.1869 66.4123L44.1936 66.4098L43.8438 65.473ZM42.504 66.9049L43.4551 67.2137L43.458 67.2049L43.4607 67.1961L42.504 66.9049ZM44.942 65.3377L44.8799 66.3358L44.8938 66.3366L44.9078 66.3371L44.942 65.3377ZM45.6009 65.3603L46.6005 65.331L46.5731 64.3929L45.6351 64.3608L45.6009 65.3603ZM45.6339 66.4877L46.6334 66.4585L46.6334 66.4585L45.6339 66.4877ZM45.6668 67.6152V68.6152H46.6965L46.6664 67.586L45.6668 67.6152ZM43.3826 67.9647L43.9987 68.7523L44.0094 68.744L44.0199 68.7353L43.3826 67.9647ZM42.6907 68.8666L41.7917 68.4288L41.7917 68.4288L42.6907 68.8666ZM42.3832 72.2039L41.3833 72.1918L41.3833 72.1921L42.3832 72.2039ZM42.3503 75V76H43.3386L43.3502 75.0118L42.3503 75ZM40.0001 75H39.0001V76H40.0001V75ZM40.0001 65.5294V64.5294H39.0001V65.5294H40.0001ZM42.3613 65.5294L43.3612 65.5167L43.3487 64.5294H42.3613V65.5294ZM42.3722 66.3975L41.3723 66.4102L41.3723 66.4114L42.3722 66.3975ZM9.02188 68.5006C9.03283 66.712 9.04105 65.0879 9.04653 63.9109C9.04926 63.3224 9.05132 62.8457 9.05269 62.5161C9.05337 62.3512 9.05389 62.2232 9.05423 62.1363C9.0544 62.0929 9.05453 62.0598 9.05461 62.0375C9.05466 62.0264 9.05469 62.0179 9.05471 62.0123C9.05472 62.0095 9.05473 62.0073 9.05473 62.0059C9.05474 62.0052 9.05474 62.0047 9.05474 62.0043C9.05474 62.0041 9.05474 62.004 9.05474 62.0039C9.05474 62.0038 9.05474 62.0038 9.05474 62.0038C9.05474 62.0038 9.05474 62.0038 8.05475 62C7.05476 61.9962 7.05476 61.9963 7.05476 61.9963C7.05476 61.9963 7.05476 61.9963 7.05476 61.9964C7.05476 61.9965 7.05476 61.9966 7.05475 61.9968C7.05475 61.9971 7.05475 61.9976 7.05475 61.9984C7.05474 61.9998 7.05474 62.0019 7.05473 62.0047C7.0547 62.0103 7.05467 62.0187 7.05463 62.0298C7.05454 62.052 7.05442 62.0851 7.05424 62.1284C7.0539 62.2152 7.05339 62.3431 7.05271 62.5077C7.05134 62.8371 7.04928 63.3135 7.04655 63.9016C7.04107 65.0779 7.03286 66.701 7.02192 68.4883L9.02188 68.5006ZM8.99999 75.0034L9.02189 68.4978L7.02191 68.4911L7.00001 74.9966L8.99999 75.0034ZM10.8313 73.9556L7.98435 74.0001L8.01565 75.9999L10.8626 75.9553L10.8313 73.9556ZM10.8714 73.9549L10.831 73.9556L10.863 75.9553L10.9034 75.9547L10.8714 73.9549ZM14.2378 73.6669C13.8465 73.8047 13.7 73.85 13.3468 73.8824C12.9231 73.9213 12.2655 73.9326 10.8714 73.9549L10.9034 75.9547C12.2511 75.9331 13.0098 75.9217 13.5295 75.874C14.1196 75.8199 14.4436 75.7148 14.9021 75.5533L14.2378 73.6669ZM17.5292 69.8359C17.1688 71.7535 16.105 72.9959 14.2318 73.669L14.9082 75.5512C17.4369 74.6425 19.001 72.8326 19.4948 70.2053L17.5292 69.8359ZM17.5214 67.1801C17.713 68.1157 17.7146 68.8533 17.5293 69.8352L19.4946 70.2059C19.7255 68.9822 19.7271 67.982 19.4807 66.7788L17.5214 67.1801ZM14.1771 63.3451C16.1022 64.088 17.1534 65.3273 17.5202 67.1742L19.4819 66.7847C18.9726 64.2203 17.4177 62.4519 14.8971 61.4792L14.1771 63.3451ZM10.8994 63.0554C12.2995 63.0893 12.9805 63.1084 13.4052 63.1498C13.757 63.1842 13.8768 63.2258 14.1678 63.3415L14.9064 61.4829C14.4966 61.32 14.1894 61.2169 13.5995 61.1593C13.0826 61.1088 12.3072 61.0889 10.9479 61.056L10.8994 63.0554ZM8.05475 62C8.03751 62.9999 8.03751 62.9999 8.03752 62.9999C8.03753 62.9999 8.03754 62.9999 8.03756 62.9999C8.03759 62.9999 8.03765 62.9999 8.03773 62.9999C8.03788 62.9999 8.03811 62.9999 8.03841 62.9999C8.03903 62.9999 8.03995 62.9999 8.04119 62.9999C8.04365 63 8.04735 63 8.05225 63.0001C8.06205 63.0003 8.07664 63.0005 8.09579 63.0009C8.13409 63.0015 8.19061 63.0025 8.26337 63.0038C8.4089 63.0064 8.61941 63.0103 8.87916 63.0151C9.39871 63.0249 10.1151 63.0388 10.9025 63.0555L10.9448 61.0559C10.1554 61.0392 9.43734 61.0253 8.91664 61.0155C8.65627 61.0106 8.4452 61.0068 8.29919 61.0042C8.22618 61.0029 8.16943 61.0019 8.13091 61.0012C8.11165 61.0008 8.09694 61.0006 8.08704 61.0004C8.08209 61.0003 8.07834 61.0003 8.07582 61.0002C8.07456 61.0002 8.07361 61.0002 8.07297 61.0002C8.07265 61.0002 8.07241 61.0002 8.07225 61.0002C8.07216 61.0002 8.0721 61.0002 8.07206 61.0001C8.07204 61.0001 8.07202 61.0001 8.07201 61.0001C8.072 61.0001 8.07199 61.0001 8.05475 62ZM16.7244 65.966C16.2205 64.8868 15.5151 64.1361 14.4835 63.6473L13.6272 65.4547C14.1943 65.7234 14.5839 66.1089 14.9122 66.8121L16.7244 65.966ZM17.103 68.5167C17.103 67.8426 17.0994 67.3808 17.0503 67.0149C16.9928 66.5865 16.8754 66.2987 16.729 65.9759L14.9076 66.8022C15.024 67.0586 15.0489 67.1385 15.0681 67.281C15.0956 67.4859 15.103 67.7984 15.103 68.5167H17.103ZM16.7 71.1269C16.8517 70.7838 16.9809 70.4826 17.0445 70.0486C17.0998 69.6711 17.103 69.2046 17.103 68.5167H15.103C15.103 69.2547 15.0952 69.5569 15.0656 69.7586C15.0444 69.9039 15.0148 69.9925 14.8709 70.3178L16.7 71.1269ZM14.1345 73.5449C15.2362 73.1868 16.1949 72.2243 16.6938 71.1406L14.8771 70.3042C14.5657 70.9805 13.9914 71.4884 13.5163 71.6428L14.1345 73.5449ZM11.9055 73.827C12.7351 73.7936 13.6356 73.7035 14.1284 73.5468L13.5224 71.6408C13.3144 71.707 12.66 71.795 11.8252 71.8286L11.9055 73.827ZM10.5035 73.8827L11.9051 73.827L11.8256 71.8286L10.424 71.8843L10.5035 73.8827ZM9.44186 68.5217L9.46376 72.8885L11.4637 72.8784L11.4418 68.5117L9.44186 68.5217ZM9.40902 64.1575L9.44187 68.5242L11.4418 68.5092L11.409 64.1424L9.40902 64.1575ZM11.9174 63.195L10.4391 63.1504L10.3789 65.1495L11.8571 65.1941L11.9174 63.195ZM14.4628 63.6378C14.1173 63.4836 13.8195 63.367 13.4001 63.2982C13.027 63.237 12.5728 63.2168 11.9206 63.1951L11.8539 65.194C12.5376 65.2168 12.8553 65.2356 13.0763 65.2718C13.2509 65.3005 13.3692 65.3399 13.6479 65.4642L14.4628 63.6378ZM47.9238 72.4909L47.9253 72.4868L46.0452 71.8046L46.0437 71.8088L47.9238 72.4909ZM46.9368 75.1966C46.9786 75.1002 47.3742 74.007 47.9239 72.4907L46.0436 71.8091C45.7622 72.5853 45.5277 73.2323 45.3603 73.6926C45.1817 74.1838 45.0986 74.4086 45.1016 74.4017L46.9368 75.1966ZM47.2263 74C46.9282 74 46.7112 73.9993 46.5499 73.9956C46.4699 73.9937 46.4108 73.9913 46.3673 73.9885C46.3217 73.9856 46.3065 73.9831 46.3101 73.9837C46.3128 73.9841 46.3267 73.9864 46.3483 73.992C46.3692 73.9975 46.4065 74.0084 46.4532 74.0287C46.5412 74.0669 46.7257 74.1662 46.8616 74.388C47.0055 74.6227 47.0094 74.8533 46.993 74.9856C46.9852 75.0481 46.9724 75.0957 46.9644 75.1221C46.9562 75.149 46.9491 75.1671 46.9473 75.1716L45.0911 74.4267C45.0733 74.4711 45.0269 74.589 45.0082 74.7389C44.9872 74.9081 44.9955 75.1707 45.1564 75.4331C45.3093 75.6826 45.5234 75.8054 45.6571 75.8634C45.7884 75.9204 45.9111 75.9451 45.9893 75.9578C46.2543 76.0008 46.6843 76 47.2263 76V74ZM48.5203 74H47.2263V76H48.5203V74ZM48.0729 73.1965L47.5727 74.6806L49.4679 75.3194L49.9682 73.8353L48.0729 73.1965ZM48.5609 71.7276L48.0716 73.2006L49.9696 73.8312L50.4589 72.3582L48.5609 71.7276ZM51.9567 71.0429H49.5099V73.0429H51.9567V71.0429ZM54.3926 71.0429H51.9567V73.0429H54.3926V71.0429ZM55.8309 73.2006L55.3416 71.7276L53.4436 72.3582L53.9329 73.8312L55.8309 73.2006ZM56.321 74.6869L55.8316 73.2027L53.9322 73.829L54.4215 75.3131L56.321 74.6869ZM56.7197 74H55.3713V76H56.7197V74ZM57.0531 75.1715C57.053 75.1715 57.0172 75.0883 57.0045 74.9652C56.9892 74.8178 57.0046 74.5817 57.1598 74.3515C57.3015 74.1414 57.4828 74.0524 57.561 74.0204C57.6043 74.0028 57.6382 73.9934 57.6563 73.9889C57.675 73.9843 57.6863 73.9826 57.6868 73.9825C57.6878 73.9823 57.6829 73.9831 57.6704 73.9843C57.6581 73.9855 57.6409 73.9869 57.6177 73.9883C57.5705 73.9912 57.5077 73.9937 57.4238 73.9955C57.2548 73.9993 57.0285 74 56.7197 74V76C57.2862 76 57.7243 76.0005 57.9927 75.9589C58.0711 75.9468 58.1904 75.9238 58.3179 75.8717C58.4446 75.8199 58.6578 75.7074 58.8181 75.4696C58.992 75.2117 59.013 74.9436 58.9939 74.7593C58.9773 74.5993 58.9283 74.4743 58.9092 74.4267L57.0531 75.1715ZM56.0146 72.2538C56.3098 73.0882 56.5591 73.7926 56.738 74.2963C56.9045 74.7652 57.0319 75.1236 57.0635 75.1966L58.8988 74.4017C58.9027 74.4109 58.8135 74.1644 58.6227 73.627C58.4442 73.1246 58.1954 72.4214 57.9 71.5866L56.0146 72.2538ZM56.0145 72.2535L56.0152 72.2556L57.8994 71.5848L57.8986 71.5827L56.0145 72.2535ZM54.8529 68.9738C55.2764 70.1678 55.6754 71.2954 56.0138 72.2517L57.8993 71.5845C57.5608 70.6282 57.1616 69.5 56.7378 68.3052L54.8529 68.9738ZM54.4605 67.8675L54.8529 68.9737L56.7378 68.3052L56.3455 67.1989L54.4605 67.8675ZM52.6344 62.7314C52.6337 62.7296 52.6367 62.7376 52.6463 62.7638C52.6548 62.7869 52.6661 62.8182 52.6804 62.8578C52.709 62.937 52.7481 63.046 52.7968 63.1824C52.8942 63.455 53.0292 63.8341 53.1934 64.2962C53.5217 65.2203 53.9664 66.4741 54.4605 67.8674L56.3455 67.199C55.3636 64.4304 54.563 62.1724 54.4978 62.0051L52.6344 62.7314ZM52.517 62.436L52.6367 62.7373L54.4955 61.9992L54.3759 61.6979L52.517 62.436ZM52.0305 63.0332L53.4224 63.0667L53.4705 61.0672L52.0786 61.0338L52.0305 63.0332ZM50.6279 62.9997L52.0307 63.0332L52.0784 61.0338L50.6756 61.0003L50.6279 62.9997ZM49.3197 68.6438L51.5925 62.3391L49.711 61.6609L47.4382 67.9656L49.3197 68.6438ZM47.9254 72.4865C48.318 71.4034 48.801 70.0709 49.3188 68.6463L47.4391 67.9631C46.921 69.3886 46.4377 70.7219 46.0451 71.8049L47.9254 72.4865ZM51.9855 70.8222C52.7189 70.833 53.2134 70.8358 53.5122 70.8042C53.5946 70.7955 53.6962 70.7811 53.8012 70.7528C53.8962 70.7271 54.0706 70.6705 54.2402 70.5341C54.4439 70.3703 54.592 70.1297 54.6304 69.8444C54.6621 69.6082 54.6066 69.4204 54.5824 69.346L52.6803 69.9639C52.6697 69.9313 52.6209 69.7808 52.6482 69.5778C52.6821 69.3257 52.8145 69.1141 52.9868 68.9756C53.125 68.8645 53.2522 68.8294 53.2799 68.8219C53.3176 68.8117 53.3317 68.8122 53.3019 68.8153C53.1521 68.8311 52.8039 68.834 52.0148 68.8224L51.9855 70.8222ZM49.3146 69.6996C49.3146 70.1355 49.578 70.3946 49.6858 70.4834C49.8039 70.5808 49.918 70.6303 49.9688 70.6509C50.0798 70.6959 50.1851 70.718 50.2431 70.7291C50.375 70.7544 50.5318 70.771 50.6894 70.7831C51.0153 70.8081 51.4644 70.8223 52.0002 70.8223V68.8223C51.492 68.8223 51.0983 68.8086 50.8424 68.789C50.7091 68.7788 50.6403 68.7689 50.6193 68.7649C50.6008 68.7613 50.6478 68.7681 50.7197 68.7972C50.7509 68.8099 50.8502 68.8513 50.9584 68.9406C51.0562 69.0212 51.3146 69.272 51.3146 69.6996H49.3146ZM50.1806 66.8195C49.9572 67.496 49.7522 68.1245 49.6025 68.5936C49.5279 68.8275 49.4658 69.0258 49.4218 69.1719C49.4001 69.244 49.3808 69.3099 49.3663 69.3636C49.3592 69.3896 49.3509 69.4213 49.3436 69.4535C49.3401 69.4692 49.3348 69.4935 49.3299 69.5219C49.3274 69.5366 49.3146 69.6088 49.3146 69.6996H51.3146C51.3146 69.7862 51.3025 69.8521 51.3014 69.8584C51.298 69.8785 51.2949 69.8923 51.2941 69.8956C51.2925 69.903 51.2925 69.9018 51.2965 69.8873C51.3039 69.86 51.317 69.8146 51.3369 69.7485C51.3762 69.6181 51.4344 69.432 51.5079 69.2014C51.6546 68.7416 51.8573 68.1203 52.0798 67.4466L50.1806 66.8195ZM51.0055 64.3137C50.9924 64.3538 50.6246 65.4861 50.1814 66.8171L52.079 67.449C52.5244 66.1112 52.894 64.9736 52.9076 64.9317L51.0055 64.3137ZM51.0049 64.3155L51.0048 64.3159L52.9083 64.9295L52.9084 64.9291L51.0049 64.3155ZM54.5866 69.3592C54.4359 68.8723 54.0133 67.5914 53.6325 66.4498C53.4412 65.8763 53.2589 65.3331 53.1241 64.9355C53.0569 64.7371 53.0009 64.573 52.9613 64.459C52.9418 64.4029 52.9249 64.3546 52.9121 64.3194C52.9065 64.3041 52.8979 64.2805 52.8887 64.2576C52.8874 64.2545 52.8722 64.2157 52.8497 64.1713C52.8431 64.1582 52.8292 64.1315 52.8094 64.0992C52.8019 64.0869 52.7444 63.9898 52.6415 63.8931C52.5724 63.8339 52.354 63.7042 52.199 63.6517C51.9327 63.6222 51.4176 63.7797 51.208 63.9591C51.1053 64.0975 50.9966 64.3422 50.9742 64.4356C50.9652 64.4918 50.9573 64.5853 50.9567 64.6223H52.9567C52.956 64.6591 52.9481 64.7525 52.9391 64.8087C52.9167 64.9019 52.8081 65.1465 52.7054 65.2849C52.4959 65.4642 51.9808 65.6217 51.7146 65.5922C51.5597 65.5397 51.3413 65.4101 51.2723 65.351C51.1696 65.2544 51.1124 65.1576 51.105 65.1457C51.0855 65.1138 51.0719 65.0877 51.0656 65.0752C51.0524 65.0491 51.0435 65.0285 51.0407 65.022C51.0367 65.0129 51.0339 65.006 51.0326 65.0027C51.0287 64.9928 51.0278 64.99 51.0324 65.0027C51.04 65.0235 51.053 65.0603 51.0718 65.1147C51.109 65.2216 51.1631 65.3802 51.2299 65.5774C51.3633 65.971 51.5446 66.5109 51.7353 67.0826C52.1184 68.2313 52.5332 69.4891 52.6761 69.9506L54.5866 69.3592ZM58.3338 61.3245C58.1527 61.5072 58.0949 61.7129 58.093 61.7189C58.0749 61.7743 58.0656 61.8195 58.0617 61.8392C58.0533 61.882 58.0493 61.917 58.0479 61.9303C58.0444 61.9621 58.0426 61.9912 58.0416 62.0079C58.0394 62.0458 58.0377 62.0914 58.0362 62.1385C58.0333 62.2356 58.0305 62.372 58.0279 62.5405C58.0226 62.8788 58.0178 63.3625 58.0136 63.9543C58.0053 65.1386 57.9998 66.7639 57.9998 68.5421H59.9998C59.9998 66.7675 60.0053 65.147 60.0136 63.9683C60.0177 63.3786 60.0225 62.9015 60.0277 62.5715C60.0302 62.4058 60.0328 62.2813 60.0353 62.1995C60.0366 62.1572 60.0376 62.1339 60.0382 62.1245C60.0386 62.1177 60.0381 62.1286 60.036 62.1477C60.0353 62.1546 60.032 62.1847 60.0243 62.224C60.0208 62.242 60.0118 62.2857 59.9941 62.3401C59.9925 62.345 59.935 62.55 59.7543 62.7324L58.3338 61.3245ZM66.1505 61.2817C66.0123 61.2352 65.8596 61.2193 65.8168 61.2144C65.7333 61.2047 65.6333 61.1959 65.5248 61.1876C65.3061 61.1709 65.02 61.1542 64.6945 61.1381C64.0417 61.1057 63.206 61.0744 62.3804 61.0498C61.555 61.0253 60.7333 61.0073 60.1087 61.0018C59.798 60.999 59.5277 60.9993 59.3278 61.0039C59.2302 61.0061 59.1346 61.0097 59.0545 61.016C59.0173 61.0189 58.961 61.0241 58.901 61.0345C58.8728 61.0393 58.8184 61.0496 58.7542 61.0697C58.7379 61.0748 58.5226 61.1339 58.3338 61.3245L59.7543 62.7323C59.5686 62.9198 59.3595 62.9759 59.3523 62.9782C59.2972 62.9954 59.2549 63.0029 59.2417 63.0052C59.2116 63.0104 59.1967 63.011 59.2116 63.0098C59.2357 63.0079 59.2872 63.0053 59.3736 63.0034C59.5416 62.9995 59.7869 62.999 60.0911 63.0017C60.6967 63.007 61.5034 63.0246 62.3209 63.0489C63.1383 63.0733 63.96 63.1041 64.5955 63.1356C64.9141 63.1514 65.1799 63.1671 65.3727 63.1818C65.47 63.1892 65.5407 63.1958 65.5868 63.2011C65.6737 63.2112 65.6095 63.2099 65.5129 63.1774L66.1505 61.2817ZM69.6663 66.1792C69.6729 65.0367 69.3828 63.9974 68.7624 63.1355C68.1432 62.2754 67.2468 61.6636 66.1607 61.2852L65.5027 63.1739C66.2768 63.4435 66.8032 63.8372 67.1392 64.3039C67.4738 64.7688 67.6709 65.3775 67.6664 66.1678L69.6663 66.1792ZM67.2495 70.5548C68.8465 69.6628 69.6663 68.107 69.6663 66.1735H67.6663C67.6663 67.4801 67.1575 68.3153 66.2742 68.8087L67.2495 70.5548ZM63.5214 71.2956C64.5493 71.2574 65.2237 71.2259 65.7544 71.1272C66.3482 71.0167 66.7488 70.826 67.2379 70.5611L66.2857 68.8024C65.8668 69.0292 65.6806 69.1066 65.3886 69.1609C65.0334 69.227 64.523 69.257 63.4471 69.297L63.5214 71.2956ZM61.5248 71.3627L63.5179 71.2957L63.4506 69.2968L61.4575 69.3639L61.5248 71.3627ZM62.4911 72.6872V70.3633H60.4911V72.6872H62.4911ZM62.4911 75V72.6872H60.4911V75H62.4911ZM60.251 76H61.4911V74H60.251V76ZM58.9998 76H60.251V74H58.9998V76ZM57.9998 68.5421V75H59.9998V68.5421H57.9998ZM64.6951 65.2663C64.737 65.2849 64.8241 65.3357 64.9225 65.4126C64.9679 65.4481 65.0062 65.4818 65.0347 65.5096C65.066 65.5401 65.0718 65.5503 65.0628 65.5377L66.6892 64.3737C66.5385 64.1631 66.3311 63.9751 66.154 63.8368C65.9701 63.693 65.7416 63.5427 65.5067 63.4384L64.6951 65.2663ZM62.4285 64.5331C62.3022 64.8731 62.0399 65.007 61.9987 65.0282C61.9574 65.0495 61.9254 65.0612 61.9096 65.0666C61.8928 65.0723 61.8828 65.0747 61.8821 65.0748C61.8819 65.0749 61.8979 65.0712 61.9351 65.0664C61.9707 65.0617 62.0172 65.057 62.0751 65.053C62.3141 65.0363 62.6588 65.0359 63.0418 65.0538C63.4212 65.0715 63.8112 65.1058 64.136 65.1515C64.2986 65.1743 64.4351 65.1987 64.5406 65.2227C64.6575 65.2492 64.6942 65.266 64.6817 65.2602L65.5201 63.4445C65.2077 63.3002 64.7713 63.2211 64.4145 63.1709C64.0169 63.115 63.5639 63.076 63.135 63.056C62.7096 63.0361 62.2806 63.0337 61.9356 63.0578C61.7689 63.0695 61.5826 63.0898 61.414 63.1304C61.333 63.1499 61.2104 63.1846 61.0832 63.2501C60.9888 63.2986 60.6926 63.4629 60.5538 63.8364L62.4285 64.5331ZM62.4579 66.331C62.4524 65.7887 62.4524 65.2777 62.4578 64.8958C62.4605 64.7036 62.4645 64.5514 62.4693 64.4467C62.4718 64.393 62.474 64.3624 62.4753 64.3493C62.4759 64.342 62.4753 64.351 62.4723 64.3695C62.4708 64.3789 62.4674 64.3992 62.461 64.4259C62.4561 64.4464 62.4419 64.5043 62.4116 64.5757L60.5707 63.7938C60.517 63.9202 60.5005 64.0347 60.498 64.0502C60.4912 64.0922 60.487 64.1314 60.4842 64.1606C60.4785 64.2206 60.4745 64.2881 60.4714 64.3547C60.4652 64.4906 60.4608 64.6673 60.458 64.8676C60.4523 65.2705 60.4524 65.7986 60.458 66.3512L62.4579 66.331ZM62.491 68.3357L62.4578 66.3246L60.4581 66.3576L60.4913 68.3687L62.491 68.3357ZM63.0967 67.3522H61.4911V69.3522H63.0967V67.3522ZM64.6969 67.2026C64.5272 67.2987 64.5063 67.304 64.4032 67.318C64.2073 67.3445 63.876 67.3522 63.0967 67.3522V69.3522C63.8233 69.3522 64.3114 69.3487 64.6719 69.2999C65.1252 69.2384 65.3978 69.1041 65.6821 68.9431L64.6969 67.2026ZM65.1417 66.2517C65.1417 66.7774 65.0932 66.8968 65.0779 66.9261C65.0767 66.9285 65.0691 66.946 65.0213 66.9872C64.9645 67.0362 64.8679 67.1043 64.6913 67.2058L65.6877 68.94C66.1207 68.6911 66.574 68.3824 66.8512 67.851C67.1127 67.3496 67.1417 66.7875 67.1417 66.2517H65.1417ZM65.0635 65.5387C65.1042 65.5954 65.1132 65.6143 65.1138 65.6156C65.114 65.6158 65.1138 65.6155 65.1134 65.6146C65.1131 65.6138 65.1129 65.6131 65.1128 65.6128C65.1125 65.6119 65.1138 65.6156 65.116 65.6264C65.121 65.6512 65.1288 65.7037 65.1342 65.8107C65.1396 65.9177 65.1417 66.0569 65.1417 66.2517H67.1417C67.1417 65.8709 67.1367 65.5277 67.0761 65.2291C67.0018 64.8624 66.8563 64.6066 66.6884 64.3726L65.0635 65.5387ZM71.0002 75V68.5H69.0002V75H71.0002ZM71.1669 74H70.0002V76H71.1669V74ZM72.3336 74H71.1669V76H72.3336V74ZM71.3336 68.5V75H73.3336V68.5H71.3336ZM71.3336 62V68.5H73.3336V62H71.3336ZM71.1669 63H72.3336V61H71.1669V63ZM70.0002 63H71.1669V61H70.0002V63ZM71.0002 68.5V62H69.0002V68.5H71.0002ZM22.4995 64.607C20.9067 65.1526 19.6159 66.7104 19.1775 68.4178L21.1146 68.9153C21.4133 67.7521 22.2906 66.7927 23.1476 66.4991L22.4995 64.607ZM24.6386 64.344C24.1816 64.327 23.8142 64.327 23.4706 64.3685C23.1106 64.4119 22.8135 64.4963 22.4911 64.61L23.1561 66.4962C23.3973 66.4111 23.5447 66.3741 23.7104 66.3541C23.8926 66.3321 24.1322 66.3265 24.5641 66.3426L24.6386 64.344ZM26.7905 64.7842C26.4672 64.6289 26.1734 64.5087 25.8028 64.4373C25.4601 64.3713 25.0874 64.3546 24.625 64.3436L24.5777 66.343C25.0476 66.3542 25.2657 66.3706 25.4243 66.4012C25.555 66.4263 25.6732 66.4663 25.9244 66.587L26.7905 64.7842ZM29.6664 69.9693C29.6664 67.6487 28.7158 65.6859 26.7816 64.78L25.9333 66.5912C26.9693 67.0764 27.6664 68.1829 27.6664 69.9693H29.6664ZM29.6664 70.8416V69.9693H27.6664V70.8416H29.6664ZM25.5014 71.8084L28.6559 71.8415L28.6769 69.8416L25.5224 69.8085L25.5014 71.8084ZM22.347 71.7753L25.5014 71.8084L25.5224 69.8085L22.3679 69.7754L22.347 71.7753ZM23.4038 71.081L23.3496 70.6504L21.3653 70.9002L21.4195 71.3308L23.4038 71.081ZM23.9277 72.0154C23.7442 71.9162 23.469 71.5673 23.4028 71.0732L21.4205 71.3386C21.5495 72.3018 22.0981 73.2999 22.9769 73.7749L23.9277 72.0154ZM25.3899 71.7795C25.2851 71.9165 25.0677 72.0594 24.7542 72.1174C24.4441 72.1748 24.1403 72.1289 23.9234 72.013L22.9812 73.7772C23.6532 74.1361 24.4279 74.2117 25.1179 74.0841C25.8043 73.9571 26.5084 73.6088 26.9782 72.995L25.3899 71.7795ZM25.6481 71.4398L25.3879 71.7821L26.9801 72.9924L27.2403 72.6501L25.6481 71.4398ZM27.5911 71.1733L26.5613 71.0519L26.3271 73.0381L27.3569 73.1596L27.5911 71.1733ZM28.9901 71.4299C28.9055 71.3868 28.8321 71.3655 28.8234 71.3629C28.7985 71.3553 28.7779 71.3501 28.7664 71.3472C28.7424 71.3413 28.7208 71.3368 28.7069 71.334C28.6772 71.3279 28.644 71.3219 28.6117 71.3163C28.5453 71.3047 28.4581 71.2908 28.3573 71.2756C28.155 71.2451 27.884 71.2077 27.5907 71.1733L27.3573 73.1596C27.6276 73.1914 27.877 73.2258 28.0595 73.2533C28.1511 73.2671 28.2224 73.2786 28.2692 73.2867C28.2935 73.291 28.3055 73.2933 28.3082 73.2938C28.3105 73.2943 28.3019 73.2926 28.2876 73.2891C28.281 73.2875 28.2643 73.2833 28.2426 73.2767C28.2369 73.275 28.1658 73.2545 28.0825 73.2121L28.9901 71.4299ZM29.337 73.1171C29.3823 73.0018 29.4305 72.8738 29.4656 72.7627C29.4816 72.7118 29.5054 72.6322 29.5211 72.5459C29.5283 72.5067 29.5421 72.4231 29.5404 72.3202C29.5395 72.2682 29.5344 72.1791 29.5066 72.0732C29.4803 71.9727 29.4159 71.7895 29.2499 71.6204L27.8228 73.0216C27.6595 72.8553 27.5971 72.6761 27.5722 72.581C27.5457 72.4803 27.5414 72.3977 27.5406 72.3533C27.5392 72.2659 27.5508 72.2022 27.5536 72.1872C27.5605 72.1492 27.5666 72.1344 27.5583 72.1608C27.5446 72.2043 27.5169 72.2805 27.4754 72.386L29.337 73.1171ZM27.169 75.4202C27.6094 75.196 28.067 74.7958 28.4199 74.4243C28.767 74.0588 29.1457 73.5814 29.3307 73.1328L27.4818 72.3704C27.4391 72.4738 27.2649 72.7362 26.9698 73.0469C26.6804 73.3516 26.4064 73.5642 26.2614 73.638L27.169 75.4202ZM22.3024 75.6172C23.0691 75.9118 23.9478 76.0266 24.7791 75.9949C25.6071 75.9632 26.4634 75.7831 27.1725 75.4184L26.2578 73.6398C25.8721 73.8382 25.3192 73.9728 24.7027 73.9963C24.0896 74.0198 23.4886 73.9304 23.0196 73.7502L22.3024 75.6172ZM19.1791 71.9243C19.6039 73.5371 20.8146 75.0544 22.3071 75.619L23.0148 73.7484C22.231 73.4519 21.4037 72.5181 21.1131 71.4149L19.1791 71.9243ZM19.1801 68.4079C19.0489 68.8977 18.9997 69.5686 18.9997 70.1681C18.9997 70.7675 19.0489 71.4384 19.1801 71.9283L21.112 71.4109C21.0481 71.1721 20.9997 70.7058 20.9997 70.1681C20.9997 69.6304 21.0481 69.164 21.112 68.9252L19.1801 68.4079ZM24.8894 68.1678C24.8887 68.1675 24.9004 68.1742 24.9226 68.1913C24.9437 68.2076 24.9678 68.228 24.9919 68.2508C25.0161 68.2736 25.036 68.2947 25.0501 68.311C25.0658 68.3293 25.0658 68.3317 25.0565 68.3171L26.7478 67.2496C26.5589 66.9503 26.2079 66.6159 25.8743 66.4272L24.8894 68.1678ZM23.9377 68.1287C23.9493 68.1241 24.0061 68.1063 24.1152 68.0939C24.218 68.0823 24.3385 68.0786 24.4614 68.085C24.5852 68.0914 24.6944 68.1071 24.7769 68.1265C24.8708 68.1486 24.8805 68.1639 24.8427 68.1397L25.921 66.4553C25.5068 66.1902 24.9581 66.1081 24.5651 66.0877C24.1502 66.0662 23.6312 66.1 23.2054 66.2676L23.9377 68.1287ZM23.4184 69.0486C23.5214 68.4593 23.8167 68.1797 23.9583 68.1203L23.1848 66.276C22.2207 66.6803 21.6271 67.6814 21.4483 68.7041L23.4184 69.0486ZM23.3406 69.4675L23.4165 69.059L21.4501 68.6937L21.3743 69.1022L23.3406 69.4675ZM24.2978 68.2848H22.3574V70.2848H24.2978V68.2848ZM25.5897 68.518C25.7466 68.3581 25.9159 68.2971 25.9387 68.2883C25.9935 68.2673 26.0371 68.2564 26.055 68.2521C26.0766 68.247 26.0929 68.244 26.1007 68.2426C26.1093 68.2411 26.1148 68.2404 26.1163 68.2402C26.1174 68.24 26.0996 68.2422 26.0538 68.2456C25.9671 68.252 25.8329 68.2587 25.6566 68.2647C25.307 68.2767 24.8254 68.2848 24.2978 68.2848V70.2848C24.8434 70.2848 25.3482 70.2764 25.725 70.2635C25.9118 70.2572 26.0757 70.2494 26.2004 70.2402C26.2603 70.2358 26.3265 70.23 26.3872 70.2217C26.415 70.2179 26.464 70.2107 26.5193 70.1975C26.5458 70.1911 26.5965 70.1782 26.6566 70.1551C26.6849 70.1442 26.8578 70.0811 27.0168 69.9192L25.5897 68.518ZM25.0611 68.3243C25.0539 68.313 25.0597 68.3204 25.0766 68.3567C25.092 68.3897 25.1109 68.4341 25.1321 68.4892C25.1747 68.6 25.2181 68.7315 25.254 68.8591C25.2912 68.991 25.3132 69.0932 25.3216 69.1494C25.3265 69.1822 25.3216 69.1659 25.3228 69.1196C25.3233 69.0977 25.3258 69.0319 25.3479 68.945C25.3595 68.8996 25.3803 68.8324 25.4192 68.7557C25.4579 68.6793 25.5236 68.5755 25.6321 68.4773L26.9744 69.9599C27.1927 69.7623 27.2627 69.5304 27.2863 69.4378C27.3147 69.326 27.3207 69.2289 27.3222 69.1698C27.3252 69.0491 27.3118 68.9356 27.2998 68.8547C27.2743 68.6836 27.2286 68.4925 27.179 68.3167C27.0897 67.9996 26.933 67.5373 26.7432 67.2423L25.0611 68.3243ZM30.7184 70.948C30.4227 68.7695 31.4029 67.0969 32.9671 66.5073L32.2616 64.6359C29.6572 65.6176 28.3413 68.3052 28.7366 71.2171L30.7184 70.948ZM31.821 73.1355C31.1974 72.5425 30.8441 71.8663 30.7183 70.9469L28.7368 71.2182C28.923 72.5785 29.4838 73.6729 30.4428 74.5849L31.821 73.1355ZM34.342 74C33.5924 74 33.1586 73.9375 32.8311 73.8204C32.5208 73.7095 32.2304 73.5226 31.819 73.1336L30.4449 74.5868C30.9698 75.0831 31.493 75.466 32.158 75.7037C32.8058 75.9353 33.5089 76 34.342 76V74ZM36.7052 73.2714C36.368 73.5745 36.0989 73.7353 35.7937 73.8351C35.469 73.9413 35.0378 74 34.342 74V76C35.1286 76 35.8009 75.937 36.4153 75.7361C37.0491 75.5288 37.5547 75.1971 38.0423 74.7588L36.7052 73.2714ZM37.869 73.1424C37.5743 72.903 37.5227 72.591 37.5143 72.4616C37.5056 72.3275 37.5293 72.2303 37.5362 72.2033C37.5517 72.142 37.5663 72.1216 37.5456 72.1634C37.5114 72.2322 37.4392 72.3541 37.3326 72.5102C37.1111 72.8343 36.855 73.1403 36.7154 73.2624L38.0321 74.7678C38.3606 74.4805 38.7287 74.0119 38.9837 73.6387C39.1153 73.4462 39.2445 73.2389 39.3367 73.0532C39.3792 72.9678 39.4383 72.8388 39.4749 72.6945C39.4923 72.626 39.5206 72.4937 39.5101 72.3317C39.4999 72.1745 39.44 71.8419 39.13 71.5901L37.869 73.1424ZM37.2934 73.2048C37.5798 73.2376 37.8411 73.2698 38.029 73.2959C38.1248 73.3092 38.1909 73.3195 38.2285 73.3262C38.2503 73.3302 38.2451 73.3298 38.2257 73.3249C38.2196 73.3233 38.1809 73.3136 38.1299 73.2938C38.1064 73.2847 38.0496 73.2618 37.9822 73.2214C37.9477 73.2006 37.8931 73.1651 37.8332 73.1117C37.7773 73.0618 37.6817 72.9656 37.6064 72.816L39.3926 71.9164C39.2579 71.649 39.0446 71.5264 39.0118 71.5067C38.9419 71.4647 38.8816 71.4402 38.8536 71.4293C38.7938 71.4061 38.7426 71.3927 38.7205 71.387C38.6694 71.374 38.6186 71.3643 38.5828 71.3578C38.5051 71.3439 38.4074 71.3292 38.304 71.3149C38.0934 71.2856 37.8142 71.2514 37.521 71.2178L37.2934 73.2048ZM36.2444 73.0952L37.3032 73.2059L37.5111 71.2167L36.4522 71.1061L36.2444 73.0952ZM36.8595 73.0601L37.127 72.7281L35.5696 71.4732L35.3021 71.8052L36.8595 73.0601ZM32.8257 73.8199C33.5081 74.1709 34.2868 74.2472 34.9836 74.1225C35.6756 73.9986 36.3836 73.6574 36.8629 73.0558L35.2987 71.8095C35.1873 71.9493 34.959 72.0951 34.6311 72.1538C34.308 72.2116 33.9833 72.1662 33.7405 72.0414L32.8257 73.8199ZM31.5875 72.5394C31.7223 72.8072 31.8777 73.0711 32.0995 73.3038C32.3312 73.5469 32.5856 73.7044 32.8488 73.8314L33.7175 72.0299C33.5906 71.9687 33.5607 71.9381 33.5472 71.9239C33.5238 71.8993 33.4729 71.8368 33.3737 71.6398L31.5875 72.5394ZM31.1685 71.149C31.1685 71.4094 31.2453 71.6872 31.3074 71.8766C31.3793 72.0961 31.4796 72.3392 31.5997 72.5628L33.3616 71.6164C33.3033 71.508 33.2476 71.3749 33.208 71.254C33.1886 71.1947 33.1763 71.1482 33.1697 71.1178C33.1611 71.078 33.1685 71.0946 33.1685 71.149H31.1685ZM31.1685 70.8059V71.149H33.1685V70.8059H31.1685ZM35.4334 69.8392L32.1787 69.806L32.1583 71.8059L35.413 71.8391L35.4334 69.8392ZM38.6769 69.8724L35.4334 69.8392L35.4129 71.8391L38.6565 71.8722L38.6769 69.8724ZM37.6017 69.8494L37.6686 70.9339L39.6648 70.8108L39.5979 69.7263L37.6017 69.8494ZM35.4681 66.4688C36.639 66.7934 37.4736 67.8041 37.6018 69.8503L39.5979 69.7253C39.4363 67.1458 38.2645 65.1686 36.0024 64.5415L35.4681 66.4688ZM32.9648 66.5082C33.2017 66.4196 33.631 66.346 34.1464 66.3348C34.6541 66.3237 35.1368 66.3754 35.4639 66.4677L36.0066 64.5427C35.4309 64.3804 34.7377 64.3214 34.1029 64.3353C33.4759 64.3489 32.7961 64.4359 32.264 64.635L32.9648 66.5082ZM37.1249 68.7064C37.0554 68.2541 36.8959 67.8139 36.6811 67.4387C36.4735 67.0762 36.1703 66.6985 35.7643 66.4589L34.7476 68.1812C34.7443 68.1792 34.7678 68.1931 34.8098 68.2398C34.8504 68.2851 34.8979 68.3493 34.9455 68.4325C35.0427 68.6023 35.1173 68.8095 35.1481 69.0101L37.1249 68.7064ZM37.2001 69.1425L37.1221 68.6888L35.151 69.0277L35.229 69.4814L37.2001 69.1425ZM34.186 70.312H36.2146V68.312H34.186V70.312ZM33.8924 70.3121C33.9859 70.3121 34.0836 70.312 34.186 70.312V68.312C34.0825 68.312 33.984 68.3121 33.8906 68.3121L33.8924 70.3121ZM31.3002 69.6051C31.487 69.95 31.7887 70.1071 31.9931 70.179C32.1878 70.2474 32.3896 70.273 32.5497 70.2866C32.8729 70.314 33.3305 70.3127 33.8924 70.3121L33.8906 68.3121C33.2826 68.3127 32.9343 68.3121 32.719 68.2938C32.6097 68.2845 32.6092 68.2756 32.6562 68.2921C32.7131 68.3121 32.9219 68.4 33.0587 68.6524L31.3002 69.6051ZM31.3487 68.2053C31.3044 68.3276 31.2359 68.5118 31.1972 68.6807C31.163 68.8302 31.0881 69.2136 31.3002 69.6051L33.0587 68.6524C33.1362 68.7955 33.1542 68.9278 33.1559 69.01C33.1567 69.05 33.1539 69.0804 33.1516 69.0982C33.1493 69.1161 33.1469 69.1265 33.1468 69.1271C33.1466 69.1279 33.1477 69.1231 33.1512 69.1111C33.1548 69.0991 33.1599 69.0829 33.1672 69.0611C33.1826 69.0151 33.202 68.9613 33.2294 68.8857L31.3487 68.2053ZM31.3935 68.0806C31.3784 68.1232 31.3636 68.1639 31.3487 68.2053L33.2294 68.8857C33.2441 68.8449 33.2607 68.7992 33.2779 68.7506L31.3935 68.0806ZM32.7127 66.4516C32.4049 66.6364 32.1289 66.8504 31.8953 67.1432C31.6655 67.4313 31.5177 67.7448 31.3978 68.0686L33.2736 68.7626C33.3544 68.5442 33.4127 68.4482 33.4588 68.3905C33.5011 68.3375 33.5706 68.2693 33.7421 68.1664L32.7127 66.4516ZM35.785 66.4714C35.3151 66.1785 34.7058 66.0962 34.2411 66.0946C33.778 66.0929 33.1703 66.1703 32.7038 66.457L33.751 68.1609C33.7343 68.1712 33.7671 68.1491 33.8752 68.127C33.9743 68.1067 34.0991 68.0941 34.234 68.0946C34.3688 68.095 34.4941 68.1085 34.5942 68.1298C34.7027 68.153 34.7389 68.1761 34.727 68.1687L35.785 66.4714ZM43.5075 64.5312C43.043 64.6971 42.6201 65.0463 42.317 65.3694C42.0108 65.6957 41.6917 66.1396 41.5474 66.6137L43.4607 67.1961C43.4811 67.129 43.5792 66.9471 43.7756 66.7378C43.8645 66.6431 43.9556 66.5623 44.0373 66.5021C44.0777 66.4724 44.1119 66.4505 44.1389 66.4353C44.1664 66.4198 44.1803 66.4147 44.1801 66.4148L43.5075 64.5312ZM45.0041 64.3396C44.5314 64.3102 43.8924 64.3874 43.4941 64.5362L44.1936 66.4098C44.1918 66.4105 44.1983 66.408 44.2147 66.4034C44.2305 66.399 44.2519 66.3937 44.2786 66.3878C44.3327 66.3761 44.3996 66.3645 44.474 66.355C44.629 66.3353 44.7778 66.3294 44.8799 66.3358L45.0041 64.3396ZM45.6351 64.3608L44.9762 64.3383L44.9078 66.3371L45.5667 66.3597L45.6351 64.3608ZM46.6334 66.4585L46.6005 65.331L44.6014 65.3895L44.6343 66.5169L46.6334 66.4585ZM46.6664 67.586L46.6334 66.4585L44.6343 66.5169L44.6672 67.6444L46.6664 67.586ZM44.7334 68.6152H45.6668V66.6152H44.7334V68.6152ZM44.0199 68.7353C44.2096 68.5784 44.1833 68.622 44.1313 68.6355C44.1292 68.636 44.1592 68.628 44.2648 68.6224C44.3713 68.6168 44.5147 68.6152 44.7334 68.6152V66.6152C44.3426 66.6152 43.9601 66.6139 43.6305 66.6992C43.2188 66.8056 42.9509 67.024 42.7453 67.1941L44.0199 68.7353ZM43.5898 69.3045C43.6308 69.2202 43.7074 69.0965 43.8024 68.9721C43.848 68.9124 43.892 68.8603 43.9306 68.8189C43.9496 68.7984 43.9657 68.7823 43.9784 68.7704C43.9847 68.7645 43.9897 68.76 43.9933 68.7569C43.997 68.7537 43.9988 68.7523 43.9987 68.7523L42.7665 67.177C42.3882 67.4729 41.9944 68.0125 41.7917 68.4288L43.5898 69.3045ZM43.3831 72.216C43.3999 70.8342 43.4111 70.188 43.4462 69.8121C43.4622 69.64 43.4801 69.5668 43.4922 69.5274C43.5055 69.4838 43.5238 69.44 43.5898 69.3045L41.7917 68.4288C41.7259 68.5639 41.6439 68.7328 41.58 68.9412C41.5149 69.1537 41.4786 69.3716 41.4548 69.6265C41.4102 70.1046 41.3995 70.8565 41.3833 72.1918L43.3831 72.216ZM43.3502 75.0118L43.3832 72.2157L41.3833 72.1921L41.3503 74.9882L43.3502 75.0118ZM41.1752 76H42.3503V74H41.1752V76ZM40.0001 76H41.1752V74H40.0001V76ZM39.0001 70.2647V75H41.0001V70.2647H39.0001ZM39.0001 65.5294V70.2647H41.0001V65.5294H39.0001ZM41.1862 64.5294H40.0001V66.5294H41.1862V64.5294ZM42.3613 64.5294H41.1862V66.5294H42.3613V64.5294ZM43.3722 66.3849L43.3612 65.5167L41.3613 65.542L41.3723 66.4102L43.3722 66.3849ZM41.5529 66.5961C41.5153 66.7119 41.5239 66.6667 41.5646 66.5935C41.5773 66.5707 41.625 66.4853 41.7146 66.3943C41.7808 66.327 42.065 66.0579 42.5229 66.1067C42.9939 66.1569 43.216 66.4945 43.2702 66.5866C43.3384 66.7026 43.3639 66.8025 43.3705 66.8285C43.3923 66.9149 43.3866 66.9567 43.3813 66.8187C43.3775 66.7218 43.3749 66.5822 43.3721 66.3836L41.3723 66.4114C41.3751 66.6074 41.3779 66.7708 41.3828 66.8959C41.386 66.9799 41.3919 67.1626 41.4317 67.3195C41.4427 67.363 41.473 67.4762 41.5466 67.6012C41.6061 67.7022 41.8338 68.0446 42.311 68.0954C42.7751 68.1449 43.066 67.8724 43.1394 67.7978C43.2363 67.6995 43.2917 67.6029 43.3127 67.5651C43.3867 67.432 43.4379 67.2669 43.4551 67.2137L41.5529 66.5961Z" fill="black" mask="url(#path-1-inside-1_369_4099)"/>
<path d="M39.9999 52.9861C38.9176 53.0983 36.5532 52.5821 35.7539 49.6195C34.7549 45.9162 34.5051 45.2429 34.1721 44.6537C34.0988 44.5242 33.9893 44.3701 33.8587 44.1863C33.3952 43.5344 32.6652 42.5076 32.3405 40.8663C32.1417 39.8614 32.0758 39.1253 32.0249 38.557C31.9693 37.9355 31.9317 37.5148 31.7577 37.1631C31.4853 36.6122 30.7671 36.4557 30.3781 36.3709C30.2915 36.352 30.2213 36.3367 30.1758 36.3214C30.1446 36.3109 30.0666 36.2912 29.9509 36.2619C29.1405 36.0571 26.4815 35.3851 25.0973 34.1331C24.2198 33.3395 22.5928 31.5338 22.3499 28.8307C22.2667 27.9049 26.6999 28.8307 27.8447 29.2516C28.7606 29.5882 31.5079 31.2715 31.7577 31.4398C32.0075 31.6082 32.2295 31.3557 32.0907 30.9349C32.0075 30.6824 30.5089 28.4941 29.5098 27.6524C29.166 27.3628 28.6527 26.9956 28.0577 26.57C26.4113 25.3922 24.1389 23.7667 23.0992 22.0975C22.0779 20.4579 19.769 16.4585 20.0188 12.5027C20.2685 8.54696 22.683 4.17038 24.015 4.00205C24.4937 3.94157 24.1555 5.22841 23.8654 6.33221C23.7519 6.76445 23.6457 7.16861 23.5988 7.45282C23.4182 8.54696 22.8495 13.3444 23.8485 15.7851C24.6478 17.7378 25.8466 19.3481 26.3462 19.9092C26.3739 18.7029 26.6792 15.8525 27.6783 14.1019C28.9271 11.9136 29.6764 11.4927 30.0094 11.6611C30.3424 11.8294 29.9769 13.6688 29.843 14.1019C29.4268 15.4485 29.3434 16.5426 29.2601 17.9734C29.1768 19.4042 30.2592 27.9049 40 29.6724C49.7408 27.9049 50.8232 19.4042 50.7399 17.9734C50.6566 16.5426 50.5732 15.4485 50.157 14.1019C50.0231 13.6688 49.6576 11.8294 49.9906 11.6611C50.3236 11.4927 51.0729 11.9136 52.3217 14.1019C53.3208 15.8525 53.6261 18.7029 53.6538 19.9092C54.1534 19.3481 55.3522 17.7378 56.1515 15.7851C57.1505 13.3444 56.5818 8.54696 56.4012 7.45282C56.3543 7.16861 56.2481 6.76444 56.1346 6.33221C55.8445 5.22841 55.5063 3.94157 55.985 4.00205C57.317 4.17038 59.7315 8.54696 59.9812 12.5027C60.231 16.4585 57.9221 20.4579 56.9008 22.0975C55.8611 23.7667 53.5887 25.3922 51.9423 26.57L51.9421 26.5701C51.3472 26.9957 50.8339 27.3628 50.4902 27.6524C49.4911 28.4941 47.9925 30.6824 47.9093 30.9349C47.7705 31.3557 47.9925 31.6082 48.2423 31.4398C48.4921 31.2715 51.2394 29.5882 52.1553 29.2516C53.3001 28.8307 57.7333 27.9049 57.6501 28.8307C57.4072 31.5338 55.7802 33.3395 54.9027 34.1331C53.5185 35.3851 50.8595 36.0571 50.0491 36.2619C49.9334 36.2912 49.8554 36.3109 49.8242 36.3214C49.7787 36.3367 49.7085 36.352 49.6219 36.3709C49.2329 36.4557 48.5147 36.6122 48.2423 37.1631C48.0683 37.5148 48.0307 37.9355 47.9751 38.557C47.9242 39.1253 47.8583 39.8614 47.6595 40.8663C47.3348 42.5076 46.6048 43.5344 46.1413 44.1863C46.0107 44.3701 45.9012 44.5242 45.8279 44.6537C45.4949 45.2429 45.2451 45.9162 44.2461 49.6195C43.4468 52.5821 41.0823 53.0983 39.9999 52.9861Z" fill="#237EF3"/>
</svg>
