<svg width="180" height="50" viewBox="0 0 180 50" fill="none" xmlns="http://www.w3.org/2000/svg">
<path d="M67.135 18.103V18.565H71.81V18.103H67.135ZM67.135 16.86V17.311H71.81V16.86H67.135ZM65.87 16.013H73.13V19.412H65.87V16.013ZM64.572 19.808H74.406V20.864H64.572V19.808ZM69.61 21.271H73.207V22.283H69.61V21.271ZM66.255 21.304H68.763V22.217H66.255V21.304ZM66.255 22.679H68.763V23.592H66.255V22.679ZM70.963 22.184C71.579 23.526 72.877 24.538 74.648 24.956C74.373 25.187 74.032 25.671 73.867 25.979C71.964 25.429 70.655 24.197 69.907 22.481L70.963 22.184ZM72.822 21.271H73.053L73.273 21.227L74.087 21.535C73.438 23.834 71.887 25.242 69.929 25.979C69.786 25.671 69.456 25.198 69.214 24.956C70.919 24.417 72.338 23.152 72.822 21.458V21.271ZM64.473 24.285C65.573 24.219 67.19 24.098 68.73 23.966V25.033C67.256 25.176 65.716 25.319 64.561 25.418L64.473 24.285ZM68.081 20.149H69.346V25.99H68.081V20.149ZM65.43 20.182H66.64V24.67H65.43V20.182ZM79.972 16.211H84.438V17.432H79.972V16.211ZM79.598 20.039H85.67V21.282H79.598V20.039ZM81.919 18.752H83.25V24.527C83.25 25.187 83.118 25.539 82.689 25.748C82.249 25.946 81.644 25.99 80.83 25.979C80.764 25.616 80.544 25.044 80.368 24.692C80.929 24.714 81.501 24.725 81.688 24.714C81.864 24.703 81.919 24.659 81.919 24.505V18.752ZM83.965 16.211H84.284L84.559 16.145L85.417 16.794C84.768 17.751 83.833 18.917 82.975 19.643C82.799 19.412 82.436 19.049 82.227 18.873C82.876 18.246 83.635 17.157 83.965 16.497V16.211ZM75.407 17.85H78.96V19.071H75.407V17.85ZM76.881 15.661L78.124 15.793C77.706 18.136 77.068 21.084 76.551 23.064L75.473 22.492C75.946 20.754 76.54 17.85 76.881 15.661ZM76.045 22.305L76.771 21.381C77.915 22.096 79.367 23.163 80.005 23.988L79.213 25.055C78.597 24.219 77.2 23.064 76.045 22.305ZM78.509 17.85H78.718L78.949 17.817L79.73 17.949C79.477 22.239 78.41 24.67 76.232 26.023C76.056 25.704 75.704 25.231 75.44 24.978C77.31 23.999 78.289 21.568 78.509 18.092V17.85ZM87.573 17.443H90.95V24.857H87.573V23.691H89.751V18.598H87.573V17.443ZM86.803 17.443H88.002V25.671H86.803V17.443ZM87.518 20.38H90.334V21.524H87.518V20.38ZM88.365 15.65L89.806 15.859C89.553 16.607 89.278 17.388 89.058 17.905L88.002 17.674C88.156 17.102 88.31 16.255 88.365 15.65ZM92.402 17.366H95.614V18.565H92.402V17.366ZM95.163 17.366H96.384C96.384 17.366 96.384 17.795 96.373 17.96C96.23 22.91 96.098 24.659 95.647 25.242C95.339 25.671 95.031 25.792 94.58 25.858C94.162 25.924 93.491 25.913 92.853 25.88C92.831 25.517 92.655 24.956 92.413 24.604C93.128 24.659 93.788 24.67 94.063 24.67C94.283 24.67 94.404 24.626 94.547 24.472C94.899 24.098 95.042 22.206 95.163 17.619V17.366ZM92.435 15.661L93.7 15.958C93.271 17.586 92.556 19.258 91.808 20.314C91.566 20.094 91.027 19.72 90.719 19.544C91.456 18.62 92.083 17.124 92.435 15.661ZM91.896 20.534L92.93 19.951C93.469 20.71 94.195 21.766 94.536 22.415L93.414 23.097C93.117 22.426 92.424 21.348 91.896 20.534ZM154.974 15.826L155.733 16.86C154.072 17.245 151.729 17.454 149.76 17.498C149.727 17.201 149.584 16.739 149.452 16.464C151.388 16.365 153.599 16.156 154.974 15.826ZM151.377 19.775L152.389 20.71C151.674 21.04 150.816 21.348 150.123 21.546C150.057 21.304 149.87 20.886 149.738 20.633C150.31 20.402 150.97 20.061 151.377 19.775ZM149.298 18.147H155.975V19.302H149.298V18.147ZM151.982 16.662H153.203V24.989H151.982V16.662ZM149.452 20.094L150.651 20.468V25.968H149.452V20.094ZM153.5 20.171H155.755V25.946H154.556V21.282H153.5V20.171ZM150.222 22.173H151.63V23.273H150.222V22.173ZM153.61 22.173H155.359V23.273H153.61V22.173ZM150.035 24.318H155.194V25.451H150.035V24.318ZM145.646 21.194C146.526 20.996 147.835 20.644 149.078 20.292L149.254 21.48C148.121 21.832 146.911 22.184 145.943 22.459L145.646 21.194ZM145.822 17.751H149.188V18.961H145.822V17.751ZM146.988 15.672H148.198V24.593C148.198 25.209 148.088 25.55 147.747 25.748C147.417 25.957 146.944 26.001 146.229 26.001C146.196 25.671 146.042 25.132 145.888 24.769C146.284 24.791 146.669 24.791 146.801 24.78C146.933 24.78 146.988 24.747 146.988 24.593V15.672ZM162.883 15.804H164.214V25.979H162.883V15.804ZM161.013 16.266L162.278 16.53C161.97 18.015 161.442 19.555 160.859 20.523C160.595 20.325 160.023 20.028 159.704 19.885C160.298 19.016 160.76 17.619 161.013 16.266ZM161.431 17.795H166.524V19.082H161.112L161.431 17.795ZM159.902 20.985H167.052V22.283H159.902V20.985ZM159.088 15.705L160.331 16.09C159.627 17.96 158.505 19.94 157.328 21.205C157.207 20.886 156.844 20.16 156.624 19.841C157.603 18.84 158.538 17.278 159.088 15.705ZM157.999 18.741L159.253 17.487V17.498V25.979H157.999V18.741ZM64.715 29.167H74.318V31.851H72.932V30.388H66.024V31.851H64.715V29.167ZM67.608 31.334H72.382V32.467H67.608V31.334ZM67.333 33.402H71.623V34.557H67.333V33.402ZM64.539 35.426H74.483V36.636H64.539V35.426ZM71.271 33.402H72.591C72.591 33.402 72.569 33.776 72.547 33.952C72.316 36.823 72.052 38.022 71.59 38.484C71.271 38.825 70.941 38.935 70.446 38.979C70.039 39.012 69.335 39.012 68.631 38.979C68.609 38.605 68.422 38.077 68.18 37.736C68.906 37.802 69.654 37.802 69.951 37.802C70.193 37.802 70.336 37.78 70.49 37.67C70.831 37.384 71.073 36.185 71.26 33.6L71.271 33.402ZM67.146 30.333L68.466 30.454C68.213 31.928 67.85 33.754 67.575 34.876L66.233 34.777C66.552 33.622 66.926 31.774 67.146 30.333ZM108.834 29.123H110.264C110.198 31.642 110.033 36.306 107.36 38.924C107.052 38.528 106.601 38.143 106.128 37.868C108.779 35.558 108.779 31.235 108.834 29.123ZM104.742 33.842L105.611 32.742C106.425 33.567 107.283 34.667 107.679 35.404L106.722 36.636C106.348 35.877 105.501 34.689 104.742 33.842ZM110.066 30.41C110.319 32.907 110.891 36.163 112.882 37.626C112.574 37.912 112.057 38.561 111.837 38.979C109.758 37.175 109.175 33.655 108.9 31.015L110.066 30.41ZM104.709 29.068L106.183 29.112C105.996 33.402 105.49 36.889 103.73 39.001C103.499 38.781 102.773 38.286 102.421 38.077C104.159 36.284 104.599 33.006 104.709 29.068ZM113.74 33.028H123.596V34.337H113.74V33.028ZM114.565 30.311H122.793V31.62H114.565V30.311ZM117.931 28.661H119.328V38.99H117.931V28.661ZM117.7 33.787L118.844 34.26C117.788 36.009 116.072 37.604 114.334 38.506C114.114 38.176 113.674 37.648 113.366 37.373C115.06 36.636 116.798 35.206 117.7 33.787ZM119.57 33.798C120.461 35.217 122.199 36.647 123.882 37.373C123.574 37.637 123.134 38.176 122.914 38.528C121.209 37.626 119.526 35.998 118.47 34.26L119.57 33.798ZM130.636 36.625H133.716V37.868H130.636V36.625ZM129.91 29.794H134.42V38.517H133.111V31.037H131.164V38.693H129.91V29.794ZM124.564 30.839H128.513V32.104H124.564V30.839ZM126.225 28.65L127.501 28.793C127.028 31.147 126.346 34.117 125.785 36.086L124.674 35.558C125.191 33.798 125.84 30.872 126.225 28.65ZM125.136 35.184L125.818 34.216C127.16 34.986 128.854 36.152 129.613 37.054L128.854 38.187C128.128 37.263 126.478 36.009 125.136 35.184ZM128.128 30.839H128.348L128.579 30.817L129.393 30.96C129.096 35.404 127.875 37.736 125.411 38.99C125.235 38.66 124.894 38.165 124.63 37.901C126.764 36.999 127.886 34.711 128.128 31.092V30.839ZM138.919 31.928H141.042V33.193H138.919V31.928ZM138.413 28.661H139.777V37.428L138.413 37.582V28.661ZM136.323 30.949H137.61V37.714L136.323 37.89V30.949ZM135.509 37.538C136.917 37.34 139.04 36.977 140.976 36.636L141.075 37.934C139.205 38.297 137.181 38.649 135.729 38.935L135.509 37.538ZM144.606 31.037L145.662 32.126C144.683 32.808 143.44 33.446 142.351 33.941C142.263 33.644 142.032 33.182 141.856 32.907C142.857 32.401 143.924 31.653 144.606 31.037ZM141.438 28.661H142.813V36.779C142.813 37.384 142.857 37.472 143.209 37.472C143.374 37.472 144.045 37.472 144.21 37.472C144.573 37.472 144.628 37.098 144.683 35.657C145.013 35.899 145.552 36.141 145.926 36.229C145.794 38.055 145.453 38.759 144.342 38.759C144.089 38.759 143.231 38.759 142.989 38.759C141.779 38.759 141.438 38.308 141.438 36.757V28.661Z" fill="#61CA8A"/>
<path d="M100.241 17H102.327L104.53 22.375H104.624L106.827 17H108.913V25H107.272V19.793H107.206L105.136 24.9609H104.019L101.948 19.7734H101.882V25H100.241V17ZM111.303 27.25C111.092 27.25 110.894 27.2331 110.709 27.1992C110.527 27.168 110.376 27.1276 110.256 27.0781L110.631 25.8359C110.826 25.8958 111.002 25.9284 111.158 25.9336C111.317 25.9388 111.454 25.9023 111.568 25.8242C111.686 25.7461 111.781 25.6133 111.854 25.4258L111.951 25.1719L109.799 19H111.549L112.791 23.4062H112.854L114.107 19H115.869L113.537 25.6484C113.425 25.9714 113.273 26.2526 113.08 26.4922C112.89 26.7344 112.649 26.9206 112.357 27.0508C112.066 27.1836 111.714 27.25 111.303 27.25ZM116.752 25V17H118.416V20.0078H118.467C118.54 19.8464 118.645 19.6823 118.783 19.5156C118.924 19.3464 119.106 19.2057 119.33 19.0938C119.557 18.9792 119.838 18.9219 120.174 18.9219C120.611 18.9219 121.015 19.0365 121.385 19.2656C121.755 19.4922 122.05 19.8346 122.271 20.293C122.493 20.7487 122.604 21.3203 122.604 22.0078C122.604 22.6771 122.495 23.2422 122.279 23.7031C122.066 24.1615 121.774 24.5091 121.404 24.7461C121.037 24.9805 120.626 25.0977 120.17 25.0977C119.847 25.0977 119.572 25.0443 119.346 24.9375C119.122 24.8307 118.938 24.6966 118.795 24.5352C118.652 24.3711 118.542 24.2057 118.467 24.0391H118.393V25H116.752ZM118.381 22C118.381 22.3568 118.43 22.668 118.529 22.9336C118.628 23.1992 118.771 23.4062 118.959 23.5547C119.146 23.7005 119.374 23.7734 119.643 23.7734C119.913 23.7734 120.143 23.6992 120.33 23.5508C120.518 23.3997 120.66 23.1914 120.756 22.9258C120.855 22.6576 120.904 22.349 120.904 22C120.904 21.6536 120.856 21.349 120.76 21.0859C120.663 20.8229 120.521 20.6172 120.334 20.4687C120.146 20.3203 119.916 20.2461 119.643 20.2461C119.372 20.2461 119.143 20.3177 118.955 20.4609C118.77 20.6042 118.628 20.8073 118.529 21.0703C118.43 21.3333 118.381 21.6432 118.381 22ZM125.425 25.1133C125.042 25.1133 124.701 25.0469 124.401 24.9141C124.102 24.7786 123.865 24.5794 123.69 24.3164C123.519 24.0508 123.433 23.7201 123.433 23.3242C123.433 22.9909 123.494 22.7109 123.616 22.4844C123.739 22.2578 123.905 22.0755 124.116 21.9375C124.327 21.7995 124.567 21.6953 124.835 21.625C125.106 21.5547 125.39 21.5052 125.687 21.4766C126.035 21.4401 126.317 21.4062 126.53 21.375C126.744 21.3411 126.899 21.2917 126.995 21.2266C127.091 21.1615 127.14 21.0651 127.14 20.9375V20.9141C127.14 20.6667 127.062 20.4753 126.905 20.3398C126.752 20.2044 126.533 20.1367 126.249 20.1367C125.95 20.1367 125.711 20.2031 125.534 20.3359C125.357 20.4661 125.24 20.6302 125.183 20.8281L123.644 20.7031C123.722 20.3385 123.875 20.0234 124.104 19.7578C124.334 19.4896 124.629 19.2839 124.991 19.1406C125.356 18.9948 125.778 18.9219 126.257 18.9219C126.59 18.9219 126.909 18.9609 127.214 19.0391C127.521 19.1172 127.793 19.2383 128.03 19.4023C128.27 19.5664 128.459 19.7773 128.597 20.0352C128.735 20.2904 128.804 20.5964 128.804 20.9531V25H127.226V24.168H127.179C127.082 24.3555 126.953 24.5208 126.792 24.6641C126.631 24.8047 126.437 24.9154 126.21 24.9961C125.983 25.0742 125.722 25.1133 125.425 25.1133ZM125.901 23.9648C126.146 23.9648 126.362 23.9167 126.55 23.8203C126.737 23.7214 126.884 23.5885 126.991 23.4219C127.098 23.2552 127.151 23.0664 127.151 22.8555V22.2188C127.099 22.2526 127.028 22.2839 126.937 22.3125C126.848 22.3385 126.748 22.3633 126.636 22.3867C126.524 22.4076 126.412 22.4271 126.3 22.4453C126.188 22.4609 126.086 22.4753 125.995 22.4883C125.8 22.5169 125.629 22.5625 125.483 22.625C125.338 22.6875 125.224 22.7721 125.144 22.8789C125.063 22.9831 125.022 23.1133 125.022 23.2695C125.022 23.4961 125.104 23.6693 125.269 23.7891C125.435 23.9062 125.646 23.9648 125.901 23.9648ZM133.286 19V20.25H129.673V19H133.286ZM130.493 17.5625H132.157V23.1562C132.157 23.3099 132.181 23.4297 132.228 23.5156C132.274 23.599 132.34 23.6576 132.423 23.6914C132.509 23.7253 132.608 23.7422 132.72 23.7422C132.798 23.7422 132.876 23.7357 132.954 23.7227C133.032 23.707 133.092 23.6953 133.134 23.6875L133.396 24.9258C133.312 24.9518 133.195 24.9818 133.044 25.0156C132.893 25.0521 132.709 25.0742 132.493 25.082C132.092 25.0977 131.741 25.0443 131.438 24.9219C131.139 24.7995 130.906 24.6094 130.739 24.3516C130.573 24.0937 130.491 23.7682 130.493 23.375V17.5625ZM134.37 25V19H136.034V25H134.37ZM135.206 18.2266C134.959 18.2266 134.746 18.1445 134.569 17.9805C134.395 17.8138 134.308 17.6146 134.308 17.3828C134.308 17.1536 134.395 16.957 134.569 16.793C134.746 16.6263 134.959 16.543 135.206 16.543C135.453 16.543 135.664 16.6263 135.839 16.793C136.016 16.957 136.104 17.1536 136.104 17.3828C136.104 17.6146 136.016 17.8138 135.839 17.9805C135.664 18.1445 135.453 18.2266 135.206 18.2266ZM142.359 20.7109L140.836 20.8047C140.81 20.6745 140.754 20.5573 140.668 20.4531C140.582 20.3464 140.469 20.2617 140.328 20.1992C140.19 20.1341 140.025 20.1016 139.832 20.1016C139.574 20.1016 139.357 20.1562 139.18 20.2656C139.003 20.3724 138.914 20.5156 138.914 20.6953C138.914 20.8385 138.971 20.9596 139.086 21.0586C139.201 21.1576 139.397 21.237 139.676 21.2969L140.762 21.5156C141.345 21.6354 141.78 21.8281 142.066 22.0937C142.353 22.3594 142.496 22.7083 142.496 23.1406C142.496 23.5339 142.38 23.8789 142.148 24.1758C141.919 24.4727 141.604 24.7044 141.203 24.8711C140.805 25.0352 140.345 25.1172 139.824 25.1172C139.03 25.1172 138.397 24.9518 137.926 24.6211C137.457 24.2878 137.182 23.8346 137.102 23.2617L138.738 23.1758C138.788 23.418 138.908 23.6029 139.098 23.7305C139.288 23.8555 139.531 23.918 139.828 23.918C140.12 23.918 140.354 23.862 140.531 23.75C140.711 23.6354 140.802 23.4883 140.805 23.3086C140.802 23.1576 140.738 23.0339 140.613 22.9375C140.488 22.8385 140.296 22.763 140.035 22.7109L138.996 22.5039C138.41 22.3867 137.974 22.1836 137.688 21.8945C137.404 21.6055 137.262 21.237 137.262 20.7891C137.262 20.4036 137.366 20.0716 137.574 19.793C137.785 19.5143 138.081 19.2995 138.461 19.1484C138.844 18.9974 139.292 18.9219 139.805 18.9219C140.563 18.9219 141.159 19.082 141.594 19.4023C142.031 19.7227 142.286 20.1589 142.359 20.7109Z" fill="#FE810A"/>
<path d="M82.5811 32.3008C82.5498 31.9857 82.4157 31.7409 82.1787 31.5664C81.9417 31.3919 81.6201 31.3047 81.2139 31.3047C80.9378 31.3047 80.7048 31.3437 80.5146 31.4219C80.3245 31.4974 80.1787 31.6029 80.0771 31.7383C79.9782 31.8737 79.9287 32.0273 79.9287 32.1992C79.9235 32.3424 79.9535 32.4674 80.0186 32.5742C80.0863 32.681 80.1787 32.7734 80.2959 32.8516C80.4131 32.9271 80.5485 32.9935 80.7021 33.0508C80.8558 33.1055 81.0199 33.1523 81.1943 33.1914L81.9131 33.3633C82.262 33.4414 82.5824 33.5456 82.874 33.6758C83.1657 33.806 83.4183 33.9661 83.6318 34.1562C83.8454 34.3464 84.0107 34.5703 84.1279 34.8281C84.2477 35.0859 84.3089 35.3815 84.3115 35.7148C84.3089 36.2044 84.1839 36.6289 83.9365 36.9883C83.6917 37.3451 83.3376 37.6224 82.874 37.8203C82.4131 38.0156 81.8571 38.1133 81.2061 38.1133C80.5602 38.1133 79.9977 38.0143 79.5186 37.8164C79.042 37.6185 78.6696 37.3255 78.4014 36.9375C78.1357 36.5469 77.9964 36.0638 77.9834 35.4883H79.6201C79.6383 35.7565 79.7152 35.9805 79.8506 36.1602C79.9886 36.3372 80.1722 36.4714 80.4014 36.5625C80.6331 36.651 80.8949 36.6953 81.1865 36.6953C81.473 36.6953 81.7217 36.6536 81.9326 36.5703C82.1462 36.487 82.3115 36.3711 82.4287 36.2227C82.5459 36.0742 82.6045 35.9036 82.6045 35.7109C82.6045 35.5312 82.5511 35.3802 82.4443 35.2578C82.3402 35.1354 82.1865 35.0312 81.9834 34.9453C81.7829 34.8594 81.5368 34.7812 81.2451 34.7109L80.374 34.4922C79.6995 34.3281 79.167 34.0716 78.7764 33.7227C78.3857 33.3737 78.1917 32.9036 78.1943 32.3125C78.1917 31.8281 78.3206 31.4049 78.5811 31.043C78.8441 30.681 79.2048 30.3984 79.6631 30.1953C80.1214 29.9922 80.6423 29.8906 81.2256 29.8906C81.8193 29.8906 82.3376 29.9922 82.7803 30.1953C83.2256 30.3984 83.5719 30.681 83.8193 31.043C84.0667 31.4049 84.1943 31.8242 84.2021 32.3008H82.5811ZM88.4688 35.2188H89.9063L90.6289 36.1484L91.3398 36.9766L92.6797 38.6563H91.1016L90.1797 37.5234L89.707 36.8516L88.4688 35.2188ZM92.8008 34C92.8008 34.8724 92.6354 35.6146 92.3047 36.2266C91.9766 36.8385 91.5286 37.306 90.9609 37.6289C90.3958 37.9492 89.7604 38.1094 89.0547 38.1094C88.3438 38.1094 87.7057 37.9479 87.1406 37.625C86.5755 37.3021 86.1289 36.8346 85.8008 36.2227C85.4727 35.6107 85.3086 34.8698 85.3086 34C85.3086 33.1276 85.4727 32.3854 85.8008 31.7734C86.1289 31.1615 86.5755 30.6953 87.1406 30.375C87.7057 30.0521 88.3438 29.8906 89.0547 29.8906C89.7604 29.8906 90.3958 30.0521 90.9609 30.375C91.5286 30.6953 91.9766 31.1615 92.3047 31.7734C92.6354 32.3854 92.8008 33.1276 92.8008 34ZM91.0859 34C91.0859 33.4349 91.0013 32.9583 90.832 32.5703C90.6654 32.1823 90.4297 31.888 90.125 31.6875C89.8203 31.487 89.4635 31.3867 89.0547 31.3867C88.6458 31.3867 88.2891 31.487 87.9844 31.6875C87.6797 31.888 87.4427 32.1823 87.2734 32.5703C87.1068 32.9583 87.0234 33.4349 87.0234 34C87.0234 34.5651 87.1068 35.0417 87.2734 35.4297C87.4427 35.8177 87.6797 36.112 87.9844 36.3125C88.2891 36.513 88.6458 36.6133 89.0547 36.6133C89.4635 36.6133 89.8203 36.513 90.125 36.3125C90.4297 36.112 90.6654 35.8177 90.832 35.4297C91.0013 35.0417 91.0859 34.5651 91.0859 34ZM94.0537 38V30H95.7451V36.6055H99.1748V38H94.0537ZM146.597 29.849H150.832V31.081H146.597V29.849ZM148.665 31.664H149.875V38.935H148.665V31.664ZM146.443 35.976C147.543 35.833 149.193 35.58 150.788 35.338L150.854 36.482C149.402 36.757 147.884 37.032 146.707 37.241L146.443 35.976ZM146.938 34.59C146.872 34.359 146.685 33.787 146.542 33.468C146.773 33.402 146.927 33.094 147.125 32.61C147.312 32.148 147.873 30.3 148.082 28.65L149.347 28.892C148.995 30.685 148.335 32.599 147.741 33.908V33.941C147.741 33.941 146.938 34.359 146.938 34.59ZM146.938 34.59V33.545L147.51 33.237H150.733V34.425H147.796C147.444 34.425 147.037 34.491 146.938 34.59ZM151.228 29.2H155.298V30.399H151.228V29.2ZM154.913 29.2H155.166L155.408 29.145L156.332 29.607C155.43 31.807 153.494 33.292 151.371 34.128C151.206 33.809 150.843 33.292 150.568 33.028C152.449 32.39 154.242 31.015 154.913 29.431V29.2ZM150.667 37.516H156.728V38.737H150.667V37.516ZM153.12 35.085H154.44V37.901H153.12V35.085ZM151.228 34.293H156.255V35.492H151.228V34.293ZM152.889 32.434L153.626 31.521C154.594 31.95 156.002 32.621 156.695 33.094L155.892 34.139C155.254 33.655 153.879 32.907 152.889 32.434ZM163.724 32.94L165.253 33.292C164.725 34.865 164.032 36.713 163.46 37.89L162.316 37.549C162.866 36.295 163.438 34.37 163.724 32.94ZM161.326 37.285C162.712 37.219 164.879 37.098 166.903 36.977V38.187C165.011 38.352 162.998 38.517 161.546 38.616L161.326 37.285ZM165.11 35.47L166.254 34.92C166.914 36.009 167.651 37.439 167.948 38.374L166.694 39.012C166.452 38.077 165.748 36.592 165.11 35.47ZM162.877 28.914L164.252 29.189C163.845 30.971 163.152 32.753 162.338 33.864C162.107 33.633 161.535 33.182 161.216 32.984C161.986 32.027 162.569 30.476 162.877 28.914ZM166.221 28.87C166.584 30.223 167.277 31.763 167.948 32.687C167.618 32.929 167.123 33.413 166.881 33.765C166.133 32.643 165.451 30.861 165.022 29.244L166.221 28.87ZM157.63 30.927H161.568V32.159H157.63V30.927ZM159.093 28.661H160.336V38.99H159.093V28.661ZM159.049 31.774L159.808 32.049C159.478 33.809 158.796 35.943 157.971 37.076C157.85 36.713 157.553 36.174 157.355 35.855C158.103 34.898 158.763 33.182 159.049 31.774ZM160.292 32.698C160.567 33.006 161.568 34.392 161.777 34.711L161.04 35.723C160.754 35.052 160.039 33.82 159.698 33.27L160.292 32.698Z" fill="#FD810A"/>
<path d="M25.3549 5.43663C24.5302 5.92178 24.5059 6.38267 25.2336 7.45C25.7673 8.25049 25.8643 8.27475 28.096 8.54158C29.3817 8.68712 30.546 8.88118 30.6916 8.97821C30.8614 9.07524 30.9826 9.58465 30.9826 10.1183V11.0886L30.449 10.4579C29.3089 9.14801 26.398 9.02673 23.099 10.1426C20.9158 10.8703 20.7945 10.8945 20.2124 10.4822C19.8728 10.2639 19.3148 9.53613 18.9752 8.88118C18.6356 8.20197 18.2718 7.66831 18.1747 7.66831C18.0777 7.66831 17.7381 7.88663 17.3985 8.15346L16.7921 8.61435L17.5198 10.0213C17.9322 10.7975 18.5386 11.5738 18.9025 11.7921C19.6059 12.1802 20.2366 12.0589 22.4926 11.1614C24.1178 10.5064 27.5866 10.5549 28.5084 11.2341C28.8722 11.501 29.1876 11.9376 29.2361 12.1802C29.4787 13.5871 29.8668 14.5574 30.643 15.6733C31.1282 16.3525 31.4678 16.9589 31.4193 17.0074C31.3222 17.1044 25.0396 15.3822 23.1718 14.7272L21.7648 14.2421V15.3094C21.7648 15.8916 21.9832 17.0559 22.25 17.9049C22.5168 18.7297 22.7351 19.5059 22.7351 19.5787C22.7351 19.7485 22.3955 19.7 18.4173 19.1663C16.7678 18.948 15.3851 18.8267 15.3124 18.8995C15.2639 18.948 15.4337 19.7 15.7005 20.549C16.3069 22.5623 17.8109 24.8425 19.8728 26.9044C20.7945 27.8019 21.5223 28.6024 21.5223 28.651C21.5223 28.7237 20.649 29.4272 19.5817 30.2034C17.253 31.95 14.6574 33.4054 11.9891 34.4727C10.8975 34.9094 10 35.4188 10 35.5886C10 36.0737 13.7599 39.2029 15.8945 40.4886C24.3361 45.6069 34.4757 46.4316 41.7772 42.6475C42.9901 42.0168 44.1301 41.1193 45.7796 39.4455C49.2727 35.9524 51.4801 31.8529 52.79 26.5163L53.4692 23.8237L54.5366 23.5326C55.6039 23.2658 55.6039 23.2658 54.9489 22.999C54.0514 22.6351 53.9301 22.2955 54.6336 22.1257C54.9489 22.0529 55.5311 21.8589 55.895 21.7133C56.5499 21.4465 56.5499 21.4465 55.0945 20.9856L53.6148 20.5247L53.3237 19.0935C52.693 15.8916 50.2188 12.7138 47.3321 11.3797C43.3539 9.56039 38.3569 10.3851 34.9123 13.3931C34.2331 13.9752 33.6267 14.4604 33.5539 14.4604C33.2386 14.4604 32.6807 11.7921 32.6807 10.2153C32.6807 7.91089 32.4138 7.66831 29.6485 7.40148C28.4841 7.28019 27.4411 7.13465 27.3198 7.03762C27.1985 6.96485 26.8831 6.4797 26.6163 5.94604C26.3495 5.43663 26.1069 5 26.0584 5C26.0341 5 25.7188 5.19406 25.3549 5.43663ZM49.0059 17.5411L49.7821 17.9534L49.0301 18.099C48.0113 18.3173 47.7202 18.5356 47.4534 19.2391C47.1866 19.9183 47.696 21.0826 48.4237 21.495C49.1272 21.8589 50.1945 21.7861 50.8494 21.3495C51.3346 21.0099 51.3831 20.7916 51.2861 20.0153C51.2133 19.4817 51.2618 19.1178 51.3831 19.2148C51.5044 19.2876 51.6014 19.7242 51.6014 20.1851C51.6014 21.398 50.7282 22.2227 49.394 22.2227C46.8227 22.2227 44.9549 19.8698 46.1678 18.1475C46.8712 17.1287 47.8415 16.9346 49.0059 17.5411ZM50.5826 18.8025C50.9707 19.045 50.898 19.8213 50.4856 19.9668C50.3158 20.0153 50.0247 19.8698 49.8064 19.6515C49.491 19.3604 49.4668 19.1906 49.6851 18.9237C50.0004 18.5356 50.146 18.5114 50.5826 18.8025Z" fill="black"/>
</svg>
