<svg xmlns="http://www.w3.org/2000/svg" version="1.1" viewBox="0 0 180 40">
    <defs>
        <linearGradient spreadMethod="pad" y2="1" x2="1" y1="0.07111" x1="0.07422" id="svg_24">
            <stop offset="0" stop-opacity="0.99609" stop-color="#419ffc"/>
            <stop offset="1" stop-opacity="0.99609" stop-color="#56ff56"/>
        </linearGradient>
        <linearGradient y2="0.98909" x2="0.96484" y1="0" x1="0" id="svg_15">
            <stop offset="0" stop-opacity="0.99219" stop-color="#419ffc"/>
            <stop stop-opacity="0.99219" offset="1" stop-color="#56ff56"/>
        </linearGradient>
    </defs>
    <text font-weight="bold" transform="matrix(1.04705 0 0 1.16801 0.395262 -7.37761)" xml:space="preserve"
          text-anchor="start" font-family="Noto Sans JP" font-size="13" stroke-width="0" id="svg_7" y="19.56091"
          x="51.58629" fill="url(#svg_15)">Smart Input Pro</text>
    <text font-style="normal" font-weight="bold" transform="matrix(1.22983 0 0 1.17556 -16.8369 -12.3948)"
          xml:space="preserve" text-anchor="start" font-family="'Alegreya'" font-size="13" stroke-width="0" id="svg_8"
          y="39.48633" x="57.24812" fill="#000000">自动切换输入法</text>
    <ellipse ry="16.87498" rx="17.31857" id="svg_2" cy="20.12501" cx="28.31849" fill="url(#svg_24)"/>
    <ellipse id="svg_3" cy="25.50433" cx="31.25907" fill="#56aaff"/>
    <path id="svg_1" fill="#ffffff"
          d="m24.28158,29.10443l0,-1.9194l2.95,0l0,-13.43583l-2.95,0l0,-1.9194l7.86667,0l0,1.9194l-2.95,0l0,13.43583l2.95,0l0,1.9194l-7.86667,0zm9.8825,-13.38784l4.8675,4.75052l-4.8675,4.75052l-1.39043,-1.35702l3.47707,-3.39351l-3.47707,-3.39351l1.39043,-1.35702l0,0.00002zm-11.89834,0l1.39043,1.35702l-3.47707,3.39351l3.47707,3.39351l-1.39043,1.35702l-4.8675,-4.75052l4.8675,-4.75052l0,-0.00002z"/>
</svg>