<svg xmlns="http://www.w3.org/2000/svg" viewBox="0 0 171 95">
    <g fill="#7a7b82">
        <path d="M164.35,86.92a4.28,4.28,0,0,1-3.22-1.43c0-.09,0-.18.05-.22l7.5-3.17,2.19-.94c.09,0,.09-.09.09-.13a6.75,6.75,0,1,0-.32,4.1.11.11,0,0,0-.09-.17l-2.18-.41c-.05,0-.14,0-.14.09a4.55,4.55,0,0,1-3.88,2.28Zm0-8.66a4.23,4.23,0,0,1,3.21,1.47c.05.09.05.18,0,.23l-7.32,3.12A.13.13,0,0,1,160,83v-.36a4.28,4.28,0,0,1,4.33-4.37Z"/>
        <path d="M157.29,76h-2.14a.21.21,0,0,0-.13.09l-3.49,10.22a.23.23,0,0,1-.44,0l-3.48-10.22c0-.05-.05-.09-.14-.09h-2.14c-.09,0-.14.09-.14.18l4.42,12.85s0,.09.14.09h3c.05,0,.09,0,.14-.09l4.42-12.85c.09-.09,0-.18-.05-.18Z"/>
        <path d="M143.18,76H141c-.09,0-.14,0-.14.13V89c0,.09,0,.13.14.13h2.18c.09,0,.14,0,.14-.13V76.16a.15.15,0,0,0-.14-.13Z"/>
        <path d="M143.18,71.83H141c-.09,0-.14,0-.14.13v2.19a.13.13,0,0,0,.14.14h2.18a.13.13,0,0,0,.14-.14V72c0-.09,0-.13-.14-.13Z"/>
        <path d="M138.68,76h-2.46a.11.11,0,0,1-.09-.09V70.36c0-.09,0-.14-.13-.14h-2.19c-.09,0-.13,0-.13.14v5.58a.11.11,0,0,1-.09.09h-2.42a.12.12,0,0,0-.13.13v2.19a.12.12,0,0,0,.13.13h2.42a.11.11,0,0,1,.09.09V89c0,.09,0,.13.13.13H136c.09,0,.13,0,.13-.13V78.57a.11.11,0,0,1,.09-.09h2.46a.12.12,0,0,0,.13-.13V76.16a.21.21,0,0,0-.13-.13Z"/>
        <path d="M124.34,86.92a4.37,4.37,0,0,1-4.28-5.18,4.61,4.61,0,0,1,3.3-3.39,4.31,4.31,0,0,1,4.2,1.34.15.15,0,0,0,.18,0l1.56-1.57a.14.14,0,0,0,0-.17A6.73,6.73,0,0,0,124,75.76a6.89,6.89,0,0,0-6.48,6.43A6.8,6.8,0,0,0,129.3,87.1a.1.1,0,0,0,0-.14l-1.56-1.56a.15.15,0,0,0-.18,0,4,4,0,0,1-3.22,1.52Z"/>
        <path d="M109.74,86.92a4.25,4.25,0,0,1-3.21-1.43c0-.09,0-.18,0-.22l7.51-3.17,2.18-.94c.09,0,.09-.09.09-.13a6.73,6.73,0,1,0-.31,4.1c0-.09,0-.17-.09-.17l-2.19-.41s-.13,0-.13.09a4.62,4.62,0,0,1-3.89,2.28Zm0-8.66A4.23,4.23,0,0,1,113,79.73c0,.09,0,.18,0,.23l-7.32,3.12a.13.13,0,0,1-.18-.09v-.36a4.29,4.29,0,0,1,4.33-4.37Z"/>
        <path d="M101.13,70.22H98.94c-.09,0-.13,0-.13.14V89c0,.09,0,.13.13.13h2.19c.09,0,.13,0,.13-.13V70.36a.15.15,0,0,0-.13-.14Z"/>
        <path d="M96.35,70.22H94.16c-.09,0-.13,0-.13.14V89c0,.09,0,.13.13.13h2.19c.09,0,.13,0,.13-.13V70.36c0-.09-.09-.14-.13-.14Z"/>
        <path d="M85.64,78.26a4.33,4.33,0,1,1-4.34,4.33,4.33,4.33,0,0,1,4.34-4.33Zm0-2.46a6.79,6.79,0,1,0,6.78,6.79,6.78,6.78,0,0,0-6.78-6.79Z"/>
        <path d="M73.18,86.92a4.37,4.37,0,0,1-4.29-5.18,4.63,4.63,0,0,1,3.31-3.39,4.3,4.3,0,0,1,4.19,1.34.15.15,0,0,0,.18,0l1.56-1.57a.12.12,0,0,0,0-.17,6.73,6.73,0,0,0-5.31-2.19,6.88,6.88,0,0,0-6.47,6.43A6.79,6.79,0,0,0,78.13,87.1a.08.08,0,0,0,0-.14L76.57,85.4a.15.15,0,0,0-.18,0,4,4,0,0,1-3.21,1.52Z"/>
        <path d="M51,75.8a5.17,5.17,0,0,0-3.84,2,.13.13,0,0,1-.22,0V76.16a.15.15,0,0,0-.14-.13H44.6a.14.14,0,0,0-.13.13v12.9a.15.15,0,0,0,.13.14h2.19a.15.15,0,0,0,.14-.14V82.63a3.94,3.94,0,0,1,4-4.19c3.13,0,4.07,2,4.07,4.46v6.16a.14.14,0,0,0,.13.14h2.19a.15.15,0,0,0,.13-.14V82.9c0-3.75-1.74-7.1-6.47-7.1Z"/>
        <path d="M36.57,86.92a4.28,4.28,0,0,1-3.22-1.43c0-.09,0-.18,0-.22l7.5-3.17,2.19-.94c.09,0,.09-.09.09-.13a6.75,6.75,0,1,0-.32,4.1.11.11,0,0,0-.09-.17l-2.18-.41c-.05,0-.14,0-.14.09A4.55,4.55,0,0,1,36.57,86.92Zm0-8.66a4.23,4.23,0,0,1,3.21,1.47c0,.09,0,.18,0,.23l-7.32,3.12a.13.13,0,0,1-.18-.09v-.36A4.34,4.34,0,0,1,36.57,78.26Z"/>
        <path d="M21.75,75.67a5.16,5.16,0,0,0-4,1.83.12.12,0,0,1-.22-.09V76.16c0-.09-.05-.13-.14-.13H15.23c-.09,0-.14,0-.14.13V94.87c0,.09.05.13.14.13h2.14c.09,0,.13,0,.13-.13V87.5a.13.13,0,0,1,.23-.09,5.15,5.15,0,0,0,4.1,1.83,6.79,6.79,0,1,0-.08-13.57Zm.84,11.07a4.33,4.33,0,1,1,3.53-3.53A4.34,4.34,0,0,1,22.59,86.74Z"/>
        <path d="M7.06,75.8a6.79,6.79,0,1,0,6.78,6.79A6.79,6.79,0,0,0,7.06,75.8Zm0,2.46a4.33,4.33,0,1,1-4.33,4.33A4.33,4.33,0,0,1,7.06,78.26Z"/>
    </g>
    <path fill="#b8d3f4" d="M104.66,29.92a19.61,19.61,0,0,1-3,10.39L109.37,48a30.3,30.3,0,0,0,6.13-18.11,30.3,30.3,0,0,0-6.13-18.11l-7.69,7.72a19.2,19.2,0,0,1,3,10.39Z"/>
    <path fill="#3385ff" d="M85.5,49.13a19.21,19.21,0,0,1,0-38.42,17.91,17.91,0,0,1,10.37,3.15l7.7-7.72A30,30,0,1,0,85.5,60a30.24,30.24,0,0,0,18.23-6.14L96,46.14a19.63,19.63,0,0,1-10.53,3Z"/>
</svg>
