<svg t="1625651193815" class="icon" viewBox="0 0 1024 1024" version="1.1" xmlns="http://www.w3.org/2000/svg" p-id="784" xmlns:xlink="http://www.w3.org/1999/xlink" width="16" height="16">
    <defs>
    </defs>
    <path d="M959.2 383.9c-0.3-82.1-66.9-148.6-149.1-148.6H575.9l21.6 85.2 201 43.7c18.3 4.2 32.1 20.3 32.9 39.7 0.1 0.5 0.1 216.1 0 216.6-0.8 19.4-14.6 35.5-32.9 39.7l-201 43.7-21.6 85.3h234.2c82.1 0 148.8-66.5 149.1-148.6V383.9zM225.5 660.4c-18.3-4.2-32.1-20.3-32.9-39.7-0.1-0.6-0.1-216.1 0-216.6 0.8-19.4 14.6-35.5 32.9-39.7l201-43.7 21.6-85.2H213.8c-82.1 0-148.8 66.4-149.1 148.6V641c0.3 82.1 67 148.6 149.1 148.6H448l-21.6-85.3-200.9-43.9z m200.9-158.8h171v21.3h-171z" p-id="785" fill="#ff6a00"></path>
</svg>