<svg xmlns="http://www.w3.org/2000/svg" width="14" height="14" viewBox="0 0 14 14">
    <g fill="#656565" opacity="0.9">
        <path d="M10.41,7h0a3.58,3.58,0,0,0-.58-1.87A3.63,3.63,0,0,0,8.42,3.78v6.44A3.34,3.34,0,0,0,10.41,7Z"/>
        <path d="M12.43,2.49A6.86,6.86,0,0,0,8.42,0V1.65a5.49,5.49,0,0,1,4,5.35,5.49,5.49,0,0,1-4,5.35V14a6.86,6.86,0,0,0,4-2.49A7,7,0,0,0,14,7,7,7,0,0,0,12.43,2.49Z"/>
        <polygon points="0 4.61 0 9.4 2.81 9.4 6.81 13.4 6.81 0.6 2.81 4.61 0 4.61"/>
    </g>
</svg>