<svg xmlns="http://www.w3.org/2000/svg" viewBox="0 0 10.47 12">
    <path d="M4.81,12c0-1.8-3-4.81-4.81-4.81,1.8,0,4.81-3,4.81-4.8,0,1.8,3,4.8,4.8,4.8C7.81,7.19,4.81,10.2,4.81,12Z"
          fill="#4285f4"/>
    <path d="M4.81,9.09a2.59,2.59,0,0,0-1.9-1.9A2.57,2.57,0,0,0,4.81,5.3,2.56,2.56,0,0,0,6.7,7.19,2.57,2.57,0,0,0,4.81,9.09Z"
          fill="#0f77f2"/>
    <path d="M8.16,5.3A3.15,3.15,0,0,0,5.84,3,3.15,3.15,0,0,0,8.16.67,3.15,3.15,0,0,0,10.47,3,3.15,3.15,0,0,0,8.16,5.3Z"
          fill="#4285f4"/>
    <path d="M1.41,11.83A1.6,1.6,0,0,0,.22,10.64a1.62,1.62,0,0,0,1.19-1.2,1.63,1.63,0,0,0,1.19,1.2A1.62,1.62,0,0,0,1.41,11.83Z"
          fill="#4285f4"/>
    <path d="M3,3.31A2.26,2.26,0,0,0,1.29,1.65,2.25,2.25,0,0,0,3,0,2.25,2.25,0,0,0,4.6,1.65,2.26,2.26,0,0,0,3,3.31Z"
          fill="#4285f4"/>
</svg>