<svg xmlns="http://www.w3.org/2000/svg" viewBox="0 0 16 16">
    <g fill="#CED0D6">
        <path d="M5.65,5.09a1,1,0,0,0,.74.25A1.16,1.16,0,0,0,7.13,5a2.26,2.26,0,0,0,.56-.81,2.84,2.84,0,0,0,0-2A2.07,2.07,0,0,0,7,1.19,1.3,1.3,0,0,0,6.18,1a1.71,1.71,0,0,0-.53.22A1.91,1.91,0,0,0,5,2.14,3.5,3.5,0,0,0,5,4a2.3,2.3,0,0,0,.7,1Zm3.52,0a1.37,1.37,0,0,0,.88.35,1.12,1.12,0,0,0,.77-.18,1.62,1.62,0,0,0,.6-.59,4.74,4.74,0,0,0,.42-.88A2.17,2.17,0,0,0,11.91,3,2.06,2.06,0,0,0,11.45,2a1.66,1.66,0,0,0-.63-.52,1.15,1.15,0,0,0-.56-.11,1.44,1.44,0,0,0-.64.32A2.36,2.36,0,0,0,9,2.39a2.07,2.07,0,0,0-.32.84,3.15,3.15,0,0,0,0,1,1.7,1.7,0,0,0,.43.88ZM4.28,8a1.81,1.81,0,0,0,.49-.77,3.76,3.76,0,0,0,.11-1.37,1.49,1.49,0,0,0-.14-.53,2.13,2.13,0,0,0-.88-1,1.47,1.47,0,0,0-.92-.14,1.24,1.24,0,0,0-.84.56,3.11,3.11,0,0,0-.49,1.34A2.18,2.18,0,0,0,1.68,7a2.08,2.08,0,0,0,.63,1.09,1.36,1.36,0,0,0,.88.32A1.63,1.63,0,0,0,4.28,8ZM14.41,7a2.16,2.16,0,0,0-.25-.78,1.62,1.62,0,0,0-.67-.7,1.77,1.77,0,0,0-1.62,0,1.56,1.56,0,0,0-.56.67,3.05,3.05,0,0,0-.21,1.12,3.64,3.64,0,0,0,.11,1.09,1.11,1.11,0,0,0,.45.67,1.66,1.66,0,0,0,.88.32,2.05,2.05,0,0,0,.78,0A1.14,1.14,0,0,0,14,8.89a1.63,1.63,0,0,0,.32-.74A2.94,2.94,0,0,0,14.41,7Zm-1,5.31a2.29,2.29,0,0,0-.63-1.37,1.94,1.94,0,0,0-.25-.22c-.45-.38-.91-.8-1.37-1.23A12.76,12.76,0,0,1,9.9,8,2.83,2.83,0,0,0,8.71,6.85a2.12,2.12,0,0,0-1.06-.17,2.38,2.38,0,0,0-1.58.91A1.7,1.7,0,0,0,5.83,8a7.21,7.21,0,0,1-1,1.19c-.22.21-.43.39-.64.57s-.24.21-.35.31a4,4,0,0,0-1.09,1.2,2.8,2.8,0,0,0-.32,1.05,2.54,2.54,0,0,0,.15.92A2.62,2.62,0,0,0,3,14.1a2,2,0,0,0,1.41.73,9.17,9.17,0,0,0,2-.1c.28,0,.56-.14.88-.18a4.85,4.85,0,0,1,1.86.14,5.74,5.74,0,0,0,1.55.29,2.84,2.84,0,0,0,1.58-.32,1.9,1.9,0,0,0,.81-.85,2.34,2.34,0,0,0,.35-1.54ZM7.51,13.71H5.9a2.32,2.32,0,0,1-.53,0,1.4,1.4,0,0,1-.88-.59,1.42,1.42,0,0,1-.32-.74,4,4,0,0,1,0-.85,1.77,1.77,0,0,1,.46-.81,2.38,2.38,0,0,1,.67-.42,1.16,1.16,0,0,1,.31-.07h.95V8.86h.92c0,1.65,0,3.27,0,4.85Zm3.63,0H8.92a1.27,1.27,0,0,1-.63-.25.92.92,0,0,1-.32-.7V10.37h.92v2.21a.32.32,0,0,0,.1.25.41.41,0,0,0,.28.11h1V10.33h.92Zm0,0"/>
        <path d="M5.58,11.11a.88.88,0,0,0-.46.42,1.39,1.39,0,0,0-.1.53,1.19,1.19,0,0,0,.17.59.66.66,0,0,0,.64.32h.73v-1.9h-.8s-.11,0-.18,0Zm0,0"/>
    </g>
</svg>