<svg xmlns="http://www.w3.org/2000/svg" width="16" height="16" viewBox="0 0 16 16">
    <path fill="#CED0D6" d="M13.18,3.88,8.4,1.11a.77.77,0,0,0-.8,0L2.82,3.89a.81.81,0,0,0-.4.69v5.56a.81.81,0,0,0,.4.7L7.6,13.61h0L10,15V13.13h0v-.23a.4.4,0,0,1,.19-.33l.13-.07.08,0h0l2.79-1.62a.81.81,0,0,0,.4-.7V4.58A.81.81,0,0,0,13.18,3.88Z"/>
    <path fill="#142c46" d="M10.8,6.92a.81.81,0,0,0-1.14,0v0L7.44,5.65a.82.82,0,0,0-.22-.82A.83.83,0,1,0,6.07,6,.81.81,0,0,0,7.22,6l0,0L9.43,7.27h0a.84.84,0,0,0,.21.87.81.81,0,0,0,1.14,0A.83.83,0,0,0,10.8,6.92Z"/>
    <path fill="#142c46" d="M9.59,8.29,9.2,8.06,7.26,9.18l0,0a.81.81,0,0,0-1.15,0,.83.83,0,1,0,1.15,1.2.85.85,0,0,0,.23-.81Z"/>
</svg>