<svg xmlns="http://www.w3.org/2000/svg" width="16" height="16" viewBox="0 0 16 16">
    <rect width="16" height="16" fill="none"/>
    <path fill="#5e5e5e" opacity="0.3" d="M2,3H12V15H2Z"/>
    <path fill="#5e5e5e" d="M2,3V15H12V3Zm8.79,4H9.73a9.58,9.58,0,0,1-2,3.47c.41.33.84.63,1.28.92l-.43,1A9.21,9.21,0,0,1,7,11.2a8.91,8.91,0,0,1-3.39,1.91L3.28,12a9.06,9.06,0,0,0,2.91-1.62,10.25,10.25,0,0,1-1.56-2.3h1.2A8.25,8.25,0,0,0,6.89,9.64,8.2,8.2,0,0,0,8.45,7H3.21V6H6.47V4.89H7.53V6h3.26Z"/>
    <polygon fill="#5E5E5E" points="4 1 4 2 13 2 13 13 14 13 14 1 4 1"/>
</svg>