<svg xmlns="http://www.w3.org/2000/svg" width="16" height="16"
     viewBox="0 0 16 16">
    <linearGradient id="LG_1" gradientUnits="userSpaceOnUse" x1="0.8467" y1="15.829" x2="1.2577" y2="13.211"
                    gradientTransform="matrix(5 0 0 -5 0 80)">
        <stop offset="0" style="stop-color:#3DBFFC"/>
        <stop offset="1" style="stop-color:#183EFB"/>
    </linearGradient>
    <linearGradient id="LG_2" gradientUnits="userSpaceOnUse" x1="1.0108" y1="13.1362" x2="2.3595" y2="14.2206"
                    gradientTransform="matrix(5 0 0 -5 0 80)">
        <stop offset="0" style="stop-color:#33BEF0"/>
        <stop offset="0.159" style="stop-color:#32B9F0"/>
        <stop offset="0.341" style="stop-color:#2FACF2"/>
        <stop offset="0.533" style="stop-color:#2A95F4"/>
        <stop offset="0.733" style="stop-color:#2475F6"/>
        <stop offset="0.936" style="stop-color:#1B4CFA"/>
        <stop offset="1" style="stop-color:#183EFB"/>
    </linearGradient>
    <linearGradient id="LG_3" gradientUnits="userSpaceOnUse" x1="1.6855" y1="14.7967" x2="3.1478" y2="13.3345"
                    gradientTransform="matrix(5 0 0 -5 0 80)">
        <stop offset="0" style="stop-color:#3DBFFD"/>
        <stop offset="1" style="stop-color:#1DE9B6"/>
    </linearGradient>

    <path fill="url(#LG_1)"
          d="M6.163,12.813l0.827-0.496V3.8c0-0.556-0.271-1.076-0.726-1.394L4.389,1.093C4.05,0.856,3.585,1.098,3.585,1.512v9.743c0,0.075,0.007,0.189,0.011,0.263C3.711,12.742,5.077,13.465,6.163,12.813z"/>
    <path fill="url(#LG_2)"
          d="M11.307,9.69L6.99,12.276l0,0l-0.827,0.496c-1.086,0.652-2.398-0.031-2.567-1.295C3.676,13.442,5.337,15,7.33,15c0.668,0,1.4-0.278,1.896-0.528l2.327-1.405c0.278-0.168,0.518-0.366,0.732-0.581C13.086,11.567,12.689,9.951,11.307,9.69z"/>
    <path fill="url(#LG_3)"
          d="M11.632,6.852l-2.59-1.295c-0.42-0.21-0.877,0.21-0.703,0.647l0.597,2.004 c0.17,0.425,0.504,0.763,0.926,0.939l1.383,0.576c1.381,0.261,1.822,1.788,1.039,2.763C13.935,10.826,13.829,7.951,11.632,6.852z"/>
</svg>
