<svg xmlns="http://www.w3.org/2000/svg" viewBox="0 0 16 16">
    <g fill="#B18FC5">
        <path d="M14,2.08A6.24,6.24,0,0,0,9.92,0c-.06,0-.16.05-.22.05A4.1,4.1,0,0,0,10,6a4.44,4.44,0,0,0,3.2,1.44,3.86,3.86,0,0,0,2.77-1.18c.06,0,.06-.1.06-.21A5.92,5.92,0,0,0,14,2.08ZM15,5.6A5.31,5.31,0,0,1,12.1,4a5.49,5.49,0,0,1-1.65-2.88A.26.26,0,0,1,10.72.8a.25.25,0,0,1,.26.27,4.73,4.73,0,0,0,1.5,2.5A5.09,5.09,0,0,0,15,5.07a.25.25,0,0,1,.27.26A.26.26,0,0,1,15,5.6Z"/>
        <path d="M10.29,10.4c0-.05-.16,0-.21,0a1.22,1.22,0,0,1-.75.21,3.76,3.76,0,0,1-2.5-1.38C5.6,8,5.12,6.77,5.65,6a.15.15,0,0,0,0-.21c-.05,0-.1-.16-.16-.16a5.11,5.11,0,0,0-1.28-.21A2.94,2.94,0,0,0,2,6.24c-.54.53-.43,1.39.26,2.56a17.51,17.51,0,0,0,2.24,2.77c.64.64,2.94,2.83,4.48,2.83a1.15,1.15,0,0,0,.86-.32,3.5,3.5,0,0,0,.64-3.47c-.11-.1-.16-.21-.22-.21Z"/>
    </g>
    <g fill="#707070">
        <path d="M11.57,7.73a5.52,5.52,0,0,1-2-1.28A5.12,5.12,0,0,1,8.37,4.59c0-.11-.11-.16-.21-.16s-.16,0-.22.05c-1,1-1.6,1.49-1.76,1.65-.42.43-.37,1.34,1,2.72a3.44,3.44,0,0,0,2.13,1.23.73.73,0,0,0,.59-.21c.21-.22,1.06-1.07,1.76-1.71a.25.25,0,0,0,.05-.27c-.05-.1-.05-.1-.16-.16Z"/>
        <path d="M4.05,12a6.27,6.27,0,0,1-.53-.59.29.29,0,0,0-.21-.11.46.46,0,0,0-.22.11L0,15.52A1.13,1.13,0,0,0,.05,16c.06,0,.16.05.22.05A.22.22,0,0,0,.43,16l4.16-3.1a.26.26,0,0,0,.1-.21.41.41,0,0,0-.1-.21A4.36,4.36,0,0,0,4.05,12Z"/>
    </g>
</svg>