<svg xmlns="http://www.w3.org/2000/svg" viewBox="0 0 24 24" width="16" height="16">
    <path fill="#CED0D6" d="M15.972 3.118a1 1 0 0 1 .412 1.355L13.17 10.5h1.33c.554 0 1.002.448 1.002 1.001v2.75c0 .69.56 1.25 1.249 1.25H20a1.001 1.001 0 1 1 0 2.002h-3.25a3.251 3.251 0 0 1-3.25-3.253v-1.748h-.75a1.751 1.751 0 0 1-1.544-2.576l3.411-6.397c.26-.488.867-.672 1.355-.412ZM4.065 11.322c.552.029.977.5.948 1.052a7.99 7.99 0 0 0 3.202 6.83 1.001 1.001 0 0 1-1.2 1.603 9.993 9.993 0 0 1-4.002-8.538 1 1 0 0 1 1.052-.947Zm3.995.209a1 1 0 0 1 .947 1.052 3.994 3.994 0 0 0 1.602 3.415 1.001 1.001 0 0 1-1.2 1.603 5.997 5.997 0 0 1-2.402-5.123c.03-.552.5-.976 1.053-.947Z"/>
</svg>