<svg width="16" height="16" viewBox="0 0 16 16" fill="none" xmlns="http://www.w3.org/2000/svg">
  <path
    d="M5.71574 10.3326L5.66326 10.0743L5.42049 9.97162L1.62214 8.36546C1.4681 8.30032 1.45748 8.08802 1.60346 8.00766L5.2062 6.02455L5.43757 5.8972L5.46281 5.6343L5.84228 1.6814C5.85767 1.52109 6.05028 1.44216 6.17456 1.55046L9.24571 4.22649L9.43598 4.39229L9.68238 4.33768L13.7338 3.43968C13.8986 3.40315 14.0288 3.57057 13.9596 3.71834L12.2306 7.40953L12.1143 7.65784L12.2612 7.8894L14.4675 11.3685C14.5561 11.5081 14.4444 11.6921 14.2748 11.6728L10.0524 11.1931L9.7953 11.1639L9.62298 11.3569L6.87696 14.4323C6.76623 14.5564 6.56247 14.4996 6.52994 14.3395L5.71574 10.3326Z"
    stroke="#CED0D6"/>
</svg>
