<svg xmlns="http://www.w3.org/2000/svg" width="16" height="16" viewBox="0 0 16 16"><rect id="frame" width="16" height="16" fill="none"/><g fill="#40B6E0" fill-opacity=".6" fill-rule="evenodd"><path d="M3 11c-.837 0-1-.384-1-.573v-.809c0-.781.391-.642 1-.618h.189c.275.685.44 1.339.811 2H3zm5.5-4.533c-4.6 0-6-.89-6.5-1.717 0 .345.273 1.684.82 3.263C1.625 8.078 1 8.771 1 9.618v.809C1 11.191 1.655 12 3.104 12h1.362l.315.045c.571.819 1.228 1.517 1.976 1.955h3.486C13.433 12.131 15 5.578 15 4.75c-.52.814-1.9 1.717-6.5 1.717z"/><path d="M8.5 4.366c-3.225 0-4.241-.343-5.428-.836A.364.364 0 0 0 3 3.727C3 4.43 5.463 5 8.5 5S14 4.43 14 3.727a.364.364 0 0 0-.072-.197c-.79.407-2.203.836-5.428.836M10.25 3c-.579 0-1.077-.225-1.077-.225l.211-.018.453.08c.534 0 1.358-.555 1.358-.837 0-.282-.411-.477-.945-.477-.513 0-1.105.337-1.45.6-.236.18-1.07.877-2.05.877C5.769 3 5 2.561 5 2c0-.561.789-1 1.75-1 .681 0 1.136.198 1.136.198l-.71-.101L6.782 1c-.533 0-.907.75-.907 1s.341.462.875.462c.513 0 1.244-.461 1.589-.724C8.574 1.56 9.27 1 10.25 1c.981 0 1.75.439 1.75 1 0 .561-.811 1-1.75 1"/></g></svg>