<svg xmlns="http://www.w3.org/2000/svg" width="16" height="16" viewBox="0 0 16 16">
    <path fill="#AFB1B3" d="M6.12.73V2.26h4.59V3.79H9.21A14,14,0,0,1,6.44,8.61,11.39,11.39,0,0,0,8.23,9.92l-.57,1.44A13,13,0,0,1,5.36,9.7,12.77,12.77,0,0,1,.61,12.42L.2,10.94A11.25,11.25,0,0,0,4.28,8.61,13.84,13.84,0,0,1,2.12,5.32H3.83a12.27,12.27,0,0,0,1.53,2.2A12.37,12.37,0,0,0,7.59,3.79H0V2.26H4.59V.73Z"/>
    <path fill="#3592C4" d="M10.83,11.64h2.35L12,8.48Zm1.91-5.11L16,15.25H14.54l-.82-2.18H10.28l-.82,2.18H8l3.27-8.71Z"/>
</svg>