<svg xmlns="http://www.w3.org/2000/svg" width="16" height="16" viewBox="0 0 16 16">
    <path fill="#D9D9D9" d="M14.2,16A1.81,1.81,0,0,0,16,14.2V5a1.79,1.79,0,0,0-1.8-1.79H4.54L8.71,16Z"/>
    <polygon fill="#4352B8" points="11.45 12.97 8.73 15.99 7.75 12.97 11.45 12.97"/>
    <path fill="#617D8B" d="M15,7.64V7H12V6H11V7H9.07v.63H12.9a5.34,5.34,0,0,1-1.1,1.93C11,8.64,11,8.34,11,8.34h-.8s0,.45,1.13,1.73a6.87,6.87,0,0,1-.63.58l.25.78a11.25,11.25,0,0,0,.85-.82c.47.51,1.08,1.12,1.87,1.86L14.2,12c-.85-.77-1.47-1.38-1.92-1.86a5.65,5.65,0,0,0,1.36-2.46Z"/>
    <path fill="#4F8BF5" d="M1.8,0A1.81,1.81,0,0,0,0,1.8v9.38A1.8,1.8,0,0,0,1.8,13h9.65L7.28,0Z"/>
    <path fill="#FFFFFF" d="M6.77,6H4.49V7H5.8a1.22,1.22,0,0,1-1.31.95A1.45,1.45,0,0,1,4.41,5a1.34,1.34,0,0,1,1,.32l.72-.72A2.51,2.51,0,0,0,4,4.08,2.42,2.42,0,0,0,2.1,5.91a2.46,2.46,0,0,0,2.39,3A2.31,2.31,0,0,0,6.83,6.48,1.67,1.67,0,0,0,6.77,6Z"/>
    <path fill="#FFFFFF" opacity="0.2" d="M8.57,3.22H14.2A1.8,1.8,0,0,1,16,5v5.67Z"/>
</svg>