<svg xmlns="http://www.w3.org/2000/svg" width="16" height="16" viewBox="0 0 16 16" fill="none">
  <path fill="#AFB1B3" d="M6.1,1v1.5h4.6v1.5h-1.5c-.6,1.8-1.5,3.5-2.8,4.9.6.5,1.2.9,1.8,1.3l-.6,1.4c-.8-.5-1.6-1-2.3-1.7-1.4,1.2-3,2.2-4.8,2.7l-.4-1.5c1.5-.5,2.9-1.3,4.1-2.3-.9-1-1.6-2.1-2.2-3.3h1.7c.4.8.9,1.5,1.5,2.2,1-1.1,1.7-2.3,2.2-3.7H0v-1.5h4.6v-1.5h1.5Z"/>
  <circle fill="#DB5C5C" cx="12.5" cy="12" r="3.5"/>
  <path fill="white" d="M12.5,9.5c-.3,0-.5.2-.5.5v2c0,.3.2.5.5.5s.5-.2.5-.5v-2c0-.3-.2-.5-.5-.5Z"/>
  <path fill="white" d="M12.5,14.5c.3,0,.5-.2.5-.5s-.2-.5-.5-.5-.5.2-.5.5.2.5.5.5Z"/>
</svg>