<svg xmlns="http://www.w3.org/2000/svg" width="16" height="16" viewBox="0 0 16 16">
    <path fill="#5E5E5E" d="M6.1,1V2.5h4.6V4H9.2A13.32,13.32,0,0,1,6.4,8.9a20.28,20.28,0,0,0,1.8,1.3l-.6,1.4A12.42,12.42,0,0,1,5.3,9.9,12.69,12.69,0,0,1,.5,12.6L.1,11.1A12.75,12.75,0,0,0,4.2,8.8,14.61,14.61,0,0,1,2,5.5H3.7A10.71,10.71,0,0,0,5.2,7.7,11.71,11.71,0,0,0,7.4,4H0V2.5H4.6V1Z"/>
    <path fill="#1E88E5" d="M16,8.7a3,3,0,0,1-.2,1,1.79,1.79,0,0,1-.5.7,2.18,2.18,0,0,1-.8.5c-.3.1-.6.2-1,.3h0a2.09,2.09,0,0,1,.6.4,1.88,1.88,0,0,1,.4.9l.6,2.4h-2l-.5-2.2a2,2,0,0,0-.4-.8.91.91,0,0,0-.7-.3h-.3L10.6,15h-2l1.8-8.4h2.9a3.73,3.73,0,0,1,1.2.2,2.18,2.18,0,0,1,.8.5,1.79,1.79,0,0,1,.5.7A2.54,2.54,0,0,1,16,8.7ZM14,9a1.14,1.14,0,0,0-.3-.8c-.2-.2-.5-.2-.9-.2H12l-.5,2.3h.8a2.2,2.2,0,0,0,.8-.1,1.07,1.07,0,0,0,.5-.3c.1-.1.2-.3.3-.4A.75.75,0,0,0,14,9Z"/>
</svg>