<svg xmlns="http://www.w3.org/2000/svg" width="16" height="16" viewBox="0 0 16 16">
    <rect id="frame" width="16" height="16" fill="none"/>
    <path id="ali" fill="#595bd4"
          d="M6.28,1.5.08,13.74a.78.78,0,0,0,.7,1.12H3.71L10.35,12l1,2.88h3.87a.77.77,0,0,0,.73-1l-1.85-5-1.41.6,1.51,4.09H10.9l1.79-4.09L3,13.53H2.12a.11.11,0,0,1-.1-.16L7.41,2.59a.23.23,0,0,1,.2-.12H10a.23.23,0,0,1,.21.14l1.38,3.8L8.84,7.54l-.31-1L6.81,10l4.54-1.94,2.12-.91L11.39,1.57a.65.65,0,0,0-.62-.43H6.87A.66.66,0,0,0,6.28,1.5Z"/>
</svg>