<svg xmlns="http://www.w3.org/2000/svg" width="16" height="16" viewBox="0 0 16 16">
<path fill="#ced0d6" d="M13.18,3.88L8.4,1.11c-0.25-0.14-0.55-0.14-0.8,0L2.82,3.89c-0.25,0.14-0.4,0.41-0.4,0.69v5.56
	c0,0.29,0.15,0.55,0.4,0.7l4.78,2.78c0,0,0.01,0,0.01,0.01L9.99,15l-0.01-1.2l0-0.67l0,0.01v-0.22c0-0.14,0.08-0.26,0.19-0.34
	l0.12-0.07l0.08-0.05l0,0l2.79-1.62c0.25-0.14,0.4-0.41,0.4-0.7V4.58C13.58,4.29,13.43,4.03,13.18,3.88z M7.45,9.53
	c0.07,0.28,0,0.59-0.23,0.81c-0.32,0.31-0.83,0.31-1.15,0c-0.34-0.33-0.34-0.87,0-1.2c0.32-0.31,0.83-0.31,1.15,0
	c0.01,0.01,0.02,0.03,0.04,0.05L9.2,8.06l0.4,0.22L7.45,9.53z M10.8,8.13c-0.32,0.31-0.83,0.31-1.15,0
	C9.42,7.89,9.35,7.56,9.45,7.26L9.43,7.27L7.25,6C7.24,6.01,7.23,6.02,7.22,6.03c-0.32,0.31-0.83,0.31-1.15,0
	c-0.34-0.33-0.34-0.87,0-1.2c0.32-0.31,0.83-0.31,1.15,0c0.23,0.22,0.3,0.53,0.22,0.82l2.2,1.29c0,0,0.01-0.01,0.01-0.01
	c0.32-0.31,0.83-0.31,1.15,0C11.15,7.25,11.15,7.8,10.8,8.13z"/>
</svg>