<svg xmlns="http://www.w3.org/2000/svg" width="16" height="16" viewBox="0 0 16 16">
    <path fill="#fbbb00" d="M4.66,9.25l-.42,1.56-1.52,0A5.9,5.9,0,0,1,2,8a6,6,0,0,1,.67-2.76h0L4,5.49l.6,1.35A3.41,3.41,0,0,0,4.43,8,3.47,3.47,0,0,0,4.66,9.25Z"/>
    <path fill="#518ef8" d="M13.9,6.88A6.86,6.86,0,0,1,14,8a6.38,6.38,0,0,1-.13,1.25,6,6,0,0,1-2.11,3.43h0L10,12.59,9.8,11.08a3.6,3.6,0,0,0,1.54-1.83H8.13V6.88H13.9Z"/>
    <path fill="#28b446" d="M11.76,12.68h0a6,6,0,0,1-9-1.84L4.66,9.25A3.56,3.56,0,0,0,9.8,11.08Z"/>
    <path fill="#f14336" d="M11.83,3.38,9.89,5A3.57,3.57,0,0,0,4.63,6.84l-2-1.6h0a6,6,0,0,1,9.16-1.86Z"/>
</svg>