<svg xmlns:xlink="http://www.w3.org/1999/xlink"
     version="1.1"
     id="Layer_1"
     xmlns="http://www.w3.org/2000/svg"
     x="0px"
     y="0px"
     width="100%"
     viewBox="0 0 257 257"
     enable-background="new 0 0 257 257"
     xml:space="preserve">
<path fill="#003893" opacity="1.000000" stroke="none"
      d="
M258.000000,110.000000
	C258.000000,122.354225 258.000000,134.708450 257.604553,147.592712
	C256.819611,148.763992 256.188110,149.365479 256.075409,150.052155
	C250.676010,182.942505 234.714798,209.818619 208.780090,230.396591
	C191.372131,244.209000 171.398758,253.037430 149.134277,256.105835
	C148.350723,256.213837 147.708237,257.345459 147.000000,258.000000
	C135.645767,258.000000 124.291542,258.000000 112.499268,257.590851
	C111.389000,256.802887 110.750320,256.177704 110.039696,256.080963
	C85.364037,252.721237 63.614502,242.692535 45.006378,226.361252
	C22.736496,206.816223 8.477506,182.411743 2.906441,153.121704
	C2.754431,152.322510 1.656718,151.703201 1.000001,151.000000
	C1.000000,136.979111 1.000000,122.958214 1.394276,108.408066
	C2.159590,107.403549 2.781216,106.968826 2.865653,106.447166
	C6.708238,82.707443 16.849506,61.812355 32.702217,43.990532
	C51.897137,22.411348 75.778534,8.425542 104.377373,2.936846
	C105.340027,2.752094 106.129700,1.665972 107.000000,0.999999
	C121.687561,1.000000 136.375122,1.000000 151.486359,1.397165
	C152.252625,2.127222 152.551956,2.685730 152.943939,2.760854
	C181.997101,8.329001 206.320007,22.003782 225.936340,44.320450
	C241.976624,62.568787 251.733826,83.608299 256.076050,107.359550
	C256.252472,108.324692 257.338013,109.123627 258.000000,110.000000
M210.459320,132.989700
	C204.060577,125.910126 197.118774,119.242165 191.375992,111.665413
	C179.377090,95.834610 170.932831,78.164917 166.984665,58.572849
	C164.697845,47.224957 160.771469,36.611023 151.030945,29.759830
	C128.641006,14.011410 98.427170,25.857178 92.963455,53.293194
	C89.750793,69.425575 83.889549,84.575043 75.739479,98.948418
	C66.768784,114.769028 54.237526,127.443535 41.504570,140.059006
	C35.238720,146.267059 32.320789,154.161453 32.056511,162.858856
	C31.651262,176.195587 37.736511,186.809875 48.165630,194.271606
	C56.842461,200.479660 66.887421,202.556076 77.868904,199.706161
	C90.911705,196.321304 104.076317,192.630341 117.409119,191.319321
	C137.632233,189.330765 157.706467,191.916382 177.103989,198.540985
	C192.472473,203.789597 205.957367,200.399384 216.782318,188.520859
	C223.853226,180.761780 227.341995,171.435211 226.171158,160.462463
	C224.960114,149.112747 218.990723,140.806976 210.459320,132.989700
z"/>
</svg>