<svg xmlns="http://www.w3.org/2000/svg" viewBox="0 0 32 32" width="32" height="32">
    <defs>
        <linearGradient id="b6b42b89-9b82-4492-b19b-a2179764c27b" x1="-0.95" y1="32.95" x2="29.74" y2="2.26"
                        gradientTransform="matrix(1, 0, 0, -1, 0, 32)" gradientUnits="userSpaceOnUse">
            <stop offset="0.17" stop-color="#07c3f2"/>
            <stop offset="0.97" stop-color="#087cfa"/>
        </linearGradient>
    </defs>
    <path d="M0,0V32H32V0ZM11.67,18.45l-.23-.23S9.79,19.35,9,19.8a29.06,29.06,0,0,1-4.52,2.49l-1.81-3a26.26,26.26,0,0,0,6-2.72l.38-.22L8.88,16a12.38,12.38,0,0,1-2.1-3.32c-.23-.45-.38-1-.61-1.5H9.26c.08.22.23.45.3.68a13.07,13.07,0,0,0,1.58,2.33l.23.3.23-.3a10.18,10.18,0,0,0,1.58-2.33,10.63,10.63,0,0,0,.9-2.71l.08-.61H2.86V5.72H10V2.26h2.87V5.72H20V8.58H17.32l-.08.68a13.52,13.52,0,0,1-1,3.46A17.79,17.79,0,0,1,14.08,16l-.23.3.61.38c.82.45,1.65,1,2.63,1.5l-1.43,2.86A26.42,26.42,0,0,1,11.67,18.45Zm14.91,9.41-1.66-4.52H19.35l-1.66,4.52H14.08l6.4-15.81h3.31l6.4,15.81ZM22.14,16l1.8,4.59H20.33Z"
          fill="url(#b6b42b89-9b82-4492-b19b-a2179764c27b)"/>
</svg>
