<svg width="40" height="40" viewBox="0 0 40 40" fill="none" xmlns="http://www.w3.org/2000/svg">
    <path d="M4 4V36H36V4H4ZM15.6706 22.4471L15.4447 22.2212C15.4447 22.2212 13.7882 23.3506 13.0353 23.8024C11.3035 24.9318 9.64706 25.8353 8.51765 26.2871L6.71059 23.2753C8.89412 22.6729 11.0776 21.5435 12.7341 20.5647L13.1106 20.3388L12.8847 20.0376C11.9812 18.9835 11.2282 17.8541 10.7765 16.7247C10.5506 16.2729 10.4 15.7459 10.1741 15.2188H13.2612C13.3365 15.4447 13.4871 15.6706 13.5624 15.8965C14.0141 16.7247 14.5412 17.5529 15.1435 18.2306L15.3694 18.5318L15.5953 18.2306C16.1976 17.5529 16.8 16.7247 17.1765 15.8965C17.6282 14.9929 17.9294 14.0141 18.08 13.1859L18.1553 12.5835H6.86118V9.72235H14.0141V6.25882H16.8753V9.72235H24.0282V12.5835H21.3176L21.2424 13.2612C21.0918 14.3153 20.7153 15.52 20.1882 16.7247C19.6612 17.8541 18.9082 18.9835 18.08 20.0376L17.8541 20.3388L18.4565 20.7153C19.2847 21.1671 20.1129 21.6941 21.0918 22.2212L19.6612 25.0824C18.4565 24.4047 17.0259 23.5765 15.6706 22.4471ZM30.5788 31.8588L28.9224 27.3412H23.3506L21.6941 31.8588H18.08L24.48 16.0471H27.7929L34.1929 31.8588H30.5788ZM26.1365 20.0376L27.9435 24.6306H24.3294L26.1365 20.0376Z"
          fill="url(#paint0_linear)"/>
    <defs>
        <linearGradient id="paint0_linear" x1="3.05378" y1="3.05378" x2="33.7416" y2="33.7416"
                        gradientUnits="userSpaceOnUse">
            <stop offset="0.17" stop-color="#07C3F2"/>
            <stop offset="0.9699" stop-color="#087CFA"/>
        </linearGradient>
    </defs>
</svg>
